<?xml version="1.0" encoding="UTF-8"?>
<svg id="Layer_1" data-name="Layer 1" xmlns="http://www.w3.org/2000/svg" xmlns:xlink="http://www.w3.org/1999/xlink" viewBox="0 0 612.62 381.74">
  <defs>
    <style>
      .cls-1 {
        fill: #a7a7a7;
      }

      .cls-2 {
        fill: url(#linear-gradient-2);
      }

      .cls-3 {
        fill: #fff;
      }

      .cls-4 {
        fill: #eff4fc;
      }

      .cls-4, .cls-5, .cls-6, .cls-7, .cls-8, .cls-9, .cls-10, .cls-11 {
        fill-rule: evenodd;
      }

      .cls-5 {
        fill: #725df4;
      }

      .cls-12 {
        fill: #f9f9fd;
      }

      .cls-6 {
        fill: #5e95f4;
      }

      .cls-7 {
        fill: #bbd2fa;
      }

      .cls-8 {
        fill: #8bade9;
      }

      .cls-9 {
        fill: #a8c6fb;
      }

      .cls-13 {
        clip-path: url(#clippath);
      }

      .cls-10 {
        fill: #dce9ff;
      }

      .cls-14 {
        fill: none;
      }

      .cls-11 {
        fill: #fefefe;
      }

      .cls-15 {
        fill: #252525;
      }

      .cls-16 {
        fill: url(#linear-gradient);
      }

      .cls-17 {
        fill: #610a05;
      }
    </style>
    <clipPath id="clippath">
      <rect class="cls-14" x="21.12" y="24.75" width="591" height="356" rx="12" ry="12"/>
    </clipPath>
    <linearGradient id="linear-gradient" x1="187.74" y1="317.04" x2="378.43" y2="156.95" gradientTransform="translate(0 407.47) scale(1 -1)" gradientUnits="userSpaceOnUse">
      <stop offset="0" stop-color="#715cf3"/>
      <stop offset="1" stop-color="#5c99f3"/>
    </linearGradient>
    <linearGradient id="linear-gradient-2" x1="109.12" y1="309.18" x2="53.5" y2="330.33" gradientTransform="translate(0 407.47) scale(1 -1)" gradientUnits="userSpaceOnUse">
      <stop offset="0" stop-color="#f56161"/>
      <stop offset="1" stop-color="#ff8787"/>
    </linearGradient>
  </defs>
  <g>
    <path class="cls-17" d="M174.06,68.76L150.04,4.85l25.57,1.76-1.56,62.14Z"/>
    <path class="cls-17" d="M8.3,113.09l62.64,60.2-64.78,2.81,2.14-63Z"/>
  </g>
  <g class="cls-13">
    <g>
      <rect class="cls-12" x="21.12" y="24.75" width="591" height="356" rx="12" ry="12"/>
      <path class="cls-9" d="M572.49,217.9l-2.65,68.72-87.76-3.37,2.65-68.72c1.12-29.44,10.92-56.03,21.41-76.43,11.85-23.01,24.54-38.16,26.75-40.69l.18-.22,.14-.14s12.77,16.79,23.76,42.91c8.9,21.15,16.65,48.46,15.52,77.94Z"/>
      <path class="cls-10" d="M544.59,216.83l-2.65,68.72-32.33-1.25,2.65-68.72c1.02-26.73,4.62-51.33,8.57-71.07,5.28-26.49,11.11-44.32,12.05-47.11l.14-.38,.04,.16c.5,1.87,5.12,20.42,8.45,48.18,2.39,19.98,4.08,44.76,3.07,71.47Z"/>
      <path class="cls-5" d="M556.94,139.94c-4.68,2.63-9.9,4.48-15.44,5.4-3.33,.56-6.79,.8-10.3,.66-3.6-.14-7.03-.64-10.34-1.51-5.34-1.33-10.28-3.54-14.7-6.43,11.85-23.01,24.54-38.16,26.75-40.69l.14-.38,.04,.16,.14-.14s12.73,16.79,23.72,42.91Z"/>
      <path class="cls-9" d="M541.48,145.36c-3.33,.56-6.79,.8-10.3,.66-3.59-.14-7.03-.64-10.34-1.51,5.28-26.49,11.11-44.32,12.05-47.11l.14-.38,.04,.16c.46,1.87,5.1,20.44,8.41,48.18Z"/>
      <path class="cls-4" d="M551.88,188.5c-.46,11.99-10.56,21.33-22.55,20.86-11.99-.46-21.33-10.56-20.85-22.53,.46-11.99,10.56-21.33,22.53-20.85,11.97,.44,21.33,10.52,20.87,22.51Z"/>
      <path class="cls-5" d="M530.84,169.9c-9.78-.38-18.05,7.29-18.43,17.07-.38,9.78,7.29,18.05,17.07,18.43,9.78,.38,18.05-7.29,18.43-17.07,.4-9.8-7.25-18.05-17.07-18.43Zm-1.67,43.4c-14.14-.56-25.18-12.49-24.66-26.63,.56-14.14,12.49-25.18,26.63-24.66,14.16,.54,25.18,12.49,24.66,26.63-.52,14.14-12.47,25.2-26.63,24.66Z"/>
      <path class="cls-11" d="M544.03,183.82c-.18,4.8-4.22,8.51-9.02,8.33-4.8-.18-8.51-4.22-8.33-9.02,.18-4.8,4.22-8.51,9.02-8.33,4.78,.2,8.52,4.22,8.33,9.02Z"/>
      <path class="cls-5" d="M583.47,288.64c1.14-30.26-3.92-55-11.31-55.29-7.39-.28-14.32,24-15.5,54.26l26.81,1.02Z"/>
      <path class="cls-9" d="M576.18,288.34c1.14-30.26-.62-54.88-4-55-3.37-.12-7.03,24.26-8.23,54.54l12.23,.46Z"/>
      <path class="cls-9" d="M558.37,289.93l5.8,25.76,2.55-7.29,3.65,13.01,3.54-12.73,2.37,7.47,5.3-25.34-23.21-.88Z"/>
      <path class="cls-10" d="M561.42,290.05l4.28,18.98,1.89-5.38,2.69,9.6,2.59-9.38,1.73,5.5,3.94-18.68-17.11-.64Z"/>
      <path class="cls-5" d="M542.73,308.18c1.51-39.86-5.16-72.44-14.88-72.8-9.74-.38-18.86,31.59-20.44,71.45l35.32,1.35Z"/>
      <path class="cls-9" d="M533.13,307.82c1.51-39.86-.84-72.25-5.28-72.44s-9.28,31.97-10.85,71.81l16.13,.62Z"/>
      <path class="cls-9" d="M509.65,309.89l7.69,33.92,3.35-9.58,4.8,17.13,4.64-16.77,3.11,9.82,6.99-33.34-30.58-1.18Z"/>
      <path class="cls-10" d="M513.71,310.05l5.62,24.98,2.49-7.07,3.53,12.61,3.41-12.33,2.29,7.23,5.16-24.56-22.51-.86Z"/>
      <path class="cls-5" d="M495.43,285.23c1.12-30.28-3.92-55-11.31-55.29-7.39-.28-14.32,24-15.5,54.26l26.81,1.02Z"/>
      <path class="cls-9" d="M488.12,284.95c1.14-30.26-.64-54.86-4-55-3.37-.12-7.05,24.28-8.23,54.54l12.23,.46Z"/>
      <path class="cls-9" d="M470.31,286.53l5.8,25.77,2.57-7.27,3.65,13.01,3.51-12.75,2.37,7.47,5.32-25.32-23.23-.9Z"/>
      <path class="cls-10" d="M473.36,286.66l4.28,18.98,1.91-5.36,2.67,9.58,2.59-9.38,1.77,5.5,3.92-18.66-17.13-.66Z"/>
      <path class="cls-7" d="M503.08,328.55l-2.05,17.99,7.35-1.2-5.3-16.79Z"/>
      <path class="cls-7" d="M497.46,347.26l5.42-18.23-9.7,21.11,4.28-2.87Z"/>
      <path class="cls-8" d="M497.46,347.26l6.97,3.35-3.39-4.08,2.05-17.99-.2,.48-5.42,18.23Z"/>
      <path class="cls-6" d="M504.43,350.62l-.14-4.6-3.25,.52,3.39,4.08Z"/>
      <path class="cls-8" d="M499.69,351.22c.12-.44,.72-.24,.62,.14-.04,.2-.1,.42-.14,.62-.14,.46-.72,.24-.62-.14,.06-.18,.12-.4,.14-.62Zm36.73,10.62c.2,.36-.34,.7-.56,.32-.1-.18-.2-.36-.34-.54-.22-.38,.34-.7,.54-.34,.14,.18,.24,.36,.36,.56Zm-1.55-2.15c.28,.28-.16,.76-.48,.44-.14-.14-.28-.32-.42-.46-.3-.3,.16-.76,.46-.46,.14,.14,.28,.32,.44,.48Zm-1.99-1.75c.34,.26,0,.76-.36,.52-.16-.12-.34-.22-.52-.32-.38-.22-.04-.76,.32-.56,.18,.1,.38,.22,.56,.36Zm-2.39-1.18c.38,.1,.26,.74-.2,.6-.18-.06-.42-.14-.58-.18-.42-.1-.24-.72,.18-.62,.16,.04,.4,.12,.6,.2Zm-2.61-.56c.44,.04,.36,.68-.04,.64-.22-.02-.42-.02-.62-.02-.4,0-.44-.64,0-.64,.24,0,.46,.02,.66,.02Zm-2.65,.08c.44-.04,.48,.6,.08,.64-.22,.02-.42,.06-.62,.1-.42,.06-.52-.56-.12-.64,.24-.04,.46-.06,.66-.1Zm-2.57,.56c.44-.12,.58,.5,.18,.62-.22,.06-.4,.12-.6,.2-.46,.14-.56-.52-.2-.6,.22-.1,.42-.18,.62-.22Zm-2.45,.92c.38-.18,.66,.42,.26,.58l-.58,.26c-.42,.18-.64-.4-.3-.58,.24-.08,.42-.18,.62-.26Zm-2.31,1.23c.38-.22,.7,.34,.34,.54l-.54,.34c-.4,.24-.7-.34-.34-.54l.54-.34Zm-2.17,1.49c.34-.26,.72,.24,.4,.52l-.5,.38c-.34,.26-.72-.24-.42-.5,.18-.14,.36-.28,.52-.4Zm-1.99,1.67c.34-.26,.74,.18,.44,.48-.16,.16-.32,.28-.48,.44-.36,.28-.72-.24-.42-.5l.46-.42Zm-1.97,1.65c.34-.26,.72,.24,.4,.52-.18,.14-.34,.26-.52,.4-.32,.24-.72-.24-.38-.5,.16-.16,.34-.3,.5-.42Zm-2.09,1.45c.36-.2,.7,.34,.32,.56-.18,.1-.38,.22-.56,.32-.32,.2-.7-.34-.32-.56,.2-.08,.4-.2,.56-.32Zm-2.27,1.14c.38-.14,.64,.44,.24,.6-.2,.08-.42,.14-.62,.22-.42,.1-.58-.5-.18-.62,.18-.06,.38-.14,.56-.2Zm-2.39,.5c.4,0,.44,.64,0,.64-.24,0-.46-.02-.68-.04-.38-.02-.36-.68,.08-.64,.2,.04,.4,.04,.6,.04Zm-2.27-.66c.32,.2,.04,.76-.34,.54-.2-.12-.38-.26-.54-.42-.32-.32,.16-.76,.44-.48,.12,.16,.26,.26,.44,.36Zm-1.59-1.79c.22,.34-.34,.7-.56,.32-.12-.2-.2-.4-.3-.58-.18-.38,.42-.66,.58-.26,.08,.16,.18,.34,.28,.52Zm-.92-2.33c.12,.4-.5,.58-.62,.18-.06-.18-.12-.44-.16-.64-.1-.38,.5-.58,.62-.14,.04,.16,.12,.44,.16,.6Zm-.44-2.49c.04,.44-.6,.48-.64,.08-.02-.22-.04-.44-.06-.66-.04-.4,.6-.48,.64-.04,.02,.18,.04,.4,.06,.62Zm-.12-2.53c0,.4-.64,.44-.64,0,0-.2,0-.44,.02-.66,0-.4,.64-.44,.66,.02-.04,.2-.04,.4-.04,.64Zm.12-2.57c-.04,.4-.68,.36-.64-.08l.08-.64c.04-.4,.68-.36,.64,.08-.02,.22-.04,.44-.08,.64Z"/>
      <path class="cls-7" d="M512.42,31.72l-7.03,16.83,7.45,.9-.42-17.73Z"/>
      <path class="cls-7" d="M501.72,48.24l10.36-16.15-15.3,17.71,4.94-1.57Z"/>
      <path class="cls-8" d="M501.72,48.24l5.8,5.2-2.13-4.9,7.03-16.83-.34,.38-10.36,16.15Z"/>
      <path class="cls-6" d="M507.52,53.44l1.17-4.5-3.29-.4,2.13,4.9Z"/>
      <path class="cls-8" d="M504.05,56.12c.34-.42-.32-.92-.62-.5l-.5,.62c-.34,.42,.32,.92,.62,.5l.5-.62Zm3.19,42.35c-.26,.26-.08,.68,.28,.68,.1,.02,.2-.04,.28-.12l.36-.36c.36-.36-.2-.96-.58-.58l-.34,.38Zm2.01-2.13c-.34,.34,.18,.94,.6,.52l.54-.62c.34-.46-.32-.92-.6-.52l-.54,.62Zm2.03-2.47c-.32,.4,.32,.92,.64,.48l-.64-.48Zm1.71-2.67c-.22,.46,.44,.84,.72,.36,.12-.24,.26-.5,.36-.76,.2-.48-.52-.8-.74-.3-.1,.22-.22,.46-.34,.7Zm.98-2.91c-.06,.54,.76,.6,.8,.08,.02-.3,.06-.58,.02-.86-.04-.56-.86-.46-.8,.04,0,.24,0,.48-.02,.74Zm-.66-2.83c.34,.46,.96-.08,.66-.46-.16-.24-.34-.46-.54-.66-.4-.4-.96,.2-.6,.56,.18,.18,.32,.36,.48,.56Zm-2.29-1.97c.42,.26,.86-.42,.4-.72-.24-.12-.48-.28-.72-.4-.52-.24-.8,.52-.36,.72,.22,.14,.44,.28,.68,.4Zm-2.89-1.33c.46,.18,.8-.56,.28-.76-.26-.1-.5-.18-.76-.28-.56-.16-.72,.64-.26,.78,.24,.08,.5,.18,.74,.26Zm-3.05-1c.54,.14,.72-.64,.24-.76l-.76-.24c-.54-.14-.72,.64-.24,.76,.24,.08,.5,.18,.76,.24Zm-3.11-.94c.56,.16,.72-.64,.26-.78l-.74-.26c-.54-.14-.76,.56-.28,.76l.76,.28Zm-3.07-1.22c.46,.22,.84-.44,.36-.72-.24-.12-.44-.24-.68-.36-.46-.26-.86,.42-.42,.7,.24,.12,.5,.26,.74,.38Zm-2.65-2.09c.34,.42,.96-.08,.64-.48-.16-.2-.3-.42-.42-.62-.26-.46-.96-.04-.7,.42,.14,.22,.3,.46,.48,.68Zm-1.37-3.13c.1,.54,.88,.4,.8-.12-.04-.24-.06-.5-.08-.76-.06-.58-.84-.44-.8,.04,0,.28,.04,.56,.08,.84Zm.1-3.35c-.08,.52,.66,.7,.8,.16,.06-.26,.1-.5,.16-.76,.14-.5-.64-.72-.8-.2-.06,.26-.12,.52-.16,.8Zm.96-3.17c-.2,.52,.56,.8,.74,.3,.1-.26,.2-.48,.32-.72,.2-.48-.5-.82-.74-.34-.1,.26-.22,.5-.32,.76Zm1.43-2.95c-.26,.42,.4,.88,.7,.38l.38-.7c.28-.44-.42-.86-.7-.42l-.38,.74Zm1.71-2.79c-.3,.5,.42,.86,.68,.44l.44-.68c.26-.46-.32-.88-.66-.46l-.46,.7Zm1.87-2.67c-.32,.4,.32,.92,.64,.48l.48-.64c.32-.4-.32-.92-.64-.48l-.48,.64Z"/>
      <path class="cls-7" d="M459.35,154.48l-2.07,17.97,7.37-1.18-5.3-16.79Z"/>
      <path class="cls-7" d="M453.7,173.17l5.42-18.24-9.7,21.11,4.28-2.87Z"/>
      <path class="cls-8" d="M453.7,173.17l6.97,3.35-3.39-4.08,2.07-17.97-.22,.46-5.42,18.24Z"/>
      <path class="cls-6" d="M460.67,176.53l-.14-4.6-3.25,.52,3.39,4.08Z"/>
      <path class="cls-8" d="M457.78,177.05c.1-.42-.5-.54-.58-.18-.08,.2-.12,.4-.16,.6-.1,.38,.48,.56,.6,.16,0-.2,.06-.38,.14-.58Zm-27.93,40.59c-.44-.04-.46,.58-.08,.6l.6,.08c.42,.02,.46-.58,.08-.6l-.6-.08Zm2.39,.22c-.44,0-.4,.6-.02,.62,.2,0,.42,.02,.62,.02,.4,0,.4-.6,0-.6-.2-.04-.4-.04-.6-.04Zm2.41-.08c-.4,.04-.36,.64,.06,.62,.22-.02,.4-.04,.62-.06,.38-.02,.36-.64-.08-.6-.2,0-.38,.02-.6,.04Zm2.41-.36c-.44,.12-.22,.7,.12,.6,.2-.04,.4-.08,.62-.14,.4-.12,.22-.7-.16-.6-.18,.06-.38,.1-.58,.14Zm2.33-.64c-.4,.16-.14,.7,.22,.58,.2-.08,.38-.14,.58-.22,.38-.14,.16-.72-.22-.58-.2,.08-.4,.16-.58,.22Zm2.23-.94c-.34,.14-.12,.72,.26,.54,.18-.1,.38-.18,.56-.28,.38-.22,.02-.74-.3-.54-.18,.1-.36,.2-.52,.28Zm2.09-1.21c-.32,.2-.04,.72,.34,.5,.18-.1,.34-.22,.5-.34,.36-.28-.06-.74-.34-.5-.16,.12-.32,.24-.5,.34Zm1.97-1.4c-.3,.22,.06,.74,.4,.48,.16-.12,.32-.28,.48-.4,.3-.22-.06-.74-.42-.46l-.46,.38Zm1.79-1.63c-.28,.28,.16,.72,.44,.44,.14-.14,.3-.3,.44-.44,.26-.26-.16-.72-.46-.42-.14,.14-.28,.28-.42,.42Zm1.61-1.81c-.24,.32,.24,.68,.46,.38,.12-.16,.24-.32,.38-.5,.24-.32-.22-.7-.48-.36-.12,.16-.24,.32-.36,.48Zm1.45-1.97c-.22,.38,.32,.64,.52,.32,.1-.18,.22-.34,.32-.52,.22-.34-.3-.66-.52-.32-.12,.2-.22,.34-.32,.52Zm1.2-2.09c-.18,.38,.38,.62,.56,.28,.1-.18,.18-.38,.28-.56,.18-.38-.38-.62-.54-.26-.14,.18-.22,.34-.3,.54Zm.96-2.21c-.14,.34,.42,.62,.58,.22,.08-.2,.14-.38,.22-.58,.04-.2-.04-.32-.16-.36l.08-.04c.36-.28-.06-.74-.34-.5-.16,.12-.34,.22-.5,.3-.34,.22-.04,.72,.32,.52l-.2,.44Zm.7-2.31c-.1,.34,.48,.56,.6,.12,.04-.2,.08-.4,.12-.6,.06-.42-.54-.5-.6-.12-.04,.2-.08,.4-.12,.6Zm.36-2.37c-.02,.38,.58,.46,.6,.04,.02-.22,.02-.42,.02-.62,0-.4-.6-.4-.6,0,0,.16,0,.36-.02,.58Zm-.14-2.39c.06,.38,.66,.3,.6-.12-.04-.2-.1-.42-.14-.62-.1-.38-.7-.22-.6,.16,.08,.2,.12,.4,.14,.58Zm-.8-2.17c.2,.32,.72,.04,.52-.32-.12-.2-.24-.36-.36-.52-.24-.32-.74,.06-.46,.38,.1,.14,.2,.28,.3,.46Zm-1.63-1.59c.32,.2,.66-.3,.3-.54-.18-.1-.38-.22-.58-.3-.38-.14-.6,.4-.24,.56,.18,.1,.34,.18,.52,.28Zm-2.23-.7c.44,.04,.46-.54,.08-.6-.2-.04-.42-.06-.62-.1-.4-.04-.46,.58-.06,.62,.2,0,.4,.04,.6,.08Zm-2.35-.1c.36-.04,.36-.64-.08-.6-.22,.02-.42,.06-.62,.1-.44,.12-.22,.7,.12,.6,.2-.04,.38-.06,.58-.1Zm-2.23,.7c.36-.2,.02-.74-.32-.52-.18,.1-.36,.24-.54,.34-.32,.24,.06,.74,.36,.48,.18-.1,.36-.2,.5-.3Zm-1.65,1.57c.22-.38-.32-.64-.5-.34-.12,.16-.24,.36-.32,.56-.16,.36,.32,.64,.56,.28,.04-.16,.14-.34,.26-.5Zm-.88,2.17c.06-.42-.54-.5-.6-.12-.04,.2-.06,.42-.1,.62-.04,.4,.58,.46,.62,.06,.02-.18,.06-.38,.08-.56Zm-.06,2.35c-.04-.36-.64-.36-.6,.08,.02,.22,.06,.42,.1,.62,.12,.44,.7,.22,.6-.12-.04-.2-.08-.4-.1-.58Zm.64,2.25c-.16-.36-.72-.12-.54,.26,.08,.2,.18,.38,.3,.58,.22,.34,.74,.02,.52-.32-.1-.18-.2-.36-.28-.52Zm1.36,1.89c-.26-.26-.74,.14-.42,.46,.16,.16,.32,.28,.5,.42,.3,.22,.7-.22,.36-.48-.16-.16-.32-.28-.44-.4Zm1.99,1.15c-.4-.12-.56,.48-.18,.58,.22,.06,.42,.1,.64,.16,.4,.08,.5-.54,.12-.6-.2-.04-.4-.08-.58-.14Zm2.31,.18c-.38,.02-.36,.64,.08,.6,.22-.02,.42-.06,.62-.1,.4-.12,.26-.66-.12-.6-.2,.04-.4,.08-.58,.1Zm2.29-.6c-.38,.14-.14,.7,.22,.58,.2-.08,.38-.14,.58-.22,.36-.16,.14-.7-.24-.56-.18,.06-.38,.14-.56,.2Zm4.06-2.45c.14-.14,.28-.28,.4-.44,.22-.3,.74,.06,.46,.42-.14,.14-.28,.32-.42,.46-.3,.26-.72-.16-.44-.44Zm1.45-1.89c-.2,.32,.3,.66,.54,.3,.1-.18,.22-.38,.28-.56,.18-.38-.38-.62-.54-.26-.1,.18-.2,.36-.28,.52Zm.88-2.21c-.1,.38,.48,.56,.6,.16,.04-.2,.1-.42,.14-.62,.1-.34-.48-.56-.6-.12-.04,.2-.08,.4-.14,.58Zm.4-2.37c-.04,.4,.58,.46,.6,.04,.02-.22,.02-.42,.06-.62,.04-.36-.58-.46-.6-.04-.04,.24-.04,.44-.06,.62Zm.06-2.39c0,.4,.6,.4,.62-.02l-.02-.62c-.04-.44-.66-.34-.62,.02,0,.2,.02,.42,.02,.62Zm-.12-2.45c.04,.4,.66,.34,.6-.04l-.06-.62c-.04-.4-.64-.36-.62,.06l.08,.6Zm-.22-2.43c.04,.4,.64,.36,.62-.06l-.06-.62c-.04-.4-.64-.36-.62,.06l.06,.62Zm-.24-2.45c.04,.4,.66,.34,.6-.04l-.04-.6c-.02-.42-.66-.34-.6,.04l.04,.6Zm-.12-2.49c0,.4,.6,.4,.62-.02v-.6c0-.4-.6-.4-.6,0l-.02,.62Zm.06-2.47c-.04,.4,.58,.46,.62,.06,.02-.18,.04-.4,.06-.58,.04-.44-.58-.46-.6-.08-.02,.18-.04,.4-.08,.6Z"/>
      <path class="cls-7" d="M578.77,123.81l-2.09,17.99,7.37-1.18-5.28-16.81Z"/>
      <path class="cls-7" d="M573.13,142.55l5.44-18.25-9.72,21.09,4.28-2.83Z"/>
      <path class="cls-8" d="M573.13,142.55l6.97,3.35-3.41-4.1,2.09-17.99-.2,.48-5.44,18.25Z"/>
      <path class="cls-6" d="M580.1,145.9l-.12-4.62-3.29,.52,3.41,4.1Z"/>
      <path class="cls-8" d="M575.38,146.48c.12-.44,.72-.24,.62,.14-.04,.2-.1,.42-.14,.62-.14,.46-.72,.24-.62-.14,.06-.18,.08-.4,.14-.62Zm36.73,10.62c.2,.36-.34,.7-.56,.32-.1-.18-.2-.36-.34-.54-.22-.38,.34-.7,.54-.34,.12,.2,.24,.36,.36,.56Zm-1.57-2.13c.28,.28-.16,.76-.48,.44-.14-.14-.28-.32-.42-.46-.3-.3,.16-.76,.46-.46,.14,.14,.3,.3,.44,.48Zm-1.97-1.77c.34,.26,0,.76-.36,.52-.16-.12-.34-.22-.52-.32-.38-.22-.04-.76,.32-.56,.18,.1,.36,.24,.56,.36Zm-2.41-1.21c.38,.1,.26,.74-.2,.6-.18-.06-.42-.14-.58-.18-.42-.1-.24-.72,.18-.62,.18,.06,.42,.14,.6,.2Zm-2.59-.54c.44,.04,.36,.68-.04,.64-.22-.02-.42-.02-.62-.02-.4,0-.44-.64,0-.64,.22,.02,.42,.02,.66,.02Zm-2.65,.08c.44-.04,.48,.6,.08,.64-.22,.02-.42,.06-.62,.1-.42,.06-.52-.56-.12-.64,.24-.04,.46-.06,.66-.1Zm-2.57,.56c.44-.12,.58,.5,.18,.62-.22,.06-.4,.12-.6,.2-.46,.14-.56-.52-.2-.6,.2-.08,.4-.16,.62-.22Zm-2.45,.92c.38-.18,.66,.42,.26,.58l-.58,.26c-.42,.18-.64-.4-.3-.58,.22-.06,.4-.16,.62-.26Zm-2.31,1.22c.38-.22,.7,.34,.34,.54l-.54,.34c-.4,.24-.7-.34-.34-.54l.54-.34Zm-2.17,1.49c.34-.26,.72,.24,.4,.52l-.5,.38c-.34,.26-.72-.24-.42-.5,.18-.14,.34-.26,.52-.4Zm-2.01,1.69c.34-.26,.74,.18,.44,.48-.16,.16-.32,.28-.48,.44-.36,.28-.72-.24-.42-.5l.46-.42Zm-1.95,1.63c.34-.26,.72,.24,.4,.52-.18,.14-.34,.26-.52,.4-.32,.24-.72-.24-.38-.5,.16-.16,.32-.28,.5-.42Zm-2.11,1.47c.36-.2,.7,.34,.32,.56-.18,.1-.38,.22-.56,.32-.32,.2-.7-.34-.32-.56,.22-.1,.38-.22,.56-.32Zm-2.25,1.12c.38-.14,.64,.44,.24,.6-.2,.08-.42,.14-.62,.22-.42,.1-.58-.5-.18-.62,.16-.04,.38-.14,.56-.2Zm-2.39,.5c.4,0,.44,.64,0,.64-.24,0-.46-.02-.68-.04-.38-.02-.36-.68,.08-.64,.2,.04,.4,.04,.6,.04Zm-2.29-.64c.32,.2,.04,.76-.34,.54-.2-.12-.38-.26-.54-.42-.32-.32,.16-.76,.44-.48,.12,.12,.28,.24,.44,.36Zm-1.59-1.79c.22,.34-.34,.7-.56,.32-.12-.2-.2-.4-.3-.58-.18-.38,.42-.66,.58-.26,.1,.14,.18,.34,.28,.52Zm-.9-2.35c.12,.4-.5,.58-.62,.18-.06-.18-.12-.44-.16-.64-.1-.38,.5-.58,.62-.14,.04,.16,.1,.46,.16,.6Zm-.44-2.49c.04,.44-.6,.48-.64,.08-.02-.22-.04-.44-.06-.66-.04-.4,.6-.48,.64-.04,0,.2,.02,.42,.06,.62Zm-.14-2.55c0,.4-.64,.44-.64,0,0-.2,0-.44,.02-.66,0-.4,.64-.44,.66,.02-.02,.22-.04,.44-.04,.64Zm.14-2.55c-.04,.4-.68,.36-.64-.08l.08-.64c.04-.4,.68-.36,.64,.08-.06,.22-.06,.46-.08,.64Z"/>
      <path class="cls-15" d="M93.17,132.02c2.98,0,5.22-.61,6.72-1.83,1.52-1.24,2.28-2.84,2.28-4.8,0-1.32-.22-2.39-.66-3.21-.42-.84-.99-1.49-1.71-1.95-.7-.48-1.49-.84-2.37-1.08-.88-.24-1.78-.43-2.7-.57-1.26-.22-2.28-.42-3.06-.6-.76-.18-1.32-.44-1.68-.78-.36-.34-.54-.85-.54-1.53,0-.78,.31-1.39,.93-1.83,.64-.46,1.51-.69,2.61-.69,1.04,0,1.92,.23,2.64,.69,.74,.46,1.13,1.22,1.17,2.28h4.71c0-1.3-.35-2.44-1.05-3.42-.68-.98-1.64-1.74-2.88-2.28s-2.72-.81-4.44-.81c-2.66,0-4.75,.6-6.27,1.8-1.52,1.18-2.28,2.8-2.28,4.86,0,1.9,.64,3.34,1.92,4.32,1.28,.96,3.18,1.64,5.7,2.04,1.32,.22,2.35,.44,3.09,.66s1.26,.53,1.56,.93c.3,.38,.45,.92,.45,1.62,0,.86-.36,1.51-1.08,1.95s-1.68,.66-2.88,.66c-1.56,0-2.69-.32-3.39-.96-.68-.66-1.04-1.53-1.08-2.61h-4.74c0,2.12,.76,3.84,2.28,5.16,1.54,1.32,3.79,1.98,6.75,1.98Zm12.03-18.42h4.41v-3.72h-4.41v3.72Zm0,18.15h4.41v-16.08h-4.41v16.08Zm14.95,5.31c1.62,0,3.04-.23,4.26-.69s2.17-1.22,2.85-2.28c.68-1.06,1.02-2.48,1.02-4.26v-14.16h-4.29l-.12,2.58h-.24c-.36-.88-.97-1.58-1.83-2.1-.84-.52-1.84-.78-3-.78-1.9,0-3.44,.65-4.62,1.95-1.16,1.3-1.74,3.22-1.74,5.76s.57,4.46,1.71,5.76c1.16,1.3,2.7,1.95,4.62,1.95,1.16,0,2.17-.27,3.03-.81,.86-.54,1.47-1.24,1.83-2.1h.24v2.76c0,1.1-.28,1.92-.84,2.46-.56,.56-1.49,.84-2.79,.84-.8,0-1.46-.16-1.98-.48-.52-.32-.83-.75-.93-1.29h-4.23c.12,1.48,.79,2.66,2.01,3.54,1.24,.9,2.92,1.35,5.04,1.35Zm.24-9.66c-1.04,0-1.88-.35-2.52-1.05-.62-.72-.93-1.81-.93-3.27s.31-2.54,.93-3.24c.64-.72,1.49-1.08,2.55-1.08,.74,0,1.36,.16,1.86,.48s.88,.74,1.14,1.26c.26,.5,.4,1.03,.42,1.59l.03,1.92c-.04,.86-.35,1.64-.93,2.34-.58,.7-1.43,1.05-2.55,1.05Zm11.5,4.35h4.41v-8.94c0-1.02,.3-1.91,.9-2.67,.62-.78,1.5-1.17,2.64-1.17,1.06,0,1.83,.33,2.31,.99,.48,.66,.72,1.67,.72,3.03v8.76h4.41v-9.72c0-1.62-.25-2.91-.75-3.87-.5-.98-1.18-1.69-2.04-2.13-.84-.44-1.8-.66-2.88-.66-1.14,0-2.17,.27-3.09,.81-.92,.54-1.6,1.34-2.04,2.4h-.18l-.18-2.91h-4.23v16.08Zm18.02-6.18h9.81v-3.72h-9.81v3.72Zm18.17,6.45c1.16,0,2.19-.27,3.09-.81,.92-.56,1.57-1.36,1.95-2.4h.21l.18,2.94h4.23v-16.08h-4.41v8.88c0,1.06-.31,1.98-.93,2.76-.6,.76-1.46,1.14-2.58,1.14s-1.89-.33-2.37-.99c-.46-.68-.69-1.66-.69-2.94v-8.85h-4.41v10.02c0,2.06,.49,3.63,1.47,4.71s2.4,1.62,4.26,1.62Zm13.29,4.74h4.41v-7.8h.24c.38,.92,1.01,1.67,1.89,2.25,.9,.56,1.97,.84,3.21,.84,1.92,0,3.47-.7,4.65-2.1,1.2-1.4,1.8-3.48,1.8-6.24s-.6-4.86-1.8-6.24c-1.18-1.4-2.73-2.1-4.65-2.1-1.24,0-2.31,.28-3.21,.84-.88,.56-1.51,1.31-1.89,2.25h-.24l-.15-2.79h-4.26v21.09Zm8.1-8.28c-.82,0-1.5-.19-2.04-.57-.54-.38-.94-.87-1.2-1.47-.26-.62-.39-1.27-.39-1.95v-1.56c0-.68,.13-1.32,.39-1.92,.26-.62,.66-1.12,1.2-1.5,.54-.38,1.22-.57,2.04-.57,1.08,0,1.94,.39,2.58,1.17,.66,.76,.99,1.96,.99,3.6s-.33,2.85-.99,3.63c-.64,.76-1.5,1.14-2.58,1.14Zm22.73,3.54c1.24,0,2.3-.28,3.18-.84,.9-.58,1.54-1.33,1.92-2.25h.24v2.82h4.41v-16.08h-4.23l-.18,2.79h-.24c-.38-.94-1.02-1.69-1.92-2.25-.88-.56-1.94-.84-3.18-.84-1.92,0-3.47,.7-4.65,2.1-1.18,1.38-1.77,3.46-1.77,6.24s.59,4.84,1.77,6.24c1.18,1.38,2.73,2.07,4.65,2.07Zm1.68-3.57c-1.08,0-1.95-.38-2.61-1.14-.66-.78-.99-1.98-.99-3.6s.33-2.84,.99-3.6c.66-.78,1.53-1.17,2.61-1.17,.82,0,1.49,.19,2.01,.57,.54,.38,.94,.87,1.2,1.47,.26,.6,.39,1.25,.39,1.95v1.53c0,.68-.13,1.33-.39,1.95-.26,.6-.66,1.09-1.2,1.47-.52,.38-1.19,.57-2.01,.57Zm11.84,3.3h4.41v-8.94c0-1.02,.3-1.91,.9-2.67,.62-.78,1.5-1.17,2.64-1.17,1.06,0,1.83,.33,2.31,.99,.48,.66,.72,1.67,.72,3.03v8.76h4.41v-9.72c0-1.62-.25-2.91-.75-3.87-.5-.98-1.18-1.69-2.04-2.13-.84-.44-1.8-.66-2.88-.66-1.14,0-2.17,.27-3.09,.81s-1.6,1.34-2.04,2.4h-.18l-.18-2.91h-4.23v16.08Zm24.47,.27c1.24,0,2.3-.28,3.18-.84,.9-.58,1.54-1.33,1.92-2.25h.24l.15,2.82h4.26v-21.87h-4.41v8.58h-.24c-.38-.94-1.02-1.69-1.92-2.25-.88-.56-1.94-.84-3.18-.84-1.92,0-3.47,.7-4.65,2.1-1.18,1.38-1.77,3.46-1.77,6.24s.59,4.84,1.77,6.24c1.18,1.38,2.73,2.07,4.65,2.07Zm1.68-3.57c-1.08,0-1.95-.38-2.61-1.14-.66-.78-.99-1.98-.99-3.6s.33-2.84,.99-3.6c.66-.78,1.53-1.17,2.61-1.17,.82,0,1.49,.19,2.01,.57,.54,.38,.94,.87,1.2,1.47,.26,.6,.39,1.25,.39,1.95v1.53c0,.68-.13,1.33-.39,1.95-.26,.6-.66,1.09-1.2,1.47-.52,.38-1.19,.57-2.01,.57Zm23.81,3.57c1.16,0,2.19-.27,3.09-.81,.92-.56,1.57-1.36,1.95-2.4h.21l.18,2.94h4.23v-16.08h-4.41v8.88c0,1.06-.31,1.98-.93,2.76-.6,.76-1.46,1.14-2.58,1.14s-1.89-.33-2.37-.99c-.46-.68-.69-1.66-.69-2.94v-8.85h-4.41v10.02c0,2.06,.49,3.63,1.47,4.71s2.4,1.62,4.26,1.62Zm13.29-.27h4.41v-8.94c0-1.02,.3-1.91,.9-2.67,.62-.78,1.5-1.17,2.64-1.17,1.06,0,1.83,.33,2.31,.99,.48,.66,.72,1.67,.72,3.03v8.76h4.41v-9.72c0-1.62-.25-2.91-.75-3.87-.5-.98-1.18-1.69-2.04-2.13-.84-.44-1.8-.66-2.88-.66-1.14,0-2.17,.27-3.09,.81-.92,.54-1.6,1.34-2.04,2.4h-.18l-.18-2.91h-4.23v16.08Zm19.01,0h4.41v-21.87h-4.41v21.87Zm15.31,.27c1.7,0,3.14-.34,4.32-1.02,1.2-.7,2.12-1.67,2.76-2.91,.64-1.26,.96-2.72,.96-4.38s-.34-3.23-1.02-4.47c-.66-1.26-1.6-2.22-2.82-2.88-1.2-.66-2.6-.99-4.2-.99-1.7,0-3.15,.35-4.35,1.05-1.2,.7-2.12,1.68-2.76,2.94-.64,1.24-.96,2.69-.96,4.35s.33,3.23,.99,4.47c.68,1.24,1.63,2.19,2.85,2.85,1.22,.66,2.63,.99,4.23,.99Zm-.03-3.57c-1.1,0-1.98-.39-2.64-1.17-.64-.8-.96-1.99-.96-3.57s.33-2.79,.99-3.57,1.54-1.17,2.64-1.17,1.97,.39,2.61,1.17c.64,.78,.96,1.97,.96,3.57s-.33,2.79-.99,3.57-1.53,1.17-2.61,1.17Zm18.19,3.57c1.42,0,2.68-.25,3.78-.75,1.1-.52,1.97-1.24,2.61-2.16,.66-.94,1.02-2.04,1.08-3.3h-4.29c-.08,.78-.4,1.41-.96,1.89-.54,.48-1.28,.72-2.22,.72-1.04,0-1.89-.39-2.55-1.17-.64-.78-.96-1.96-.96-3.54,0-1.44,.3-2.59,.9-3.45s1.48-1.29,2.64-1.29c.8,0,1.48,.22,2.04,.66,.56,.42,.91,1.05,1.05,1.89h4.32c-.06-1.22-.41-2.29-1.05-3.21-.62-.92-1.47-1.64-2.55-2.16-1.08-.52-2.31-.78-3.69-.78-1.64,0-3.07,.35-4.29,1.05-1.22,.68-2.17,1.65-2.85,2.91-.66,1.24-.99,2.7-.99,4.38s.33,3.12,.99,4.38c.66,1.24,1.59,2.21,2.79,2.91,1.2,.68,2.6,1.02,4.2,1.02Zm10.18-.27h4.47v-4.59l2.22-2.19,.96,1.68,3.27,5.1h5.19l-6.3-9.72,6.18-6.36h-5.43l-4.77,5.13-1.32,1.53v-12.45h-4.47v21.87Z"/>
      <path class="cls-16" d="M89.24,167.75h4.41v-21.63h-4.17c-.1,1.12-.57,2.03-1.41,2.73-.84,.68-1.97,1.02-3.39,1.02h-.9v3.36h5.46v14.52Zm16.24,.21c1.64,0,3.07-.42,4.29-1.26,1.24-.86,2.2-2.11,2.88-3.75,.7-1.64,1.05-3.65,1.05-6.03s-.33-4.25-.99-5.91c-.64-1.66-1.57-2.93-2.79-3.81-1.2-.9-2.65-1.35-4.35-1.35s-3.11,.43-4.35,1.29c-1.24,.84-2.21,2.08-2.91,3.72-.68,1.64-1.02,3.64-1.02,6s.32,4.25,.96,5.91c.66,1.66,1.6,2.94,2.82,3.84,1.24,.9,2.71,1.35,4.41,1.35Zm.03-3.72c-.74,0-1.4-.21-1.98-.63-.58-.44-1.03-1.19-1.35-2.25-.32-1.08-.48-2.57-.48-4.47s.16-3.38,.48-4.44,.77-1.8,1.35-2.22c.58-.44,1.24-.66,1.98-.66s1.39,.22,1.95,.66c.58,.42,1.03,1.16,1.35,2.22,.34,1.06,.51,2.54,.51,4.44s-.17,3.39-.51,4.47c-.32,1.06-.77,1.81-1.35,2.25-.56,.42-1.21,.63-1.95,.63Zm18.55,3.51h4.41v-12.54h3.27v-3.54h-3.27v-1.44c0-.4,.11-.73,.33-.99,.22-.26,.64-.39,1.26-.39h1.95v-2.97h-3.24c-1.5,0-2.66,.35-3.48,1.05s-1.23,1.71-1.23,3.03v1.71h-2.64v3.54h2.64v12.54Zm9.99,0h4.41v-8.4c.04-1.2,.39-2.12,1.05-2.76,.66-.66,1.73-.99,3.21-.99h.99v-4.14h-.9c-1.02,0-1.93,.21-2.73,.63-.78,.4-1.35,1.12-1.71,2.16h-.15l-.18-2.58h-3.99v16.08Zm18.74,.27c1.36,0,2.57-.22,3.63-.66,1.06-.46,1.92-1.09,2.58-1.89,.68-.8,1.09-1.74,1.23-2.82h-4.17c-.16,.62-.54,1.12-1.14,1.5-.58,.36-1.29,.54-2.13,.54-1.1,0-1.99-.34-2.67-1.02-.68-.7-1.01-1.69-.99-2.97h11.19c.18-1.78,.01-3.37-.51-4.77-.52-1.42-1.38-2.53-2.58-3.33-1.2-.82-2.73-1.23-4.59-1.23-1.58,0-2.96,.35-4.14,1.05-1.18,.68-2.1,1.65-2.76,2.91-.64,1.26-.96,2.76-.96,4.5,0,1.64,.32,3.08,.96,4.32,.64,1.22,1.55,2.17,2.73,2.85,1.2,.68,2.64,1.02,4.32,1.02Zm-.15-13.32c.92,0,1.69,.26,2.31,.78,.64,.52,.99,1.32,1.05,2.4h-6.84c.08-.98,.43-1.75,1.05-2.31,.62-.58,1.43-.87,2.43-.87Zm17.9,13.32c1.36,0,2.57-.22,3.63-.66,1.06-.46,1.92-1.09,2.58-1.89,.68-.8,1.09-1.74,1.23-2.82h-4.17c-.16,.62-.54,1.12-1.14,1.5-.58,.36-1.29,.54-2.13,.54-1.1,0-1.99-.34-2.67-1.02-.68-.7-1.01-1.69-.99-2.97h11.19c.18-1.78,.01-3.37-.51-4.77-.52-1.42-1.38-2.53-2.58-3.33-1.2-.82-2.73-1.23-4.59-1.23-1.58,0-2.96,.35-4.14,1.05-1.18,.68-2.1,1.65-2.76,2.91-.64,1.26-.96,2.76-.96,4.5,0,1.64,.32,3.08,.96,4.32,.64,1.22,1.55,2.17,2.73,2.85,1.2,.68,2.64,1.02,4.32,1.02Zm-.15-13.32c.92,0,1.69,.26,2.31,.78,.64,.52,.99,1.32,1.05,2.4h-6.84c.08-.98,.43-1.75,1.05-2.31,.62-.58,1.43-.87,2.43-.87Zm22.41,13.32c1.24,0,2.3-.28,3.18-.84,.9-.58,1.54-1.33,1.92-2.25h.24v2.82h4.41v-16.08h-4.23l-.18,2.79h-.24c-.38-.94-1.02-1.69-1.92-2.25-.88-.56-1.94-.84-3.18-.84-1.92,0-3.47,.7-4.65,2.1-1.18,1.38-1.77,3.46-1.77,6.24s.59,4.84,1.77,6.24c1.18,1.38,2.73,2.07,4.65,2.07Zm1.68-3.57c-1.08,0-1.95-.38-2.61-1.14-.66-.78-.99-1.98-.99-3.6s.33-2.84,.99-3.6c.66-.78,1.53-1.17,2.61-1.17,.82,0,1.49,.19,2.01,.57,.54,.38,.94,.87,1.2,1.47,.26,.6,.39,1.25,.39,1.95v1.53c0,.68-.13,1.33-.39,1.95-.26,.6-.66,1.09-1.2,1.47-.52,.38-1.19,.57-2.01,.57Zm17.42,3.57c1.16,0,2.19-.27,3.09-.81,.92-.56,1.57-1.36,1.95-2.4h.21l.18,2.94h4.23v-16.08h-4.41v8.88c0,1.06-.31,1.98-.93,2.76-.6,.76-1.46,1.14-2.58,1.14s-1.89-.33-2.37-.99c-.46-.68-.69-1.66-.69-2.94v-8.85h-4.41v10.02c0,2.06,.49,3.63,1.47,4.71,.98,1.08,2.4,1.62,4.26,1.62Zm18.6-.27h3.51v-3.57h-1.95c-.42,0-.74-.08-.96-.24-.22-.16-.33-.48-.33-.96v-7.77h3.24v-3.54h-3.24v-4.8l-4.38,.42v4.38h-2.88v3.54h2.88v8.61c0,.8,.11,1.5,.33,2.1,.24,.58,.66,1.03,1.26,1.35,.6,.32,1.44,.48,2.52,.48Zm12.93,.27c1.7,0,3.14-.34,4.32-1.02,1.2-.7,2.12-1.67,2.76-2.91,.64-1.26,.96-2.72,.96-4.38s-.34-3.23-1.02-4.47c-.66-1.26-1.6-2.22-2.82-2.88-1.2-.66-2.6-.99-4.2-.99-1.7,0-3.15,.35-4.35,1.05s-2.12,1.68-2.76,2.94c-.64,1.24-.96,2.69-.96,4.35s.33,3.23,.99,4.47c.68,1.24,1.63,2.19,2.85,2.85s2.63,.99,4.23,.99Zm-.03-3.57c-1.1,0-1.98-.39-2.64-1.17-.64-.8-.96-1.99-.96-3.57s.33-2.79,.99-3.57c.66-.78,1.54-1.17,2.64-1.17s1.97,.39,2.61,1.17,.96,1.97,.96,3.57-.33,2.79-.99,3.57c-.66,.78-1.53,1.17-2.61,1.17Zm10.88,3.3h4.41v-8.94c0-1.02,.29-1.91,.87-2.67,.58-.78,1.41-1.17,2.49-1.17,1,0,1.72,.33,2.16,.99,.46,.66,.69,1.67,.69,3.03v8.76h4.41v-8.94c0-1.02,.29-1.91,.87-2.67,.6-.78,1.43-1.17,2.49-1.17,1,0,1.72,.33,2.16,.99,.46,.66,.69,1.67,.69,3.03v8.76h4.41v-9.72c0-1.62-.25-2.91-.75-3.87-.48-.98-1.13-1.69-1.95-2.13s-1.75-.66-2.79-.66c-1.22,0-2.32,.3-3.3,.9-.96,.6-1.63,1.5-2.01,2.7h-.24c-.44-1.32-1.12-2.25-2.04-2.79s-1.94-.81-3.06-.81-2.07,.27-2.97,.81-1.55,1.34-1.95,2.4h-.18l-.15-2.91h-4.26v16.08Zm34.73,.27c1.24,0,2.3-.28,3.18-.84,.9-.58,1.54-1.33,1.92-2.25h.24v2.82h4.41v-16.08h-4.23l-.18,2.79h-.24c-.38-.94-1.02-1.69-1.92-2.25-.88-.56-1.94-.84-3.18-.84-1.92,0-3.47,.7-4.65,2.1-1.18,1.38-1.77,3.46-1.77,6.24s.59,4.84,1.77,6.24c1.18,1.38,2.73,2.07,4.65,2.07Zm1.68-3.57c-1.08,0-1.95-.38-2.61-1.14-.66-.78-.99-1.98-.99-3.6s.33-2.84,.99-3.6c.66-.78,1.53-1.17,2.61-1.17,.82,0,1.49,.19,2.01,.57,.54,.38,.94,.87,1.2,1.47,.26,.6,.39,1.25,.39,1.95v1.53c0,.68-.13,1.33-.39,1.95-.26,.6-.66,1.09-1.2,1.47-.52,.38-1.19,.57-2.01,.57Zm17.15,3.3h3.51v-3.57h-1.95c-.42,0-.74-.08-.96-.24s-.33-.48-.33-.96v-7.77h3.24v-3.54h-3.24v-4.8l-4.38,.42v4.38h-2.88v3.54h2.88v8.61c0,.8,.11,1.5,.33,2.1,.24,.58,.66,1.03,1.26,1.35,.6,.32,1.44,.48,2.52,.48Zm12.87,.27c1.36,0,2.57-.22,3.63-.66,1.06-.46,1.92-1.09,2.58-1.89,.68-.8,1.09-1.74,1.23-2.82h-4.17c-.16,.62-.54,1.12-1.14,1.5-.58,.36-1.29,.54-2.13,.54-1.1,0-1.99-.34-2.67-1.02-.68-.7-1.01-1.69-.99-2.97h11.19c.18-1.78,.01-3.37-.51-4.77-.52-1.42-1.38-2.53-2.58-3.33-1.2-.82-2.73-1.23-4.59-1.23-1.58,0-2.96,.35-4.14,1.05-1.18,.68-2.1,1.65-2.76,2.91-.64,1.26-.96,2.76-.96,4.5,0,1.64,.32,3.08,.96,4.32,.64,1.22,1.55,2.17,2.73,2.85,1.2,.68,2.64,1.02,4.32,1.02Zm-.15-13.32c.92,0,1.69,.26,2.31,.78,.64,.52,.99,1.32,1.05,2.4h-6.84c.08-.98,.43-1.75,1.05-2.31,.62-.58,1.43-.87,2.43-.87Zm16.31,13.32c1.24,0,2.3-.28,3.18-.84,.9-.58,1.54-1.33,1.92-2.25h.24l.15,2.82h4.26v-21.87h-4.41v8.58h-.24c-.38-.94-1.02-1.69-1.92-2.25-.88-.56-1.94-.84-3.18-.84-1.92,0-3.47,.7-4.65,2.1-1.18,1.38-1.77,3.46-1.77,6.24s.59,4.84,1.77,6.24c1.18,1.38,2.73,2.07,4.65,2.07Zm1.68-3.57c-1.08,0-1.95-.38-2.61-1.14-.66-.78-.99-1.98-.99-3.6s.33-2.84,.99-3.6c.66-.78,1.53-1.17,2.61-1.17,.82,0,1.49,.19,2.01,.57,.54,.38,.94,.87,1.2,1.47,.26,.6,.39,1.25,.39,1.95v1.53c0,.68-.13,1.33-.39,1.95-.26,.6-.66,1.09-1.2,1.47-.52,.38-1.19,.57-2.01,.57Zm29.03,8.31h4.41v-21.09h-4.23l-.18,2.79h-.24c-.38-.94-1.02-1.69-1.92-2.25-.88-.56-1.94-.84-3.18-.84-1.92,0-3.47,.7-4.65,2.1-1.18,1.38-1.77,3.46-1.77,6.24s.59,4.84,1.77,6.24c1.18,1.38,2.73,2.07,4.65,2.07,1.24,0,2.3-.28,3.18-.84,.9-.58,1.54-1.33,1.92-2.25h.24v7.83Zm-3.66-8.31c-1.08,0-1.95-.38-2.61-1.14-.66-.78-.99-1.98-.99-3.6s.33-2.84,.99-3.6c.66-.78,1.53-1.17,2.61-1.17,.82,0,1.49,.19,2.01,.57,.54,.38,.94,.87,1.2,1.47,.26,.6,.39,1.25,.39,1.95v1.53c0,.68-.13,1.33-.39,1.95-.26,.6-.66,1.09-1.2,1.47-.52,.38-1.19,.57-2.01,.57Zm17.42,3.57c1.16,0,2.19-.27,3.09-.81,.92-.56,1.57-1.36,1.95-2.4h.21l.18,2.94h4.23v-16.08h-4.41v8.88c0,1.06-.31,1.98-.93,2.76-.6,.76-1.46,1.14-2.58,1.14s-1.89-.33-2.37-.99c-.46-.68-.69-1.66-.69-2.94v-8.85h-4.41v10.02c0,2.06,.49,3.63,1.47,4.71,.98,1.08,2.4,1.62,4.26,1.62Zm20.19,0c1.7,0,3.14-.34,4.32-1.02,1.2-.7,2.12-1.67,2.76-2.91,.64-1.26,.96-2.72,.96-4.38s-.34-3.23-1.02-4.47c-.66-1.26-1.6-2.22-2.82-2.88-1.2-.66-2.6-.99-4.2-.99-1.7,0-3.15,.35-4.35,1.05-1.2,.7-2.12,1.68-2.76,2.94-.64,1.24-.96,2.69-.96,4.35s.33,3.23,.99,4.47c.68,1.24,1.63,2.19,2.85,2.85s2.63,.99,4.23,.99Zm-.03-3.57c-1.1,0-1.98-.39-2.64-1.17-.64-.8-.96-1.99-.96-3.57s.33-2.79,.99-3.57,1.54-1.17,2.64-1.17,1.97,.39,2.61,1.17c.64,.78,.96,1.97,.96,3.57s-.33,2.79-.99,3.57-1.53,1.17-2.61,1.17Zm16.19,3.3h3.51v-3.57h-1.95c-.42,0-.74-.08-.96-.24s-.33-.48-.33-.96v-7.77h3.24v-3.54h-3.24v-4.8l-4.38,.42v4.38h-2.88v3.54h2.88v8.61c0,.8,.11,1.5,.33,2.1,.24,.58,.66,1.03,1.26,1.35,.6,.32,1.44,.48,2.52,.48Zm12.87,.27c1.36,0,2.57-.22,3.63-.66,1.06-.46,1.92-1.09,2.58-1.89,.68-.8,1.09-1.74,1.23-2.82h-4.17c-.16,.62-.54,1.12-1.14,1.5-.58,.36-1.29,.54-2.13,.54-1.1,0-1.99-.34-2.67-1.02-.68-.7-1.01-1.69-.99-2.97h11.19c.18-1.78,.01-3.37-.51-4.77-.52-1.42-1.38-2.53-2.58-3.33-1.2-.82-2.73-1.23-4.59-1.23-1.58,0-2.96,.35-4.14,1.05-1.18,.68-2.1,1.65-2.76,2.91-.64,1.26-.96,2.76-.96,4.5,0,1.64,.32,3.08,.96,4.32,.64,1.22,1.55,2.17,2.73,2.85,1.2,.68,2.64,1.02,4.32,1.02Zm-.15-13.32c.92,0,1.69,.26,2.31,.78,.64,.52,.99,1.32,1.05,2.4h-6.84c.08-.98,.43-1.75,1.05-2.31,.62-.58,1.43-.87,2.43-.87Zm17.01,13.35c2.26,0,4.04-.41,5.34-1.23,1.3-.84,1.95-2.14,1.95-3.9,0-.98-.18-1.77-.54-2.37-.34-.62-.81-1.1-1.41-1.44-.58-.36-1.25-.62-2.01-.78-.76-.18-1.56-.33-2.4-.45-1.18-.16-2.04-.36-2.58-.6s-.81-.66-.81-1.26c0-.5,.21-.9,.63-1.2,.42-.32,1.04-.48,1.86-.48s1.43,.18,1.89,.54c.48,.36,.72,.88,.72,1.56h4.32c-.04-1.6-.67-2.84-1.89-3.72-1.22-.9-2.86-1.35-4.92-1.35s-3.8,.43-5.1,1.29c-1.28,.84-1.92,2.11-1.92,3.81,0,1.18,.28,2.09,.84,2.73,.58,.64,1.36,1.12,2.34,1.44,.98,.3,2.06,.53,3.24,.69,1.14,.16,1.97,.35,2.49,.57,.54,.22,.81,.7,.81,1.44,0,.54-.23,.97-.69,1.29-.46,.3-1.14,.45-2.04,.45s-1.59-.18-2.19-.54c-.58-.38-.88-1-.9-1.86h-4.32c-.02,1.6,.6,2.9,1.86,3.9,1.28,.98,3.09,1.47,5.43,1.47Z"/>
      <path class="cls-1" d="M84.7,212.75h5.31c1.26,0,2.33-.27,3.22-.81,.89-.55,1.56-1.32,2.02-2.3,.47-.98,.7-2.13,.7-3.44s-.23-2.47-.7-3.46c-.46-.98-1.13-1.75-2.02-2.29-.89-.55-1.96-.83-3.22-.83h-5.31v13.12Zm1.96-1.69v-9.74h3.06c1.26,0,2.27,.39,3.04,1.17,.78,.78,1.17,2,1.17,3.67s-.38,2.9-1.15,3.71c-.77,.79-1.79,1.19-3.06,1.19h-3.06Zm15.39,1.85c.76,0,1.43-.13,2.03-.38,.61-.26,1.11-.62,1.49-1.08,.38-.47,.62-1.01,.7-1.64h-1.76c-.12,.49-.4,.89-.85,1.19-.44,.29-.98,.43-1.62,.43-.83,0-1.49-.26-2-.79-.49-.54-.75-1.3-.77-2.29h7.06c.1-1,0-1.89-.31-2.68-.3-.8-.79-1.43-1.48-1.89-.67-.47-1.53-.7-2.57-.7-.92,0-1.73,.2-2.41,.61s-1.21,.98-1.58,1.73c-.36,.73-.54,1.6-.54,2.61s.19,1.82,.56,2.56c.37,.73,.9,1.3,1.58,1.71,.7,.41,1.52,.61,2.47,.61Zm-.09-8.37c.71,0,1.3,.2,1.78,.59,.49,.4,.75,1.03,.77,1.91h-5.2c.07-.78,.34-1.39,.81-1.84,.48-.44,1.09-.67,1.84-.67Zm9.79,8.37c.8,0,1.49-.19,2.05-.56,.56-.38,.96-.88,1.19-1.49h.11v1.89h1.85v-9.52h-1.78l-.07,1.87h-.11c-.23-.61-.62-1.1-1.19-1.48-.56-.37-1.25-.56-2.05-.56-1.16,0-2.11,.42-2.83,1.26-.71,.84-1.06,2.06-1.06,3.65s.35,2.82,1.06,3.67c.72,.84,1.66,1.26,2.83,1.26Zm.65-1.53c-.79,0-1.43-.29-1.91-.86-.48-.58-.72-1.42-.72-2.54s.24-1.97,.72-2.54c.48-.58,1.12-.86,1.91-.86,.59,0,1.08,.14,1.48,.41,.4,.28,.7,.63,.9,1.06,.2,.43,.31,.89,.31,1.39v1.08c0,.49-.1,.96-.31,1.4-.2,.43-.5,.79-.9,1.06-.4,.26-.89,.4-1.48,.4Zm7.15,1.37h1.85v-13.12h-1.85v13.12Zm7.67,.16c.8,0,1.49-.19,2.05-.56,.56-.38,.96-.88,1.19-1.49h.11l.07,1.89h1.78v-13.12h-1.85v5.47h-.11c-.23-.61-.62-1.1-1.19-1.48-.56-.37-1.25-.56-2.05-.56-1.16,0-2.11,.42-2.83,1.26-.71,.84-1.06,2.06-1.06,3.65s.35,2.82,1.06,3.67c.72,.84,1.66,1.26,2.83,1.26Zm.65-1.53c-.79,0-1.43-.29-1.91-.86-.48-.58-.72-1.42-.72-2.54s.24-1.97,.72-2.54c.48-.58,1.12-.86,1.91-.86,.59,0,1.08,.14,1.48,.41,.4,.28,.7,.63,.9,1.06,.2,.43,.31,.89,.31,1.39v1.08c0,.49-.1,.96-.31,1.4-.2,.43-.5,.79-.9,1.06-.4,.26-.89,.4-1.48,.4Zm11.17,1.53c.96,0,1.78-.2,2.47-.61,.7-.42,1.23-1,1.6-1.73,.38-.74,.58-1.6,.58-2.57s-.2-1.88-.59-2.61c-.38-.74-.92-1.31-1.62-1.71-.7-.4-1.51-.59-2.43-.59s-1.79,.21-2.48,.63c-.7,.41-1.24,.98-1.62,1.73-.37,.73-.56,1.59-.56,2.57s.19,1.86,.58,2.59c.4,.73,.94,1.3,1.64,1.71,.71,.4,1.52,.59,2.45,.59Zm0-1.55c-.84,0-1.51-.29-2.02-.88-.5-.59-.76-1.41-.76-2.47s.25-1.94,.76-2.52c.52-.59,1.19-.88,2.02-.88s1.52,.3,2.02,.9c.49,.59,.74,1.42,.74,2.48s-.25,1.91-.76,2.5c-.5,.58-1.17,.86-2,.86Zm4.73,1.39h2.09l2.77-3.73h.11l2.66,3.73h2.18l-3.6-4.97,3.24-4.55h-2.11l-2.32,3.33h-.09l-2.36-3.33h-2.2l3.33,4.61-3.71,4.91Zm18.64,.18c1.25,0,2.23-.23,2.95-.7,.72-.48,1.08-1.21,1.08-2.18,0-.73-.17-1.28-.5-1.66-.32-.38-.76-.66-1.31-.83-.55-.18-1.16-.31-1.82-.4-.8-.11-1.4-.26-1.78-.45-.37-.19-.56-.52-.56-.99,0-.41,.17-.74,.5-.99s.82-.38,1.44-.38,1.1,.14,1.46,.41c.36,.26,.55,.68,.56,1.26h1.82c-.01-.92-.35-1.65-1.03-2.18-.67-.54-1.6-.81-2.77-.81s-2.08,.25-2.79,.76c-.7,.49-1.04,1.19-1.04,2.11,0,.65,.16,1.15,.47,1.51s.74,.63,1.28,.81c.55,.18,1.19,.32,1.91,.43,.8,.12,1.39,.28,1.75,.47s.54,.55,.54,1.08c0,.44-.18,.79-.54,1.04-.35,.24-.86,.36-1.55,.36s-1.21-.14-1.64-.43c-.43-.3-.65-.77-.65-1.42h-1.84c0,.95,.35,1.72,1.04,2.3,.71,.58,1.72,.86,3.02,.86Zm6.14,2.83h1.85v-4.88h.11c.24,.61,.64,1.1,1.21,1.48,.56,.37,1.24,.56,2.03,.56,1.16,0,2.1-.42,2.81-1.26,.72-.84,1.08-2.06,1.08-3.65s-.36-2.81-1.08-3.65c-.71-.85-1.64-1.28-2.81-1.28-.79,0-1.47,.19-2.03,.58-.56,.37-.97,.86-1.21,1.46h-.11l-.07-1.87h-1.78v12.53Zm4.55-4.37c-.59,0-1.08-.13-1.48-.4-.4-.28-.7-.63-.9-1.06-.2-.44-.31-.91-.31-1.4v-1.06c0-.49,.1-.95,.31-1.39,.2-.44,.5-.8,.9-1.06,.4-.28,.89-.41,1.48-.41,.79,0,1.43,.29,1.91,.86,.49,.56,.74,1.41,.74,2.54s-.25,1.96-.74,2.54c-.48,.56-1.12,.85-1.91,.85Zm10.64,1.53c.76,0,1.43-.13,2.03-.38,.61-.26,1.11-.62,1.49-1.08,.38-.47,.62-1.01,.7-1.64h-1.76c-.12,.49-.4,.89-.85,1.19-.44,.29-.98,.43-1.62,.43-.83,0-1.49-.26-2-.79-.49-.54-.75-1.3-.77-2.29h7.06c.1-1,0-1.89-.31-2.68-.3-.8-.79-1.43-1.48-1.89-.67-.47-1.53-.7-2.57-.7-.92,0-1.73,.2-2.41,.61-.68,.41-1.21,.98-1.58,1.73-.36,.73-.54,1.6-.54,2.61s.19,1.82,.56,2.56c.37,.73,.9,1.3,1.58,1.71,.7,.41,1.52,.61,2.47,.61Zm-.09-8.37c.71,0,1.3,.2,1.78,.59,.49,.4,.75,1.03,.77,1.91h-5.2c.07-.78,.34-1.39,.81-1.84,.48-.44,1.09-.67,1.84-.67Zm10.51,8.37c.76,0,1.43-.13,2.03-.38,.61-.26,1.11-.62,1.49-1.08,.38-.47,.62-1.01,.7-1.64h-1.76c-.12,.49-.4,.89-.85,1.19-.44,.29-.98,.43-1.62,.43-.83,0-1.49-.26-2-.79-.49-.54-.75-1.3-.77-2.29h7.06c.1-1,0-1.89-.31-2.68-.3-.8-.79-1.43-1.48-1.89-.67-.47-1.53-.7-2.57-.7-.92,0-1.73,.2-2.41,.61-.68,.41-1.21,.98-1.58,1.73-.36,.73-.54,1.6-.54,2.61s.19,1.82,.56,2.56c.37,.73,.9,1.3,1.58,1.71,.7,.41,1.52,.61,2.47,.61Zm-.09-8.37c.71,0,1.3,.2,1.78,.59,.49,.4,.75,1.03,.77,1.91h-5.2c.07-.78,.34-1.39,.81-1.84,.48-.44,1.09-.67,1.84-.67Zm9.79,8.37c.8,0,1.49-.19,2.05-.56,.56-.38,.96-.88,1.19-1.49h.11l.07,1.89h1.78v-13.12h-1.85v5.47h-.11c-.23-.61-.62-1.1-1.19-1.48-.56-.37-1.25-.56-2.05-.56-1.16,0-2.11,.42-2.83,1.26-.71,.84-1.06,2.06-1.06,3.65s.35,2.82,1.06,3.67c.72,.84,1.66,1.26,2.83,1.26Zm.65-1.53c-.79,0-1.43-.29-1.91-.86-.48-.58-.72-1.42-.72-2.54s.24-1.97,.72-2.54c.48-.58,1.12-.86,1.91-.86,.59,0,1.08,.14,1.48,.41s.7,.63,.9,1.06c.2,.43,.31,.89,.31,1.39v1.08c0,.49-.1,.96-.31,1.4-.2,.43-.5,.79-.9,1.06-.4,.26-.89,.4-1.48,.4Zm10.7,1.55c1.25,0,2.23-.23,2.95-.7,.72-.48,1.08-1.21,1.08-2.18,0-.73-.17-1.28-.5-1.66-.32-.38-.76-.66-1.31-.83-.55-.18-1.16-.31-1.82-.4-.8-.11-1.4-.26-1.78-.45-.37-.19-.56-.52-.56-.99,0-.41,.17-.74,.5-.99s.82-.38,1.44-.38,1.1,.14,1.46,.41c.36,.26,.55,.68,.56,1.26h1.82c-.01-.92-.35-1.65-1.03-2.18-.67-.54-1.6-.81-2.77-.81s-2.08,.25-2.79,.76c-.7,.49-1.04,1.19-1.04,2.11,0,.65,.16,1.15,.47,1.51,.31,.36,.74,.63,1.28,.81,.55,.18,1.19,.32,1.91,.43,.8,.12,1.39,.28,1.75,.47s.54,.55,.54,1.08c0,.44-.18,.79-.54,1.04-.35,.24-.86,.36-1.55,.36s-1.21-.14-1.64-.43c-.43-.3-.65-.77-.65-1.42h-1.84c0,.95,.35,1.72,1.04,2.3,.71,.58,1.72,.86,3.02,.86Zm13.5-.02c.74,0,1.4-.18,1.98-.54,.58-.37,.98-.89,1.21-1.55h.11l.09,1.93h1.76v-9.52h-1.85v5.15c0,.88-.24,1.6-.72,2.16-.48,.55-1.11,.83-1.89,.83s-1.38-.23-1.73-.7c-.35-.48-.52-1.16-.52-2.03v-5.4h-1.85v5.87c0,1.26,.3,2.21,.9,2.86,.6,.64,1.44,.95,2.52,.95Zm7.66,2.84h1.85v-4.88h.11c.24,.61,.64,1.1,1.21,1.48,.56,.37,1.24,.56,2.03,.56,1.16,0,2.1-.42,2.81-1.26,.72-.84,1.08-2.06,1.08-3.65s-.36-2.81-1.08-3.65c-.71-.85-1.64-1.28-2.81-1.28-.79,0-1.47,.19-2.03,.58-.56,.37-.97,.86-1.21,1.46h-.11l-.07-1.87h-1.78v12.53Zm4.55-4.37c-.59,0-1.08-.13-1.48-.4-.4-.28-.7-.63-.9-1.06-.2-.44-.31-.91-.31-1.4v-1.06c0-.49,.1-.95,.31-1.39,.2-.44,.5-.8,.9-1.06,.4-.28,.89-.41,1.48-.41,.79,0,1.43,.29,1.91,.86,.49,.56,.74,1.41,.74,2.54s-.25,1.96-.74,2.54c-.48,.56-1.12,.85-1.91,.85Zm14.51,1.53c.79,0,1.5-.14,2.12-.43,.62-.3,1.12-.71,1.49-1.24,.37-.54,.58-1.17,.63-1.89h-1.8c-.07,.6-.32,1.09-.76,1.46-.43,.37-1,.56-1.69,.56-.83,0-1.49-.29-2-.86-.49-.59-.74-1.42-.74-2.48s.24-1.84,.72-2.45c.48-.62,1.16-.94,2.03-.94,.61,0,1.13,.16,1.57,.49,.44,.31,.72,.78,.83,1.4h1.8c-.05-.68-.26-1.28-.63-1.8-.36-.52-.85-.92-1.46-1.21-.6-.29-1.28-.43-2.05-.43-.95,0-1.78,.2-2.48,.61-.71,.41-1.25,.98-1.64,1.73-.38,.73-.58,1.59-.58,2.57s.19,1.85,.58,2.59c.38,.73,.92,1.3,1.62,1.71,.7,.41,1.51,.61,2.43,.61Zm10.14,0c.96,0,1.78-.2,2.47-.61,.7-.42,1.23-1,1.6-1.73,.38-.74,.58-1.6,.58-2.57s-.2-1.88-.59-2.61c-.38-.74-.92-1.31-1.62-1.71-.7-.4-1.51-.59-2.43-.59s-1.79,.21-2.48,.63c-.7,.41-1.24,.98-1.62,1.73-.37,.73-.56,1.59-.56,2.57s.19,1.86,.58,2.59c.4,.73,.94,1.3,1.64,1.71,.71,.4,1.52,.59,2.45,.59Zm0-1.55c-.84,0-1.51-.29-2.02-.88-.5-.59-.76-1.41-.76-2.47s.25-1.94,.76-2.52c.52-.59,1.19-.88,2.02-.88s1.52,.3,2.02,.9c.49,.59,.74,1.42,.74,2.48s-.25,1.91-.76,2.5c-.5,.58-1.17,.86-2,.86Zm6.58,1.39h1.84v-5.2c0-.55,.11-1.04,.32-1.48,.22-.44,.52-.8,.92-1.06,.41-.26,.88-.4,1.42-.4,.76,0,1.31,.23,1.67,.7,.36,.47,.54,1.19,.54,2.16v5.27h1.85v-5.65c0-.97-.15-1.75-.45-2.34-.29-.59-.69-1.01-1.21-1.28-.52-.26-1.1-.4-1.75-.4-.7,0-1.34,.17-1.93,.52-.59,.34-1.02,.84-1.3,1.51h-.11l-.07-1.89h-1.76v9.52Zm13.56,0h1.91v-1.53h-1.3c-.3,0-.51-.05-.63-.16-.12-.11-.18-.32-.18-.63v-5.69h2.11v-1.51h-2.11v-2.97l-1.85,.22v2.75h-1.8v1.51h1.8v6.03c0,.64,.14,1.13,.43,1.48,.3,.34,.84,.5,1.62,.5Zm3.75,0h1.84v-5.44c.05-.78,.31-1.38,.77-1.8,.47-.43,1.12-.65,1.96-.65h.31c.11,0,.2,0,.27,.02v-1.75c-.08-.01-.17-.02-.27-.02-.08-.01-.18-.02-.29-.02-.62,0-1.19,.15-1.69,.45s-.86,.76-1.06,1.37h-.09l-.09-1.69h-1.66v9.52Zm9.73,.16c.8,0,1.49-.19,2.05-.56,.56-.38,.96-.88,1.19-1.49h.11v1.89h1.85v-9.52h-1.78l-.07,1.87h-.11c-.23-.61-.62-1.1-1.19-1.48-.56-.37-1.25-.56-2.05-.56-1.16,0-2.11,.42-2.83,1.26-.71,.84-1.06,2.06-1.06,3.65s.35,2.82,1.06,3.67c.72,.84,1.66,1.26,2.83,1.26Zm.65-1.53c-.79,0-1.43-.29-1.91-.86-.48-.58-.72-1.42-.72-2.54s.24-1.97,.72-2.54c.48-.58,1.12-.86,1.91-.86,.59,0,1.08,.14,1.48,.41s.7,.63,.9,1.06c.2,.43,.31,.89,.31,1.39v1.08c0,.49-.1,.96-.31,1.4-.2,.43-.5,.79-.9,1.06-.4,.26-.89,.4-1.48,.4Zm11.06,1.53c.79,0,1.5-.14,2.12-.43,.62-.3,1.12-.71,1.49-1.24,.37-.54,.58-1.17,.63-1.89h-1.8c-.07,.6-.32,1.09-.76,1.46s-1,.56-1.69,.56c-.83,0-1.49-.29-2-.86-.49-.59-.74-1.42-.74-2.48s.24-1.84,.72-2.45c.48-.62,1.16-.94,2.03-.94,.61,0,1.13,.16,1.57,.49,.44,.31,.72,.78,.83,1.4h1.8c-.05-.68-.26-1.28-.63-1.8-.36-.52-.85-.92-1.46-1.21-.6-.29-1.28-.43-2.05-.43-.95,0-1.78,.2-2.48,.61s-1.25,.98-1.64,1.73c-.38,.73-.58,1.59-.58,2.57s.19,1.85,.58,2.59c.38,.73,.92,1.3,1.62,1.71,.7,.41,1.51,.61,2.43,.61Zm8.85-.16h1.91v-1.53h-1.3c-.3,0-.51-.05-.63-.16s-.18-.32-.18-.63v-5.69h2.11v-1.51h-2.11v-2.97l-1.85,.22v2.75h-1.8v1.51h1.8v6.03c0,.64,.14,1.13,.43,1.48,.3,.34,.84,.5,1.62,.5Zm11.75,.16c.79,0,1.5-.14,2.12-.43,.62-.3,1.12-.71,1.49-1.24,.37-.54,.58-1.17,.63-1.89h-1.8c-.07,.6-.32,1.09-.76,1.46-.43,.37-1,.56-1.69,.56-.83,0-1.49-.29-2-.86-.49-.59-.74-1.42-.74-2.48s.24-1.84,.72-2.45c.48-.62,1.16-.94,2.03-.94,.61,0,1.13,.16,1.57,.49,.44,.31,.72,.78,.83,1.4h1.8c-.05-.68-.26-1.28-.63-1.8-.36-.52-.85-.92-1.46-1.21-.6-.29-1.28-.43-2.05-.43-.95,0-1.78,.2-2.48,.61-.71,.41-1.25,.98-1.64,1.73-.38,.73-.58,1.59-.58,2.57s.19,1.85,.58,2.59c.38,.73,.92,1.3,1.62,1.71,.7,.41,1.51,.61,2.43,.61Zm10.14,0c.96,0,1.78-.2,2.47-.61,.7-.42,1.23-1,1.6-1.73,.38-.74,.58-1.6,.58-2.57s-.2-1.88-.59-2.61c-.38-.74-.92-1.31-1.62-1.71-.7-.4-1.51-.59-2.43-.59s-1.79,.21-2.48,.63c-.7,.41-1.24,.98-1.62,1.73-.37,.73-.56,1.59-.56,2.57s.19,1.86,.58,2.59c.4,.73,.94,1.3,1.64,1.71,.71,.4,1.52,.59,2.45,.59Zm0-1.55c-.84,0-1.51-.29-2.02-.88-.5-.59-.76-1.41-.76-2.47s.25-1.94,.76-2.52c.52-.59,1.19-.88,2.02-.88s1.52,.3,2.02,.9c.49,.59,.74,1.42,.74,2.48s-.25,1.91-.76,2.5c-.5,.58-1.17,.86-2,.86Zm6.59,1.39h1.84v-5.2c0-.55,.11-1.04,.32-1.48,.22-.44,.52-.8,.92-1.06,.41-.26,.88-.4,1.42-.4,.76,0,1.31,.23,1.67,.7,.36,.47,.54,1.19,.54,2.16v5.27h1.85v-5.65c0-.97-.15-1.75-.45-2.34-.29-.59-.69-1.01-1.21-1.28-.52-.26-1.1-.4-1.75-.4-.7,0-1.34,.17-1.93,.52-.59,.34-1.02,.84-1.3,1.51h-.11l-.07-1.89h-1.76v9.52Zm14.62,.18c1.25,0,2.23-.23,2.95-.7,.72-.48,1.08-1.21,1.08-2.18,0-.73-.17-1.28-.5-1.66-.32-.38-.76-.66-1.31-.83-.55-.18-1.16-.31-1.82-.4-.8-.11-1.4-.26-1.78-.45-.37-.19-.56-.52-.56-.99,0-.41,.17-.74,.5-.99s.82-.38,1.44-.38,1.1,.14,1.46,.41c.36,.26,.55,.68,.56,1.26h1.82c-.01-.92-.35-1.65-1.03-2.18-.67-.54-1.6-.81-2.77-.81s-2.08,.25-2.79,.76c-.7,.49-1.04,1.19-1.04,2.11,0,.65,.16,1.15,.47,1.51,.31,.36,.74,.63,1.28,.81,.55,.18,1.19,.32,1.91,.43,.8,.12,1.39,.28,1.75,.47,.36,.19,.54,.55,.54,1.08,0,.44-.18,.79-.54,1.04-.35,.24-.86,.36-1.55,.36s-1.21-.14-1.64-.43c-.43-.3-.65-.77-.65-1.42h-1.84c0,.95,.35,1.72,1.04,2.3,.71,.58,1.72,.86,3.02,.86Zm10.19-.02c.76,0,1.43-.13,2.03-.38,.61-.26,1.11-.62,1.49-1.08,.38-.47,.62-1.01,.7-1.64h-1.76c-.12,.49-.4,.89-.85,1.19-.44,.29-.98,.43-1.62,.43-.83,0-1.49-.26-2-.79-.49-.54-.75-1.3-.77-2.29h7.06c.1-1,0-1.89-.31-2.68-.3-.8-.79-1.43-1.48-1.89-.67-.47-1.53-.7-2.57-.7-.92,0-1.73,.2-2.41,.61-.68,.41-1.21,.98-1.58,1.73-.36,.73-.54,1.6-.54,2.61s.19,1.82,.56,2.56c.37,.73,.9,1.3,1.58,1.71,.7,.41,1.52,.61,2.47,.61Zm-.09-8.37c.71,0,1.3,.2,1.78,.59,.49,.4,.75,1.03,.77,1.91h-5.2c.07-.78,.34-1.39,.81-1.84,.48-.44,1.09-.67,1.84-.67Zm6.38,8.21h1.84v-5.2c0-.55,.11-1.04,.32-1.48,.22-.44,.52-.8,.92-1.06,.41-.26,.88-.4,1.42-.4,.76,0,1.31,.23,1.67,.7,.36,.47,.54,1.19,.54,2.16v5.27h1.85v-5.65c0-.97-.15-1.75-.45-2.34-.29-.59-.69-1.01-1.21-1.28-.52-.26-1.1-.4-1.75-.4-.7,0-1.34,.17-1.93,.52-.59,.34-1.02,.84-1.3,1.51h-.11l-.07-1.89h-1.76v9.52Zm13.56,0h1.91v-1.53h-1.3c-.3,0-.51-.05-.63-.16s-.18-.32-.18-.63v-5.69h2.11v-1.51h-2.11v-2.97l-1.85,.22v2.75h-1.8v1.51h1.8v6.03c0,.64,.14,1.13,.43,1.48,.3,.34,.84,.5,1.62,.5Zm9.02,0h2.41l1.71-7.16h.07l1.76,7.16h2.43l2.43-9.52h-1.82l-1.87,7.69h-.05l-1.82-7.69h-2.05l-1.76,7.67h-.09l-1.87-7.67h-1.91l2.43,9.52Zm12.22-10.98h1.85v-2.14h-1.85v2.14Zm0,10.98h1.85v-9.52h-1.85v9.52Zm7.15,0h1.91v-1.53h-1.3c-.3,0-.51-.05-.63-.16s-.18-.32-.18-.63v-5.69h2.11v-1.51h-2.11v-2.97l-1.85,.22v2.75h-1.8v1.51h1.8v6.03c0,.64,.14,1.13,.43,1.48,.3,.34,.84,.5,1.62,.5Zm3.75,0h1.84v-5.2c0-.55,.11-1.04,.32-1.48,.22-.44,.52-.8,.92-1.06,.41-.26,.88-.4,1.42-.4,.76,0,1.31,.23,1.67,.7,.36,.47,.54,1.19,.54,2.16v5.27h1.85v-5.65c0-.97-.15-1.75-.45-2.34-.29-.59-.69-1.01-1.21-1.28-.52-.26-1.1-.4-1.75-.4-.7,0-1.34,.17-1.93,.52-.59,.34-1.02,.84-1.3,1.51h-.11v-5.49h-1.84v13.12Zm-341.85,20h2.05l1.08-3.06h5.81l1.08,3.06h2.05l-4.66-13.12h-2.75l-4.66,13.12Zm3.6-4.59l1.48-4.05,.92-2.68h.11l.92,2.68,1.44,4.05h-4.86Zm10.09,4.59h1.96v-13.12h-1.96v13.12Zm4.11-3.98h5.4v-1.57h-5.4v1.57Zm7.24,6.98h1.85v-4.88h.11c.24,.61,.64,1.1,1.21,1.48,.56,.37,1.24,.56,2.03,.56,1.16,0,2.1-.42,2.81-1.26,.72-.84,1.08-2.06,1.08-3.65s-.36-2.81-1.08-3.65c-.71-.85-1.64-1.28-2.81-1.28-.79,0-1.47,.19-2.03,.58-.56,.37-.97,.86-1.21,1.46h-.11l-.07-1.87h-1.78v12.53Zm4.55-4.37c-.59,0-1.08-.13-1.48-.4-.4-.28-.7-.63-.9-1.06-.2-.44-.31-.91-.31-1.4v-1.06c0-.49,.1-.95,.31-1.39,.2-.44,.5-.8,.9-1.06,.4-.28,.89-.41,1.48-.41,.79,0,1.43,.29,1.91,.86,.49,.56,.74,1.41,.74,2.54s-.25,1.96-.74,2.54c-.48,.56-1.12,.85-1.91,.85Zm10.69,1.53c.96,0,1.78-.2,2.47-.61,.7-.42,1.23-1,1.6-1.73,.38-.74,.58-1.6,.58-2.57s-.2-1.88-.59-2.61c-.38-.74-.92-1.31-1.62-1.71-.7-.4-1.51-.59-2.43-.59s-1.79,.21-2.48,.63c-.7,.41-1.24,.98-1.62,1.73-.37,.73-.56,1.59-.56,2.57s.19,1.86,.58,2.59c.4,.73,.94,1.3,1.64,1.71,.71,.4,1.52,.59,2.45,.59Zm0-1.55c-.84,0-1.51-.29-2.02-.88-.5-.59-.76-1.41-.76-2.47s.25-1.94,.76-2.52c.52-.59,1.19-.88,2.02-.88s1.52,.3,2.02,.9c.49,.59,.74,1.42,.74,2.48s-.25,1.91-.76,2.5c-.5,.58-1.17,.86-2,.86Zm7.65,1.39h2.41l1.71-7.16h.07l1.76,7.16h2.43l2.43-9.52h-1.82l-1.87,7.69h-.05l-1.82-7.69h-2.05l-1.76,7.67h-.09l-1.87-7.67h-1.91l2.43,9.52Zm16.09,.16c.76,0,1.43-.13,2.03-.38,.61-.26,1.11-.62,1.49-1.08,.38-.47,.62-1.01,.7-1.64h-1.76c-.12,.49-.4,.89-.85,1.19-.44,.29-.98,.43-1.62,.43-.83,0-1.49-.26-2-.79-.49-.54-.75-1.3-.77-2.29h7.06c.1-1,0-1.89-.31-2.68-.3-.8-.79-1.43-1.48-1.89-.67-.47-1.53-.7-2.57-.7-.92,0-1.73,.2-2.41,.61-.68,.41-1.21,.98-1.58,1.73-.36,.73-.54,1.6-.54,2.61s.19,1.82,.56,2.56c.37,.73,.9,1.3,1.58,1.71,.7,.41,1.52,.61,2.47,.61Zm-.09-8.37c.71,0,1.3,.2,1.78,.59,.49,.4,.75,1.03,.77,1.91h-5.2c.07-.78,.34-1.39,.81-1.84,.48-.44,1.09-.67,1.84-.67Zm6.38,8.21h1.84v-5.44c.05-.78,.31-1.38,.77-1.8,.47-.43,1.12-.65,1.96-.65h.31c.11,0,.2,0,.27,.02v-1.75c-.08-.01-.17-.02-.27-.02-.08-.01-.18-.02-.29-.02-.62,0-1.19,.15-1.69,.45s-.86,.76-1.06,1.37h-.09l-.09-1.69h-1.66v9.52Zm10.45,.16c.76,0,1.43-.13,2.03-.38,.61-.26,1.11-.62,1.49-1.08,.38-.47,.62-1.01,.7-1.64h-1.76c-.12,.49-.4,.89-.85,1.19-.44,.29-.98,.43-1.62,.43-.83,0-1.49-.26-2-.79-.49-.54-.75-1.3-.77-2.29h7.06c.1-1,0-1.89-.31-2.68-.3-.8-.79-1.43-1.48-1.89-.67-.47-1.53-.7-2.57-.7-.92,0-1.73,.2-2.41,.61-.68,.41-1.21,.98-1.58,1.73-.36,.73-.54,1.6-.54,2.61s.19,1.82,.56,2.56c.37,.73,.9,1.3,1.58,1.71,.7,.41,1.52,.61,2.47,.61Zm-.09-8.37c.71,0,1.3,.2,1.78,.59,.49,.4,.75,1.03,.77,1.91h-5.2c.07-.78,.34-1.39,.81-1.84,.48-.44,1.09-.67,1.84-.67Zm9.79,8.37c.8,0,1.49-.19,2.05-.56,.56-.38,.96-.88,1.19-1.49h.11l.07,1.89h1.78v-13.12h-1.85v5.47h-.11c-.23-.61-.62-1.1-1.19-1.48-.56-.37-1.25-.56-2.05-.56-1.16,0-2.11,.42-2.83,1.26-.71,.84-1.06,2.06-1.06,3.65s.35,2.82,1.06,3.67c.72,.84,1.66,1.26,2.83,1.26Zm.65-1.53c-.79,0-1.43-.29-1.91-.86-.48-.58-.72-1.42-.72-2.54s.24-1.97,.72-2.54c.48-.58,1.12-.86,1.91-.86,.59,0,1.08,.14,1.48,.41,.4,.28,.7,.63,.9,1.06,.2,.43,.31,.89,.31,1.39v1.08c0,.49-.1,.96-.31,1.4-.2,.43-.5,.79-.9,1.06-.4,.26-.89,.4-1.48,.4Zm17.76,4.37h1.85v-12.53h-1.78l-.07,1.87h-.11c-.23-.61-.62-1.1-1.19-1.48-.56-.37-1.25-.56-2.05-.56-1.16,0-2.11,.42-2.83,1.26-.71,.84-1.06,2.06-1.06,3.65s.35,2.82,1.06,3.67c.72,.84,1.66,1.26,2.83,1.26,.8,0,1.49-.19,2.05-.56,.56-.38,.96-.88,1.19-1.49h.11v4.9Zm-2.7-4.37c-.79,0-1.43-.29-1.91-.86-.48-.58-.72-1.42-.72-2.54s.24-1.97,.72-2.54c.48-.58,1.12-.86,1.91-.86,.59,0,1.08,.14,1.48,.41,.4,.28,.7,.63,.9,1.06,.2,.43,.31,.89,.31,1.39v1.08c0,.49-.1,.96-.31,1.4-.2,.43-.5,.79-.9,1.06-.4,.26-.89,.4-1.48,.4Zm10.48,1.53c.74,0,1.4-.18,1.98-.54,.58-.37,.98-.89,1.21-1.55h.11l.09,1.93h1.76v-9.52h-1.85v5.15c0,.88-.24,1.6-.72,2.16-.48,.55-1.11,.83-1.89,.83s-1.38-.23-1.73-.7c-.35-.48-.52-1.16-.52-2.03v-5.4h-1.85v5.87c0,1.26,.3,2.21,.9,2.86,.6,.64,1.44,.95,2.52,.95Zm11.6,0c.96,0,1.78-.2,2.47-.61,.7-.42,1.23-1,1.6-1.73,.38-.74,.58-1.6,.58-2.57s-.2-1.88-.59-2.61c-.38-.74-.92-1.31-1.62-1.71-.7-.4-1.51-.59-2.43-.59s-1.79,.21-2.48,.63c-.7,.41-1.24,.98-1.62,1.73-.37,.73-.56,1.59-.56,2.57s.19,1.86,.58,2.59c.4,.73,.94,1.3,1.64,1.71,.71,.4,1.52,.59,2.45,.59Zm0-1.55c-.84,0-1.51-.29-2.02-.88-.5-.59-.76-1.41-.76-2.47s.25-1.94,.76-2.52c.52-.59,1.19-.88,2.02-.88s1.52,.3,2.02,.9c.49,.59,.74,1.42,.74,2.48s-.25,1.91-.76,2.5c-.5,.58-1.17,.86-2,.86Zm9.3,1.39h1.91v-1.53h-1.3c-.3,0-.51-.05-.63-.16-.12-.11-.18-.32-.18-.63v-5.69h2.11v-1.51h-2.11v-2.97l-1.85,.22v2.75h-1.8v1.51h1.8v6.03c0,.64,.14,1.13,.43,1.48,.3,.34,.84,.5,1.62,.5Zm7.45,.16c.76,0,1.43-.13,2.03-.38,.61-.26,1.11-.62,1.49-1.08,.38-.47,.62-1.01,.7-1.64h-1.76c-.12,.49-.4,.89-.85,1.19-.44,.29-.98,.43-1.62,.43-.83,0-1.49-.26-2-.79-.49-.54-.75-1.3-.77-2.29h7.06c.1-1,0-1.89-.31-2.68-.3-.8-.79-1.43-1.48-1.89-.67-.47-1.53-.7-2.57-.7-.92,0-1.73,.2-2.41,.61-.68,.41-1.21,.98-1.58,1.73-.36,.73-.54,1.6-.54,2.61s.19,1.82,.56,2.56c.37,.73,.9,1.3,1.58,1.71,.7,.41,1.52,.61,2.47,.61Zm-.09-8.37c.71,0,1.3,.2,1.78,.59,.49,.4,.75,1.03,.77,1.91h-5.2c.07-.78,.34-1.39,.81-1.84,.48-.44,1.09-.67,1.84-.67Zm9.92,8.39c1.25,0,2.23-.23,2.95-.7,.72-.48,1.08-1.21,1.08-2.18,0-.73-.17-1.28-.5-1.66-.32-.38-.76-.66-1.31-.83-.55-.18-1.16-.31-1.82-.4-.8-.11-1.4-.26-1.78-.45-.37-.19-.56-.52-.56-.99,0-.41,.17-.74,.5-.99s.82-.38,1.44-.38,1.1,.14,1.46,.41c.36,.26,.55,.68,.56,1.26h1.82c-.01-.92-.35-1.65-1.03-2.18-.67-.54-1.6-.81-2.77-.81s-2.08,.25-2.79,.76c-.7,.49-1.04,1.19-1.04,2.11,0,.65,.16,1.15,.47,1.51s.74,.63,1.28,.81c.55,.18,1.19,.32,1.91,.43,.8,.12,1.39,.28,1.75,.47s.54,.55,.54,1.08c0,.44-.18,.79-.54,1.04-.35,.24-.86,.36-1.55,.36s-1.21-.14-1.64-.43c-.43-.3-.65-.77-.65-1.42h-1.84c0,.95,.35,1.72,1.04,2.3,.71,.58,1.72,.86,3.02,.86Zm5.83-.18h1.85v-1.89h-1.85v1.89Z"/>
    </g>
  </g>
  <g>
    <path class="cls-2" d="M.63,129.81c-.62-5.2,1.18-10.4,4.89-14.11L115.22,5.99c3.71-3.71,8.91-5.51,14.11-4.89l46.28,5.51L6.14,176.09,.63,129.81Z"/>
    <path class="cls-3" d="M22.98,137.71l6.47-6.47-1.63-1.63-4.64,4.64-8.44-8.44-1.82,1.82,10.07,10.07Zm-.88-15.9l1.73-1.73-1.69-1.69-1.73,1.73,1.69,1.69Zm8.39,8.39l1.73-1.73-7.35-7.35-1.73,1.73,7.35,7.35Zm3.59-3.59l1.73-1.73-4.05-4.05c-.55-.55-.87-1.18-.97-1.88-.08-.71,.16-1.35,.72-1.91,.51-.51,1.04-.71,1.6-.61,.57,.09,1.2,.48,1.89,1.17l4.03,4.03,1.74-1.74-4.05-4.05c-.55-.55-.88-1.18-.97-1.88-.08-.71,.15-1.34,.7-1.89,.52-.52,1.05-.72,1.62-.62,.57,.09,1.2,.48,1.89,1.18l4.03,4.03,1.73-1.73-4.41-4.41c-.75-.75-1.46-1.23-2.14-1.45-.67-.23-1.3-.25-1.89-.07-.58,.18-1.11,.5-1.59,.98-.56,.56-.93,1.22-1.11,1.96-.18,.74-.09,1.48,.29,2.22l-.11,.11c-.8-.41-1.54-.54-2.22-.37-.68,.17-1.29,.52-1.82,1.05-.51,.51-.85,1.11-1.02,1.8-.17,.68-.09,1.37,.22,2.07l-.08,.08-1.45-1.34-1.67,1.67,7.35,7.35Zm5.05-21.82l1.73-1.73-1.69-1.69-1.73,1.73,1.69,1.69Zm8.39,8.39l1.73-1.73-7.35-7.35-1.73,1.73,7.35,7.35Zm5.87-5.87l1.53-1.53-1.41-1.41-.94,.94c-.21,.21-.41,.33-.58,.36-.18,.02-.39-.09-.62-.32l-3.96-3.97,1.56-1.56-1.4-1.39-1.56,1.56-2.25-2.25-1.53,1.89,2.07,2.07-1.35,1.35,1.4,1.4,1.35-1.35,4.28,4.28c.53,.52,1.05,.81,1.59,.87,.53,.06,1.14-.26,1.82-.94Zm5.93-5.68c.6-.6,1.04-1.24,1.31-1.92s.39-1.35,.33-2.02c-.06-.67-.3-1.28-.72-1.82l-1.64,1.64c.25,.41,.32,.88,.22,1.38-.11,.5-.39,.97-.83,1.41-.57,.57-1.21,.85-1.92,.84-.72-.02-1.41-.36-2.09-1.04l5.28-5.28c-.72-.88-1.51-1.52-2.38-1.91-.87-.41-1.75-.52-2.64-.35-.9,.17-1.77,.67-2.61,1.51-.72,.72-1.18,1.51-1.4,2.36-.21,.84-.18,1.69,.11,2.57,.29,.86,.82,1.68,1.6,2.46,.76,.76,1.56,1.27,2.4,1.55,.86,.27,1.71,.29,2.56,.07,.86-.23,1.66-.72,2.4-1.46Zm-6.35-6.22c.48-.48,1.02-.75,1.63-.8s1.22,.19,1.82,.75l-3.58,3.58c-.47-.58-.7-1.18-.68-1.81,.02-.63,.29-1.2,.8-1.71Zm13.79-1.21c.6-.6,.98-1.24,1.13-1.93,.15-.7,.08-1.36-.19-1.99l.1-.1,1.42,1.31,1.66-1.66-10.06-10.09-1.73,1.73,4.08,4.07-.1,.1c-.63-.28-1.28-.34-1.98-.18-.7,.15-1.35,.52-1.95,1.12-.88,.88-1.28,1.92-1.17,3.11,.1,1.19,.78,2.41,2.03,3.66,1.24,1.24,2.46,1.92,3.65,2.02,1.19,.1,2.22-.29,3.11-1.17Zm-.76-2.06c-.55,.55-1.2,.8-1.93,.75s-1.51-.48-2.31-1.28c-.81-.81-1.24-1.58-1.3-2.32-.06-.74,.19-1.38,.75-1.93,.41-.41,.85-.66,1.31-.73,.46-.09,.92-.05,1.37,.12,.44,.17,.84,.42,1.19,.77l.76,.76c.34,.34,.6,.74,.77,1.19,.17,.44,.21,.9,.12,1.37-.07,.46-.32,.9-.73,1.31Zm12.03-9.46l1.53-1.53-1.41-1.41-.94,.94c-.21,.21-.41,.33-.58,.36-.18,.02-.39-.09-.62-.32l-3.96-3.96,1.56-1.56-1.4-1.4-1.56,1.56-2.25-2.25-1.53,1.89,2.07,2.07-1.35,1.35,1.4,1.4,1.35-1.35,4.28,4.28c.53,.53,1.05,.82,1.59,.87,.53,.06,1.14-.26,1.82-.94Zm-5.52-11.25l1.73-1.73-1.69-1.69-1.73,1.73,1.69,1.69Zm8.39,8.39l1.73-1.73-7.35-7.35-1.73,1.73,7.35,7.35Zm3.59-3.59l1.73-1.73-4.05-4.05c-.55-.55-.88-1.18-.97-1.88-.08-.71,.16-1.34,.72-1.91,.51-.51,1.04-.71,1.6-.61,.57,.09,1.2,.48,1.89,1.17l4.03,4.03,1.74-1.74-4.05-4.05c-.55-.55-.88-1.18-.97-1.88-.08-.71,.15-1.34,.7-1.89,.52-.52,1.06-.72,1.62-.62,.57,.09,1.2,.48,1.89,1.17l4.03,4.03,1.73-1.73-4.41-4.41c-.75-.75-1.46-1.23-2.14-1.45-.67-.23-1.3-.25-1.89-.07-.58,.17-1.11,.5-1.59,.98-.56,.56-.93,1.22-1.11,1.96-.18,.74-.09,1.48,.29,2.22l-.11,.11c-.8-.41-1.54-.54-2.22-.37-.68,.17-1.29,.52-1.82,1.05-.51,.51-.85,1.11-1.02,1.8-.17,.68-.09,1.37,.22,2.07l-.08,.08-1.45-1.34-1.67,1.67,7.35,7.35Zm16.71-16.46c.6-.6,1.04-1.24,1.31-1.92,.28-.68,.39-1.35,.33-2.02-.06-.67-.3-1.28-.72-1.82l-1.64,1.64c.25,.41,.32,.88,.22,1.38-.11,.5-.39,.97-.83,1.41-.57,.57-1.21,.85-1.92,.84-.72-.02-1.41-.36-2.09-1.04l5.28-5.28c-.72-.88-1.51-1.52-2.38-1.91-.86-.41-1.75-.52-2.64-.35-.9,.17-1.77,.67-2.61,1.51-.72,.72-1.18,1.51-1.4,2.36-.21,.84-.17,1.69,.11,2.57,.29,.86,.82,1.68,1.6,2.46,.76,.76,1.56,1.27,2.4,1.55,.86,.27,1.71,.29,2.56,.07,.86-.23,1.66-.72,2.4-1.46Zm-6.36-6.22c.48-.48,1.02-.75,1.63-.8,.61-.06,1.22,.19,1.82,.75l-3.58,3.58c-.47-.58-.7-1.18-.68-1.81,.02-.63,.28-1.2,.8-1.71Zm17.35-4.78c.76-.76,1.24-1.56,1.46-2.4,.22-.87,.19-1.73-.1-2.58-.28-.87-.79-1.68-1.55-2.43-.79-.79-1.62-1.32-2.49-1.57-.88-.27-1.74-.28-2.58-.04-.85,.22-1.64,.7-2.36,1.42-.76,.76-1.25,1.57-1.48,2.45-.22,.87-.19,1.73,.08,2.6,.29,.86,.81,1.66,1.56,2.42,.78,.78,1.61,1.31,2.49,1.57,.88,.27,1.74,.28,2.58,.04,.86-.25,1.65-.74,2.38-1.46Zm-1.44-1.41c-.58,.58-1.24,.84-1.99,.77-.75-.06-1.51-.48-2.28-1.26-.79-.79-1.21-1.56-1.26-2.31-.06-.76,.2-1.42,.77-1.99,.57-.57,1.23-.82,1.98-.76s1.51,.49,2.29,1.27c.78,.78,1.2,1.55,1.26,2.31,.05,.74-.2,1.39-.77,1.96Zm6.82-4.22l1.73-1.73-5.96-5.95,2.58-2.58,5.95,5.95,1.73-1.73-5.95-5.95,1.56-1.56-1.4-1.4-1.56,1.56-.84-.84c-.21-.21-.33-.44-.35-.68-.02-.24,.12-.51,.43-.82l.91-.91-1.17-1.17-1.4,1.4c-.64,.64-.98,1.28-1.04,1.95-.06,.66,.21,1.28,.79,1.87l.94,.94-2.58,2.58-.84-.84c-.21-.21-.33-.43-.36-.66-.02-.24,.12-.51,.43-.82l.93-.93-1.17-1.17-1.41,1.41c-.64,.64-.98,1.28-1.04,1.95-.05,.65,.22,1.27,.8,1.85l.94,.94-1.27,1.27,1.4,1.4,1.27-1.27,5.96,5.95Zm11.74-11.49c.6-.6,1.04-1.24,1.31-1.92,.28-.68,.39-1.35,.33-2.02-.06-.67-.3-1.28-.72-1.82l-1.64,1.64c.25,.41,.32,.87,.22,1.38-.11,.5-.39,.97-.83,1.41-.57,.57-1.21,.85-1.92,.84-.72-.02-1.41-.36-2.09-1.04l5.28-5.28c-.72-.88-1.51-1.52-2.38-1.91-.87-.41-1.75-.52-2.64-.35-.9,.17-1.77,.67-2.61,1.51-.72,.72-1.18,1.51-1.4,2.36-.21,.84-.18,1.69,.11,2.57,.29,.86,.82,1.68,1.6,2.46,.76,.76,1.56,1.27,2.4,1.55,.86,.27,1.71,.29,2.56,.07,.86-.23,1.66-.72,2.4-1.46Zm-6.35-6.22c.48-.48,1.02-.75,1.63-.8,.61-.06,1.22,.19,1.82,.75l-3.58,3.58c-.47-.58-.7-1.18-.68-1.81,.02-.63,.28-1.2,.8-1.71Zm11.03,1.3l1.73-1.73-4.02-4.02c-.54-.6-.81-1.22-.8-1.85,.01-.65,.35-1.32,1.02-1.99,.09-.09,.18-.17,.26-.23,.08-.08,.15-.15,.21-.21l-1.63-1.63-.43,.43c-.48,.48-.8,1.01-.97,1.6-.17,.57-.1,1.17,.21,1.81l-.06,.06-1.31-1.15-1.56,1.56,7.35,7.35Z"/>
  </g>
</svg>