<?xml version="1.0" encoding="utf-8"?>
<!-- Generator: Adobe Illustrator 27.0.0, SVG Export Plug-In . SVG Version: 6.00 Build 0)  -->
<svg version="1.1" id="Layer_1" xmlns="http://www.w3.org/2000/svg" xmlns:xlink="http://www.w3.org/1999/xlink" x="0px" y="0px"
	 viewBox="0 0 1410.8 462" style="enable-background:new 0 0 1410.8 462;" xml:space="preserve">
<style type="text/css">
	.st0{fill:#6A6E85;}
	.st1{clip-path:url(#SVGID_00000152962636811558369190000011828047185657274044_);}
	.st2{fill:#FFFFFF;}
	.st3{fill:url(#SVGID_00000140716820212548589280000012398806145794199179_);}
</style>
<path class="st0" d="M9.5,138.5l76.9,73.9l-79.6,3.4L9.5,138.5L9.5,138.5z"/>
<path class="st0" d="M213.2,84L183.7,5.5l31.4,2.2L213.2,84z"/>
<g>
	<defs>
		<path id="SVGID_1_" d="M62.8,25h1308c22.1,0,40,17.9,40,40v357c0,22.1-17.9,40-40,40H62.8c-22.1,0-40-17.9-40-40V65
			C22.8,42.9,40.7,25,62.8,25z"/>
	</defs>
	<clipPath id="SVGID_00000016036616010390357660000001726772618193433994_">
		<use xlink:href="#SVGID_1_"  style="overflow:visible;"/>
	</clipPath>
	<g style="clip-path:url(#SVGID_00000016036616010390357660000001726772618193433994_);">
		<path class="st2" d="M62.8,25h1308c22.1,0,40,17.9,40,40v357c0,22.1-17.9,40-40,40H62.8c-22.1,0-40-17.9-40-40V65
			C22.8,42.9,40.7,25,62.8,25z"/>
	</g>
</g>
<g>
	
		<linearGradient id="SVGID_00000016770950534216853920000011653879726911218584_" gradientUnits="userSpaceOnUse" x1="198.2704" y1="406.3581" x2="122.5104" y2="410.258" gradientTransform="matrix(1 0 0 1 0 -304.06)">
		<stop  offset="0" style="stop-color:#617AF5"/>
		<stop  offset="1" style="stop-color:#879BFF"/>
	</linearGradient>
	<path style="fill:url(#SVGID_00000016770950534216853920000011653879726911218584_);" d="M0.2,159c-0.8-6.4,1.5-12.8,6-17.3
		L140.9,6.9c4.6-4.6,10.9-6.8,17.3-6l56.9,6.8L6.9,215.9L0.2,159z"/>
	<path class="st2" d="M43.4,154l5.1-5.1c1.2-1.2,2-2.5,2.3-3.8c0.3-1.4,0.2-2.7-0.2-4.1c-0.5-1.4-1.3-2.7-2.6-3.9
		c-1.2-1.2-2.5-2.1-3.9-2.6c-1.4-0.5-2.7-0.6-4.1-0.2c-1.4,0.3-2.6,1.1-3.8,2.3l-5.1,5.1L43.4,154L43.4,154z M43.7,149.8l-8.5-8.5
		l2.5-2.6c0.7-0.7,1.5-1.2,2.4-1.5c0.8-0.3,1.7-0.2,2.7,0.1c0.9,0.3,1.9,1,2.9,2c1,1,1.7,2,2,2.9c0.3,0.9,0.4,1.8,0.1,2.7
		c-0.3,0.8-0.8,1.6-1.5,2.4L43.7,149.8z M45.7,131.1l2.1-2.1l-2.1-2.1l-2.1,2.1L45.7,131.1L45.7,131.1z M56,141.4l2.1-2.1l-9-9
		l-2.1,2.1L56,141.4z M63.6,134.1c0.7-0.7,1.2-1.5,1.4-2.4c0.2-0.9,0.1-1.7-0.2-2.4l0.1-0.1l1.8,1.6l2-2l-12.3-12.4l-2.1,2.1l5,5
		l-0.1,0.1c-0.8-0.3-1.6-0.4-2.4-0.2c-0.9,0.2-1.7,0.6-2.4,1.4c-1.1,1.1-1.6,2.4-1.4,3.8c0.1,1.5,1,3,2.5,4.5c1.5,1.5,3,2.4,4.5,2.5
		C61.3,135.7,62.5,135.2,63.6,134.1L63.6,134.1z M62.7,131.6c-0.7,0.7-1.5,1-2.4,0.9s-1.8-0.6-2.8-1.6c-1-1-1.5-1.9-1.6-2.9
		c-0.1-0.9,0.2-1.7,0.9-2.4c0.5-0.5,1-0.8,1.6-0.9c0.6-0.1,1.1-0.1,1.7,0.2c0.5,0.2,1,0.5,1.5,0.9l0.9,0.9c0.4,0.4,0.7,0.9,1,1.5
		c0.2,0.5,0.2,1.1,0.2,1.7C63.5,130.5,63.2,131.1,62.7,131.6L62.7,131.6z M77.1,126l1.4-1.4c0.8-0.8,1.2-1.5,1.4-2.4s0-1.8-0.5-3
		l-6-13.3l-2.3,2.3l3.4,6.9l0.7,1.3l-0.1,0.1l-1.4-0.7l-7-3.3l-2.3,2.3l11.8,4.8l0.5,1.1c0.2,0.5,0.3,0.9,0.2,1.3
		c-0.1,0.4-0.3,0.8-0.7,1.2l-1,1L77.1,126L77.1,126z M87.4,110.4c0.9-0.9,1.5-1.9,1.8-2.9c0.3-1.1,0.2-2.1-0.1-3.2
		c-0.3-1.1-1-2.1-1.9-3c-1-1-2-1.6-3.1-1.9C83,99,82,99,80.9,99.3c-1,0.3-2,0.8-2.9,1.8c-0.9,0.9-1.5,1.9-1.8,3
		c-0.3,1.1-0.2,2.1,0.1,3.2c0.3,1.1,1,2,1.9,3c1,1,2,1.6,3.1,1.9s2.1,0.3,3.2,0.1C85.5,111.9,86.5,111.3,87.4,110.4L87.4,110.4z
		 M85.6,108.6c-0.7,0.7-1.5,1-2.4,0.9c-0.9-0.1-1.8-0.6-2.8-1.5c-1-1-1.5-1.9-1.5-2.8c-0.1-0.9,0.2-1.7,0.9-2.4
		c0.7-0.7,1.5-1,2.4-0.9s1.9,0.6,2.8,1.6s1.5,1.9,1.5,2.8C86.6,107.1,86.3,107.9,85.6,108.6L85.6,108.6z M96.7,101.1
		c0.7-0.7,1.1-1.4,1.3-2.3s0.1-1.7-0.3-2.5l0.1-0.1l1.8,1.7l2-2l-9-9l-2.1,2.1l4.9,4.9c0.7,0.7,1.1,1.5,1.2,2.4
		c0.1,0.9-0.2,1.7-0.9,2.4s-1.4,1-2.1,0.9c-0.7-0.1-1.4-0.6-2.2-1.3l-5-5l-2.1,2.1l5.6,5.6c1.2,1.2,2.3,1.8,3.5,1.8
		C94.6,102.6,95.7,102.1,96.7,101.1L96.7,101.1z M107.6,89.9l2.2-2.2l-2.7-2.7l0-2.8l1.5,0.4l5.2,1.1l2.5-2.5l-9.1-1.9l-0.1-7
		l-2.6,2.6l0.1,6.2l0.1,1.6l-7.4-7.4l-2.2,2.2L107.6,89.9L107.6,89.9z M117.8,79.6l2.1-2.1l-5-5c-0.7-0.7-1.1-1.5-1.2-2.3
		c-0.1-0.9,0.2-1.7,0.9-2.4c0.7-0.7,1.3-0.9,2.1-0.8c0.7,0.1,1.5,0.6,2.3,1.4l5,5l2.1-2.1l-5.4-5.4c-0.9-0.9-1.8-1.5-2.6-1.8
		c-0.8-0.3-1.6-0.3-2.3-0.1c-0.7,0.2-1.4,0.7-2,1.3c-0.7,0.7-1.1,1.4-1.3,2.3c-0.2,0.8-0.1,1.7,0.2,2.6l-0.1,0.1l-1.8-1.6l-2,2
		L117.8,79.6L117.8,79.6z M132.5,65.2c0.9-0.9,1.5-1.9,1.8-3c0.3-1.1,0.2-2.1-0.1-3.2c-0.3-1.1-1-2.1-1.9-3c-1-1-2-1.6-3.1-1.9
		c-1.1-0.3-2.1-0.3-3.2,0c-1,0.3-2,0.8-2.9,1.8c-0.9,0.9-1.5,1.9-1.8,3c-0.3,1.1-0.2,2.1,0.1,3.2c0.3,1,1,2,1.9,3c1,1,2,1.6,3.1,1.9
		c1.1,0.3,2.1,0.3,3.2,0.1C130.6,66.7,131.6,66.1,132.5,65.2L132.5,65.2z M130.7,63.5c-0.7,0.7-1.5,1-2.4,1
		c-0.9-0.1-1.8-0.6-2.8-1.5c-1-1-1.5-1.9-1.5-2.8c-0.1-0.9,0.2-1.7,0.9-2.4c0.7-0.7,1.5-1,2.4-0.9s1.9,0.6,2.8,1.6
		c1,1,1.5,1.9,1.5,2.8C131.8,62,131.5,62.8,130.7,63.5L130.7,63.5z M139.5,57.9l2.7-2.7l-4.9-7.7l0.1-0.1l7.8,4.9l2.8-2.8l-6.8-11.3
		l-2.1,2.1l5.4,8.5l-0.1,0.1l-8.4-5.4l-2.3,2.3l5.4,8.4l-0.1,0.1l-8.5-5.3l-2.2,2.2L139.5,57.9L139.5,57.9z M150.8,39.7l1.9-1.9
		l-0.2-0.2c-0.4-0.4-0.6-0.8-0.8-1.3c-0.1-0.5-0.2-1.1-0.2-1.7c0-0.6,0-1.2-0.1-1.9c0-0.6-0.2-1.3-0.4-1.9c-0.2-0.6-0.6-1.2-1.1-1.8
		c-1-1-2.1-1.5-3.4-1.4c-1.3,0-2.6,0.7-3.9,2c-0.9,0.9-1.4,1.8-1.8,2.7c-0.3,0.9-0.4,1.9-0.2,2.8c0.2,0.9,0.7,1.7,1.5,2.5l2.1-2.1
		c-0.6-0.6-0.9-1.2-0.9-2s0.3-1.4,0.9-2c0.6-0.6,1.2-0.9,1.8-0.9c0.6-0.1,1.2,0.2,1.8,0.8c0.4,0.4,0.7,0.9,0.8,1.4
		c0.1,0.5,0.2,1,0.3,1.6c0,0.6,0.1,1.1,0.1,1.7c0.1,0.6,0.2,1.1,0.4,1.7c0.2,0.5,0.5,1,1,1.5L150.8,39.7L150.8,39.7z M154.2,43.2
		l2.1-2.1l-2-2l-2.1,2.1L154.2,43.2z"/>
</g>
</svg>
