<?xml version="1.0" encoding="UTF-8"?>
<svg id="Layer_1" data-name="Layer 1" xmlns="http://www.w3.org/2000/svg" xmlns:xlink="http://www.w3.org/1999/xlink" viewBox="0 0 1410.77 461.97">
  <defs>
    <style>
      .cls-1 {
        fill: #fff;
      }

      .cls-2 {
        fill: #f9f9fa;
      }

      .cls-3 {
        clip-path: url(#clippath);
      }

      .cls-4 {
        fill: none;
      }

      .cls-5 {
        fill: #6a6e85;
      }

      .cls-6 {
        fill: url(#linear-gradient);
      }
    </style>
    <clipPath id="clippath">
      <rect class="cls-4" x="22.77" y="24.97" width="1388" height="437" rx="40" ry="40"/>
    </clipPath>
    <linearGradient id="linear-gradient" x1="198.27" y1="385.65" x2="122.51" y2="381.75" gradientTransform="translate(0 487.94) scale(1 -1)" gradientUnits="userSpaceOnUse">
      <stop offset="0" stop-color="#617af5"/>
      <stop offset="1" stop-color="#879bff"/>
    </linearGradient>
  </defs>
  <path class="cls-5" d="M9.54,138.49l76.95,73.95-79.58,3.45,2.63-77.39Z"/>
  <path class="cls-5" d="M213.19,84.02L183.69,5.52l31.41,2.16-1.91,76.34Z"/>
  <g class="cls-3">
    <rect class="cls-2" x="22.77" y="24.97" width="1388" height="437" rx="40" ry="40"/>
  </g>
  <g>
    <path class="cls-6" d="M.15,159.02c-.76-6.39,1.45-12.78,6-17.33L140.91,6.93c4.55-4.55,10.94-6.76,17.33-6l56.86,6.77L6.92,215.88,.15,159.02Z"/>
    <path class="cls-1" d="M43.41,154l5.13-5.12c1.21-1.21,1.98-2.49,2.31-3.84,.32-1.36,.23-2.72-.25-4.09-.49-1.37-1.35-2.67-2.58-3.9-1.24-1.24-2.55-2.11-3.92-2.6-1.36-.5-2.72-.58-4.07-.24-1.36,.32-2.64,1.08-3.85,2.29l-5.13,5.12,12.37,12.37Zm.31-4.18l-8.52-8.52,2.55-2.55c.74-.74,1.52-1.24,2.36-1.51,.84-.27,1.72-.25,2.65,.07,.94,.3,1.91,.96,2.92,1.97,1.02,1.02,1.69,2,2,2.95,.33,.94,.36,1.83,.1,2.68-.27,.84-.78,1.62-1.51,2.36l-2.55,2.55Zm1.95-18.68l2.12-2.12-2.07-2.07-2.12,2.12,2.07,2.07Zm10.3,10.3l2.12-2.12-9.03-9.03-2.12,2.12,9.03,9.03Zm7.63-7.33c.74-.74,1.2-1.53,1.39-2.38,.18-.86,.1-1.67-.24-2.44l.12-.12,1.75,1.61,2.04-2.04-12.35-12.39-2.12,2.12,5.01,5.01-.12,.12c-.77-.34-1.58-.41-2.43-.22-.86,.18-1.66,.64-2.39,1.37-1.09,1.09-1.57,2.36-1.44,3.82,.12,1.46,.96,2.96,2.49,4.5,1.53,1.53,3.02,2.35,4.48,2.48,1.46,.12,2.73-.36,3.82-1.44Zm-.93-2.53c-.68,.68-1.47,.99-2.38,.92-.91-.07-1.85-.59-2.83-1.58-1-1-1.53-1.95-1.6-2.85-.07-.9,.24-1.7,.92-2.38,.51-.51,1.05-.81,1.61-.9,.57-.11,1.13-.06,1.68,.15,.54,.2,1.03,.52,1.46,.95l.93,.93c.42,.42,.74,.9,.95,1.46,.2,.54,.25,1.1,.15,1.68-.09,.57-.39,1.1-.9,1.61Zm14.39-5.56l1.39-1.39c.75-.75,1.22-1.53,1.41-2.36,.19-.83,.02-1.83-.53-3l-5.97-13.27-2.26,2.26,3.41,6.91,.71,1.32-.08,.08-1.36-.68-7.01-3.31-2.32,2.32,11.85,4.85,.48,1.09c.21,.46,.29,.89,.22,1.27-.06,.37-.28,.76-.68,1.15l-1,1,1.75,1.75Zm10.3-15.66c.93-.93,1.53-1.91,1.8-2.95,.27-1.06,.23-2.12-.12-3.17-.34-1.06-.97-2.06-1.9-2.99-.97-.97-1.99-1.62-3.06-1.93-1.07-.33-2.13-.35-3.17-.05-1.04,.27-2.01,.85-2.9,1.75-.93,.93-1.53,1.93-1.82,3-.27,1.06-.24,2.13,.1,3.19,.35,1.05,.99,2.04,1.92,2.97,.96,.96,1.98,1.61,3.05,1.93s2.13,.35,3.17,.05c1.05-.31,2.02-.9,2.92-1.8Zm-1.76-1.73c-.71,.71-1.53,1.03-2.44,.95-.92-.08-1.85-.59-2.8-1.54-.97-.97-1.49-1.92-1.54-2.83-.07-.93,.25-1.74,.95-2.44,.7-.7,1.51-1.01,2.43-.93,.92,.08,1.86,.6,2.82,1.56,.96,.96,1.48,1.91,1.54,2.83,.07,.9-.25,1.71-.95,2.41Zm11.08-7.58c.67-.67,1.1-1.43,1.31-2.29s.11-1.71-.27-2.54l.1-.1,1.83,1.66,2.04-2.04-9.03-9.03-2.12,2.12,4.92,4.92c.71,.71,1.11,1.51,1.21,2.39,.09,.88-.21,1.67-.9,2.36-.69,.69-1.4,.98-2.12,.87-.71-.12-1.45-.57-2.22-1.34l-5.04-5.04-2.12,2.12,5.6,5.6c1.17,1.17,2.34,1.77,3.51,1.82,1.18,.04,2.28-.45,3.31-1.48Zm10.89-11.2l2.15-2.15-2.66-2.66,.02-2.83,1.48,.39,5.18,1.1,2.49-2.49-9.06-1.9-.05-7.04-2.63,2.63,.14,6.18,.1,1.63-7.37-7.37-2.16,2.16,12.37,12.37Zm10.27-10.28l2.12-2.12-4.97-4.97c-.68-.68-1.06-1.46-1.15-2.34-.09-.88,.22-1.68,.93-2.39,.67-.67,1.35-.94,2.05-.83,.71,.1,1.49,.58,2.34,1.43l4.96,4.96,2.12-2.12-5.41-5.41c-.92-.92-1.79-1.51-2.63-1.78-.82-.28-1.61-.31-2.34-.07-.74,.24-1.41,.66-2.02,1.27-.66,.66-1.09,1.41-1.31,2.26-.21,.85-.14,1.71,.22,2.6l-.1,.1-1.8-1.63-2.04,2.04,9.03,9.03Zm14.66-14.36c.93-.93,1.53-1.91,1.8-2.95,.27-1.06,.23-2.12-.12-3.17-.34-1.06-.97-2.06-1.9-2.99-.97-.97-1.99-1.62-3.05-1.93-1.07-.33-2.13-.35-3.17-.05-1.04,.27-2.01,.85-2.9,1.75-.93,.93-1.53,1.93-1.82,3-.27,1.06-.24,2.13,.1,3.19,.35,1.05,.99,2.04,1.92,2.97,.96,.96,1.98,1.61,3.05,1.93,1.07,.33,2.13,.34,3.17,.05,1.05-.31,2.02-.91,2.92-1.8Zm-1.76-1.73c-.71,.71-1.53,1.03-2.44,.95-.92-.08-1.85-.59-2.8-1.54-.97-.97-1.49-1.92-1.54-2.83-.07-.93,.25-1.74,.95-2.44,.7-.7,1.51-1.01,2.43-.93s1.86,.6,2.82,1.56c.96,.96,1.48,1.91,1.54,2.83,.07,.91-.25,1.71-.95,2.41Zm8.79-5.6l2.73-2.73-4.92-7.74,.08-.08,7.79,4.87,2.77-2.77-6.79-11.27-2.1,2.1,5.35,8.5-.07,.07-8.42-5.43-2.32,2.32,5.41,8.4-.08,.08-8.5-5.31-2.17,2.17,11.25,6.81Zm11.28-18.17l1.92-1.92-.2-.2c-.37-.37-.62-.81-.75-1.32-.11-.52-.18-1.08-.19-1.68-.01-.62-.04-1.25-.09-1.88-.04-.63-.18-1.26-.41-1.87-.23-.63-.61-1.22-1.15-1.76-1-1-2.13-1.47-3.41-1.41-1.27,.05-2.56,.72-3.87,2.04-.85,.85-1.43,1.75-1.75,2.7-.33,.94-.38,1.87-.17,2.78,.23,.91,.71,1.73,1.46,2.48l2.07-2.07c-.58-.58-.87-1.23-.87-1.95s.32-1.4,.95-2.04c.57-.57,1.16-.87,1.8-.92,.62-.06,1.22,.2,1.8,.78,.41,.41,.68,.87,.83,1.37,.15,.51,.24,1.05,.27,1.63,.02,.57,.06,1.14,.1,1.73,.05,.57,.16,1.13,.36,1.68,.18,.54,.51,1.05,.98,1.53l.31,.31Zm3.38,3.51l2.07-2.07-2.04-2.04-2.07,2.07,2.04,2.04Z"/>
  </g>
</svg>