<svg width="104" height="31" viewBox="0 0 104 31" fill="none" xmlns="http://www.w3.org/2000/svg">
<path d="M31.7178 17.7162C31.7178 24.7639 25.994 30.5 18.9614 30.5H9.26473V27.2807H18.9588C24.155 27.2807 28.3942 23.0972 28.5003 17.9184C26.6432 22.6851 22.016 26.0702 16.6155 26.0702H0L8.525 9.47615L19.608 15.1604L15.674 22.8484C15.674 22.8484 16.825 22.8458 16.9284 22.8432L21.0357 14.8105L10.9356 9.6239L11.3727 8.76853L22.4661 14.4606L18.2605 22.7032C22.7402 21.9204 26.1569 17.9935 26.1569 13.2812C26.1569 8.00907 21.8738 3.71928 16.6155 3.71928H5.3126V0.5H16.6155C22.3755 0.5 27.2588 4.34914 28.8339 9.61871C30.6962 11.8997 31.7178 14.7587 31.7178 17.7162Z" fill="url(#paint0_linear_831_230)"/>
<path d="M75.0438 25.6918C76.0965 25.6918 76.8 26.358 76.8 27.3585C76.8 28.359 76.099 29.0251 75.0438 29.0251C73.9911 29.0251 73.2876 28.359 73.2876 27.3585C73.2876 26.358 73.9885 25.6918 75.0438 25.6918Z" fill="url(#paint1_linear_831_230)"/>
<path d="M80.1805 14.9116H83.1368V17.006H80.1805V14.9116ZM80.1805 18.6156H83.1368V28.8022H80.1805V18.6156Z" fill="url(#paint2_linear_831_230)"/>
<path d="M94.7475 18.1542C100.365 18.1542 103.433 19.9323 103.433 23.7115C103.433 27.527 100.513 29.2688 94.7475 29.2688C89.0004 29.2688 86.0595 27.527 86.0595 23.7115C86.0595 19.8961 88.9978 18.1542 94.7475 18.1542ZM94.7475 26.8038C98.9065 26.8038 100.477 25.8577 100.477 23.7115C100.477 21.5809 98.8496 20.6192 94.7475 20.6192C90.6065 20.6192 89.0185 21.5627 89.0185 23.7115C89.0159 25.8396 90.6428 26.8038 94.7475 26.8038Z" fill="url(#paint3_linear_831_230)"/>
<path d="M49.5955 15.1501C48.7446 15.4274 45.5839 15.9847 42.6276 15.9847C36.27 15.9847 33.9396 14.4295 33.9396 10.4274C33.9396 6.81674 36.1381 4.87014 42.0534 4.87014C47.3401 4.87014 50.7956 6.29575 50.1671 11.3891H37.0072C37.3589 13.1853 38.8177 13.6312 42.625 13.6312C46.0262 13.6312 48.7239 13.2242 49.5929 12.8717V15.1501H49.5955ZM47.3401 9.46319C47.322 7.92613 45.5115 7.23924 42.0534 7.23924C38.947 7.23924 37.4339 7.79393 37.0253 9.46319H47.3401Z" fill="url(#paint4_linear_831_230)"/>
<path d="M66.6559 14.2247C65.3238 15.4093 63.5883 15.9847 60.2233 15.9847C54.6236 15.9847 52.2389 13.7608 52.2389 10.4274C52.2389 7.09409 54.6236 4.87014 60.2233 4.87014C63.3478 4.87014 66.7102 5.20451 69.6122 5.70477V15.5207H66.6559V14.2247ZM60.9268 13.5197C65.2514 13.5197 66.6559 12.3533 66.6559 9.99974V7.7395C65.898 7.59176 63.6607 7.33256 60.9268 7.33256C56.7135 7.33256 55.1978 8.22162 55.1978 10.4248C55.1978 12.5943 56.7497 13.5197 60.9268 13.5197Z" fill="url(#paint5_linear_831_230)"/>
<path d="M72.7004 1.62753H75.6568V15.5181H72.7004V1.62753Z" fill="url(#paint6_linear_831_230)"/>
<path d="M43.0724 18.1516C48.6903 18.1516 51.7604 19.9298 51.7604 23.7089C51.7604 27.5244 48.8403 29.2662 43.0724 29.2662C37.3253 29.2662 34.3845 27.5244 34.3845 23.7089C34.3871 19.8935 37.3253 18.1516 43.0724 18.1516ZM43.0724 26.8012C47.2315 26.8012 48.8015 25.8551 48.8015 23.7089C48.8015 21.5783 47.1746 20.6166 43.0724 20.6166C38.9315 20.6166 37.3434 21.5601 37.3434 23.7089C37.3434 25.8396 38.9703 26.8012 43.0724 26.8012Z" fill="url(#paint7_linear_831_230)"/>
<path d="M57.5049 18.6156L61.7752 22.4492L66.1179 18.6156H70.0002L64.641 23.4316L70.2795 28.8022H66.3946L61.7752 24.4684L57.2282 28.8022H53.3459L58.9844 23.4316L53.6252 18.6156H57.5049Z" fill="url(#paint8_linear_831_230)"/>
<defs>
<linearGradient id="paint0_linear_831_230" x1="27.3645" y1="-3.5678" x2="95.2944" y2="33.5872" gradientUnits="userSpaceOnUse">
<stop stop-color="#715CF3"/>
<stop offset="1" stop-color="#5C99F3"/>
</linearGradient>
<linearGradient id="paint1_linear_831_230" x1="27.3645" y1="-3.5678" x2="95.2944" y2="33.5872" gradientUnits="userSpaceOnUse">
<stop stop-color="#715CF3"/>
<stop offset="1" stop-color="#5C99F3"/>
</linearGradient>
<linearGradient id="paint2_linear_831_230" x1="27.3645" y1="-3.5678" x2="95.2944" y2="33.5872" gradientUnits="userSpaceOnUse">
<stop stop-color="#715CF3"/>
<stop offset="1" stop-color="#5C99F3"/>
</linearGradient>
<linearGradient id="paint3_linear_831_230" x1="27.3645" y1="-3.5678" x2="95.2944" y2="33.5872" gradientUnits="userSpaceOnUse">
<stop stop-color="#715CF3"/>
<stop offset="1" stop-color="#5C99F3"/>
</linearGradient>
<linearGradient id="paint4_linear_831_230" x1="27.3645" y1="-3.5678" x2="95.2944" y2="33.5872" gradientUnits="userSpaceOnUse">
<stop stop-color="#715CF3"/>
<stop offset="1" stop-color="#5C99F3"/>
</linearGradient>
<linearGradient id="paint5_linear_831_230" x1="27.3645" y1="-3.5678" x2="95.2944" y2="33.5872" gradientUnits="userSpaceOnUse">
<stop stop-color="#715CF3"/>
<stop offset="1" stop-color="#5C99F3"/>
</linearGradient>
<linearGradient id="paint6_linear_831_230" x1="27.3645" y1="-3.5678" x2="95.2944" y2="33.5872" gradientUnits="userSpaceOnUse">
<stop stop-color="#715CF3"/>
<stop offset="1" stop-color="#5C99F3"/>
</linearGradient>
<linearGradient id="paint7_linear_831_230" x1="27.3645" y1="-3.5678" x2="95.2944" y2="33.5872" gradientUnits="userSpaceOnUse">
<stop stop-color="#715CF3"/>
<stop offset="1" stop-color="#5C99F3"/>
</linearGradient>
<linearGradient id="paint8_linear_831_230" x1="27.3645" y1="-3.5678" x2="95.2944" y2="33.5872" gradientUnits="userSpaceOnUse">
<stop stop-color="#715CF3"/>
<stop offset="1" stop-color="#5C99F3"/>
</linearGradient>
</defs>
</svg>
