<?xml version="1.0" encoding="utf-8"?>
<!-- Generator: Adobe Illustrator 27.0.0, SVG Export Plug-In . SVG Version: 6.00 Build 0)  -->
<svg version="1.1" id="Layer_1" xmlns="http://www.w3.org/2000/svg" xmlns:xlink="http://www.w3.org/1999/xlink" x="0px" y="0px"
	 viewBox="0 0 1028 393" style="enable-background:new 0 0 1028 393;" xml:space="preserve">
<style type="text/css">
	.st0{fill:url(#SVGID_1_);}
	.st1{fill:url(#SVGID_00000102513234045561867800000004539072453525657251_);}
	.st2{fill:url(#SVGID_00000042720253733766258690000006255949379090202002_);}
	.st3{fill:url(#SVGID_00000023256553831142042140000004754992690135879559_);fill-opacity:0.48;}
	.st4{fill:#3F64FA;}
	.st5{fill:#FFFFFF;}
	.st6{opacity:0.1;fill:#3F64FA;enable-background:new    ;}
	.st7{fill:url(#SVGID_00000013900642336031187970000012669090418462942349_);}
	.st8{fill:none;stroke:#E4E9FA;stroke-width:4;}
	.st9{fill:#2C2C2C;}
</style>
<linearGradient id="SVGID_1_" gradientUnits="userSpaceOnUse" x1="221.4967" y1="152.8973" x2="347.9968" y2="148.8973" gradientTransform="matrix(1 0 0 -1 0 404)">
	<stop  offset="0" style="stop-color:#3F64FA"/>
	<stop  offset="1" style="stop-color:#3F64FA;stop-opacity:0"/>
</linearGradient>
<path class="st0" d="M226,251h111c1.1,0,2,0.9,2,2l0,0c0,1.1-0.9,2-2,2H226c-1.1,0-2-0.9-2-2l0,0C224,251.9,224.9,251,226,251z"/>
<linearGradient id="SVGID_00000176737462394981810470000015406898525191295898_" gradientUnits="userSpaceOnUse" x1="1205.4967" y1="436.8973" x2="1331.9967" y2="432.8973" gradientTransform="matrix(-1 0 0 1 2000 -182)">
	<stop  offset="0" style="stop-color:#3F64FA"/>
	<stop  offset="1" style="stop-color:#3F64FA;stop-opacity:0"/>
</linearGradient>
<path style="fill:url(#SVGID_00000176737462394981810470000015406898525191295898_);" d="M790,255H679c-1.1,0-2-0.9-2-2l0,0
	c0-1.1,0.9-2,2-2h111c1.1,0,2,0.9,2,2l0,0C792,254.1,791.1,255,790,255z"/>
<linearGradient id="SVGID_00000062897749929624095160000005021428616404002438_" gradientUnits="userSpaceOnUse" x1="493.7383" y1="268.4233" x2="541.0464" y2="260.5013" gradientTransform="matrix(1 0 0 -1 0 404)">
	<stop  offset="0" style="stop-color:#715CF3"/>
	<stop  offset="1" style="stop-color:#5C99F3"/>
</linearGradient>
<path style="fill:url(#SVGID_00000062897749929624095160000005021428616404002438_);" d="M541,142c0,12.7-10.3,23-22.9,23h-17.4
	v-5.8h17.4c9.3,0,17-7.5,17.1-16.9c-3.3,8.6-11.7,14.7-21.4,14.7H484l15.3-29.9l19.9,10.2l-7.1,13.8c0,0,2.1,0,2.3,0l7.4-14.5
	l-18.2-9.3l0.8-1.5l19.9,10.2l-7.6,14.8c8-1.4,14.2-8.5,14.2-17c0-9.5-7.7-17.2-17.1-17.2h-20.3V111h20.3c10.4,0,19.1,6.9,22,16.4
	C539.2,131.5,541,136.7,541,142z"/>
<g>
	
		<linearGradient id="SVGID_00000041994968315895585040000004176076035931138738_" gradientUnits="userSpaceOnUse" x1="505.6774" y1="178.41" x2="509.1685" y2="389.4998" gradientTransform="matrix(1 0 0 -1 0 404)">
		<stop  offset="0" style="stop-color:#6581F2"/>
		<stop  offset="1" style="stop-color:#FFFFFF;stop-opacity:0"/>
	</linearGradient>
	
		<rect x="441.6" y="-46" style="fill:url(#SVGID_00000041994968315895585040000004176076035931138738_);fill-opacity:0.48;" width="132.6" height="271.9"/>
</g>
<g>
	<ellipse class="st4" cx="509.4" cy="265.6" rx="94.7" ry="54.7"/>
	<ellipse class="st5" cx="509.4" cy="265.6" rx="45.7" ry="26.4"/>
</g>
<ellipse class="st6" cx="509.4" cy="265.6" rx="177.1" ry="102.2"/>
<ellipse class="st6" cx="509.4" cy="265.6" rx="132.4" ry="76.4"/>
<linearGradient id="SVGID_00000166639325852716180850000017195809678331553970_" gradientUnits="userSpaceOnUse" x1="-29.5018" y1="504.8089" x2="99.1932" y2="484.3924" gradientTransform="matrix(0.866 -0.5 -0.866 -0.5 921.2802 524.5474)">
	<stop  offset="0" style="stop-color:#715CF3"/>
	<stop  offset="1" style="stop-color:#5C99F3"/>
</linearGradient>
<ellipse style="fill:url(#SVGID_00000166639325852716180850000017195809678331553970_);" cx="509.4" cy="265.6" rx="94.7" ry="54.7"/>
<ellipse class="st5" cx="509.4" cy="265.6" rx="45.7" ry="26.4"/>
<g>
	<path class="st5" d="M888.2,161.5l77.8,77.8c4.7,4.7,4.7,12.3,0,17L888.2,334c-4.7,4.7-12.3,4.7-17,0l-77.8-77.8
		c-4.7-4.7-4.7-12.3,0-17l77.8-77.8C876,156.8,883.6,156.8,888.2,161.5z"/>
	<path class="st8" d="M889.7,160.1l77.8,77.8c5.5,5.5,5.5,14.3,0,19.8l-77.8,77.8c-5.5,5.5-14.3,5.5-19.8,0l-77.8-77.8
		c-5.5-5.5-5.5-14.3,0-19.8l77.8-77.8C875.3,154.6,884.2,154.6,889.7,160.1z"/>
</g>
<path class="st9" d="M859.3,260h11.5v-2.5h-8.6V253h7.5v-2.4h-7.5v-4.2h8.5V244h-11.4V260z M873.7,260h2.9v-6.2h4.3
	c1.1,0,1.8,0.2,2.1,0.6c0.4,0.4,0.5,1,0.5,1.7v2.1c0,0.4,0,0.7,0,1.1c0,0.3,0.1,0.6,0.2,0.8h2.9c-0.1-0.3-0.2-0.6-0.2-0.9
	c0-0.3,0-0.6,0-0.9v-2.6c0-0.9-0.2-1.6-0.6-2.1c-0.4-0.5-1-0.8-1.8-1v-0.2c0.9-0.2,1.6-0.7,2-1.4c0.5-0.7,0.7-1.5,0.7-2.5
	c0-1.4-0.5-2.5-1.4-3.3c-0.9-0.8-2.3-1.2-4.1-1.2h-7.7V260z M876.6,251.5v-5.1h4.4c0.9,0,1.6,0.2,2.1,0.6c0.5,0.4,0.8,1,0.8,1.9
	c0,0.8-0.2,1.4-0.7,1.9c-0.4,0.5-1.2,0.7-2.2,0.7H876.6z M889.7,260h2.9v-5.7l3.8,0c1.2,0,2.2-0.2,3.1-0.7s1.5-1,1.9-1.8
	c0.5-0.8,0.7-1.7,0.7-2.8c0-1.6-0.5-2.9-1.6-3.8c-1-0.9-2.4-1.4-4.1-1.4h-6.7V260z M895.9,246.4c0.9,0,1.7,0.2,2.3,0.6
	c0.6,0.4,0.9,1.1,0.9,2.2s-0.3,1.7-0.9,2.2c-0.6,0.4-1.4,0.7-2.3,0.7l-3.3,0v-5.6H895.9z"/>
<g>
	<path class="st5" d="M147.2,165.5l77.8,77.8c4.7,4.7,4.7,12.3,0,17L147.2,338c-4.7,4.7-12.3,4.7-17,0l-77.8-77.8
		c-4.7-4.7-4.7-12.3,0-17l77.8-77.8C135,160.8,142.6,160.8,147.2,165.5z"/>
	<path class="st8" d="M148.7,164.1l77.8,77.8c5.5,5.5,5.5,14.3,0,19.8l-77.8,77.8c-5.5,5.5-14.3,5.5-19.8,0l-77.8-77.8
		c-5.5-5.5-5.5-14.3,0-19.8l77.8-77.8C134.3,158.6,143.2,158.6,148.7,164.1z"/>
</g>
<path class="st9" d="M121.1,260.2c1.3,0,2.5-0.2,3.6-0.7c1.1-0.5,1.9-1.1,2.6-2c0.7-0.9,1.1-1.8,1.2-3h-3c-0.2,1-0.7,1.7-1.5,2.3
	c-0.8,0.6-1.8,0.9-2.9,0.9c-1.5,0-2.7-0.5-3.6-1.5c-0.9-1-1.3-2.4-1.3-4.3c0-1.8,0.4-3.3,1.3-4.2c0.9-1,2.1-1.5,3.6-1.5
	c1.2,0,2.2,0.3,2.9,0.9s1.3,1.3,1.5,2.3h3c-0.1-1.1-0.6-2.1-1.2-3c-0.7-0.9-1.5-1.5-2.6-2c-1-0.5-2.2-0.7-3.6-0.7
	c-1.6,0-3,0.3-4.2,1c-1.2,0.6-2.1,1.6-2.8,2.8c-0.7,1.2-1,2.7-1,4.4s0.3,3.2,1,4.4c0.7,1.2,1.6,2.2,2.8,2.8
	C118.1,259.9,119.5,260.2,121.1,260.2z M131.2,260h2.9v-6.2h4.3c1.1,0,1.8,0.2,2.1,0.6c0.4,0.4,0.5,1,0.5,1.7v2.1c0,0.4,0,0.7,0,1.1
	c0,0.3,0.1,0.6,0.2,0.8h2.9c-0.1-0.3-0.2-0.6-0.2-0.9c0-0.3,0-0.6,0-0.9v-2.6c0-0.9-0.2-1.6-0.6-2.1c-0.4-0.5-1-0.8-1.8-1v-0.2
	c0.9-0.2,1.6-0.7,2-1.4c0.5-0.7,0.7-1.5,0.7-2.5c0-1.4-0.5-2.5-1.4-3.3c-0.9-0.8-2.3-1.2-4.1-1.2h-7.7V260z M134.1,251.5v-5.1h4.4
	c0.9,0,1.6,0.2,2.1,0.6c0.5,0.4,0.8,1,0.8,1.9c0,0.8-0.2,1.4-0.7,1.9c-0.4,0.5-1.2,0.7-2.2,0.7H134.1z M147.1,260h2.8v-6.9l-0.1-6.1
	h0.2l4.3,13h2.3l4.2-13h0.2l0,6.1v6.9h2.8v-16h-4.4l-3.9,11.4h-0.1l-3.9-11.4h-4.4V260z"/>
</svg>
