<?xml version="1.0" encoding="utf-8"?>
<!-- Generator: Adobe Illustrator 27.0.0, SVG Export Plug-In . SVG Version: 6.00 Build 0)  -->
<svg version="1.1" id="Layer_1" xmlns="http://www.w3.org/2000/svg" xmlns:xlink="http://www.w3.org/1999/xlink" x="0px" y="0px"
	 viewBox="0 0 1410.8 462" style="enable-background:new 0 0 1410.8 462;" xml:space="preserve">
<style type="text/css">
	.st0{fill:#6A6E85;}
	.st1{fill:url(#SVGID_1_);}
	.st2{fill:#FFFFFF;}
	.st3{clip-path:url(#SVGID_00000116939820765986698110000014364881858433069196_);}
</style>
<g>
	<path class="st0" d="M614.8,0.1l2.1,106.7L558.2,53L614.8,0.1L614.8,0.1z"/>
	<path class="st0" d="M797.3,105.6l34.6-76.4L852.6,53L797.3,105.6z"/>
	<g>
		
			<linearGradient id="SVGID_1_" gradientUnits="userSpaceOnUse" x1="684.2653" y1="199.0582" x2="608.5052" y2="202.9582" gradientTransform="matrix(0.7071 0.7071 -0.7071 0.7071 430.7211 -516.6086)">
			<stop  offset="0" style="stop-color:#617AF5"/>
			<stop  offset="1" style="stop-color:#879BFF"/>
		</linearGradient>
		<path class="st1" d="M593.6,8c4-5.1,10.1-8,16.5-8l190.6,0c6.4,0,12.5,3,16.5,8l35.4,45H558.2L593.6,8z"/>
		<path class="st2" d="M627.8,35.1l7.2,0c1.7,0,3.2-0.4,4.3-1.1c1.2-0.7,2.1-1.8,2.7-3.1c0.6-1.3,0.9-2.8,0.9-4.6
			c0-1.8-0.3-3.3-0.9-4.6c-0.6-1.3-1.5-2.3-2.7-3c-1.2-0.7-2.6-1.1-4.3-1.1l-7.2,0L627.8,35.1L627.8,35.1z M630.9,32.3v-12l3.6,0
			c1,0,2,0.2,2.7,0.6c0.8,0.4,1.4,1,1.8,1.9c0.5,0.9,0.7,2,0.7,3.5c0,1.4-0.2,2.6-0.7,3.5c-0.4,0.9-1,1.5-1.8,2
			c-0.8,0.4-1.7,0.6-2.7,0.6L630.9,32.3z M645.5,20.5l3,0v-2.9l-3,0V20.5L645.5,20.5z M645.5,35.1h3V22.3l-3,0V35.1z M656.1,35.3
			c1,0,1.9-0.2,2.7-0.7c0.7-0.5,1.3-1.1,1.6-1.9l0.2,0l0.1,2.4l2.9,0l0-17.5l-3,0v7.1l-0.2,0c-0.3-0.8-0.8-1.4-1.6-1.9
			c-0.7-0.5-1.6-0.7-2.7-0.7c-1.5,0-2.8,0.6-3.7,1.7c-0.9,1.1-1.4,2.8-1.4,4.9c0,2.2,0.5,3.8,1.4,4.9
			C653.3,34.7,654.6,35.3,656.1,35.3L656.1,35.3z M657.2,32.8c-1,0-1.7-0.3-2.3-1c-0.6-0.7-0.9-1.7-0.9-3.1c0-1.4,0.3-2.5,0.9-3.1
			c0.6-0.7,1.4-1,2.3-1c0.7,0,1.3,0.2,1.8,0.5c0.5,0.3,0.8,0.8,1.1,1.3c0.2,0.5,0.4,1.1,0.4,1.7v1.3c0,0.6-0.1,1.2-0.4,1.7
			c-0.2,0.5-0.6,1-1.1,1.3C658.5,32.6,657.9,32.8,657.2,32.8L657.2,32.8z M671.3,39.1h2c1.1,0,1.9-0.2,2.7-0.7
			c0.7-0.5,1.3-1.3,1.7-2.5l5.2-13.6h-3.2l-2.5,7.3l-0.4,1.4h-0.1l-0.5-1.4l-2.6-7.3h-3.3l4.9,11.8l-0.4,1.1
			c-0.2,0.5-0.4,0.8-0.7,1.1c-0.3,0.2-0.7,0.3-1.3,0.3h-1.4L671.3,39.1L671.3,39.1z M689.7,35.3c1.3,0,2.4-0.3,3.4-0.8
			c0.9-0.6,1.7-1.3,2.2-2.3c0.5-1,0.8-2.1,0.8-3.5c0-1.4-0.3-2.6-0.8-3.5c-0.5-1-1.3-1.8-2.2-2.3c-0.9-0.5-2-0.8-3.3-0.8
			c-1.3,0-2.4,0.3-3.4,0.8c-0.9,0.6-1.7,1.3-2.2,2.3c-0.5,1-0.7,2.1-0.7,3.5c0,1.4,0.3,2.5,0.8,3.5c0.5,1,1.3,1.8,2.2,2.3
			C687.3,35,688.4,35.3,689.7,35.3L689.7,35.3z M689.7,32.8c-1,0-1.8-0.4-2.4-1.1c-0.6-0.7-0.9-1.7-0.9-3.1c0-1.4,0.3-2.4,0.9-3.1
			c0.6-0.7,1.4-1.1,2.4-1.1c1,0,1.8,0.4,2.4,1.1c0.6,0.7,0.9,1.7,0.9,3.1c0,1.4-0.3,2.4-0.9,3.1C691.5,32.5,690.7,32.8,689.7,32.8
			L689.7,32.8z M702.9,35.3c0.9,0,1.8-0.2,2.5-0.7s1.3-1.1,1.6-2h0.1l0.1,2.5h2.9V22.3h-3v7c0,1-0.3,1.9-0.8,2.5
			c-0.6,0.7-1.3,1-2.3,1c-1,0-1.7-0.3-2.1-0.9c-0.4-0.6-0.6-1.4-0.6-2.5v-7.1h-3v7.9c0,1.7,0.4,2.9,1.2,3.8
			C700.3,34.9,701.4,35.3,702.9,35.3L702.9,35.3z M718.5,35.1h3v-3.8l2-2l0.8,1.3l2.9,4.4h3.5l-5.1-7.7l4.9-5h-3.7l-4.3,4.5
			l-1.1,1.2V17.6h-3.1L718.5,35.1L718.5,35.1z M733,35.1h3v-7c0-1,0.3-1.8,0.8-2.5c0.6-0.7,1.3-1,2.3-1c0.9,0,1.6,0.3,2,0.9
			c0.4,0.6,0.6,1.5,0.6,2.7v7h3v-7.7c0-1.3-0.2-2.3-0.6-3.1c-0.4-0.8-0.9-1.4-1.6-1.7c-0.7-0.4-1.5-0.5-2.3-0.5
			c-0.9,0-1.8,0.2-2.5,0.7c-0.7,0.5-1.3,1.1-1.7,2H736l-0.1-2.4H733L733,35.1L733,35.1z M753.5,35.3c1.3,0,2.4-0.3,3.4-0.8
			c0.9-0.6,1.7-1.3,2.2-2.3c0.5-1,0.8-2.1,0.8-3.5c0-1.4-0.3-2.6-0.8-3.5c-0.5-1-1.3-1.8-2.2-2.3c-0.9-0.5-2-0.8-3.3-0.8
			c-1.3,0-2.4,0.3-3.4,0.8c-0.9,0.6-1.7,1.3-2.2,2.3c-0.5,1-0.7,2.1-0.7,3.5c0,1.4,0.3,2.5,0.8,3.5c0.5,1,1.3,1.7,2.2,2.3
			C751.2,35,752.3,35.3,753.5,35.3L753.5,35.3z M753.5,32.8c-1,0-1.8-0.4-2.4-1.1c-0.6-0.7-0.9-1.7-0.9-3.1c0-1.4,0.3-2.4,0.9-3.1
			c0.6-0.7,1.4-1.1,2.4-1.1c1,0,1.8,0.4,2.4,1.1c0.6,0.7,0.9,1.7,0.9,3.1s-0.3,2.4-0.9,3.1C755.3,32.5,754.5,32.8,753.5,32.8
			L753.5,32.8z M763.7,35.1l3.9,0l2-9h0.1l2.1,9l3.9,0l3.2-12.8l-3,0l-2.2,9.8l-0.1,0l-2.1-9.8l-3.3,0L766,32h-0.1l-2.3-9.8l-3.1,0
			L763.7,35.1L763.7,35.1z M784.5,30.2h2.7v-0.3c0-0.5,0.1-1,0.4-1.5c0.3-0.4,0.6-0.9,1.1-1.3c0.4-0.4,0.9-0.9,1.3-1.4
			c0.4-0.5,0.8-1,1-1.6c0.3-0.6,0.4-1.3,0.4-2.1c0-1.4-0.5-2.5-1.4-3.4c-0.9-0.9-2.3-1.3-4.2-1.3c-1.2,0-2.2,0.2-3.1,0.7
			c-0.9,0.4-1.6,1.1-2.1,1.8c-0.5,0.8-0.7,1.7-0.7,2.8l2.9,0c0-0.8,0.3-1.5,0.8-2c0.5-0.5,1.2-0.8,2.1-0.8c0.8,0,1.4,0.2,1.9,0.6
			c0.5,0.4,0.7,1,0.7,1.8c0,0.6-0.1,1.1-0.4,1.6c-0.3,0.5-0.6,0.9-1,1.3c-0.4,0.4-0.8,0.8-1.2,1.3c-0.4,0.4-0.7,0.9-0.9,1.4
			c-0.3,0.5-0.4,1.1-0.4,1.8L784.5,30.2L784.5,30.2z M784.4,35.1l2.9,0v-2.9l-2.9,0V35.1z"/>
	</g>
</g>
<g>
	<g>
		<defs>
			<path id="SVGID_00000062912612598832697540000008440050050756734092_" d="M62.8,53h1308c22.1,0,40,16.8,40,37.4v334.1
				c0,20.7-17.9,37.4-40,37.4H62.8c-22.1,0-40-16.8-40-37.4V90.4C22.8,69.8,40.7,53,62.8,53z"/>
		</defs>
		<clipPath id="SVGID_00000020397736720061513820000012706492376610768791_">
			<use xlink:href="#SVGID_00000062912612598832697540000008440050050756734092_"  style="overflow:visible;"/>
		</clipPath>
		<g style="clip-path:url(#SVGID_00000020397736720061513820000012706492376610768791_);">
			<path class="st2" d="M62.8,53h1308c22.1,0,40,16.8,40,37.4v334.1c0,20.7-17.9,37.4-40,37.4H62.8c-22.1,0-40-16.8-40-37.4V90.4
				C22.8,69.8,40.7,53,62.8,53z"/>
		</g>
	</g>
</g>
</svg>
