<?xml version="1.0" encoding="utf-8"?>
<!-- Generator: Adobe Illustrator 27.0.0, SVG Export Plug-In . SVG Version: 6.00 Build 0)  -->
<svg version="1.1" id="Layer_1" xmlns="http://www.w3.org/2000/svg" xmlns:xlink="http://www.w3.org/1999/xlink" x="0px" y="0px"
	 viewBox="0 0 294.4 53" style="enable-background:new 0 0 294.4 53;" xml:space="preserve">
<style type="text/css">
	.st0{fill:#6A6E85;}
	.st1{fill:url(#SVGID_1_);}
	.st2{fill:#FFFFFF;}
</style>
<g>
	<path class="st0" d="M56.6,0.1l2.1,106.7L0,53L56.6,0.1L56.6,0.1z"/>
	<path class="st0" d="M239.1,105.6l34.6-76.4L294.4,53L239.1,105.6z"/>
	<g>
		
			<linearGradient id="SVGID_1_" gradientUnits="userSpaceOnUse" x1="358.8937" y1="30.8357" x2="283.1335" y2="26.9356" gradientTransform="matrix(0.7071 0.7071 0.7071 -0.7071 -59.9674 -123.9795)">
			<stop  offset="0" style="stop-color:#617AF5"/>
			<stop  offset="1" style="stop-color:#879BFF"/>
		</linearGradient>
		<path class="st1" d="M35.4,8c4-5.1,10.1-8,16.5-8h190.6c6.4,0,12.5,3,16.5,8l35.4,45H0L35.4,8z"/>
		<path class="st2" d="M69.6,35.1h7.2c1.7,0,3.2-0.4,4.3-1.1c1.2-0.7,2.1-1.8,2.7-3.1c0.6-1.3,0.9-2.8,0.9-4.6
			c0-1.8-0.3-3.3-0.9-4.6c-0.6-1.3-1.5-2.3-2.7-3s-2.6-1.1-4.3-1.1h-7.2V35.1L69.6,35.1z M72.7,32.3v-12h3.6c1,0,2,0.2,2.7,0.6
			c0.8,0.4,1.4,1,1.8,1.9c0.5,0.9,0.7,2,0.7,3.5c0,1.4-0.2,2.6-0.7,3.5c-0.4,0.9-1,1.5-1.8,2c-0.8,0.4-1.7,0.6-2.7,0.6L72.7,32.3z
			 M87.3,20.5h3v-2.9h-3V20.5L87.3,20.5z M87.3,35.1h3V22.3h-3V35.1z M97.9,35.3c1,0,1.9-0.2,2.7-0.7c0.7-0.5,1.3-1.1,1.6-1.9h0.2
			l0.1,2.4h2.9V17.6h-3v7.1h-0.2c-0.3-0.8-0.8-1.4-1.6-1.9c-0.7-0.5-1.6-0.7-2.7-0.7c-1.5,0-2.8,0.6-3.7,1.7s-1.4,2.8-1.4,4.9
			c0,2.2,0.5,3.8,1.4,4.9C95.1,34.7,96.4,35.3,97.9,35.3L97.9,35.3z M99,32.8c-1,0-1.7-0.3-2.3-1s-0.9-1.7-0.9-3.1s0.3-2.5,0.9-3.1
			c0.6-0.7,1.4-1,2.3-1c0.7,0,1.3,0.2,1.8,0.5s0.8,0.8,1.1,1.3c0.2,0.5,0.4,1.1,0.4,1.7v1.3c0,0.6-0.1,1.2-0.4,1.7
			c-0.2,0.5-0.6,1-1.1,1.3C100.3,32.6,99.7,32.8,99,32.8L99,32.8z M113.1,39.1h2c1.1,0,1.9-0.2,2.7-0.7c0.7-0.5,1.3-1.3,1.7-2.5
			l5.2-13.6h-3.2l-2.5,7.3l-0.4,1.4h-0.1l-0.5-1.4l-2.6-7.3h-3.3l4.9,11.8l-0.4,1.1c-0.2,0.5-0.4,0.8-0.7,1.1
			c-0.3,0.2-0.7,0.3-1.3,0.3h-1.4L113.1,39.1L113.1,39.1z M131.5,35.3c1.3,0,2.4-0.3,3.4-0.8c0.9-0.6,1.7-1.3,2.2-2.3
			s0.8-2.1,0.8-3.5s-0.3-2.6-0.8-3.5c-0.5-1-1.3-1.8-2.2-2.3s-2-0.8-3.3-0.8s-2.4,0.3-3.4,0.8c-0.9,0.6-1.7,1.3-2.2,2.3
			s-0.7,2.1-0.7,3.5s0.3,2.5,0.8,3.5s1.3,1.8,2.2,2.3C129.1,35,130.2,35.3,131.5,35.3L131.5,35.3z M131.5,32.8c-1,0-1.8-0.4-2.4-1.1
			c-0.6-0.7-0.9-1.7-0.9-3.1s0.3-2.4,0.9-3.1c0.6-0.7,1.4-1.1,2.4-1.1s1.8,0.4,2.4,1.1c0.6,0.7,0.9,1.7,0.9,3.1s-0.3,2.4-0.9,3.1
			C133.3,32.5,132.5,32.8,131.5,32.8L131.5,32.8z M144.7,35.3c0.9,0,1.8-0.2,2.5-0.7s1.3-1.1,1.6-2h0.1l0.1,2.5h2.9V22.3h-3v7
			c0,1-0.3,1.9-0.8,2.5c-0.6,0.7-1.3,1-2.3,1s-1.7-0.3-2.1-0.9c-0.4-0.6-0.6-1.4-0.6-2.5v-7.1h-3v7.9c0,1.7,0.4,2.9,1.2,3.8
			C142.1,34.9,143.2,35.3,144.7,35.3L144.7,35.3z M160.3,35.1h3v-3.8l2-2l0.8,1.3L169,35h3.5l-5.1-7.7l4.9-5h-3.7l-4.3,4.5l-1.1,1.2
			V17.6h-3.1L160.3,35.1L160.3,35.1z M174.8,35.1h3v-7c0-1,0.3-1.8,0.8-2.5c0.6-0.7,1.3-1,2.3-1c0.9,0,1.6,0.3,2,0.9
			s0.6,1.5,0.6,2.7v7h3v-7.7c0-1.3-0.2-2.3-0.6-3.1c-0.4-0.8-0.9-1.4-1.6-1.7c-0.7-0.4-1.5-0.5-2.3-0.5c-0.9,0-1.8,0.2-2.5,0.7
			s-1.3,1.1-1.7,2l0,0l-0.1-2.4h-2.9V35.1L174.8,35.1z M195.3,35.3c1.3,0,2.4-0.3,3.4-0.8c0.9-0.6,1.7-1.3,2.2-2.3s0.8-2.1,0.8-3.5
			s-0.3-2.6-0.8-3.5c-0.5-1-1.3-1.8-2.2-2.3s-2-0.8-3.3-0.8s-2.4,0.3-3.4,0.8c-0.9,0.6-1.7,1.3-2.2,2.3s-0.7,2.1-0.7,3.5
			s0.3,2.5,0.8,3.5s1.3,1.7,2.2,2.3C193,35,194.1,35.3,195.3,35.3L195.3,35.3z M195.3,32.8c-1,0-1.8-0.4-2.4-1.1
			c-0.6-0.7-0.9-1.7-0.9-3.1s0.3-2.4,0.9-3.1c0.6-0.7,1.4-1.1,2.4-1.1s1.8,0.4,2.4,1.1c0.6,0.7,0.9,1.7,0.9,3.1s-0.3,2.4-0.9,3.1
			C197.1,32.5,196.3,32.8,195.3,32.8L195.3,32.8z M205.5,35.1h3.9l2-9h0.1l2.1,9h3.9l3.2-12.8h-3l-2.2,9.8h-0.1l-2.1-9.8H210
			l-2.2,9.7h-0.1l-2.3-9.8h-3.1L205.5,35.1L205.5,35.1z M226.3,30.2h2.7v-0.3c0-0.5,0.1-1,0.4-1.5c0.3-0.4,0.6-0.9,1.1-1.3
			c0.4-0.4,0.9-0.9,1.3-1.4c0.4-0.5,0.8-1,1-1.6c0.3-0.6,0.4-1.3,0.4-2.1c0-1.4-0.5-2.5-1.4-3.4s-2.3-1.3-4.2-1.3
			c-1.2,0-2.2,0.2-3.1,0.7c-0.9,0.4-1.6,1.1-2.1,1.8c-0.5,0.8-0.7,1.7-0.7,2.8h2.9c0-0.8,0.3-1.5,0.8-2s1.2-0.8,2.1-0.8
			c0.8,0,1.4,0.2,1.9,0.6s0.7,1,0.7,1.8c0,0.6-0.1,1.1-0.4,1.6c-0.3,0.5-0.6,0.9-1,1.3s-0.8,0.8-1.2,1.3c-0.4,0.4-0.7,0.9-0.9,1.4
			c-0.3,0.5-0.4,1.1-0.4,1.8L226.3,30.2L226.3,30.2z M226.2,35.1h2.9v-2.9h-2.9V35.1z"/>
	</g>
</g>
</svg>
