<?xml version="1.0" encoding="UTF-8"?>
<svg id="Layer_1" data-name="Layer 1" xmlns="http://www.w3.org/2000/svg" xmlns:xlink="http://www.w3.org/1999/xlink" viewBox="0 0 1388 615.35">
  <defs>
    <style>
      .cls-1 {
        fill: url(#linear-gradient-2);
      }

      .cls-2, .cls-3 {
        fill: #fff;
      }

      .cls-4 {
        fill: #e1e8f4;
      }

      .cls-5 {
        fill: url(#linear-gradient-6);
      }

      .cls-6 {
        clip-path: url(#clippath-2);
      }

      .cls-7 {
        fill: #393939;
      }

      .cls-8 {
        stroke: #fff;
        stroke-width: 9.09px;
      }

      .cls-8, .cls-9, .cls-10, .cls-11 {
        fill: none;
      }

      .cls-12 {
        fill: #745efc;
      }

      .cls-3, .cls-13, .cls-14, .cls-15, .cls-16, .cls-17 {
        isolation: isolate;
      }

      .cls-3, .cls-14, .cls-16 {
        opacity: .5;
      }

      .cls-18 {
        clip-path: url(#clippath-1);
      }

      .cls-9 {
        stroke: #725df4;
        stroke-linecap: round;
        stroke-linejoin: round;
        stroke-width: 5.09px;
      }

      .cls-13 {
        opacity: 0;
      }

      .cls-13, .cls-19, .cls-15 {
        fill: #3f64fa;
      }

      .cls-20 {
        fill: #725df4;
      }

      .cls-14 {
        fill: #4d3fa5;
      }

      .cls-21 {
        fill: url(#linear-gradient-5);
      }

      .cls-22 {
        clip-path: url(#clippath);
      }

      .cls-23 {
        fill: #f6f8fa;
      }

      .cls-24 {
        clip-path: url(#clippath-3);
      }

      .cls-25 {
        fill: url(#linear-gradient-7);
      }

      .cls-11 {
        stroke: #f6f8fa;
      }

      .cls-26 {
        fill: url(#linear-gradient-3);
      }

      .cls-15 {
        opacity: .06;
      }

      .cls-27, .cls-16 {
        fill: #5e95f4;
      }

      .cls-28 {
        fill: url(#linear-gradient);
      }

      .cls-29 {
        fill: url(#linear-gradient-4);
      }

      .cls-17 {
        fill: #d7e3f9;
        opacity: .3;
      }
    </style>
    <linearGradient id="linear-gradient" x1="1136.15" y1="587.69" x2="1232.95" y2="572.33" gradientTransform="translate(-477.99 889.31) scale(1 -1)" gradientUnits="userSpaceOnUse">
      <stop offset="0" stop-color="#715cf3"/>
      <stop offset="1" stop-color="#5c99f3"/>
    </linearGradient>
    <clipPath id="clippath">
      <rect class="cls-10" x="671.67" y="283.8" width="47.75" height="47.75"/>
    </clipPath>
    <clipPath id="clippath-1">
      <rect class="cls-10" x="774.48" y="85.5" width="61.61" height="61.61"/>
    </clipPath>
    <clipPath id="clippath-2">
      <rect class="cls-10" x="881.53" y="275.72" width="61.61" height="61.61"/>
    </clipPath>
    <clipPath id="clippath-3">
      <rect class="cls-10" x="551.14" y="465.94" width="61.61" height="61.61"/>
    </clipPath>
    <linearGradient id="linear-gradient-2" x1="803.56" y1="310.36" x2="815.74" y2="308.43" gradientTransform="translate(0 615.35) scale(1 -1)" gradientUnits="userSpaceOnUse">
      <stop offset="0" stop-color="#715cf3"/>
      <stop offset="1" stop-color="#5c99f3"/>
    </linearGradient>
    <linearGradient id="linear-gradient-3" x1="580.23" y1="310.36" x2="592.41" y2="308.43" gradientTransform="translate(0 615.35) scale(1 -1)" gradientUnits="userSpaceOnUse">
      <stop offset="0" stop-color="#715cf3"/>
      <stop offset="1" stop-color="#5c99f3"/>
    </linearGradient>
    <linearGradient id="linear-gradient-4" x1="750.43" y1="404.32" x2="762.6" y2="402.39" gradientTransform="translate(0 615.35) scale(1 -1)" gradientUnits="userSpaceOnUse">
      <stop offset="0" stop-color="#715cf3"/>
      <stop offset="1" stop-color="#5c99f3"/>
    </linearGradient>
    <linearGradient id="linear-gradient-5" x1="632.6" y1="404.32" x2="644.77" y2="402.39" gradientTransform="translate(0 615.35) scale(1 -1)" gradientUnits="userSpaceOnUse">
      <stop offset="0" stop-color="#715cf3"/>
      <stop offset="1" stop-color="#5c99f3"/>
    </linearGradient>
    <linearGradient id="linear-gradient-6" x1="750.43" y1="215.64" x2="762.6" y2="213.71" gradientTransform="translate(0 615.35) scale(1 -1)" gradientUnits="userSpaceOnUse">
      <stop offset="0" stop-color="#715cf3"/>
      <stop offset="1" stop-color="#5c99f3"/>
    </linearGradient>
    <linearGradient id="linear-gradient-7" x1="632.6" y1="215.64" x2="644.77" y2="213.71" gradientTransform="translate(0 615.35) scale(1 -1)" gradientUnits="userSpaceOnUse">
      <stop offset="0" stop-color="#715cf3"/>
      <stop offset="1" stop-color="#5c99f3"/>
    </linearGradient>
  </defs>
  <g>
    <circle class="cls-19" cx="696.31" cy="307.68" r="58.15" transform="translate(-13.62 582.48) rotate(-45)"/>
    <circle class="cls-2" cx="696.31" cy="307.68" r="28.09"/>
  </g>
  <circle class="cls-13" cx="696.31" cy="307.68" r="307.68"/>
  <circle class="cls-15" cx="696.31" cy="307.68" r="112.89"/>
  <circle class="cls-28" cx="696.31" cy="307.68" r="58.15" transform="translate(-13.62 582.48) rotate(-45)"/>
  <circle class="cls-2" cx="696.31" cy="307.68" r="28.09"/>
  <g>
    <rect class="cls-2" x="655.55" y="267.48" width="80.14" height="80.14" rx="40.07" ry="40.07"/>
    <g class="cls-22">
      <g>
        <path class="cls-20" d="M718.42,302.7h-5.69c-.37-1.27-.88-2.5-1.52-3.66l3.98-3.98c.19-.19,.29-.44,.29-.7s-.1-.52-.29-.7l-5.58-5.68c-.19-.19-.44-.29-.7-.29s-.52,.1-.7,.29l-3.98,3.98c-1.18-.63-2.42-1.12-3.71-1.47v-5.69c0-.26-.1-.52-.29-.7s-.44-.29-.7-.29h-7.96c-.26,0-.52,.1-.7,.29s-.29,.44-.29,.7v5.69c-1.27,.37-2.5,.88-3.66,1.52l-3.98-3.98c-.19-.19-.44-.29-.7-.29s-.52,.1-.7,.29l-5.68,5.58c-.19,.19-.29,.44-.29,.7s.1,.52,.29,.7l3.98,3.98c-.63,1.18-1.12,2.42-1.47,3.71h-5.69c-.26,0-.52,.1-.7,.29-.19,.19-.29,.44-.29,.7v7.96c0,.26,.1,.52,.29,.7,.19,.19,.44,.29,.7,.29h5.69c.37,1.27,.88,2.5,1.52,3.66l-3.98,3.98c-.19,.19-.29,.44-.29,.7s.1,.52,.29,.7l5.58,5.68c.19,.19,.44,.29,.7,.29s.52-.1,.7-.29l3.98-3.98c1.18,.63,2.42,1.12,3.71,1.47v5.69c0,.26,.1,.52,.29,.7,.19,.19,.44,.29,.7,.29h7.96c.26,0,.52-.1,.7-.29,.19-.19,.29-.44,.29-.7v-5.69c1.27-.37,2.5-.88,3.66-1.52l3.98,3.98c.19,.19,.44,.29,.7,.29s.52-.1,.7-.29l5.63-5.63c.19-.19,.29-.44,.29-.7s-.1-.52-.29-.7l-3.98-3.98c.64-1.16,1.15-2.39,1.52-3.66h5.69c.26,0,.52-.1,.7-.29,.19-.19,.29-.44,.29-.7v-7.96c0-.26-.1-.52-.29-.7-.19-.19-.44-.29-.7-.29Zm-.99,7.96h-5.46c-.23,0-.45,.07-.63,.21-.18,.14-.31,.34-.36,.56-.39,1.6-1.02,3.13-1.88,4.54-.12,.19-.16,.42-.14,.64,.03,.22,.13,.43,.29,.59l3.87,3.86-4.22,4.22-3.87-3.87c-.16-.16-.36-.26-.59-.29-.22-.03-.45,.02-.64,.14-1.4,.86-2.94,1.49-4.54,1.88-.22,.05-.42,.18-.56,.36-.14,.18-.21,.4-.21,.63v5.44h-5.94v-5.46c0-.23-.07-.45-.21-.63-.14-.18-.34-.31-.56-.36-1.6-.39-3.13-1.02-4.54-1.88-.19-.12-.42-.16-.64-.14-.22,.03-.43,.13-.59,.29l-3.87,3.87-4.21-4.21,3.87-3.86c.16-.16,.26-.36,.29-.59,.03-.22-.02-.45-.14-.64-.86-1.41-1.49-2.94-1.88-4.54-.05-.22-.18-.42-.36-.56-.18-.14-.4-.21-.63-.21h-5.44v-5.96h5.46c.23,0,.45-.07,.63-.21,.18-.14,.31-.34,.36-.56,.39-1.6,1.02-3.13,1.88-4.54,.12-.19,.17-.42,.14-.64-.03-.22-.13-.43-.29-.59l-3.89-3.86,4.22-4.22,3.87,3.87c.16,.16,.36,.26,.59,.29,.22,.03,.45-.02,.64-.14,1.41-.86,2.94-1.49,4.54-1.88,.22-.05,.42-.18,.56-.36,.14-.18,.21-.4,.21-.63v-5.44h5.97v5.46c0,.23,.07,.45,.21,.63,.14,.18,.34,.31,.56,.36,1.6,.39,3.13,1.02,4.54,1.88,.19,.12,.42,.16,.64,.14,.22-.03,.43-.13,.59-.29l3.87-3.87,4.22,4.22-3.87,3.87c-.16,.16-.26,.36-.29,.59-.03,.22,.02,.45,.14,.64,.86,1.4,1.49,2.94,1.88,4.54,.05,.22,.18,.42,.36,.56,.18,.14,.4,.21,.63,.21h5.42v5.94Z"/>
        <path class="cls-20" d="M696.13,298.72l-2.28,2.28,1.4,1.4,3.98-3.98c.19-.19,.29-.44,.29-.7s-.1-.52-.29-.7l-3.98-3.98-1.4,1.4,2.28,2.29h-.59c-2.9,0-5.69,1.15-7.74,3.2s-3.21,4.84-3.21,7.74h1.99c0-2.37,.94-4.65,2.62-6.33,1.68-1.68,3.96-2.62,6.33-2.62h.59Zm-.59,17.91h-.59l2.28-2.28-1.4-1.4-3.98,3.98c-.18,.19-.29,.44-.29,.7s.1,.52,.29,.7l3.98,3.98,1.4-1.4-2.28-2.29h.59c2.9,0,5.69-1.15,7.74-3.2s3.21-4.84,3.21-7.74h-1.99c0,2.37-.94,4.65-2.62,6.33-1.68,1.68-3.96,2.62-6.33,2.62Zm0-12.93c-.79,0-1.56,.23-2.21,.67s-1.16,1.06-1.47,1.79c-.3,.73-.38,1.53-.23,2.3,.15,.77,.53,1.48,1.09,2.04,.56,.56,1.27,.94,2.04,1.09,.77,.15,1.57,.07,2.3-.23,.73-.3,1.35-.81,1.79-1.47,.44-.65,.67-1.42,.67-2.21,0-1.06-.42-2.07-1.17-2.81-.75-.75-1.76-1.17-2.81-1.17Zm0,5.97c-.39,0-.78-.12-1.11-.34s-.58-.53-.73-.89c-.15-.36-.19-.76-.11-1.15,.08-.39,.27-.74,.54-1.02s.63-.47,1.02-.54c.39-.08,.79-.04,1.15,.11,.36,.15,.67,.41,.89,.73s.34,.71,.34,1.11c0,.53-.21,1.03-.58,1.41-.37,.37-.88,.58-1.41,.58Z"/>
      </g>
    </g>
    <path class="cls-8" d="M695.62,263.98h0c24.06,0,43.57,19.51,43.57,43.57h0c0,24.06-19.51,43.57-43.57,43.57h0c-24.06,0-43.57-19.51-43.57-43.57h0c0-24.06,19.51-43.57,43.57-43.57Z"/>
  </g>
  <rect class="cls-23" x="265.81" y="54.31" width="379.67" height="123.99" rx="23.1" ry="23.1"/>
  <path class="cls-7" d="M356.01,109.37h2.35v-5.71h3.99c1.15,0,2.13-.2,2.95-.6,.82-.42,1.44-1,1.88-1.75,.45-.76,.67-1.65,.67-2.65,0-1.6-.5-2.82-1.49-3.69-.99-.88-2.32-1.32-3.99-1.32h-6.36v15.72Zm5.99-7.59h-3.64v-6.1h3.64c1.02,0,1.85,.24,2.48,.73,.65,.49,.97,1.26,.97,2.31s-.32,1.83-.97,2.33c-.63,.5-1.46,.75-2.48,.73Zm7.98,7.59h2.2v-6.51c.06-.93,.37-1.65,.93-2.16,.56-.52,1.34-.78,2.35-.78h.37c.13,0,.24,0,.32,.02v-2.09c-.1-.01-.21-.02-.32-.02-.1-.01-.22-.02-.35-.02-.75,0-1.42,.18-2.03,.54-.6,.36-1.03,.91-1.27,1.64h-.11l-.11-2.03h-1.98v11.41Zm8.11-13.15h2.22v-2.57h-2.22v2.57Zm0,13.15h2.22v-11.41h-2.22v11.41Zm10.07,.19c.95,0,1.8-.17,2.54-.52,.75-.36,1.34-.86,1.79-1.49,.45-.65,.7-1.4,.75-2.26h-2.16c-.09,.72-.39,1.3-.91,1.75-.52,.45-1.19,.67-2.03,.67-.99,0-1.79-.35-2.39-1.04-.59-.7-.88-1.7-.88-2.98s.29-2.2,.86-2.93c.58-.75,1.39-1.12,2.44-1.12,.73,0,1.36,.19,1.88,.58,.53,.37,.86,.93,.99,1.68h2.16c-.06-.82-.31-1.54-.75-2.16-.43-.62-1.01-1.1-1.75-1.44-.72-.35-1.54-.52-2.46-.52-1.14,0-2.13,.24-2.98,.73-.85,.49-1.5,1.18-1.96,2.07-.46,.88-.69,1.9-.69,3.08s.23,2.21,.69,3.11c.46,.88,1.11,1.56,1.94,2.05,.83,.49,1.8,.73,2.91,.73Zm12.09,0c.91,0,1.72-.15,2.44-.45,.73-.32,1.33-.75,1.79-1.29,.46-.56,.74-1.21,.84-1.96h-2.11c-.14,.59-.48,1.06-1.01,1.42-.53,.35-1.18,.52-1.94,.52-.99,0-1.79-.32-2.39-.95-.59-.65-.9-1.56-.93-2.74h8.45c.11-1.19,0-2.26-.37-3.21-.36-.96-.95-1.72-1.77-2.26-.81-.56-1.83-.84-3.08-.84-1.11,0-2.07,.24-2.89,.73-.82,.49-1.45,1.18-1.9,2.07-.43,.88-.65,1.92-.65,3.13s.22,2.18,.67,3.06c.45,.88,1.08,1.56,1.9,2.05,.83,.49,1.82,.73,2.95,.73Zm-.11-10.03c.85,0,1.56,.24,2.13,.71,.59,.47,.9,1.24,.93,2.29h-6.23c.09-.93,.41-1.67,.97-2.2,.57-.53,1.31-.8,2.2-.8Zm16.34,10.03c.96,0,1.78-.22,2.46-.67,.68-.46,1.15-1.06,1.42-1.79h.13v2.26h2.22v-11.41h-2.13l-.09,2.24h-.13c-.27-.73-.75-1.32-1.42-1.77-.68-.45-1.5-.67-2.46-.67-1.39,0-2.52,.5-3.39,1.51-.85,1.01-1.27,2.47-1.27,4.38s.42,3.38,1.27,4.4c.86,1.01,1.99,1.51,3.39,1.51Zm.78-1.83c-.95,0-1.71-.35-2.29-1.04-.58-.69-.86-1.7-.86-3.04s.29-2.37,.86-3.04c.57-.69,1.34-1.04,2.29-1.04,.7,0,1.29,.17,1.77,.5,.47,.33,.83,.75,1.08,1.27,.24,.52,.37,1.07,.37,1.66v1.29c0,.59-.12,1.15-.37,1.68-.24,.52-.6,.94-1.08,1.27-.47,.32-1.06,.47-1.77,.47Zm8.57,1.64h2.2v-6.23c0-.66,.13-1.25,.39-1.77,.26-.53,.63-.96,1.1-1.27,.49-.32,1.06-.47,1.7-.47,.91,0,1.57,.28,2.01,.84,.43,.56,.65,1.42,.65,2.59v6.32h2.22v-6.77c0-1.16-.18-2.1-.54-2.8-.35-.7-.83-1.21-1.44-1.53-.62-.32-1.32-.47-2.09-.47-.83,0-1.6,.21-2.31,.63-.7,.4-1.22,1.01-1.55,1.81h-.13l-.09-2.26h-2.11v11.41Zm17.15,.19c.96,0,1.78-.22,2.46-.67,.68-.46,1.15-1.06,1.42-1.79h.13l.09,2.26h2.13v-15.72h-2.22v6.56h-.13c-.27-.73-.75-1.32-1.42-1.77-.68-.45-1.49-.67-2.46-.67-1.39,0-2.52,.5-3.39,1.51-.85,1.01-1.27,2.47-1.27,4.38s.42,3.38,1.27,4.4c.86,1.01,1.99,1.51,3.39,1.51Zm.78-1.83c-.95,0-1.71-.35-2.29-1.04-.57-.69-.86-1.7-.86-3.04s.29-2.37,.86-3.04c.58-.69,1.34-1.04,2.29-1.04,.7,0,1.29,.17,1.77,.5,.47,.33,.83,.75,1.08,1.27,.24,.52,.37,1.07,.37,1.66v1.29c0,.59-.12,1.15-.37,1.68-.24,.52-.6,.94-1.08,1.27-.47,.32-1.06,.47-1.77,.47Zm13.39,5.24h2.22v-5.84h.13c.29,.73,.77,1.32,1.44,1.77,.68,.45,1.49,.67,2.44,.67,1.39,0,2.52-.5,3.36-1.51,.86-1.01,1.29-2.47,1.29-4.38s-.43-3.37-1.29-4.38c-.85-1.02-1.97-1.53-3.36-1.53-.95,0-1.76,.23-2.44,.69-.68,.45-1.16,1.03-1.44,1.75h-.13l-.09-2.24h-2.13v15.01Zm5.46-5.24c-.7,0-1.29-.16-1.77-.47-.47-.33-.83-.75-1.08-1.27-.24-.53-.37-1.09-.37-1.68v-1.27c0-.59,.12-1.14,.37-1.66,.24-.53,.6-.96,1.08-1.27,.47-.33,1.06-.5,1.77-.5,.95,0,1.71,.35,2.29,1.04,.59,.68,.88,1.69,.88,3.04s-.29,2.35-.88,3.04c-.58,.68-1.34,1.01-2.29,1.01Zm7.79,1.64h2.2v-6.51c.06-.93,.37-1.65,.93-2.16,.56-.52,1.34-.78,2.35-.78h.37c.13,0,.24,0,.32,.02v-2.09c-.1-.01-.21-.02-.32-.02-.1-.01-.22-.02-.35-.02-.75,0-1.42,.18-2.03,.54-.6,.36-1.03,.91-1.27,1.64h-.11l-.11-2.03h-1.98v11.41Zm12.58,.19c1.15,0,2.13-.24,2.95-.73,.83-.5,1.47-1.19,1.92-2.07,.46-.89,.69-1.92,.69-3.08s-.24-2.25-.71-3.13c-.46-.89-1.11-1.57-1.94-2.05s-1.8-.71-2.91-.71-2.14,.25-2.98,.75c-.83,.49-1.48,1.18-1.94,2.07-.45,.88-.67,1.9-.67,3.08s.23,2.23,.69,3.11c.47,.88,1.13,1.56,1.96,2.05,.85,.47,1.83,.71,2.93,.71Zm0-1.85c-1.01,0-1.81-.35-2.42-1.06-.6-.7-.91-1.69-.91-2.95s.3-2.33,.91-3.02c.62-.7,1.42-1.06,2.42-1.06s1.83,.36,2.42,1.08c.59,.7,.88,1.7,.88,2.98s-.3,2.29-.91,3c-.6,.69-1.4,1.04-2.39,1.04Zm8.79,1.66h2.22v-9.6h2.52v-1.81h-2.52v-1.47c0-.37,.09-.67,.26-.88,.19-.23,.53-.35,1.04-.35h1.47v-1.62h-2.05c-.91,0-1.62,.22-2.16,.67-.52,.45-.78,1.1-.78,1.96v1.68h-2.07v1.81h2.07v9.6Zm6.68-13.15h2.22v-2.57h-2.22v2.57Zm0,13.15h2.22v-11.41h-2.22v11.41Zm8.56,0h2.29v-1.83h-1.55c-.36,0-.61-.06-.75-.19-.14-.13-.22-.38-.22-.75v-6.81h2.52v-1.81h-2.52v-3.56l-2.22,.26v3.3h-2.16v1.81h2.16v7.22c0,.76,.17,1.35,.52,1.77,.36,.4,1.01,.6,1.94,.6Zm-68.87,26.95h2.2v-6.23c0-.66,.12-1.25,.37-1.77,.26-.53,.62-.96,1.08-1.27,.46-.32,1.01-.47,1.64-.47,.89,0,1.54,.28,1.94,.84,.42,.56,.63,1.42,.63,2.59v6.32h2.22v-6.23c0-.66,.12-1.25,.37-1.77,.26-.53,.62-.96,1.08-1.27,.46-.32,1-.47,1.62-.47,.89,0,1.55,.28,1.96,.84,.42,.56,.63,1.42,.63,2.59v6.32h2.2v-6.77c0-1.16-.17-2.1-.52-2.8-.35-.7-.81-1.21-1.4-1.53-.59-.32-1.26-.47-2.03-.47-.92,0-1.74,.22-2.46,.67-.72,.45-1.24,1.11-1.55,2.01h-.17c-.29-.98-.76-1.67-1.42-2.07-.66-.4-1.42-.6-2.26-.6s-1.59,.21-2.26,.63c-.68,.4-1.18,1.01-1.51,1.81h-.13l-.09-2.26h-2.11v11.41Zm24.79,.19c.96,0,1.78-.22,2.46-.67,.68-.46,1.15-1.06,1.42-1.79h.13v2.26h2.22v-11.41h-2.13l-.09,2.24h-.13c-.27-.73-.75-1.32-1.42-1.77-.68-.45-1.5-.67-2.46-.67-1.39,0-2.52,.5-3.39,1.51-.85,1.01-1.27,2.47-1.27,4.38s.42,3.38,1.27,4.4c.86,1.01,1.99,1.51,3.39,1.51Zm.78-1.83c-.95,0-1.71-.35-2.29-1.04-.58-.69-.86-1.7-.86-3.04s.29-2.37,.86-3.04c.57-.69,1.34-1.04,2.29-1.04,.7,0,1.29,.17,1.77,.5,.47,.33,.83,.75,1.08,1.27,.24,.52,.37,1.07,.37,1.66v1.29c0,.59-.12,1.15-.37,1.68-.24,.52-.6,.94-1.08,1.27-.47,.32-1.06,.47-1.77,.47Zm8.57,1.64h2.2v-6.51c.06-.93,.37-1.65,.93-2.16,.56-.52,1.34-.78,2.35-.78h.37c.13,0,.24,0,.32,.02v-2.09c-.1-.01-.21-.02-.32-.02-.1-.01-.22-.02-.35-.02-.75,0-1.42,.18-2.03,.54-.6,.36-1.03,.91-1.27,1.64h-.11l-.11-2.03h-1.98v11.41Zm12.28,3.82c1.08,0,2.02-.16,2.82-.47,.81-.32,1.43-.83,1.88-1.55,.46-.7,.69-1.65,.69-2.85v-10.35h-2.16l-.04,2.11h-.15c-.26-.69-.72-1.24-1.38-1.66-.65-.43-1.42-.65-2.33-.65-1.38,0-2.49,.47-3.34,1.42-.85,.95-1.27,2.3-1.27,4.05s.42,3.08,1.25,4.03c.83,.95,1.95,1.42,3.34,1.42,.91,0,1.69-.21,2.35-.63,.66-.43,1.12-.99,1.38-1.68h.15v2.22c0,1.05-.27,1.8-.82,2.24-.53,.46-1.31,.69-2.33,.69-.72,0-1.32-.15-1.79-.45-.46-.29-.73-.68-.82-1.19h-2.16c.12,1.01,.59,1.8,1.42,2.39,.83,.59,1.93,.88,3.3,.88Zm.06-6.21c-.92,0-1.66-.32-2.22-.95-.56-.65-.84-1.57-.84-2.78s.27-2.11,.82-2.76c.56-.65,1.32-.97,2.26-.97,.68,0,1.24,.15,1.68,.45,.46,.29,.81,.66,1.04,1.12,.24,.46,.37,.94,.37,1.44l.02,1.38c-.01,.5-.14,.99-.39,1.47-.24,.46-.6,.84-1.06,1.14-.46,.3-1.02,.45-1.68,.45Zm8.32-10.76h2.22v-2.57h-2.22v2.57Zm0,13.15h2.22v-11.41h-2.22v11.41Zm5.31,0h2.2v-6.23c0-.66,.13-1.25,.39-1.77,.26-.53,.63-.96,1.1-1.27,.49-.32,1.06-.47,1.7-.47,.91,0,1.57,.28,2.01,.84s.65,1.42,.65,2.59v6.32h2.22v-6.77c0-1.16-.18-2.1-.54-2.8-.35-.7-.83-1.21-1.44-1.53-.62-.32-1.32-.47-2.09-.47-.83,0-1.6,.21-2.31,.63-.7,.4-1.22,1.01-1.55,1.81h-.13l-.09-2.26h-2.11v11.41Z"/>
  <g>
    <rect class="cls-2" x="533.04" y="67.4" width="97.81" height="97.81" rx="18.48" ry="18.48" shape-rendering="crispEdges"/>
    <path class="cls-27" d="M563.99,109.08c-.39,.29-1.01,.39-2.02,.39-.87,0-1.69-.1-2.46-.34-.77-.24-1.44-.48-2.02-.77l-1.06,2.79c.34,.19,.91,.39,1.64,.67,.72,.29,1.69,.43,2.84,.53v2.89h3.03v-2.94c.77-.14,1.44-.34,1.97-.63,.53-.29,.96-.63,1.3-1.06,.34-.39,.58-.82,.72-1.3,.14-.48,.24-.96,.24-1.44,0-.72-.14-1.35-.39-1.88-.24-.53-.58-1.01-1.06-1.4-.43-.39-.96-.72-1.59-1.06-.63-.29-1.25-.58-1.97-.87-.48-.14-.87-.29-1.2-.43-.34-.14-.63-.29-.82-.43-.24-.14-.39-.29-.48-.48s-.14-.39-.14-.67c0-.43,.19-.77,.53-1.01,.34-.24,.91-.39,1.69-.39s1.49,.1,2.21,.24c.72,.14,1.3,.34,1.83,.58l.77-2.89c-.34-.14-.82-.34-1.44-.48-.63-.14-1.3-.29-2.17-.38v-2.5h-3.03v2.6c-.72,.14-1.3,.34-1.83,.63-.53,.29-.91,.63-1.25,1.01-.34,.39-.58,.87-.72,1.35-.14,.48-.24,1.01-.24,1.54,0,.67,.14,1.3,.39,1.78,.24,.48,.58,.91,1.01,1.25,.43,.34,.87,.63,1.4,.87,.53,.24,1.01,.43,1.54,.63,.53,.19,1.01,.38,1.44,.53,.43,.19,.77,.34,1.06,.53,.29,.19,.48,.39,.63,.58,.14,.24,.24,.48,.24,.77,0,.58-.19,.91-.58,1.2Z"/>
    <path class="cls-20" d="M600.72,88.86h3.95v17.42l2.26-.58c.19-.05,.34-.1,.53-.1v-19.49h-9.48v21.95l2.74-.72v-18.48Zm4.04,31.82l-.05-.05v23.1h-3.99v-22.09c-.91,.82-1.83,1.59-2.74,2.31v22.48h9.48v-25.17c-.96,.24-1.97,.05-2.7-.58Zm-17.47-18.39h3.95v16.56c.91-.72,1.88-1.44,2.74-2.17v-17.14h-9.43v23.73c.91-.53,1.88-1.11,2.74-1.68v-19.3Zm3.95,41.39h-3.95v-12.61c-.91,.48-1.83,.96-2.74,1.44v13.96h9.48v-19.54c-.91,.63-1.83,1.25-2.74,1.83v14.92h-.05Zm-17.42-29.84h3.95v12.76c.91-.39,1.83-.82,2.74-1.25v-14.25h-9.43v18c.91-.29,1.83-.58,2.74-.91v-14.34Zm3.95,29.84h-3.95v-6.93c-.91,.29-1.83,.58-2.74,.82v8.86h9.43v-12.13c-.91,.39-1.83,.77-2.74,1.11v8.28Zm-13.43,.05h-3.95v-3.85c-.91,.14-1.83,.24-2.74,.39v6.21h9.48v-7.85c-.91,.19-1.83,.39-2.74,.58v4.52h-.05Zm2.74-13.53v-9.53h-9.43v11.36c.91-.14,1.83-.24,2.74-.43v-8.18h3.95v7.46c.91-.19,1.88-.43,2.74-.67Z"/>
    <path class="cls-27" d="M606.25,118.9c.34,.29,.91,.1,.96-.39l1.06-9.96c.05-.39-.34-.72-.72-.63l-9.72,2.55c-.43,.14-.58,.72-.24,1.01l2.84,2.41c-11.31,11.46-25.8,18.34-43.22,20.5-.96,.1-1.64,1.01-1.54,1.93,.1,.96,1.01,1.68,1.97,1.59,9.34-1.16,18-3.66,25.65-7.41,7.32-3.51,14.01-8.33,19.83-14.25l3.13,2.65Z"/>
    <rect class="cls-11" x="532.66" y="67.01" width="98.58" height="98.58" rx="18.87" ry="18.87" shape-rendering="crispEdges"/>
  </g>
  <rect class="cls-23" x="741.75" y="54.31" width="379.67" height="123.99" rx="23.1" ry="23.1"/>
  <g>
    <rect class="cls-2" x="756.38" y="67.4" width="97.81" height="97.81" rx="18.48" ry="18.48" shape-rendering="crispEdges"/>
    <g class="cls-18">
      <g>
        <path class="cls-12" d="M825.55,99.45c-.44-.76-1.03-1.43-1.73-1.97s-1.5-.93-2.36-1.16c-1.72-.46-3.56-.22-5.1,.68-1.54,.89-2.67,2.36-3.13,4.09-.46,1.72-.22,3.56,.68,5.11l5.82,10.11,5.82-10.11c.6-1.02,.91-2.18,.91-3.37s-.31-2.35-.91-3.37Zm-5.82,7.22c-.76,0-1.51-.23-2.14-.65-.63-.42-1.13-1.02-1.42-1.73-.29-.7-.37-1.48-.22-2.22,.15-.75,.52-1.43,1.05-1.97,.54-.54,1.22-.9,1.97-1.05,.75-.15,1.52-.07,2.22,.22,.7,.29,1.3,.78,1.73,1.42,.42,.63,.65,1.38,.65,2.14,0,1.02-.41,2-1.13,2.72-.72,.72-1.7,1.13-2.72,1.13Z"/>
        <path class="cls-4" d="M834.64,136.76l-13.48-7.76-15.88,6.85-15.79-6.56-13.81,7.46,7.64-30.65,10.72-6.6,11.24,5.6,3.92-1.12c0,.08,.02,.17,.03,.25,.04,.3,.09,.6,.16,.9,.24,1.05,.63,2.05,1.17,2.98l6.66,11.55c.25,.44,.62,.8,1.06,1.06,.44,.25,.94,.39,1.44,.39s1.01-.13,1.44-.39c.44-.25,.8-.62,1.06-1.06l5.29-9.17,.51,.8,6.62,25.45Z"/>
        <path class="cls-20" d="M790.62,121.3c-.19-.03-.38,0-.55,.07-.17,.08-.32,.2-.42,.36-.1,.16-.15,.35-.15,.54,0,.19,.07,.37,.17,.53,.11,.16,.26,.27,.44,.34,.18,.07,.37,.08,.56,.04,.19-.04,.36-.14,.49-.27,.13-.14,.22-.31,.25-.5,.02-.12,.02-.25,0-.38-.03-.12-.08-.24-.15-.35-.07-.1-.17-.19-.27-.26-.11-.07-.23-.11-.35-.14Zm-.66,3.8c-.19-.03-.38,0-.55,.07-.17,.08-.32,.2-.42,.37-.1,.16-.15,.35-.15,.54s.07,.38,.18,.53c.11,.16,.26,.27,.44,.34,.18,.07,.37,.08,.56,.04,.19-.04,.35-.14,.49-.28,.13-.14,.22-.31,.25-.5,.02-.12,.02-.25,0-.38s-.08-.24-.15-.34c-.07-.1-.17-.19-.27-.26-.11-.07-.23-.11-.35-.13Zm1.31-7.59c-.12-.02-.25-.02-.38,0-.12,.03-.24,.08-.34,.15-.1,.07-.19,.17-.26,.27-.07,.11-.11,.23-.13,.35-.02,.12-.02,.25,.01,.38s.08,.24,.15,.34c.07,.1,.17,.19,.27,.26,.11,.07,.23,.11,.35,.13,.05,0,.11,.01,.16,.01,.24,0,.47-.09,.65-.25,.18-.16,.29-.39,.31-.63,.02-.24-.05-.48-.2-.67-.15-.19-.36-.32-.6-.36Zm.66-3.79c-.19-.03-.38,0-.56,.07-.17,.08-.32,.2-.42,.37-.1,.16-.15,.35-.15,.54,0,.19,.07,.38,.18,.53,.11,.16,.26,.27,.44,.34,.18,.07,.37,.08,.56,.04,.19-.04,.36-.14,.49-.28,.13-.14,.22-.31,.25-.5,.04-.25-.02-.51-.16-.72-.15-.21-.37-.35-.62-.39Zm.65-3.79c-.12-.02-.25-.02-.38,0-.12,.03-.24,.08-.34,.15-.1,.07-.19,.17-.26,.27-.07,.11-.11,.23-.13,.35-.02,.12-.02,.25,0,.38,.03,.12,.08,.24,.15,.34,.07,.1,.17,.19,.27,.26,.11,.07,.23,.11,.35,.13,.06,0,.11,.01,.16,.01,.24,0,.47-.09,.65-.25,.18-.16,.29-.39,.31-.63,.02-.24-.05-.48-.2-.67-.15-.19-.36-.32-.6-.36Zm1.31-7.59c-.19-.03-.38,0-.55,.07-.17,.08-.32,.2-.42,.37-.1,.16-.15,.35-.15,.54,0,.19,.07,.38,.18,.53,.11,.16,.26,.27,.44,.34,.18,.07,.37,.08,.56,.04,.19-.04,.36-.14,.49-.28,.13-.14,.22-.31,.25-.5,.02-.12,.02-.25,0-.38s-.08-.24-.15-.34c-.07-.1-.17-.19-.27-.26-.11-.07-.23-.11-.35-.13Zm-.65,3.79c-.12-.02-.25-.02-.38,0-.12,.03-.24,.08-.34,.15-.1,.07-.19,.16-.26,.27-.07,.11-.11,.23-.14,.35-.02,.12-.02,.25,0,.38,.03,.12,.08,.24,.15,.34,.07,.1,.16,.19,.27,.26,.11,.07,.23,.11,.35,.14,.06,0,.11,.01,.17,.01,.24,0,.47-.09,.65-.25,.18-.16,.29-.39,.31-.63,.02-.24-.05-.48-.2-.67-.15-.19-.36-.32-.6-.36Zm27.52,20.96s.09,0,.14,0c.25-.04,.47-.16,.63-.36,.15-.2,.23-.45,.2-.7-.03-.25-.15-.48-.34-.64-.19-.16-.44-.24-.69-.23-.25,.02-.48,.13-.65,.32s-.26,.43-.25,.68c0,.25,.11,.49,.29,.66,.18,.17,.42,.27,.67,.27Zm-.42-3.82c.25-.04,.48-.18,.63-.38,.15-.2,.22-.46,.18-.71-.03-.18-.11-.35-.23-.49-.12-.14-.28-.24-.46-.29-.18-.05-.36-.05-.54,0-.18,.05-.33,.15-.45,.29-.12,.14-.2,.31-.22,.49-.03,.18,0,.37,.08,.54,.08,.17,.2,.31,.35,.41,.15,.1,.33,.15,.52,.15,.05,0,.1,0,.14-.01Z"/>
        <path class="cls-20" d="M836.06,137.24l-7.47-28.61-1.37,2.38,6.37,24.4-11.84-7.26c-.14-.08-.29-.13-.45-.14-.16,0-.32,.02-.46,.09l-14.59,6.87v-29.25l2.98-1.49c-.1-.7-.12-1.41-.07-2.11l-3.87,1.93-10.95-5.46c-.15-.07-.31-.11-.47-.1-.16,0-.32,.06-.46,.14l-10.16,6.24c-.21,.13-.37,.34-.43,.58l-8.3,31.79c-.05,.19-.04,.38,.02,.56,.06,.18,.18,.34,.33,.45,.16,.11,.34,.17,.53,.18,.19,0,.38-.04,.55-.14l13.44-8.24,15.49,7.29c.13,.06,.27,.09,.41,.09s.28-.03,.41-.09l15.49-7.29,13.44,8.24c.16,.1,.35,.15,.55,.14,.19,0,.38-.07,.53-.19,.15-.11,.27-.27,.33-.45,.06-.18,.07-.38,.02-.56Zm-47.24-9.09l-11.84,7.26,7.6-29.1,9.37-5.76,10.37,5.17v29.25l-14.59-6.87c-.14-.07-.3-.1-.46-.09-.16,0-.31,.06-.45,.14Z"/>
        <path class="cls-20" d="M827.22,98.49c-1.15-1.99-3.04-3.44-5.26-4.03-2.22-.59-4.58-.28-6.57,.87-1.99,1.15-3.44,3.04-4.03,5.26-.59,2.22-.28,4.58,.87,6.57l6.66,11.55c.08,.15,.21,.27,.35,.35,.15,.08,.31,.13,.48,.13,.17,0,.34-.04,.48-.13,.15-.08,.27-.21,.35-.35l6.66-11.55c.77-1.31,1.17-2.81,1.17-4.33s-.4-3.02-1.17-4.33Zm-1.67,7.7l-5.82,10.11-5.82-10.11c-.59-1.02-.9-2.18-.9-3.36,0-1.18,.31-2.34,.9-3.37,.59-1.02,1.44-1.87,2.46-2.46,1.02-.59,2.18-.9,3.37-.9s2.34,.31,3.37,.9c1.02,.59,1.87,1.44,2.46,2.46,.59,1.02,.9,2.18,.9,3.37,0,1.18-.31,2.34-.9,3.36Z"/>
        <path class="cls-16" d="M833.59,135.41l-11.84-7.26c-.14-.08-.29-.13-.45-.14-.16,0-.32,.02-.46,.09l-14.59,6.87v-.96l14.59-6.87c.14-.07,.3-.1,.46-.09,.16,0,.31,.06,.45,.14l11.54,7.08,.3,1.15Z"/>
        <path class="cls-3" d="M804.32,105.73v.96l-10.37-5.17-9.37,5.76-7.3,27.95-.3,.18,7.6-29.1,9.37-5.76,10.37,5.17Z"/>
        <path class="cls-3" d="M809.39,105.13l-3.15,1.55v-.96l2.99-1.49c.04,.3,.09,.6,.16,.89Z"/>
        <path class="cls-16" d="M804.32,134.01v.96l-14.59-6.87c-.14-.07-.3-.1-.46-.09-.16,0-.31,.06-.45,.14l-11.84,7.26,.3-1.15,11.54-7.08c.14-.08,.29-.13,.45-.14,.16,0,.32,.02,.46,.09l14.59,6.87Z"/>
        <path class="cls-14" d="M825.55,106.19l-5.82,10.11-5.82-10.11c-.68-1.16-.99-2.51-.89-3.85,.08,1.02,.38,2,.89,2.89l5.82,10.11,5.82-10.11c.51-.88,.82-1.87,.9-2.89,.1,1.34-.22,2.69-.9,3.85Z"/>
        <path class="cls-20" d="M819.72,98.97c-.76,0-1.51,.23-2.14,.65-.63,.42-1.13,1.02-1.42,1.73-.29,.7-.37,1.48-.22,2.22,.15,.75,.52,1.43,1.05,1.97,.54,.54,1.23,.9,1.97,1.05,.75,.15,1.52,.07,2.22-.22,.7-.29,1.31-.78,1.73-1.42,.42-.63,.65-1.38,.65-2.14,0-1.02-.41-2-1.13-2.72-.72-.72-1.7-1.13-2.72-1.13Zm0,5.78c-.38,0-.75-.11-1.07-.32-.32-.21-.56-.51-.71-.86-.15-.35-.18-.74-.11-1.11,.07-.37,.26-.72,.53-.99,.27-.27,.61-.45,.99-.53,.37-.07,.76-.04,1.11,.11,.35,.15,.65,.39,.86,.71,.21,.32,.32,.69,.32,1.07,0,.51-.2,1-.56,1.36-.36,.36-.85,.56-1.36,.56Z"/>
        <path class="cls-17" d="M826.44,103.3c-.08-1.02-.38-2-.9-2.89-.59-1.02-1.44-1.87-2.46-2.47-1.02-.59-2.18-.9-3.36-.9s-2.34,.31-3.36,.9c-1.02,.59-1.87,1.44-2.46,2.47-.51,.88-.82,1.87-.89,2.89-.06-.92,.06-1.85,.37-2.72,.31-.87,.79-1.67,1.42-2.34,.63-.68,1.39-1.21,2.24-1.58,.85-.37,1.76-.56,2.69-.56s1.84,.19,2.69,.56c.85,.37,1.61,.91,2.24,1.58,.63,.68,1.12,1.47,1.42,2.34,.31,.87,.44,1.8,.37,2.72Z"/>
      </g>
    </g>
    <rect class="cls-11" x="756" y="67.01" width="98.58" height="98.58" rx="18.87" ry="18.87" shape-rendering="crispEdges"/>
  </g>
  <path class="cls-7" d="M879.19,122.85h2.35v-6.36h4.68c1.11,0,1.85,.21,2.22,.63,.39,.4,.58,1.01,.58,1.81v2.18c0,.36,.01,.69,.04,.99,.03,.3,.09,.55,.19,.75h2.37c-.13-.29-.21-.58-.24-.86-.01-.29-.02-.57-.02-.84v-2.63c0-.89-.19-1.6-.58-2.11-.37-.52-.98-.85-1.83-.99v-.15c.89-.24,1.57-.7,2.05-1.36,.49-.68,.73-1.49,.73-2.44,0-1.39-.44-2.47-1.32-3.21s-2.18-1.12-3.9-1.12h-7.33v15.72Zm2.35-8.26v-5.48h4.66c.93,0,1.69,.21,2.26,.63,.58,.42,.86,1.09,.86,2.03,0,.82-.24,1.49-.73,2.03-.47,.53-1.27,.8-2.39,.8h-4.66Zm17.36,8.45c.91,0,1.72-.15,2.44-.45,.73-.32,1.33-.75,1.79-1.29,.46-.56,.74-1.21,.84-1.96h-2.11c-.14,.59-.48,1.06-1.01,1.42-.53,.35-1.18,.52-1.94,.52-.99,0-1.79-.32-2.39-.95-.59-.65-.9-1.56-.93-2.74h8.45c.11-1.19,0-2.26-.37-3.21-.36-.96-.95-1.72-1.77-2.26-.8-.56-1.83-.84-3.08-.84-1.11,0-2.07,.24-2.89,.73-.82,.49-1.45,1.18-1.9,2.07-.43,.88-.65,1.92-.65,3.13s.22,2.18,.67,3.06c.45,.88,1.08,1.56,1.9,2.05,.83,.49,1.82,.73,2.95,.73Zm-.11-10.03c.85,0,1.56,.24,2.13,.71,.59,.47,.9,1.24,.93,2.29h-6.23c.09-.93,.41-1.67,.97-2.2,.58-.53,1.31-.8,2.2-.8Zm12.36,13.65c1.08,0,2.02-.16,2.82-.47,.8-.32,1.43-.83,1.88-1.55,.46-.7,.69-1.65,.69-2.85v-10.35h-2.16l-.04,2.11h-.15c-.26-.69-.72-1.24-1.38-1.66-.65-.43-1.42-.65-2.33-.65-1.38,0-2.49,.47-3.34,1.42-.85,.95-1.27,2.3-1.27,4.05s.42,3.08,1.25,4.03c.83,.95,1.95,1.42,3.34,1.42,.91,0,1.69-.21,2.35-.63,.66-.43,1.12-.99,1.38-1.68h.15v2.22c0,1.05-.27,1.8-.82,2.24-.53,.46-1.31,.69-2.33,.69-.72,0-1.32-.15-1.79-.45-.46-.29-.73-.68-.82-1.19h-2.16c.11,1.01,.59,1.8,1.42,2.39,.83,.59,1.93,.88,3.3,.88Zm.06-6.21c-.92,0-1.66-.32-2.22-.95-.56-.65-.84-1.57-.84-2.78s.27-2.11,.82-2.76c.56-.65,1.32-.97,2.26-.97,.68,0,1.24,.15,1.68,.45,.46,.29,.8,.66,1.04,1.12,.24,.46,.37,.94,.37,1.44l.02,1.38c-.01,.5-.14,.99-.39,1.47-.24,.46-.6,.84-1.06,1.14-.46,.3-1.02,.45-1.68,.45Zm8.32-10.76h2.22v-2.57h-2.22v2.57Zm0,13.15h2.22v-11.41h-2.22v11.41Zm10.12,.19c1.15,0,2.13-.24,2.95-.73,.84-.5,1.48-1.19,1.93-2.07,.45-.89,.69-1.92,.69-3.08s-.24-2.25-.71-3.13c-.46-.89-1.11-1.57-1.94-2.05s-1.8-.71-2.91-.71-2.14,.25-2.98,.75c-.83,.49-1.48,1.18-1.94,2.07-.45,.88-.67,1.9-.67,3.08s.23,2.23,.69,3.11c.47,.88,1.13,1.56,1.96,2.05,.85,.47,1.83,.71,2.93,.71Zm0-1.85c-1.01,0-1.81-.35-2.42-1.06-.6-.7-.91-1.69-.91-2.95s.3-2.33,.91-3.02c.62-.7,1.42-1.06,2.42-1.06s1.83,.36,2.41,1.08c.59,.7,.89,1.7,.89,2.98s-.3,2.29-.9,3c-.61,.69-1.4,1.04-2.4,1.04Zm7.89,1.66h2.2v-6.23c0-.66,.13-1.25,.39-1.77,.26-.53,.63-.96,1.1-1.27,.49-.32,1.06-.47,1.7-.47,.91,0,1.58,.28,2.01,.84s.65,1.42,.65,2.59v6.32h2.22v-6.77c0-1.16-.18-2.1-.54-2.8-.35-.7-.82-1.21-1.44-1.53-.62-.32-1.32-.47-2.09-.47-.83,0-1.6,.21-2.31,.63-.7,.4-1.22,1.01-1.55,1.81h-.13l-.08-2.26h-2.12v11.41Z"/>
  <rect class="cls-23" x="159.53" y="244.53" width="379.67" height="123.99" rx="23.1" ry="23.1"/>
  <path class="cls-7" d="M349.77,313.26c1.55,0,2.91-.32,4.08-.97,1.16-.65,2.07-1.57,2.72-2.76,.65-1.21,.97-2.65,.97-4.31s-.32-3.1-.97-4.29c-.65-1.21-1.55-2.13-2.72-2.78-1.15-.65-2.51-.97-4.08-.97s-2.91,.32-4.08,.97c-1.15,.65-2.05,1.57-2.7,2.78-.65,1.19-.97,2.62-.97,4.29s.32,3.08,.95,4.29c.65,1.21,1.55,2.13,2.72,2.78,1.16,.65,2.52,.97,4.08,.97Zm0-2.03c-1.62,0-2.92-.52-3.88-1.57-.96-1.05-1.44-2.53-1.44-4.44s.47-3.39,1.42-4.44c.96-1.05,2.26-1.57,3.9-1.57s2.94,.52,3.9,1.57c.96,1.05,1.44,2.53,1.44,4.44s-.48,3.38-1.44,4.44c-.96,1.05-2.26,1.57-3.9,1.57Zm10.93,1.83h2.22v-9.6h4.33v9.6h2.22v-9.6h2.5v-1.81h-2.5v-1.51c0-.37,.09-.68,.26-.91s.51-.35,1.01-.35h1.47v-1.55h-2.05c-.91,0-1.62,.22-2.13,.67s-.78,1.1-.78,1.96v1.68h-4.33v-1.51c0-.37,.09-.68,.26-.91,.19-.23,.53-.35,1.04-.35h1.44v-1.55h-2.03c-.91,0-1.62,.22-2.16,.67-.52,.45-.78,1.1-.78,1.96v1.68h-2.07v1.81h2.07v9.6Zm17.49,.19c.91,0,1.72-.15,2.44-.45,.73-.32,1.33-.75,1.79-1.29,.46-.56,.74-1.21,.84-1.96h-2.11c-.14,.59-.48,1.06-1.01,1.42-.53,.35-1.18,.52-1.94,.52-.99,0-1.79-.32-2.39-.95-.59-.65-.9-1.56-.93-2.74h8.45c.12-1.19,0-2.26-.37-3.21-.36-.96-.95-1.72-1.77-2.26-.8-.56-1.83-.84-3.08-.84-1.11,0-2.07,.24-2.89,.73-.82,.49-1.45,1.18-1.9,2.07-.43,.88-.65,1.92-.65,3.13s.22,2.18,.67,3.06c.45,.88,1.08,1.56,1.9,2.05,.83,.49,1.82,.73,2.95,.73Zm-.11-10.03c.85,0,1.56,.24,2.13,.71,.59,.47,.9,1.24,.93,2.29h-6.23c.09-.93,.41-1.67,.97-2.2,.58-.53,1.31-.8,2.2-.8Zm7.64,9.83h2.2v-6.51c.06-.93,.37-1.65,.93-2.16,.56-.52,1.34-.78,2.35-.78h.37c.13,0,.24,0,.32,.02v-2.09c-.1-.01-.21-.02-.32-.02-.1-.01-.22-.02-.35-.02-.75,0-1.42,.18-2.03,.54-.6,.36-1.03,.91-1.27,1.64h-.11l-.11-2.03h-1.98v11.41Zm12.14,.22c1.49,0,2.67-.28,3.54-.84,.86-.58,1.29-1.44,1.29-2.61,0-.88-.2-1.54-.6-1.98-.39-.46-.91-.79-1.57-.99-.66-.22-1.39-.37-2.18-.47-.96-.13-1.68-.31-2.13-.54-.45-.23-.67-.63-.67-1.19,0-.49,.2-.88,.6-1.19,.4-.3,.98-.45,1.73-.45s1.32,.17,1.75,.5c.43,.32,.65,.82,.67,1.51h2.18c-.01-1.11-.42-1.98-1.23-2.61-.81-.65-1.91-.97-3.32-.97s-2.49,.3-3.34,.91c-.83,.59-1.25,1.43-1.25,2.52,0,.78,.19,1.38,.56,1.81,.37,.43,.88,.75,1.53,.97,.66,.22,1.42,.39,2.29,.52,.96,.14,1.66,.33,2.09,.56s.65,.66,.65,1.29c0,.53-.22,.95-.65,1.25-.42,.29-1.04,.43-1.85,.43s-1.44-.17-1.96-.52c-.52-.36-.78-.93-.78-1.7h-2.2c0,1.14,.42,2.06,1.25,2.76,.85,.69,2.06,1.04,3.62,1.04Z"/>
  <g>
    <rect class="cls-2" x="426.77" y="257.62" width="97.81" height="97.81" rx="18.48" ry="18.48" shape-rendering="crispEdges"/>
    <path class="cls-9" d="M490.86,326.14h-5.55c-1.15,0-2.26,.45-3.08,1.25l-3.48,3.38c-1.72,1.67-4.45,1.67-6.16,0l-3.48-3.38c-.83-.8-1.93-1.25-3.08-1.25h-5.55c-2.44,0-4.42-1.98-4.42-4.42v-5.55c0-1.15-.45-2.26-1.25-3.08l-3.38-3.48c-1.67-1.72-1.67-4.45,0-6.16l3.38-3.48c.8-.83,1.25-1.93,1.25-3.08v-5.55c0-2.44,1.98-4.42,4.42-4.42h5.55c1.15,0,2.26-.45,3.08-1.25l3.48-3.38c1.72-1.67,4.45-1.67,6.16,0l3.48,3.38c.83,.8,1.93,1.25,3.08,1.25h5.55c2.44,0,4.42,1.98,4.42,4.42v5.55c0,1.15,.45,2.26,1.25,3.08l3.38,3.48c1.67,1.72,1.67,4.45,0,6.16l-3.38,3.48c-.8,.83-1.25,1.93-1.25,3.08v5.55c0,2.44-1.98,4.42-4.42,4.42Z"/>
    <path class="cls-9" d="M487.44,294.75l-23.54,23.54"/>
    <path class="cls-9" d="M467.82,302.6c2.17,0,3.92-1.76,3.92-3.92s-1.76-3.92-3.92-3.92-3.92,1.76-3.92,3.92,1.76,3.92,3.92,3.92Z"/>
    <path class="cls-9" d="M483.52,318.29c2.17,0,3.92-1.76,3.92-3.92s-1.76-3.92-3.92-3.92-3.92,1.76-3.92,3.92,1.76,3.92,3.92,3.92Z"/>
    <rect class="cls-11" x="426.38" y="257.23" width="98.58" height="98.58" rx="18.87" ry="18.87" shape-rendering="crispEdges"/>
  </g>
  <rect class="cls-23" x="848.8" y="244.53" width="379.67" height="123.99" rx="23.1" ry="23.1"/>
  <g>
    <rect class="cls-2" x="863.43" y="257.62" width="97.81" height="97.81" rx="18.48" ry="18.48" shape-rendering="crispEdges"/>
    <g class="cls-6">
      <g>
        <path class="cls-20" d="M884.1,312.85c-.03-.15-.07-.3-.1-.46-.03-.12-.08-.24-.15-.35s-.16-.19-.27-.26c-.11-.07-.22-.12-.35-.14s-.25-.02-.38,0c-.12,.03-.24,.07-.35,.15-.1,.07-.19,.16-.26,.27-.07,.11-.12,.22-.14,.35-.02,.12-.02,.25,0,.38,.03,.16,.07,.33,.11,.49,.05,.21,.17,.4,.34,.54,.17,.14,.38,.21,.6,.21,.07,0,.14,0,.21-.02,.25-.06,.47-.21,.6-.42,.14-.22,.18-.48,.13-.73Zm7.44-26.82c.25,0,.49-.1,.67-.27,.11-.11,.22-.21,.34-.32,.09-.09,.17-.19,.22-.3,.05-.11,.08-.24,.09-.37,0-.13-.02-.25-.06-.37-.04-.12-.11-.23-.2-.32s-.19-.17-.31-.22c-.12-.05-.24-.08-.37-.09-.13,0-.25,.02-.37,.06s-.23,.11-.32,.2c-.12,.11-.24,.23-.36,.35-.14,.13-.23,.3-.27,.49-.04,.19-.02,.38,.05,.56,.07,.18,.2,.33,.36,.44,.16,.11,.35,.16,.54,.16Zm3.34-2.79c.2,0,.4-.06,.56-.18,.13-.09,.25-.18,.38-.27,.21-.15,.35-.37,.4-.62,.05-.25-.01-.51-.16-.72-.15-.21-.37-.35-.62-.4-.25-.04-.51,.01-.72,.16-.14,.09-.27,.19-.41,.29-.17,.12-.29,.29-.35,.48-.06,.19-.06,.4,0,.6,.06,.19,.19,.36,.35,.48,.16,.12,.36,.18,.57,.18Zm3.71-2.28c.15,0,.3-.04,.44-.11,.14-.07,.28-.14,.42-.21,.11-.06,.21-.13,.3-.23,.08-.1,.15-.21,.19-.33,.04-.12,.06-.25,.05-.37,0-.13-.04-.25-.1-.36-.06-.11-.13-.21-.23-.3-.1-.08-.21-.15-.33-.19-.12-.04-.25-.06-.37-.05-.13,0-.25,.04-.36,.1-.15,.07-.3,.15-.44,.22-.19,.1-.35,.26-.44,.46-.09,.2-.11,.42-.06,.63,.05,.21,.17,.4,.34,.53,.17,.13,.38,.21,.6,.21Zm-16.15,24.4s.05,0,.07,0c.24,0,.48-.09,.66-.26,.18-.17,.29-.39,.3-.64,.01-.16,.02-.31,.04-.47,.02-.25-.06-.51-.22-.7-.16-.19-.4-.32-.65-.34-.25-.02-.51,.06-.7,.22-.2,.16-.32,.4-.34,.65-.01,.17-.03,.33-.04,.5-.02,.25,.07,.51,.23,.7,.17,.19,.41,.31,.66,.33Zm.14,4.36c.25-.02,.49-.14,.66-.33,.17-.19,.25-.45,.23-.7-.01-.16-.02-.31-.03-.47-.02-.25-.13-.49-.32-.66-.19-.17-.44-.26-.7-.24-.25,.01-.49,.13-.66,.32-.17,.19-.26,.44-.24,.7,.01,.17,.02,.33,.03,.5,.02,.24,.13,.47,.3,.64,.18,.17,.41,.26,.66,.26,.02,0,.05,0,.07,0Zm.34-8.69c.12,.03,.25,.03,.38,0,.12-.02,.24-.07,.35-.14,.11-.07,.2-.16,.27-.26,.07-.1,.12-.22,.15-.34,.03-.15,.07-.31,.1-.46,.06-.25,.02-.51-.12-.73-.13-.22-.35-.37-.6-.43s-.51-.02-.73,.12c-.22,.13-.37,.35-.43,.6-.04,.16-.08,.32-.11,.49-.03,.12-.03,.25,0,.38s.07,.24,.14,.35c.07,.11,.16,.2,.26,.27,.1,.07,.22,.12,.34,.15Zm2.83-8.23c.22,.12,.49,.16,.73,.09,.25-.07,.45-.23,.58-.46,.08-.14,.15-.27,.23-.41,.06-.11,.1-.23,.12-.36,.02-.13,0-.25-.02-.38-.03-.12-.09-.24-.16-.34-.08-.1-.17-.19-.28-.25-.11-.06-.23-.11-.36-.12-.13-.02-.25,0-.38,.02-.12,.03-.24,.09-.34,.16-.1,.08-.19,.17-.25,.28-.08,.14-.17,.29-.25,.43-.06,.11-.1,.23-.12,.36-.02,.13,0,.25,.03,.38,.03,.12,.09,.24,.17,.34,.08,.1,.18,.18,.29,.24Zm-1.72,4.01c.12,.05,.24,.07,.37,.06s.25-.03,.37-.08c.12-.05,.22-.13,.31-.22,.09-.09,.15-.2,.2-.32,.06-.15,.11-.29,.17-.44,.09-.24,.09-.5-.01-.74-.1-.23-.29-.42-.53-.51-.24-.09-.5-.09-.74,.01s-.42,.29-.51,.53c-.06,.16-.12,.31-.18,.47-.04,.12-.07,.24-.06,.37s.03,.25,.08,.37c.05,.12,.13,.22,.22,.31,.09,.09,.2,.15,.32,.2Zm4-7.73c.2,.16,.46,.23,.71,.19,.25-.03,.48-.16,.64-.37,.1-.12,.19-.25,.29-.37,.16-.2,.23-.45,.2-.71-.03-.25-.16-.49-.36-.64-.2-.16-.45-.23-.71-.2-.25,.03-.49,.16-.64,.36-.1,.13-.21,.26-.31,.39-.08,.1-.13,.21-.17,.34-.03,.12-.04,.25-.03,.38,.02,.13,.06,.25,.12,.36,.06,.11,.15,.21,.25,.28Zm43.05-4.51c.09,.08,.21,.15,.32,.19,.12,.04,.25,.06,.38,.05,.12-.01,.25-.04,.36-.1,.12-.06,.22-.14,.29-.23,.08-.1,.15-.21,.18-.33,.04-.12,.05-.25,.05-.37,0-.13-.05-.25-.1-.36-.06-.11-.14-.21-.23-.3-.13-.11-.25-.22-.39-.32-.1-.08-.21-.14-.33-.18-.12-.04-.25-.05-.38-.04-.12,.01-.25,.05-.35,.11-.12,.06-.22,.14-.29,.24-.08,.1-.15,.21-.18,.33-.04,.12-.05,.25-.04,.37,0,.13,.05,.25,.11,.36,.05,.11,.14,.21,.23,.29,.12,.1,.24,.2,.36,.3Zm-7.55-4.67c.14,.06,.29,.12,.43,.19,.23,.1,.5,.11,.74,.02,.24-.09,.43-.27,.53-.51,.1-.23,.11-.5,.02-.74-.09-.24-.27-.43-.51-.53-.15-.07-.31-.14-.46-.2-.12-.05-.24-.08-.37-.08-.13,0-.25,.02-.37,.07-.12,.05-.22,.12-.31,.21-.09,.09-.16,.19-.21,.31-.05,.12-.08,.24-.08,.37,0,.13,.02,.25,.07,.37,.05,.12,.12,.22,.21,.31,.09,.09,.19,.16,.31,.21Zm3.76,1.92c.13,.08,.27,.16,.4,.25,.22,.14,.48,.18,.73,.12,.25-.06,.47-.21,.6-.43,.14-.22,.18-.48,.12-.73-.06-.25-.21-.47-.43-.6-.14-.09-.28-.18-.43-.26-.22-.13-.48-.17-.73-.11-.25,.06-.46,.22-.6,.43-.13,.22-.17,.48-.11,.73,.06,.25,.22,.46,.44,.6Zm9.33,9.09c.14,.21,.35,.37,.61,.42,.25,.05,.51,0,.72-.13,.22-.14,.36-.36,.42-.61,.05-.25,0-.51-.13-.73-.08-.14-.18-.28-.27-.42-.15-.21-.36-.36-.62-.41-.25-.05-.51,0-.72,.14-.21,.14-.35,.36-.41,.61-.05,.25,0,.51,.15,.72,.08,.13,.17,.26,.25,.39Zm-34.03-11.67c.11,0,.21-.02,.31-.05,.15-.05,.3-.1,.45-.15,.12-.04,.23-.1,.33-.18,.1-.08,.17-.18,.23-.29,.06-.11,.09-.24,.1-.36,0-.13,0-.25-.04-.37-.04-.12-.1-.23-.18-.33-.08-.1-.18-.17-.29-.23-.11-.06-.24-.09-.36-.1-.13,0-.25,0-.37,.04-.16,.05-.32,.1-.47,.16-.22,.07-.4,.22-.52,.42-.12,.2-.16,.43-.12,.65,.04,.22,.15,.43,.33,.58,.17,.15,.4,.23,.62,.23Zm31.5,8.3c.17,.19,.41,.31,.66,.33,.25,.02,.5-.07,.69-.23,.19-.17,.31-.41,.33-.66,.02-.25-.07-.51-.24-.7-.11-.13-.22-.25-.33-.37-.17-.19-.41-.3-.66-.32-.25-.01-.51,.08-.69,.25-.19,.17-.31,.41-.32,.66-.02,.25,.07,.5,.25,.69,.1,.12,.21,.23,.31,.35Zm-27.28-9.4c.06,0,.12,0,.18-.02,.15-.03,.31-.06,.46-.08,.12-.02,.24-.07,.35-.13,.11-.07,.2-.15,.27-.26,.07-.1,.13-.22,.15-.34,.03-.12,.03-.25,.01-.38-.02-.12-.07-.24-.13-.35-.07-.11-.15-.2-.26-.27-.1-.07-.22-.13-.34-.15-.12-.03-.25-.03-.38-.01-.17,.03-.33,.06-.49,.09-.24,.04-.45,.17-.59,.37-.14,.19-.21,.43-.19,.67,.02,.24,.13,.46,.31,.62,.18,.16,.41,.25,.65,.25Zm4.33-.48s.02,0,.04,0c.16,0,.31-.01,.47-.01,.25,0,.49-.11,.67-.29,.18-.18,.27-.43,.27-.68,0-.25-.11-.5-.29-.67-.18-.18-.42-.28-.68-.28,0,0-.02,0-.02,0-.17,0-.33,0-.5,.01-.25,0-.49,.12-.66,.3-.17,.18-.27,.43-.26,.68,0,.25,.11,.49,.29,.67,.18,.18,.42,.28,.67,.28Zm4.25,.14c.16,.02,.31,.03,.46,.05,.04,0,.08,0,.12,0,.24,0,.48-.09,.66-.26,.18-.17,.29-.4,.3-.64,.01-.24-.06-.49-.22-.67-.16-.19-.38-.31-.62-.34-.17-.02-.33-.04-.5-.06-.13-.01-.25,0-.37,.03-.12,.04-.23,.1-.33,.17-.1,.08-.18,.18-.24,.29-.06,.11-.1,.23-.11,.36-.01,.13,0,.25,.03,.38,.04,.12,.1,.23,.18,.33,.08,.1,.18,.18,.29,.24,.11,.06,.23,.1,.36,.11Zm4.15,.75c.15,.04,.3,.08,.45,.12,.25,.07,.51,.04,.73-.09,.11-.06,.21-.15,.28-.25,.08-.1,.13-.21,.17-.34,.03-.12,.04-.25,.03-.38-.02-.13-.06-.25-.12-.36s-.15-.21-.25-.28c-.1-.08-.21-.13-.34-.17-.16-.04-.32-.09-.48-.13-.12-.03-.25-.04-.38-.02-.13,.02-.25,.06-.36,.12-.11,.06-.21,.15-.28,.25-.08,.1-.13,.22-.16,.34-.03,.12-.04,.25-.02,.38,.02,.13,.06,.25,.12,.36,.06,.11,.15,.2,.25,.28,.1,.08,.22,.13,.34,.16Zm18.9,15.64c.07,.14,.13,.28,.2,.42,.1,.23,.29,.41,.53,.51,.24,.09,.51,.08,.74-.02,.23-.11,.42-.3,.51-.54,.08-.24,.08-.5-.02-.74-.07-.15-.14-.3-.22-.45-.05-.11-.13-.22-.22-.3s-.2-.15-.32-.19c-.12-.04-.24-.06-.37-.05-.12,0-.25,.04-.36,.09-.12,.05-.22,.13-.3,.22s-.15,.2-.19,.32c-.05,.12-.06,.24-.06,.37,0,.13,.04,.25,.09,.37Zm-42.94,35.85c-.13-.09-.25-.18-.38-.28-.1-.08-.22-.13-.34-.16-.12-.03-.25-.04-.38-.02-.13,.02-.25,.06-.35,.13s-.2,.15-.28,.25c-.08,.1-.13,.22-.16,.34-.03,.12-.04,.25-.02,.38,.02,.13,.06,.25,.13,.35,.06,.11,.15,.2,.25,.28,.13,.1,.27,.2,.41,.29,.21,.15,.47,.21,.72,.17,.25-.04,.48-.18,.62-.39s.21-.47,.17-.72c-.04-.25-.18-.48-.39-.63Zm42.24-7.85c-.22-.14-.48-.19-.72-.14-.25,.05-.47,.2-.62,.41-.08,.13-.17,.26-.26,.39-.14,.21-.19,.47-.15,.72,.05,.25,.18,.47,.4,.62,.21,.14,.47,.2,.72,.15,.25-.05,.48-.19,.62-.4,.09-.14,.18-.28,.28-.42,.07-.11,.12-.22,.14-.35,.03-.12,.03-.25,0-.38-.02-.12-.07-.24-.15-.35-.07-.1-.16-.19-.26-.26Zm-6.95,6.54c-.12,.1-.24,.2-.36,.3-.2,.16-.32,.39-.35,.65-.02,.25,.05,.51,.21,.71s.39,.33,.65,.35c.25,.03,.51-.05,.71-.21,.13-.1,.26-.21,.39-.32,.1-.08,.18-.18,.24-.29,.06-.11,.09-.23,.11-.36,0-.13,0-.25-.05-.37-.03-.12-.09-.23-.18-.33-.08-.1-.18-.18-.29-.24-.11-.06-.23-.09-.36-.11-.12-.01-.25,0-.37,.04-.12,.04-.23,.1-.33,.18Zm-11.16,5.75c-.15,.04-.3,.08-.45,.11-.23,.06-.43,.19-.56,.39-.13,.19-.19,.43-.17,.66,.03,.23,.14,.45,.32,.61,.18,.16,.4,.24,.64,.24,.08,0,.15,0,.23-.03,.16-.04,.33-.08,.49-.12,.12-.03,.24-.09,.34-.16,.1-.08,.19-.17,.25-.28,.06-.11,.11-.23,.12-.36,.02-.13,.01-.25-.02-.38s-.09-.24-.16-.34c-.08-.1-.17-.19-.28-.25-.11-.06-.23-.11-.36-.12-.13-.02-.25,0-.38,.02Zm7.73-3.29c-.13,.08-.26,.16-.4,.24-.11,.06-.2,.15-.28,.25s-.13,.22-.16,.34c-.03,.12-.04,.25-.02,.38,.02,.13,.06,.25,.12,.36,.06,.11,.15,.2,.25,.28,.1,.08,.22,.13,.34,.16,.12,.03,.25,.04,.38,.02,.13-.02,.25-.06,.36-.12,.14-.08,.29-.17,.43-.26,.11-.07,.2-.15,.28-.25,.07-.1,.13-.22,.16-.34,.03-.12,.03-.25,.01-.38-.02-.12-.06-.24-.13-.35-.07-.11-.15-.2-.26-.28-.1-.07-.22-.13-.34-.16-.12-.03-.25-.03-.38-.01-.12,.02-.24,.06-.35,.13Zm-3.75,1.93c-.14,.06-.29,.12-.43,.18-.12,.05-.22,.12-.31,.21-.09,.09-.16,.19-.21,.31-.05,.12-.08,.24-.08,.37,0,.13,.02,.25,.07,.37,.05,.12,.12,.22,.21,.31,.09,.09,.19,.16,.31,.21,.12,.05,.24,.07,.37,.08,.13,0,.25-.02,.37-.07,.15-.06,.31-.13,.46-.19,.12-.05,.22-.12,.31-.21,.09-.09,.16-.2,.21-.31,.05-.12,.07-.24,.07-.37,0-.13-.03-.25-.08-.37-.05-.12-.12-.22-.21-.31-.09-.09-.2-.16-.31-.21-.12-.05-.24-.07-.37-.07-.13,0-.25,.03-.37,.08Zm10.21-7.31c-.1,.12-.21,.23-.32,.35-.17,.19-.26,.44-.25,.69,.02,.25,.12,.5,.31,.67,.18,.17,.44,.27,.69,.26,.25,0,.49-.12,.67-.31,.11-.12,.22-.24,.34-.37,.08-.09,.15-.2,.18-.32,.05-.12,.06-.25,.05-.37,0-.13-.04-.25-.09-.36-.05-.11-.13-.22-.22-.3-.09-.08-.21-.15-.32-.19-.12-.04-.25-.06-.37-.05-.13,0-.25,.04-.37,.09s-.22,.13-.3,.23Zm8.16-15.89c-.12-.02-.25-.01-.38,.02-.12,.03-.24,.09-.34,.16-.1,.08-.18,.17-.25,.28-.07,.11-.11,.23-.13,.35-.02,.15-.05,.31-.07,.46-.04,.25,.02,.51,.17,.72,.15,.21,.38,.35,.62,.39,.25,.04,.52-.02,.72-.17,.21-.15,.35-.38,.39-.63,.02-.16,.05-.33,.08-.49,.02-.13,0-.25-.02-.38-.03-.12-.08-.24-.16-.34-.07-.1-.17-.19-.28-.25-.11-.06-.23-.11-.35-.13Zm1.14-3.49c0-.25-.1-.5-.28-.68-.18-.18-.42-.28-.68-.28s-.5,.1-.69,.28c-.18,.18-.28,.43-.28,.68v.09c0,.16,0,.31,0,.47,0,.13,.02,.25,.07,.37s.12,.22,.21,.32c.08,.09,.19,.16,.31,.21,.12,.05,.24,.08,.36,.08h.02c.25,0,.5-.1,.68-.28,.18-.18,.28-.42,.28-.67,0-.17,0-.33,0-.51v-.09Zm-3.37,11.9c-.23-.11-.49-.12-.73-.03-.24,.09-.44,.27-.55,.5-.07,.14-.13,.28-.2,.42-.12,.23-.13,.49-.05,.74,.08,.24,.25,.44,.49,.55,.23,.11,.49,.13,.73,.05,.25-.08,.45-.26,.55-.49,.08-.15,.15-.3,.22-.45,.05-.11,.08-.24,.09-.37,0-.13-.02-.25-.05-.37-.05-.12-.11-.23-.19-.32-.08-.09-.19-.17-.31-.22Zm1.43-4.12c-.25-.07-.51-.05-.74,.07-.22,.12-.39,.33-.46,.57-.05,.15-.09,.3-.14,.45-.04,.12-.05,.25-.05,.37,.02,.13,.05,.25,.11,.36,.05,.11,.14,.21,.23,.29,.1,.08,.21,.14,.33,.18,.12,.04,.25,.05,.37,.04,.13-.01,.25-.05,.36-.1,.12-.06,.22-.14,.3-.23,.08-.1,.14-.21,.18-.33,.05-.16,.1-.32,.15-.48,.04-.12,.05-.25,.04-.37-.02-.13-.05-.25-.11-.36-.06-.11-.15-.21-.24-.29-.1-.08-.22-.14-.33-.18Zm.51-13.07c-.12,.02-.25,.06-.35,.13-.11,.07-.2,.15-.28,.25-.08,.1-.13,.22-.16,.34-.03,.12-.04,.25-.02,.38,.02,.15,.04,.31,.06,.46,.03,.23,.15,.44,.32,.6,.17,.15,.4,.24,.63,.24,.04,0,.08,0,.12,0,.25-.03,.49-.17,.64-.37,.15-.2,.22-.46,.19-.71-.02-.17-.05-.33-.07-.5-.02-.13-.06-.25-.12-.35-.07-.11-.15-.2-.25-.28-.1-.08-.22-.13-.34-.16-.12-.03-.25-.04-.38-.02Zm-49.77,25.88c-.18-.18-.43-.28-.68-.28-.26,0-.5,.1-.68,.28-.18,.18-.28,.43-.28,.68,0,.26,.1,.5,.28,.68,.12,.12,.24,.24,.36,.35,.09,.09,.2,.16,.32,.2s.24,.07,.37,.07c.13,0,.25-.03,.37-.08,.12-.05,.22-.12,.31-.22,.09-.09,.16-.2,.2-.32s.07-.24,.07-.37c0-.13-.03-.25-.08-.37-.05-.12-.12-.22-.22-.31-.11-.11-.22-.22-.33-.33Zm-2.77-3.18c-.15-.2-.38-.34-.63-.37-.25-.04-.51,.03-.71,.18-.2,.15-.34,.38-.38,.63s.03,.51,.18,.71c.1,.13,.2,.26,.3,.4,.08,.1,.17,.18,.28,.25,.11,.06,.23,.1,.36,.12,.13,.02,.25,0,.38-.03,.12-.03,.24-.09,.34-.17,.1-.08,.18-.17,.25-.28,.06-.11,.1-.23,.12-.36,.02-.13,0-.25-.03-.38-.03-.12-.09-.24-.17-.34-.1-.12-.19-.25-.28-.37Zm26.33,11.41c-.16,.02-.31,.03-.47,.05-.25,.02-.48,.14-.64,.33s-.25,.43-.23,.68c.01,.25,.12,.48,.3,.65,.18,.17,.42,.27,.66,.27,.03,0,.06,0,.09,0,.17-.02,.33-.03,.5-.05,.13-.01,.25-.05,.36-.11,.11-.06,.21-.14,.29-.24,.08-.1,.14-.21,.17-.33,.04-.12,.05-.25,.03-.37-.01-.13-.05-.25-.11-.36-.06-.11-.14-.21-.24-.29-.1-.08-.21-.14-.33-.17-.12-.04-.25-.05-.38-.03Zm-28.61-14.96c-.12-.22-.33-.39-.57-.46-.24-.07-.51-.04-.73,.08-.22,.12-.39,.33-.46,.57-.07,.24-.04,.51,.08,.73,.08,.15,.16,.29,.24,.44,.13,.22,.33,.38,.58,.45,.25,.07,.51,.04,.73-.09,.22-.12,.39-.33,.46-.58,.07-.25,.04-.51-.09-.73-.08-.14-.15-.27-.23-.41Zm12.22,11.95c-.14-.07-.28-.14-.42-.22-.11-.06-.23-.1-.36-.11-.13-.01-.25,0-.37,.04-.12,.04-.23,.1-.33,.18s-.18,.18-.24,.29c-.06,.11-.1,.23-.11,.36-.01,.13,0,.25,.04,.37,.04,.12,.1,.23,.18,.33s.18,.18,.29,.24c.15,.08,.3,.16,.45,.23,.11,.06,.24,.09,.36,.1,.13,.01,.25,0,.37-.04,.12-.04,.23-.1,.33-.18,.1-.08,.18-.18,.23-.29,.06-.11,.09-.24,.1-.36s0-.25-.04-.37c-.04-.12-.1-.23-.18-.33-.08-.1-.18-.18-.3-.23Zm40.85-34.12c.05,.15,.09,.3,.14,.45,.07,.24,.23,.45,.45,.58,.22,.12,.49,.15,.73,.08,.25-.07,.45-.23,.58-.46,.12-.22,.15-.49,.08-.73-.05-.16-.09-.32-.14-.48-.08-.24-.25-.45-.47-.57-.22-.12-.49-.15-.73-.07-.25,.07-.45,.24-.57,.47-.12,.22-.15,.49-.08,.73Zm-54.65,18.77c-.06-.15-.11-.29-.17-.44-.09-.24-.27-.44-.5-.54-.23-.11-.5-.12-.74-.03-.24,.09-.44,.27-.54,.5-.11,.23-.12,.5-.03,.74,.06,.16,.12,.31,.17,.47,.09,.24,.27,.43,.51,.53,.23,.1,.5,.11,.74,.02,.24-.09,.43-.27,.53-.51,.1-.23,.11-.5,.02-.74Zm25.96,18.51c-.16,0-.31-.01-.47-.02-.13,0-.25,.01-.37,.05-.12,.04-.23,.11-.32,.19-.09,.08-.17,.19-.22,.3-.05,.11-.09,.24-.09,.36,0,.13,.01,.25,.05,.37,.04,.12,.11,.23,.19,.32,.08,.09,.19,.17,.3,.22,.11,.05,.24,.08,.37,.09,.17,0,.33,.02,.5,.02,.01,0,.02,0,.03,0,.25,0,.49-.1,.67-.28s.28-.42,.29-.67c0-.25-.09-.5-.26-.68-.17-.18-.41-.29-.66-.3Zm-4.19-.45c-.15-.03-.31-.06-.46-.09-.12-.03-.25-.03-.38,0-.12,.02-.24,.07-.35,.14-.11,.07-.2,.16-.27,.27-.07,.11-.12,.22-.14,.35-.02,.12-.02,.25,0,.38,.02,.12,.07,.24,.14,.35,.07,.1,.16,.2,.27,.27s.22,.12,.35,.14c.16,.03,.33,.06,.49,.09,.12,.02,.25,.02,.38,0,.12-.03,.24-.08,.35-.15,.1-.07,.19-.16,.26-.27,.07-.11,.12-.22,.14-.35,.02-.12,.02-.25,0-.38-.03-.12-.08-.24-.15-.35-.07-.1-.16-.19-.27-.26s-.23-.12-.35-.14Zm-4.08-1.06c-.15-.05-.3-.1-.45-.15-.12-.04-.25-.06-.37-.06s-.25,.04-.36,.09c-.11,.05-.22,.13-.3,.22-.08,.09-.15,.2-.19,.32-.04,.12-.06,.24-.05,.37s.04,.25,.09,.37c.05,.11,.13,.22,.22,.3,.09,.09,.2,.15,.32,.19,.16,.06,.32,.11,.47,.17,.12,.04,.25,.06,.37,.05,.13,0,.25-.04,.36-.1,.11-.06,.21-.13,.3-.23,.08-.09,.15-.21,.19-.33,.04-.12,.06-.25,.05-.37s-.04-.25-.1-.36c-.06-.11-.13-.21-.23-.3-.1-.08-.21-.15-.33-.19Zm9.33-39.88c-2.48,0-4.89,.73-6.95,2.11-2.06,1.37-3.66,3.33-4.61,5.62-.95,2.29-1.2,4.8-.71,7.23,.48,2.43,1.68,4.66,3.42,6.41s3.98,2.94,6.41,3.43c2.43,.48,4.94,.23,7.23-.71,2.29-.95,4.24-2.55,5.62-4.61,1.38-2.06,2.11-4.48,2.11-6.95,0-3.32-1.32-6.5-3.67-8.85-2.35-2.35-5.53-3.67-8.85-3.67Zm0,23.1c-2.09,0-4.14-.62-5.88-1.78-1.74-1.16-3.1-2.82-3.9-4.75-.8-1.94-1.01-4.06-.6-6.12,.41-2.05,1.42-3.94,2.9-5.42,1.48-1.48,3.37-2.49,5.42-2.9,2.05-.41,4.18-.2,6.12,.6,1.93,.8,3.59,2.16,4.75,3.9,1.16,1.74,1.78,3.79,1.78,5.88,0,2.81-1.12,5.5-3.11,7.48-1.99,1.99-4.68,3.1-7.48,3.11Z"/>
        <path class="cls-12" d="M912.33,295.93c-2.09,0-4.14,.62-5.88,1.78-1.74,1.16-3.1,2.82-3.9,4.75-.8,1.94-1.01,4.06-.6,6.12,.41,2.05,1.42,3.94,2.9,5.42,1.48,1.48,3.37,2.49,5.42,2.9,2.05,.41,4.18,.2,6.12-.6,1.93-.8,3.59-2.16,4.75-3.9,1.16-1.74,1.78-3.79,1.78-5.88,0-2.81-1.12-5.5-3.11-7.48s-4.68-3.1-7.48-3.11Zm0,14.44c-.76,0-1.51-.23-2.14-.65-.63-.42-1.13-1.02-1.42-1.73-.29-.7-.37-1.48-.22-2.22,.15-.75,.52-1.43,1.05-1.97,.54-.54,1.23-.9,1.97-1.05,.75-.15,1.52-.07,2.22,.22,.7,.29,1.31,.78,1.73,1.42,.42,.63,.65,1.38,.65,2.14,0,1.02-.41,2-1.13,2.72-.72,.72-1.7,1.13-2.72,1.13Z"/>
        <path class="cls-20" d="M912.33,302.67c-.76,0-1.51,.23-2.14,.65-.63,.42-1.13,1.02-1.42,1.73-.29,.7-.37,1.48-.22,2.22,.15,.75,.52,1.43,1.05,1.97,.54,.54,1.23,.9,1.97,1.05,.75,.15,1.52,.07,2.22-.22,.7-.29,1.31-.78,1.73-1.42,.42-.63,.65-1.38,.65-2.14,0-1.02-.41-2-1.13-2.72-.72-.72-1.7-1.13-2.72-1.13Zm0,5.78c-.38,0-.75-.11-1.07-.32-.32-.21-.56-.51-.71-.86-.15-.35-.18-.74-.11-1.11,.07-.37,.26-.72,.53-.99,.27-.27,.61-.45,.99-.53,.37-.07,.76-.04,1.11,.11,.35,.15,.65,.39,.86,.71,.21,.32,.32,.69,.32,1.07,0,.25-.05,.5-.15,.74-.1,.23-.24,.45-.42,.62s-.39,.32-.62,.42c-.23,.1-.48,.15-.74,.15Z"/>
        <path class="cls-4" d="M912.33,308.45c1.06,0,1.93-.86,1.93-1.93s-.86-1.93-1.93-1.93-1.93,.86-1.93,1.93,.86,1.93,1.93,1.93Z"/>
        <path class="cls-20" d="M909.44,286.52v-1.94c-4.83,.64-9.31,2.86-12.76,6.3-3.44,3.44-5.66,7.93-6.3,12.76h1.94c.63-4.32,2.64-8.31,5.72-11.4s7.08-5.09,11.4-5.72Zm22.9,17.12h1.94c-.65-4.83-2.86-9.31-6.3-12.76-3.44-3.44-7.93-5.66-12.76-6.3v1.94c4.32,.63,8.31,2.64,11.4,5.72,3.08,3.08,5.09,7.08,5.72,11.4Zm-40.01,5.78h-1.94c.64,4.83,2.86,9.31,6.3,12.76,3.44,3.44,7.93,5.66,12.76,6.3v-1.94c-4.32-.63-8.31-2.64-11.4-5.72-3.08-3.08-5.09-7.08-5.72-11.4Zm41.95,0h-1.94c-.63,4.32-2.64,8.31-5.72,11.4-3.08,3.08-7.08,5.09-11.4,5.72v1.94c4.83-.64,9.31-2.86,12.76-6.3,3.45-3.44,5.66-7.93,6.3-12.76Zm-22.91-27.92v7.7c0,.26,.1,.5,.28,.68,.18,.18,.43,.28,.68,.28s.5-.1,.68-.28c.18-.18,.28-.43,.28-.68v-7.7c0-.26-.1-.5-.28-.68-.18-.18-.43-.28-.68-.28s-.5,.1-.68,.28c-.18,.18-.28,.43-.28,.68Zm.96,41.39c-.26,0-.5,.1-.68,.28-.18,.18-.28,.43-.28,.68v7.7c0,.26,.1,.5,.28,.68,.18,.18,.43,.28,.68,.28s.5-.1,.68-.28c.18-.18,.28-.43,.28-.68v-7.7c0-.26-.1-.5-.28-.68-.18-.18-.43-.28-.68-.28Zm25.99-16.37c0-.26-.1-.5-.28-.68-.18-.18-.42-.28-.68-.28h-7.7c-.26,0-.5,.1-.68,.28-.18,.18-.28,.43-.28,.68s.1,.5,.28,.68c.18,.18,.43,.28,.68,.28h7.7c.25,0,.5-.1,.68-.28,.18-.18,.28-.43,.28-.68Zm-42.36,0c0-.26-.1-.5-.28-.68-.18-.18-.43-.28-.68-.28h-7.7c-.26,0-.5,.1-.68,.28-.18,.18-.28,.43-.28,.68s.1,.5,.28,.68c.18,.18,.43,.28,.68,.28h7.7c.26,0,.5-.1,.68-.28,.18-.18,.28-.43,.28-.68Z"/>
        <path class="cls-14" d="M922.92,306.52c0,2.81-1.12,5.5-3.1,7.49-1.99,1.99-4.68,3.1-7.49,3.1s-5.5-1.12-7.49-3.1c-1.99-1.99-3.1-4.68-3.1-7.49,0-.16,0-.32,.01-.48,.12,2.72,1.29,5.29,3.26,7.17,1.97,1.88,4.59,2.93,7.31,2.93s5.34-1.05,7.31-2.93c1.97-1.88,3.14-4.45,3.26-7.17,.01,.16,.01,.32,.01,.48Z"/>
        <path class="cls-17" d="M922.92,306.52c0,.16,0,.32-.01,.48-.12-2.72-1.29-5.29-3.26-7.17-1.97-1.88-4.59-2.93-7.31-2.93s-5.34,1.05-7.31,2.93c-1.97,1.88-3.14,4.45-3.26,7.17-.01-.16-.01-.32-.01-.48,0-2.81,1.12-5.5,3.1-7.49,1.99-1.99,4.68-3.1,7.49-3.1s5.5,1.12,7.49,3.1c1.99,1.99,3.1,4.68,3.1,7.49Z"/>
        <path class="cls-16" d="M914.26,306.52c0,.51-.2,1-.56,1.36s-.85,.56-1.36,.56-1-.2-1.36-.56-.56-.85-.56-1.36c0-.16,.02-.32,.06-.48,.11,.41,.35,.78,.68,1.04,.34,.26,.75,.4,1.18,.4s.84-.14,1.18-.4c.34-.26,.58-.63,.68-1.04,.04,.16,.06,.32,.06,.48Z"/>
      </g>
    </g>
    <rect class="cls-11" x="863.04" y="257.23" width="98.58" height="98.58" rx="18.87" ry="18.87" shape-rendering="crispEdges"/>
  </g>
  <path class="cls-7" d="M991.5,313.26c2.01,0,3.53-.42,4.57-1.25,1.05-.83,1.58-1.93,1.58-3.28,0-.91-.15-1.65-.45-2.22-.29-.58-.69-1.03-1.21-1.36-.5-.33-1.08-.58-1.73-.75s-1.32-.32-2-.43c-1.01-.19-1.83-.37-2.44-.54-.62-.19-1.07-.44-1.36-.75-.28-.32-.41-.76-.41-1.34,0-.72,.28-1.29,.84-1.7,.57-.43,1.38-.65,2.41-.65s1.84,.23,2.46,.69c.63,.46,.96,1.16,.99,2.09h2.4c-.02-1.38-.53-2.49-1.55-3.32-1.01-.85-2.41-1.27-4.2-1.27s-3.22,.4-4.25,1.21c-1.02,.8-1.53,1.9-1.53,3.28,0,.89,.2,1.62,.61,2.2,.42,.56,1.02,1.01,1.83,1.36,.8,.33,1.81,.6,3.02,.82,1.03,.17,1.85,.37,2.46,.58,.6,.2,1.03,.48,1.29,.84,.25,.36,.39,.86,.39,1.49,0,.83-.34,1.45-1.01,1.85-.66,.4-1.55,.6-2.66,.6-1.33,0-2.31-.29-2.93-.86-.6-.59-.92-1.39-.95-2.39h-2.41c0,1.01,.25,1.9,.71,2.67,.46,.76,1.15,1.36,2.07,1.79,.92,.43,2.08,.65,3.47,.65Zm13.42,0c.95,0,1.79-.17,2.54-.52,.75-.36,1.35-.86,1.79-1.49,.45-.65,.7-1.4,.75-2.26h-2.16c-.08,.72-.39,1.3-.9,1.75-.52,.45-1.19,.67-2.03,.67-.99,0-1.79-.35-2.4-1.04-.59-.7-.89-1.7-.89-2.98s.28-2.2,.86-2.93c.58-.75,1.39-1.12,2.43-1.12,.74,0,1.36,.19,1.88,.58,.53,.37,.86,.93,.99,1.68h2.16c-.06-.82-.31-1.54-.75-2.16-.43-.62-1.02-1.1-1.75-1.44-.72-.35-1.54-.52-2.46-.52-1.14,0-2.13,.24-2.98,.73-.85,.49-1.5,1.18-1.96,2.07-.46,.88-.69,1.9-.69,3.08s.23,2.21,.69,3.11c.45,.88,1.1,1.56,1.94,2.05,.83,.49,1.8,.73,2.91,.73Zm12.14,0c1.16,0,2.14-.24,2.96-.73,.83-.5,1.47-1.19,1.92-2.07,.46-.89,.69-1.92,.69-3.08s-.24-2.25-.72-3.13c-.45-.89-1.1-1.57-1.94-2.05-.83-.47-1.8-.71-2.91-.71s-2.14,.25-2.97,.75c-.83,.49-1.48,1.18-1.94,2.07-.45,.88-.67,1.9-.67,3.08s.23,2.23,.69,3.11c.47,.88,1.12,1.56,1.96,2.05,.85,.47,1.83,.71,2.93,.71Zm0-1.85c-1,0-1.81-.35-2.41-1.06-.61-.7-.91-1.69-.91-2.95s.3-2.33,.91-3.02c.62-.7,1.42-1.06,2.41-1.06s1.83,.36,2.42,1.08c.59,.7,.89,1.7,.89,2.98s-.3,2.29-.91,3c-.6,.69-1.4,1.04-2.4,1.04Zm7.89,5.26h2.22v-5.84h.13c.28,.73,.77,1.32,1.45,1.77,.67,.45,1.49,.67,2.43,.67,1.39,0,2.52-.5,3.37-1.51,.86-1.01,1.29-2.47,1.29-4.38s-.43-3.37-1.29-4.38c-.85-1.02-1.97-1.53-3.37-1.53-.95,0-1.76,.23-2.43,.69-.68,.45-1.16,1.03-1.45,1.75h-.13l-.08-2.24h-2.13v15.01Zm5.45-5.24c-.7,0-1.29-.16-1.76-.47-.48-.33-.84-.75-1.08-1.27-.25-.53-.37-1.09-.37-1.68v-1.27c0-.59,.12-1.14,.37-1.66,.24-.53,.6-.96,1.08-1.27,.47-.33,1.06-.5,1.76-.5,.95,0,1.71,.35,2.29,1.04,.59,.68,.89,1.69,.89,3.04s-.29,2.35-.89,3.04c-.58,.68-1.34,1.01-2.29,1.01Zm12.75,1.83c.91,0,1.72-.15,2.44-.45,.73-.32,1.32-.75,1.79-1.29,.46-.56,.74-1.21,.84-1.96h-2.11c-.15,.59-.49,1.06-1.02,1.42-.53,.35-1.18,.52-1.94,.52-.99,0-1.79-.32-2.4-.95-.59-.65-.89-1.56-.92-2.74h8.46c.11-1.19,0-2.26-.37-3.21-.36-.96-.95-1.72-1.77-2.26-.8-.56-1.83-.84-3.08-.84-1.11,0-2.07,.24-2.89,.73-.82,.49-1.46,1.18-1.9,2.07-.43,.88-.65,1.92-.65,3.13s.22,2.18,.67,3.06c.45,.88,1.08,1.56,1.9,2.05,.83,.49,1.82,.73,2.95,.73Zm-.11-10.03c.85,0,1.56,.24,2.13,.71,.59,.47,.9,1.24,.93,2.29h-6.23c.08-.93,.41-1.67,.97-2.2,.57-.53,1.3-.8,2.19-.8Z"/>
  <rect class="cls-23" x="265.81" y="434.75" width="379.67" height="123.99" rx="23.1" ry="23.1"/>
  <path class="cls-7" d="M375.78,489.81h2.39v-7.55l-.09-4.89h.13l8.13,12.44h2.76v-15.72h-2.29v7.33l.13,5.26h-.15l-8.13-12.59h-2.89v15.72Zm21.58,.19c1.15,0,2.13-.24,2.95-.73,.83-.5,1.47-1.19,1.92-2.07,.46-.89,.69-1.92,.69-3.08s-.24-2.25-.71-3.13c-.46-.89-1.11-1.57-1.94-2.05-.83-.47-1.8-.71-2.91-.71s-2.14,.25-2.98,.75c-.83,.49-1.48,1.18-1.94,2.07-.45,.88-.67,1.9-.67,3.08s.23,2.23,.69,3.11c.47,.88,1.13,1.56,1.96,2.05,.85,.47,1.83,.71,2.93,.71Zm0-1.85c-1.01,0-1.81-.35-2.42-1.06-.6-.7-.91-1.69-.91-2.95s.3-2.33,.91-3.02c.62-.7,1.42-1.06,2.42-1.06s1.83,.36,2.42,1.08c.59,.7,.88,1.7,.88,2.98s-.3,2.29-.91,3c-.6,.69-1.4,1.04-2.39,1.04Zm7.89,1.66h2.2v-6.23c0-.66,.13-1.25,.39-1.77,.26-.53,.63-.96,1.1-1.27,.49-.32,1.06-.47,1.7-.47,.91,0,1.57,.28,2.01,.84,.43,.56,.65,1.42,.65,2.59v6.32h2.22v-6.77c0-1.16-.18-2.1-.54-2.8-.35-.7-.83-1.21-1.44-1.53-.62-.32-1.32-.47-2.09-.47-.83,0-1.6,.21-2.31,.63-.7,.4-1.22,1.01-1.55,1.81h-.13l-.09-2.26h-2.11v11.41Zm17.51,.22c1.5,0,2.67-.28,3.54-.84,.86-.58,1.29-1.44,1.29-2.61,0-.88-.2-1.54-.6-1.98-.39-.46-.91-.79-1.57-.99-.66-.22-1.39-.37-2.18-.47-.96-.13-1.67-.31-2.13-.54-.45-.23-.67-.63-.67-1.19,0-.49,.2-.88,.6-1.19,.4-.3,.98-.45,1.73-.45s1.32,.17,1.75,.5c.43,.32,.65,.82,.67,1.51h2.18c-.01-1.11-.42-1.98-1.23-2.61-.8-.65-1.91-.97-3.32-.97s-2.49,.3-3.34,.91c-.83,.59-1.25,1.43-1.25,2.52,0,.78,.19,1.38,.56,1.81,.37,.43,.88,.75,1.53,.97,.66,.22,1.42,.39,2.29,.52,.96,.14,1.66,.33,2.09,.56s.65,.66,.65,1.29c0,.53-.22,.95-.65,1.25-.42,.29-1.04,.43-1.85,.43s-1.44-.17-1.96-.52c-.52-.36-.78-.93-.78-1.7h-2.2c0,1.14,.42,2.06,1.25,2.76,.85,.69,2.06,1.04,3.62,1.04Zm10.61-.22h2.29v-1.83h-1.55c-.36,0-.61-.06-.75-.19-.14-.13-.22-.38-.22-.75v-6.81h2.52v-1.81h-2.52v-3.56l-2.22,.26v3.3h-2.16v1.81h2.16v7.22c0,.76,.17,1.35,.52,1.77,.36,.4,1.01,.6,1.94,.6Zm8.06,.19c.96,0,1.78-.22,2.46-.67,.68-.46,1.15-1.06,1.42-1.79h.13v2.26h2.22v-11.41h-2.13l-.09,2.24h-.13c-.27-.73-.75-1.32-1.42-1.77-.68-.45-1.49-.67-2.46-.67-1.39,0-2.52,.5-3.39,1.51-.85,1.01-1.27,2.47-1.27,4.38s.42,3.38,1.27,4.4c.86,1.01,1.99,1.51,3.39,1.51Zm.78-1.83c-.95,0-1.71-.35-2.29-1.04-.58-.69-.86-1.7-.86-3.04s.29-2.37,.86-3.04c.58-.69,1.34-1.04,2.29-1.04,.7,0,1.29,.17,1.77,.5s.83,.75,1.08,1.27c.24,.52,.37,1.07,.37,1.66v1.29c0,.59-.12,1.15-.37,1.68-.24,.52-.6,.94-1.08,1.27-.47,.32-1.06,.47-1.77,.47Zm8.57,1.64h2.2v-6.23c0-.66,.13-1.25,.39-1.77,.26-.53,.63-.96,1.1-1.27,.49-.32,1.06-.47,1.7-.47,.91,0,1.57,.28,2.01,.84,.43,.56,.65,1.42,.65,2.59v6.32h2.22v-6.77c0-1.16-.18-2.1-.54-2.8-.35-.7-.83-1.21-1.44-1.53s-1.32-.47-2.09-.47c-.83,0-1.6,.21-2.31,.63-.7,.4-1.22,1.01-1.55,1.81h-.13l-.09-2.26h-2.11v11.41Zm17.15,.19c.96,0,1.78-.22,2.46-.67,.68-.46,1.15-1.06,1.42-1.79h.13l.09,2.26h2.13v-15.72h-2.22v6.56h-.13c-.27-.73-.75-1.32-1.42-1.77-.68-.45-1.5-.67-2.46-.67-1.39,0-2.52,.5-3.39,1.51-.85,1.01-1.27,2.47-1.27,4.38s.42,3.38,1.27,4.4c.86,1.01,1.99,1.51,3.39,1.51Zm.78-1.83c-.95,0-1.71-.35-2.29-1.04-.58-.69-.86-1.7-.86-3.04s.29-2.37,.86-3.04c.57-.69,1.34-1.04,2.29-1.04,.7,0,1.29,.17,1.77,.5s.83,.75,1.08,1.27c.24,.52,.37,1.07,.37,1.66v1.29c0,.59-.12,1.15-.37,1.68-.24,.52-.6,.94-1.08,1.27-.47,.32-1.06,.47-1.77,.47Zm12.45,1.83c.96,0,1.78-.22,2.46-.67,.68-.46,1.15-1.06,1.42-1.79h.13v2.26h2.22v-11.41h-2.13l-.09,2.24h-.13c-.27-.73-.75-1.32-1.42-1.77-.68-.45-1.49-.67-2.46-.67-1.39,0-2.52,.5-3.39,1.51-.85,1.01-1.27,2.47-1.27,4.38s.42,3.38,1.27,4.4c.86,1.01,1.99,1.51,3.39,1.51Zm.78-1.83c-.95,0-1.71-.35-2.29-1.04-.57-.69-.86-1.7-.86-3.04s.29-2.37,.86-3.04c.58-.69,1.34-1.04,2.29-1.04,.7,0,1.29,.17,1.77,.5s.83,.75,1.08,1.27c.24,.52,.37,1.07,.37,1.66v1.29c0,.59-.12,1.15-.37,1.68-.24,.52-.6,.94-1.08,1.27-.47,.32-1.06,.47-1.77,.47Zm8.57,1.64h2.2v-6.51c.06-.93,.37-1.65,.93-2.16,.56-.52,1.34-.78,2.35-.78h.37c.13,0,.24,0,.32,.02v-2.09c-.1-.01-.21-.02-.32-.02-.1-.01-.22-.02-.35-.02-.75,0-1.42,.18-2.03,.54-.6,.36-1.03,.91-1.27,1.64h-.11l-.11-2.03h-1.98v11.41Zm11.65,.19c.96,0,1.78-.22,2.46-.67,.68-.46,1.15-1.06,1.42-1.79h.13l.09,2.26h2.13v-15.72h-2.22v6.56h-.13c-.27-.73-.75-1.32-1.42-1.77-.68-.45-1.49-.67-2.46-.67-1.39,0-2.52,.5-3.39,1.51-.85,1.01-1.27,2.47-1.27,4.38s.42,3.38,1.27,4.4c.86,1.01,1.99,1.51,3.39,1.51Zm.78-1.83c-.95,0-1.71-.35-2.29-1.04-.58-.69-.86-1.7-.86-3.04s.29-2.37,.86-3.04c.58-.69,1.34-1.04,2.29-1.04,.7,0,1.29,.17,1.77,.5s.83,.75,1.08,1.27c.24,.52,.37,1.07,.37,1.66v1.29c0,.59-.12,1.15-.37,1.68-.24,.52-.6,.94-1.08,1.27-.47,.32-1.06,.47-1.77,.47Zm-110.02,28.59h2.29v-1.83h-1.55c-.36,0-.61-.06-.75-.19-.14-.13-.22-.38-.22-.75v-6.81h2.52v-1.81h-2.52v-3.56l-2.22,.26v3.3h-2.16v1.81h2.16v7.22c0,.76,.17,1.35,.52,1.77,.36,.4,1.01,.6,1.94,.6Zm8.92,.19c.91,0,1.72-.15,2.44-.45,.73-.32,1.33-.75,1.79-1.29,.46-.56,.74-1.21,.84-1.96h-2.11c-.14,.59-.48,1.06-1.01,1.42-.53,.35-1.18,.52-1.94,.52-.99,0-1.79-.32-2.39-.95-.59-.65-.9-1.56-.93-2.74h8.45c.12-1.19,0-2.26-.37-3.21-.36-.96-.95-1.72-1.77-2.26-.8-.56-1.83-.84-3.08-.84-1.11,0-2.07,.24-2.89,.73s-1.45,1.18-1.9,2.07c-.43,.88-.65,1.92-.65,3.13s.22,2.18,.67,3.06c.45,.88,1.08,1.56,1.9,2.05,.83,.49,1.82,.73,2.95,.73Zm-.11-10.03c.85,0,1.56,.24,2.13,.71,.59,.47,.9,1.24,.93,2.29h-6.23c.09-.93,.41-1.67,.97-2.2,.58-.53,1.31-.8,2.2-.8Zm7.64,9.83h2.2v-6.51c.06-.93,.37-1.65,.93-2.16,.56-.52,1.34-.78,2.35-.78h.37c.13,0,.24,0,.32,.02v-2.09c-.1-.01-.21-.02-.32-.02-.1-.01-.22-.02-.35-.02-.75,0-1.42,.18-2.03,.54-.6,.36-1.03,.91-1.27,1.64h-.11l-.11-2.03h-1.98v11.41Zm8.11,0h2.2v-6.23c0-.66,.12-1.25,.37-1.77,.26-.53,.62-.96,1.08-1.27,.46-.32,1.01-.47,1.64-.47,.89,0,1.54,.28,1.94,.84,.42,.56,.63,1.42,.63,2.59v6.32h2.22v-6.23c0-.66,.12-1.25,.37-1.77,.26-.53,.62-.96,1.08-1.27,.46-.32,1-.47,1.62-.47,.89,0,1.55,.28,1.96,.84,.42,.56,.63,1.42,.63,2.59v6.32h2.2v-6.77c0-1.16-.17-2.1-.52-2.8s-.81-1.21-1.4-1.53c-.59-.32-1.27-.47-2.03-.47-.92,0-1.74,.22-2.46,.67-.72,.45-1.24,1.11-1.55,2.01h-.17c-.29-.98-.76-1.67-1.42-2.07-.66-.4-1.42-.6-2.26-.6s-1.59,.21-2.26,.63c-.68,.4-1.18,1.01-1.51,1.81h-.13l-.09-2.26h-2.11v11.41Zm20.91-13.15h2.22v-2.57h-2.22v2.57Zm0,13.15h2.22v-11.41h-2.22v11.41Zm5.31,0h2.2v-6.23c0-.66,.13-1.25,.39-1.77,.26-.53,.63-.96,1.1-1.27,.49-.32,1.06-.47,1.7-.47,.91,0,1.57,.28,2.01,.84,.43,.56,.65,1.42,.65,2.59v6.32h2.22v-6.77c0-1.16-.18-2.1-.54-2.8-.35-.7-.83-1.21-1.44-1.53-.62-.32-1.32-.47-2.09-.47-.83,0-1.6,.21-2.31,.63-.7,.4-1.22,1.01-1.55,1.81h-.13l-.09-2.26h-2.11v11.41Zm18.08,.19c1.15,0,2.13-.24,2.95-.73,.83-.5,1.47-1.19,1.92-2.07,.46-.89,.69-1.92,.69-3.08s-.24-2.25-.71-3.13c-.46-.89-1.11-1.57-1.94-2.05-.83-.47-1.8-.71-2.91-.71s-2.14,.25-2.98,.75c-.83,.49-1.48,1.18-1.94,2.07-.45,.88-.67,1.9-.67,3.08s.23,2.23,.69,3.11c.47,.88,1.13,1.56,1.96,2.05,.85,.47,1.83,.71,2.93,.71Zm0-1.85c-1.01,0-1.81-.35-2.42-1.06-.6-.7-.91-1.69-.91-2.95s.3-2.33,.91-3.02c.62-.7,1.42-1.06,2.42-1.06s1.83,.36,2.42,1.08c.59,.7,.88,1.7,.88,2.98s-.3,2.29-.91,3c-.6,.69-1.4,1.04-2.39,1.04Zm7.89,1.66h2.22v-15.72h-2.22v15.72Zm10.12,.19c1.15,0,2.13-.24,2.95-.73,.83-.5,1.47-1.19,1.92-2.07,.46-.89,.69-1.92,.69-3.08s-.24-2.25-.71-3.13c-.46-.89-1.11-1.57-1.94-2.05-.83-.47-1.8-.71-2.91-.71s-2.14,.25-2.98,.75c-.83,.49-1.48,1.18-1.94,2.07-.45,.88-.67,1.9-.67,3.08s.23,2.23,.69,3.11c.47,.88,1.13,1.56,1.96,2.05,.85,.47,1.83,.71,2.93,.71Zm0-1.85c-1.01,0-1.81-.35-2.42-1.06-.6-.7-.91-1.69-.91-2.95s.3-2.33,.91-3.02c.62-.7,1.42-1.06,2.42-1.06s1.83,.36,2.42,1.08c.59,.7,.88,1.7,.88,2.98s-.3,2.29-.91,3c-.6,.69-1.4,1.04-2.39,1.04Zm12.61,5.48c1.08,0,2.02-.16,2.82-.47,.81-.32,1.43-.83,1.88-1.55,.46-.7,.69-1.65,.69-2.85v-10.35h-2.16l-.04,2.11h-.15c-.26-.69-.72-1.24-1.38-1.66-.65-.43-1.42-.65-2.33-.65-1.38,0-2.49,.47-3.34,1.42-.85,.95-1.27,2.3-1.27,4.05s.42,3.08,1.25,4.03c.83,.95,1.95,1.42,3.34,1.42,.91,0,1.69-.21,2.35-.63,.66-.43,1.12-.99,1.38-1.68h.15v2.22c0,1.05-.27,1.8-.82,2.24-.53,.46-1.31,.69-2.33,.69-.72,0-1.32-.15-1.79-.45-.46-.29-.73-.68-.82-1.19h-2.16c.12,1.01,.59,1.8,1.42,2.39,.83,.59,1.93,.88,3.3,.88Zm.06-6.21c-.92,0-1.66-.32-2.22-.95-.56-.65-.84-1.57-.84-2.78s.27-2.11,.82-2.76c.56-.65,1.32-.97,2.26-.97,.68,0,1.24,.15,1.68,.45,.46,.29,.81,.66,1.04,1.12,.24,.46,.37,.94,.37,1.44l.02,1.38c-.01,.5-.14,.99-.39,1.47-.24,.46-.6,.84-1.06,1.14-.46,.3-1.02,.45-1.68,.45Zm7.56,5.99h1.6c.89,0,1.63-.19,2.22-.56,.6-.37,1.09-1.06,1.44-2.05l4.74-12.4h-2.35l-2.46,6.94-.45,1.36h-.09l-.47-1.36-2.61-6.94h-2.44l4.49,10.59-.5,1.27c-.19,.45-.42,.78-.71,.99-.29,.22-.68,.32-1.19,.32h-1.23v1.83Z"/>
  <g>
    <rect class="cls-2" x="533.04" y="447.84" width="97.81" height="97.81" rx="18.48" ry="18.48" shape-rendering="crispEdges"/>
    <g class="cls-24">
      <g>
        <path class="cls-20" d="M602.16,465.94h-42.36c-.26,0-.5,.1-.68,.28-.18,.18-.28,.43-.28,.68v59.68c0,.26,.1,.5,.28,.68,.18,.18,.43,.28,.68,.28h42.36c.77,0,1.5-.31,2.04-.85s.85-1.28,.85-2.04v-55.83c0-.77-.31-1.5-.85-2.04s-1.28-.85-2.04-.85Zm-38.51,59.68h-2.89v-57.76h2.89v57.76Zm39.47-.96c0,.25-.1,.5-.28,.68-.18,.18-.43,.28-.68,.28h-36.58v-57.76h36.58c.25,0,.5,.1,.68,.28,.18,.18,.28,.43,.28,.68v55.83Z"/>
        <path class="cls-20" d="M572.9,503.4c.12,.05,.24,.08,.37,.08,.13,0,.25-.02,.37-.07,.12-.05,.22-.12,.31-.2,.09-.09,.16-.19,.21-.31l.57-1.34h3.82l.57,1.34c.1,.23,.29,.42,.53,.51,.24,.1,.5,.09,.74,0,.23-.1,.42-.29,.52-.53,.09-.24,.09-.5,0-.74l-2.57-6.01c-.8-1.88-.97-2.27-1.69-2.27s-.88,.39-1.69,2.27l-2.57,6.01c-.1,.23-.1,.5,0,.74,.1,.24,.28,.43,.52,.53Zm3.75-6.33l1.09,2.55h-2.18l1.09-2.55Zm18.77,4.48h-3.87s4.59-6.07,4.62-6.15c.1-.15,.17-.32,.18-.5,.02-.18-.01-.36-.09-.53-.08-.16-.2-.29-.35-.38-.15-.09-.32-.14-.5-.14h-5.78c-.26,0-.5,.1-.68,.28-.18,.18-.28,.43-.28,.68s.1,.5,.28,.68c.18,.18,.43,.28,.68,.28h3.87s-4.59,6.07-4.62,6.15c-.1,.15-.16,.32-.18,.5-.02,.18,0,.36,.08,.53,.08,.16,.21,.29,.36,.38,.15,.09,.33,.14,.5,.14h5.78c.26,0,.5-.1,.68-.28,.18-.18,.28-.43,.28-.68s-.1-.5-.28-.68c-.18-.18-.43-.28-.68-.28Zm-11.55-3.85c-.26,0-.5,.1-.68,.28-.18,.18-.28,.43-.28,.68s.1,.5,.28,.68c.18,.18,.43,.28,.68,.28h1.93c.26,0,.5-.1,.68-.28,.18-.18,.28-.43,.28-.68s-.1-.5-.28-.68c-.18-.18-.43-.28-.68-.28h-1.93Zm11.55,13h-22.14c-.26,0-.5,.1-.68,.28-.18,.18-.28,.43-.28,.68s.1,.5,.28,.68c.18,.18,.43,.28,.68,.28h22.14c.26,0,.5-.1,.68-.28,.18-.18,.28-.43,.28-.68s-.1-.5-.28-.68c-.18-.18-.43-.28-.68-.28Zm0,3.85h-22.14c-.26,0-.5,.1-.68,.28-.18,.18-.28,.43-.28,.68s.1,.5,.28,.68c.18,.18,.43,.28,.68,.28h22.14c.26,0,.5-.1,.68-.28,.18-.18,.28-.43,.28-.68s-.1-.5-.28-.68c-.18-.18-.43-.28-.68-.28Zm-9.63,3.85h-12.51c-.26,0-.5,.1-.68,.28-.18,.18-.28,.43-.28,.68s.1,.5,.28,.68c.18,.18,.43,.28,.68,.28h12.51c.26,0,.5-.1,.68-.28,.18-.18,.28-.43,.28-.68s-.1-.5-.28-.68c-.18-.18-.43-.28-.68-.28Z"/>
        <path class="cls-20" d="M584.35,490c1.71,0,3.39-.51,4.81-1.46s2.54-2.3,3.19-3.89c.66-1.58,.83-3.32,.49-5.01-.33-1.68-1.16-3.22-2.37-4.44-1.21-1.21-2.76-2.04-4.44-2.37s-3.42-.16-5.01,.49c-1.58,.66-2.94,1.77-3.89,3.19s-1.46,3.1-1.46,4.81c0,2.3,.92,4.5,2.54,6.12s3.83,2.54,6.12,2.54Zm0-15.4c1.33,0,2.64,.4,3.74,1.14,1.11,.74,1.97,1.79,2.48,3.02,.51,1.23,.64,2.59,.38,3.89-.26,1.31-.9,2.51-1.84,3.45-.94,.94-2.14,1.58-3.45,1.84-1.31,.26-2.66,.13-3.89-.38s-2.28-1.37-3.02-2.48c-.74-1.11-1.14-2.41-1.14-3.74,0-1.79,.71-3.5,1.98-4.76,1.26-1.26,2.98-1.97,4.76-1.98Z"/>
      </g>
    </g>
    <rect class="cls-11" x="532.66" y="447.46" width="98.58" height="98.58" rx="18.87" ry="18.87" shape-rendering="crispEdges"/>
  </g>
  <rect class="cls-23" x="741.75" y="434.75" width="379.67" height="123.99" rx="23.1" ry="23.1"/>
  <g>
    <rect class="cls-2" x="756.38" y="447.84" width="97.81" height="97.81" rx="18.48" ry="18.48" shape-rendering="crispEdges"/>
    <path class="cls-20" d="M786.42,503.74l1.65,16.6c.02,.2,0,.4-.06,.59-.06,.19-.15,.37-.28,.53-.13,.16-.28,.28-.46,.38-.18,.1-.37,.15-.57,.17l-6.19,.61c-.15,.01-.3,.06-.44,.13-.14,.07-.26,.17-.36,.29-.1,.12-.17,.26-.22,.4-.05,.15-.06,.3-.05,.46,.01,.15,.06,.3,.13,.44,.07,.14,.17,.26,.29,.35,.12,.1,.26,.17,.41,.21,.15,.04,.3,.06,.46,.04l6.19-.61c.76-.07,1.49-.38,2.08-.86,.59-.49,1.02-1.14,1.24-1.88l.56-.05c3.86-.38,6.31,1.38,7.51,1.81,1.69,.77,3.52,1.17,5.38,1.18,1.86,.01,3.7-.37,5.4-1.11l22.05-11.36c2.53-1.1,3.48-4.22,2.24-6.66-1.15-2.27-3.78-3.2-5.92-2.16l-12.31,5.05c0-.13,.01-.25,0-.38-.22-2.23-2.15-3.88-4.27-3.67l-5.89,.58c-2.22,.21-4.46-.23-6.42-1.29-2.37-1.27-5.07-1.81-7.75-1.56l-2.46,.24c-.68-1.41-2.18-2.33-3.83-2.17l-6.83,.57c-.31,.03-.59,.17-.79,.41-.2,.24-.3,.54-.27,.85,.05,.64,.6,1.12,1.26,1.06l6.85-.57c.4-.04,.81,.09,1.12,.34,.31,.26,.51,.63,.56,1.03Zm4.63,.55c2.22-.22,4.46,.23,6.42,1.29,2.37,1.27,5.07,1.81,7.74,1.55l5.89-.58c.85-.08,1.63,.63,1.73,1.58,.1,1.01-.6,1.82-1.38,1.89l-10.69,1.06c-.15,.01-.3,.06-.44,.13-.14,.07-.26,.17-.36,.29-.1,.12-.17,.25-.22,.4-.05,.15-.06,.3-.05,.46,.01,.15,.06,.3,.13,.44,.07,.14,.17,.26,.29,.35,.12,.1,.26,.17,.41,.21,.15,.04,.3,.06,.46,.04l10.69-1.06c.83-.09,1.6-.45,2.2-1.02l14.53-5.96c1.05-.51,2.32-.03,2.9,1.09,.63,1.23,.24,2.89-1.17,3.51l-22.05,11.36c-2.84,1.24-5.97,1.21-8.82-.09-1.17-.41-4.14-2.47-8.7-2.01l-.28,.03-1.46-14.74,2.22-.22Z"/>
    <path class="cls-20" d="M784.03,517c0-.64-.58-1.22-1.22-1.22s-1.22,.58-1.22,1.22,.58,1.22,1.22,1.22,1.22-.58,1.22-1.22Zm30.64-38.98c-4.09,0-7.42,3.33-7.42,7.42s3.33,7.42,7.42,7.42,7.42-3.33,7.42-7.42-3.33-7.42-7.42-7.42h0Zm0,12.52c-1.35,0-2.65-.54-3.6-1.49-.96-.96-1.49-2.25-1.49-3.6,0-1.35,.54-2.65,1.5-3.6,.96-.96,2.25-1.49,3.6-1.49,1.35,0,2.65,.54,3.6,1.49,.95,.96,1.49,2.25,1.49,3.6,0,1.35-.54,2.65-1.49,3.6-.95,.96-2.25,1.49-3.6,1.5Z"/>
    <path class="cls-20" d="M830.65,488.67c.26-.05,.5-.2,.67-.4,.17-.21,.26-.47,.26-.74v-4.18c0-.27-.09-.53-.26-.74-.17-.21-.41-.35-.67-.4l-3.05-.61c-.26-.89-.62-1.75-1.06-2.57l1.72-2.59c.15-.22,.22-.49,.19-.76-.03-.27-.15-.52-.34-.71l-2.96-2.95c-.19-.19-.44-.31-.71-.33-.27-.03-.53,.04-.76,.19l-2.59,1.72c-.82-.45-1.68-.81-2.57-1.07l-.61-3.05c-.05-.26-.19-.5-.4-.67-.21-.17-.47-.26-.74-.26h-4.19c-.27,0-.53,.09-.74,.26-.21,.17-.35,.41-.4,.67l-.61,3.05c-.89,.26-1.75,.62-2.57,1.07l-2.59-1.72c-.22-.15-.49-.21-.76-.19-.27,.03-.52,.14-.71,.33l-2.96,2.95c-.19,.19-.31,.44-.34,.71-.03,.27,.04,.54,.19,.76l1.72,2.59c-.44,.82-.79,1.68-1.05,2.57l-3.05,.61c-.26,.05-.5,.19-.67,.4-.17,.21-.26,.47-.26,.74v4.18c0,.27,.09,.53,.26,.74,.17,.21,.41,.35,.67,.4l3.05,.62c.26,.88,.61,1.74,1.05,2.57l-1.72,2.59c-.15,.22-.21,.49-.19,.76,.03,.27,.14,.52,.33,.71l2.96,2.96c.19,.19,.44,.31,.71,.33,.27,.03,.54-.04,.76-.19l2.58-1.73c.82,.45,1.69,.81,2.58,1.07l.61,3.05c.05,.26,.2,.5,.4,.67,.21,.17,.47,.26,.74,.26h4.19c.27,0,.53-.09,.74-.26,.21-.17,.35-.41,.4-.67l.61-3.05c.9-.26,1.77-.62,2.59-1.07l2.57,1.73c.22,.15,.49,.22,.76,.19,.27-.03,.52-.14,.71-.34l2.96-2.96c.19-.19,.31-.44,.34-.71,.03-.27-.04-.54-.19-.76l-1.73-2.59c.45-.84,.81-1.7,1.06-2.57l3.05-.62Zm-4.22-1.51c-.22,.04-.42,.15-.58,.31-.16,.16-.27,.35-.32,.57-.28,1.16-.73,2.26-1.35,3.28-.11,.19-.17,.41-.17,.63,0,.22,.07,.43,.19,.62l1.59,2.39-1.61,1.61-2.38-1.6c-.19-.13-.41-.19-.63-.2-.22,0-.45,.06-.64,.18-1.01,.63-2.11,1.09-3.27,1.35-.22,.05-.42,.16-.57,.32-.16,.16-.26,.36-.31,.58l-.57,2.83h-2.29l-.57-2.83c-.04-.22-.15-.42-.31-.58-.16-.16-.36-.27-.57-.32-1.16-.26-2.26-.72-3.26-1.35-.19-.12-.41-.18-.63-.18-.22,0-.44,.07-.63,.2l-2.39,1.6-1.62-1.61,1.59-2.39c.12-.18,.19-.4,.19-.62,0-.22-.05-.44-.17-.63-.62-1.02-1.07-2.12-1.34-3.28-.05-.22-.16-.42-.32-.57-.16-.16-.36-.26-.58-.31l-2.83-.58v-2.28l2.83-.57c.22-.04,.42-.15,.58-.3,.16-.16,.27-.35,.32-.57,.27-1.16,.72-2.26,1.34-3.28,.11-.19,.17-.41,.17-.63,0-.22-.07-.44-.19-.62l-1.59-2.39,1.62-1.61,2.41,1.6c.19,.12,.4,.19,.63,.19,.22,0,.44-.06,.63-.18,1-.63,2.1-1.09,3.25-1.35,.22-.05,.42-.16,.57-.32,.16-.16,.26-.36,.31-.58l.57-2.83h2.29l.57,2.83c.04,.22,.15,.42,.31,.58,.16,.16,.36,.27,.57,.32,1.15,.27,2.25,.72,3.25,1.35,.19,.12,.41,.18,.63,.18,.22,0,.44-.07,.63-.19l2.41-1.6,1.62,1.61-1.59,2.39c-.12,.18-.19,.4-.19,.62,0,.22,.05,.44,.17,.63,.62,1.03,1.09,2.16,1.35,3.28,.05,.22,.16,.42,.32,.57,.16,.16,.36,.26,.58,.3l2.83,.57v2.28l-2.83,.58Z"/>
    <rect class="cls-11" x="756" y="447.46" width="98.58" height="98.58" rx="18.87" ry="18.87" shape-rendering="crispEdges"/>
  </g>
  <path class="cls-7" d="M882.42,503.29h2.35v-13.67h4.98v-2.05h-12.27v2.05h4.94v13.67Zm6.83,3.6h1.6c.89,0,1.63-.19,2.22-.56,.6-.37,1.09-1.06,1.44-2.05l4.74-12.4h-2.35l-2.46,6.94-.45,1.36h-.09l-.47-1.36-2.61-6.94h-2.44l4.49,10.59-.5,1.27c-.19,.45-.42,.78-.71,.99-.29,.22-.68,.32-1.19,.32h-1.23v1.83Zm11.49,0h2.22v-5.84h.13c.29,.73,.77,1.32,1.44,1.77,.68,.45,1.49,.67,2.44,.67,1.39,0,2.52-.5,3.36-1.51,.86-1.01,1.29-2.47,1.29-4.38s-.43-3.37-1.29-4.38c-.85-1.02-1.97-1.53-3.36-1.53-.95,0-1.76,.23-2.44,.69-.68,.45-1.16,1.03-1.44,1.75h-.13l-.09-2.24h-2.13v15.01Zm5.46-5.24c-.7,0-1.29-.16-1.77-.47-.47-.33-.83-.75-1.08-1.27-.24-.53-.37-1.09-.37-1.68v-1.27c0-.59,.12-1.14,.37-1.66,.24-.53,.6-.96,1.08-1.27,.47-.33,1.06-.5,1.77-.5,.95,0,1.71,.35,2.29,1.04,.59,.68,.88,1.69,.88,3.04s-.29,2.35-.88,3.04c-.58,.68-1.34,1.01-2.29,1.01Zm12.74,1.83c.91,0,1.72-.15,2.44-.45,.73-.32,1.33-.75,1.79-1.29,.46-.56,.74-1.21,.84-1.96h-2.11c-.14,.59-.48,1.06-1.01,1.42-.53,.35-1.18,.52-1.94,.52-.99,0-1.79-.32-2.39-.95-.59-.65-.9-1.56-.93-2.74h8.45c.11-1.19,0-2.26-.37-3.21-.36-.96-.95-1.72-1.77-2.26-.8-.56-1.83-.84-3.08-.84-1.11,0-2.07,.24-2.89,.73-.82,.49-1.45,1.18-1.9,2.07-.43,.88-.65,1.92-.65,3.13s.22,2.18,.67,3.06c.45,.88,1.08,1.56,1.9,2.05,.83,.49,1.82,.73,2.95,.73Zm-.11-10.03c.85,0,1.56,.24,2.13,.71,.59,.47,.9,1.24,.93,2.29h-6.23c.09-.93,.41-1.67,.97-2.2,.58-.53,1.31-.8,2.2-.8Zm17.27,10.03c1.16,0,2.14-.24,2.96-.73,.83-.5,1.47-1.19,1.92-2.07,.46-.89,.69-1.92,.69-3.08s-.24-2.25-.72-3.13c-.45-.89-1.1-1.57-1.94-2.05-.83-.47-1.8-.71-2.91-.71s-2.14,.25-2.97,.75c-.83,.49-1.48,1.18-1.94,2.07-.45,.88-.67,1.9-.67,3.08s.23,2.23,.69,3.11c.47,.88,1.12,1.56,1.96,2.05,.85,.47,1.83,.71,2.93,.71Zm0-1.85c-1,0-1.81-.35-2.41-1.06-.61-.7-.91-1.69-.91-2.95s.3-2.33,.91-3.02c.62-.7,1.42-1.06,2.41-1.06s1.83,.36,2.42,1.08c.59,.7,.89,1.7,.89,2.98s-.3,2.29-.91,3c-.6,.69-1.4,1.04-2.4,1.04Zm8.79,1.66h2.23v-9.6h2.52v-1.81h-2.52v-1.47c0-.37,.08-.67,.25-.88,.19-.23,.53-.35,1.04-.35h1.46v-1.62h-2.05c-.9,0-1.62,.22-2.16,.67-.52,.45-.78,1.1-.78,1.96v1.68h-2.06v1.81h2.06v9.6Zm17.1,.19c2.02,0,3.54-.42,4.57-1.25,1.05-.83,1.57-1.93,1.57-3.28,0-.91-.15-1.65-.45-2.22-.29-.58-.69-1.03-1.21-1.36-.51-.33-1.08-.58-1.73-.75-.65-.17-1.32-.32-2.01-.43-1-.19-1.82-.37-2.43-.54-.62-.19-1.07-.44-1.36-.75-.28-.32-.42-.76-.42-1.34,0-.72,.28-1.29,.85-1.7,.57-.43,1.38-.65,2.41-.65s1.84,.23,2.46,.69c.63,.46,.96,1.16,.99,2.09h2.4c-.02-1.38-.53-2.49-1.56-3.32-1-.85-2.4-1.27-4.2-1.27s-3.21,.4-4.24,1.21c-1.02,.8-1.53,1.9-1.53,3.28,0,.89,.2,1.62,.6,2.2,.42,.56,1.03,1.01,1.83,1.36,.81,.33,1.82,.6,3.02,.82,1.04,.17,1.86,.37,2.46,.58,.6,.2,1.03,.48,1.29,.84,.25,.36,.39,.86,.39,1.49,0,.83-.34,1.45-1.02,1.85-.66,.4-1.54,.6-2.65,.6-1.34,0-2.32-.29-2.93-.86-.6-.59-.92-1.39-.95-2.39h-2.42c.02,1.01,.25,1.9,.72,2.67,.45,.76,1.15,1.36,2.07,1.79,.92,.43,2.07,.65,3.47,.65Zm13.39,0c.91,0,1.73-.15,2.44-.45,.73-.32,1.33-.75,1.79-1.29,.46-.56,.74-1.21,.84-1.96h-2.11c-.15,.59-.48,1.06-1.02,1.42-.53,.35-1.18,.52-1.94,.52-.99,0-1.79-.32-2.39-.95-.59-.65-.9-1.56-.93-2.74h8.46c.12-1.19,0-2.26-.37-3.21-.35-.96-.95-1.72-1.76-2.26-.81-.56-1.83-.84-3.09-.84-1.1,0-2.07,.24-2.89,.73-.82,.49-1.45,1.18-1.89,2.07-.43,.88-.65,1.92-.65,3.13s.22,2.18,.66,3.06c.45,.88,1.08,1.56,1.9,2.05,.83,.49,1.82,.73,2.95,.73Zm-.11-10.03c.85,0,1.56,.24,2.14,.71,.59,.47,.89,1.24,.92,2.29h-6.23c.08-.93,.41-1.67,.97-2.2,.58-.53,1.31-.8,2.19-.8Zm7.65,9.83h2.19v-6.51c.06-.93,.37-1.65,.93-2.16,.55-.52,1.34-.78,2.35-.78h.36c.13,0,.24,0,.32,.02v-2.09c-.1-.01-.21-.02-.32-.02-.1-.01-.22-.02-.34-.02-.75,0-1.42,.18-2.03,.54-.6,.36-1.02,.91-1.27,1.64h-.11l-.11-2.03h-1.98v11.41Zm10.58,0h2.72l4.06-11.41h-2.4l-2.29,7.03-.69,2.46h-.08l-.73-2.46-2.29-7.03h-2.4l4.1,11.41Zm8.26-13.15h2.22v-2.57h-2.22v2.57Zm0,13.15h2.22v-11.41h-2.22v11.41Zm10.07,.19c.95,0,1.79-.17,2.54-.52,.75-.36,1.35-.86,1.79-1.49,.44-.65,.69-1.4,.75-2.26h-2.16c-.09,.72-.39,1.3-.91,1.75-.52,.45-1.19,.67-2.03,.67-.99,0-1.79-.35-2.4-1.04-.59-.7-.89-1.7-.89-2.98s.28-2.2,.86-2.93c.58-.75,1.39-1.12,2.44-1.12,.73,0,1.36,.19,1.87,.58,.53,.37,.86,.93,.99,1.68h2.16c-.06-.82-.31-1.54-.75-2.16-.43-.62-1.02-1.1-1.75-1.44-.72-.35-1.54-.52-2.46-.52-1.14,0-2.13,.24-2.97,.73-.85,.49-1.51,1.18-1.96,2.07-.46,.88-.69,1.9-.69,3.08s.23,2.21,.69,3.11c.45,.88,1.1,1.56,1.94,2.05,.83,.49,1.8,.73,2.91,.73Zm12.08,0c.91,0,1.72-.15,2.44-.45,.73-.32,1.32-.75,1.79-1.29,.46-.56,.74-1.21,.84-1.96h-2.11c-.15,.59-.49,1.06-1.02,1.42-.53,.35-1.18,.52-1.94,.52-.99,0-1.79-.32-2.4-.95-.59-.65-.89-1.56-.92-2.74h8.46c.12-1.19,0-2.26-.37-3.21-.36-.96-.95-1.72-1.77-2.26-.8-.56-1.83-.84-3.08-.84-1.11,0-2.07,.24-2.89,.73-.82,.49-1.46,1.18-1.9,2.07-.43,.88-.65,1.92-.65,3.13s.22,2.18,.67,3.06c.45,.88,1.08,1.56,1.9,2.05,.83,.49,1.82,.73,2.95,.73Zm-.11-10.03c.85,0,1.56,.24,2.13,.71,.59,.47,.9,1.24,.93,2.29h-6.23c.08-.93,.41-1.67,.97-2.2,.57-.53,1.3-.8,2.19-.8Z"/>
  <circle class="cls-1" cx="808.36" cy="305.75" r="7.32"/>
  <circle class="cls-2" cx="808.36" cy="305.75" r="4.24"/>
  <circle class="cls-26" cx="585.03" cy="305.75" r="7.32"/>
  <circle class="cls-2" cx="585.03" cy="305.75" r="4.24"/>
  <circle class="cls-29" cx="755.23" cy="211.8" r="7.32"/>
  <circle class="cls-2" cx="755.23" cy="211.8" r="4.24"/>
  <circle class="cls-21" cx="637.4" cy="211.8" r="7.32"/>
  <circle class="cls-2" cx="637.4" cy="211.8" r="4.24"/>
  <circle class="cls-5" cx="755.23" cy="400.48" r="7.32"/>
  <circle class="cls-2" cx="755.23" cy="400.48" r="4.24"/>
  <circle class="cls-25" cx="637.4" cy="400.48" r="7.32"/>
  <circle class="cls-2" cx="637.4" cy="400.48" r="4.24"/>
</svg>