<svg width="104" height="30" viewBox="0 0 104 30" fill="none" xmlns="http://www.w3.org/2000/svg">
<path d="M31.7178 17.2162C31.7178 24.2639 25.994 30 18.9614 30H9.26473V26.7807H18.9588C24.155 26.7807 28.3942 22.5972 28.5003 17.4184C26.6432 22.1851 22.016 25.5702 16.6155 25.5702H0L8.525 8.97615L19.608 14.6604L15.674 22.3484C15.674 22.3484 16.825 22.3458 16.9284 22.3432L21.0357 14.3105L10.9356 9.1239L11.3727 8.26853L22.4661 13.9606L18.2605 22.2032C22.7402 21.4204 26.1569 17.4935 26.1569 12.7812C26.1569 7.50907 21.8738 3.21928 16.6155 3.21928H5.3126V0H16.6155C22.3755 0 27.2588 3.84914 28.8339 9.11871C30.6962 11.3997 31.7178 14.2587 31.7178 17.2162Z" fill="#FAFAFA"/>
<path d="M75.0438 25.1918C76.0965 25.1918 76.8 25.858 76.8 26.8585C76.8 27.859 76.099 28.5251 75.0438 28.5251C73.9911 28.5251 73.2876 27.859 73.2876 26.8585C73.2876 25.858 73.9885 25.1918 75.0438 25.1918Z" fill="#FAFAFA"/>
<path d="M80.1805 14.4116H83.1368V16.506H80.1805V14.4116ZM80.1805 18.1156H83.1368V28.3022H80.1805V18.1156Z" fill="#FAFAFA"/>
<path d="M94.7475 17.6542C100.365 17.6542 103.433 19.4323 103.433 23.2115C103.433 27.027 100.513 28.7688 94.7475 28.7688C89.0004 28.7688 86.0595 27.027 86.0595 23.2115C86.0595 19.3961 88.9978 17.6542 94.7475 17.6542ZM94.7475 26.3038C98.9065 26.3038 100.477 25.3577 100.477 23.2115C100.477 21.0809 98.8496 20.1192 94.7475 20.1192C90.6065 20.1192 89.0185 21.0627 89.0185 23.2115C89.0159 25.3396 90.6428 26.3038 94.7475 26.3038Z" fill="#FAFAFA"/>
<path d="M49.5955 14.6501C48.7446 14.9274 45.5839 15.4847 42.6276 15.4847C36.27 15.4847 33.9396 13.9295 33.9396 9.92742C33.9396 6.31674 36.1381 4.37014 42.0534 4.37014C47.3401 4.37014 50.7956 5.79575 50.1671 10.8891H37.0072C37.3589 12.6853 38.8177 13.1312 42.625 13.1312C46.0262 13.1312 48.7239 12.7242 49.5929 12.3717V14.6501H49.5955ZM47.3401 8.96319C47.322 7.42613 45.5115 6.73924 42.0534 6.73924C38.947 6.73924 37.4339 7.29393 37.0253 8.96319H47.3401Z" fill="#FAFAFA"/>
<path d="M66.6559 13.7247C65.3238 14.9093 63.5883 15.4847 60.2233 15.4847C54.6236 15.4847 52.2389 13.2608 52.2389 9.92742C52.2389 6.59409 54.6236 4.37014 60.2233 4.37014C63.3478 4.37014 66.7102 4.70451 69.6122 5.20477V15.0207H66.6559V13.7247ZM60.9268 13.0197C65.2514 13.0197 66.6559 11.8533 66.6559 9.49974V7.2395C65.898 7.09176 63.6607 6.83256 60.9268 6.83256C56.7135 6.83256 55.1978 7.72162 55.1978 9.92483C55.1978 12.0943 56.7497 13.0197 60.9268 13.0197Z" fill="#FAFAFA"/>
<path d="M72.7004 1.12753H75.6568V15.0181H72.7004V1.12753Z" fill="#FAFAFA"/>
<path d="M43.0724 17.6516C48.6903 17.6516 51.7604 19.4298 51.7604 23.2089C51.7604 27.0244 48.8403 28.7662 43.0724 28.7662C37.3253 28.7662 34.3845 27.0244 34.3845 23.2089C34.3871 19.3935 37.3253 17.6516 43.0724 17.6516ZM43.0724 26.3012C47.2315 26.3012 48.8015 25.3551 48.8015 23.2089C48.8015 21.0783 47.1746 20.1166 43.0724 20.1166C38.9315 20.1166 37.3434 21.0601 37.3434 23.2089C37.3434 25.3396 38.9703 26.3012 43.0724 26.3012Z" fill="#FAFAFA"/>
<path d="M57.5049 18.1156L61.7752 21.9492L66.1179 18.1156H70.0002L64.641 22.9316L70.2795 28.3022H66.3946L61.7752 23.9684L57.2282 28.3022H53.3459L58.9844 22.9316L53.6252 18.1156H57.5049Z" fill="#FAFAFA"/>
</svg>
