<svg width="623" height="523" viewBox="0 0 623 523" fill="none" xmlns="http://www.w3.org/2000/svg">
<path d="M122.538 416.496C120.576 414.724 117.537 414.447 115.093 415.45C112.65 416.453 110.781 418.566 109.635 420.944C108.489 423.324 108 425.965 107.709 428.59C107.226 432.934 107.295 437.477 108.727 441.568C102.994 438.668 97.4918 435.331 92.2707 431.586C91.7953 431.246 91.3267 430.897 90.8564 430.55L99.6327 419.986C101.584 417.637 103.58 415.21 104.513 412.301C105.446 409.392 105.076 405.847 102.806 403.797C100.845 402.024 97.8056 401.748 95.3618 402.751C92.9181 403.753 91.0496 405.866 89.9035 408.245C88.7573 410.624 88.2685 413.266 87.9769 415.891C87.4798 420.372 87.567 425.065 89.1343 429.256C83.464 424.922 78.1671 420.122 73.2993 414.904L81.7801 403.86C83.6402 401.437 85.5404 398.935 86.3615 395.993C87.1821 393.05 86.6766 389.523 84.33 387.56C82.3018 385.864 79.2543 385.704 76.8507 386.8C74.4472 387.896 72.6614 390.079 71.6074 392.5C70.5534 394.921 70.1663 397.579 69.9753 400.214C69.6703 404.432 69.8853 408.817 71.3376 412.752C67.9024 408.9 64.708 404.84 61.7726 400.595C60.9074 399.337 60.066 398.062 59.249 396.771L67.5963 385.125C69.3759 382.643 71.193 380.08 71.9169 377.112C72.6408 374.144 72.0191 370.635 69.6094 368.749C67.5259 367.121 64.4756 367.061 62.11 368.236C59.7439 369.41 58.0302 371.651 57.0572 374.105C56.0836 376.56 55.7836 379.23 55.6803 381.869C55.5317 385.641 55.8054 389.53 56.9885 393.085C54.3643 388.616 52.0317 383.982 50.0052 379.212L51.7507 365.355C52.1328 362.324 52.5093 359.203 51.7323 356.246C50.9548 353.289 48.7383 350.496 45.7237 349.984C43.1174 349.541 40.4083 350.94 38.8885 353.099C37.3686 355.258 36.9301 358.046 37.2424 360.669C37.5552 363.293 38.5628 365.785 39.7286 368.158C41.8763 372.531 44.73 376.747 48.7579 379.44C48.7635 379.456 48.7657 379.471 48.773 379.488C50.9219 384.567 53.4148 389.495 56.2344 394.236C53.1974 391.741 49.4433 390.086 45.6584 388.909C43.1336 388.123 40.515 387.512 37.8747 387.608C35.2337 387.703 32.5464 388.566 30.6479 390.401C28.7487 392.236 27.784 395.128 28.623 397.634C29.5944 400.533 32.6967 402.292 35.7381 402.604C38.7801 402.916 41.8053 402.062 44.7423 401.217L58.1603 397.357C61.7816 403.057 65.8571 408.455 70.3473 413.499C66.654 411.633 62.3876 410.896 58.219 410.683C55.5792 410.549 52.8919 410.606 50.3582 411.354C47.8245 412.101 45.4366 413.605 44.0541 415.854C42.6711 418.103 42.4544 421.145 43.8899 423.366C45.55 425.934 48.9908 426.869 52.0138 426.417C55.0368 425.964 57.7548 424.386 60.389 422.839L72.4185 415.773C72.5637 415.928 72.705 416.087 72.8508 416.241C77.6339 421.307 82.8185 425.979 88.354 430.211C83.9826 428.664 79.1163 428.758 74.5019 429.469C71.8906 429.871 69.2715 430.471 66.9428 431.717C64.6135 432.962 62.5809 434.918 61.6821 437.401C60.7834 439.885 61.1878 442.909 63.0428 444.793C65.1883 446.972 68.7464 447.192 71.6141 446.137C74.4813 445.082 76.8228 442.987 79.0878 440.938L89.7666 431.28C89.8442 431.338 89.9236 431.395 90.0018 431.452L89.9945 431.588L90.0671 431.501C95.5182 435.531 101.283 439.121 107.306 442.234C103.149 442.5 99.0641 444.014 95.3244 445.932C92.9293 447.161 90.5899 448.583 88.7383 450.535C86.886 452.488 85.5483 455.032 85.4757 457.721C85.403 460.411 86.7626 463.203 89.1594 464.429C91.9322 465.846 95.4411 464.915 97.8748 462.973C100.309 461.031 101.9 458.252 103.433 455.543L109.964 444.001L110.222 443.692C116.946 446.947 123.958 449.574 131.166 451.54C131.928 451.747 132.397 450.599 131.625 450.389C124.545 448.457 117.654 445.886 111.039 442.708L119.365 432.686C121.317 430.336 123.312 427.909 124.246 425C125.178 422.091 124.808 418.547 122.538 416.496ZM511.013 300.491C512.34 298.205 515.15 297.015 517.783 297.224C520.416 297.433 522.841 298.876 524.66 300.791C526.478 302.707 527.75 305.073 528.83 307.485C530.616 311.475 531.938 315.821 531.824 320.155C536.398 315.644 540.618 310.787 544.446 305.629C544.795 305.16 545.135 304.684 545.476 304.211L533.892 296.828C531.315 295.186 528.673 293.483 526.897 290.998C525.119 288.513 524.389 285.025 525.924 282.379C527.25 280.093 530.06 278.903 532.693 279.113C535.327 279.322 537.752 280.764 539.569 282.68C541.388 284.595 542.66 286.962 543.74 289.373C545.582 293.489 546.933 297.984 546.72 302.453C550.796 296.597 554.374 290.41 557.415 283.956L545.965 276.025C543.454 274.286 540.88 272.483 539.199 269.932C537.518 267.38 536.922 263.867 538.557 261.282C539.97 259.048 542.824 257.967 545.447 258.277C548.07 258.587 550.438 260.122 552.181 262.105C553.924 264.089 555.105 266.502 556.091 268.954C557.671 272.878 558.806 277.119 558.624 281.309C560.719 276.593 562.52 271.752 564.019 266.815C564.458 265.352 564.87 263.882 565.254 262.404L553.747 253.86C551.294 252.038 548.78 250.152 547.185 247.546C545.589 244.94 545.109 241.41 546.828 238.879C548.314 236.693 551.201 235.706 553.812 236.103C556.424 236.499 558.74 238.11 560.417 240.15C562.093 242.191 563.195 244.642 564.1 247.124C565.393 250.67 566.321 254.457 566.28 258.203C567.414 253.146 568.22 248.022 568.692 242.862L562.797 230.199C561.507 227.429 560.195 224.572 560.031 221.519C559.868 218.466 561.126 215.131 563.84 213.723C566.187 212.506 569.194 213.012 571.301 214.605C573.408 216.197 574.677 218.717 575.181 221.312C575.685 223.906 575.486 226.586 575.101 229.202C574.392 234.021 572.963 238.906 569.95 242.699C569.949 242.717 569.952 242.732 569.95 242.749C569.455 248.242 568.587 253.695 567.35 259.069C569.48 255.767 572.549 253.046 575.794 250.77C577.958 249.253 580.265 247.872 582.809 247.157C585.353 246.442 588.176 246.445 590.544 247.612C592.913 248.78 594.716 251.24 594.682 253.883C594.643 256.94 592.226 259.561 589.424 260.786C586.623 262.01 583.481 262.12 580.426 262.212L566.47 262.629C564.762 269.161 562.53 275.545 559.796 281.718C562.743 278.814 566.58 276.811 570.485 275.337C572.958 274.403 575.535 273.638 578.176 273.577C580.817 273.517 583.55 274.22 585.554 275.94C587.558 277.66 588.694 280.491 588.005 283.043C587.208 285.995 584.218 287.935 581.201 288.426C578.184 288.918 575.114 288.244 572.133 287.574L558.518 284.514C558.428 284.706 558.341 284.901 558.25 285.092C555.242 291.375 551.732 297.405 547.754 303.124C551.444 300.317 556.107 298.922 560.718 298.192C563.327 297.778 566.005 297.551 568.603 298.026C571.201 298.502 573.735 299.744 575.349 301.835C576.963 303.926 577.502 306.929 576.311 309.288C574.934 312.018 571.613 313.313 568.56 313.183C565.507 313.053 562.637 311.772 559.854 310.511L546.734 304.572C546.678 304.651 546.62 304.729 546.563 304.808L546.612 304.935L546.516 304.873C542.557 310.375 538.164 315.551 533.379 320.353C537.42 319.338 541.771 319.534 545.919 320.22C548.575 320.659 551.237 321.3 553.597 322.594C555.957 323.889 558.008 325.904 558.899 328.443C559.79 330.981 559.349 334.055 557.44 335.953C555.232 338.149 551.607 338.332 548.696 337.225C545.785 336.118 543.421 333.958 541.134 331.845L531.388 322.846C531.275 322.774 531.161 322.702 531.048 322.629C525.639 327.78 519.765 332.421 513.501 336.492C512.84 336.921 512.042 335.971 512.712 335.535C518.871 331.539 524.643 326.977 529.969 321.942L518.979 314.938C516.403 313.296 513.761 311.594 511.984 309.109C510.209 306.624 509.479 303.137 511.013 300.491Z" fill="#505AC7"/>
<path d="M154.915 372.078C151.877 371.505 148.856 370.839 145.858 370.082C145.796 370.067 145.737 370.04 145.685 370.002C145.633 369.963 145.589 369.915 145.556 369.86C145.522 369.805 145.5 369.744 145.491 369.68C145.482 369.616 145.485 369.551 145.501 369.489C145.535 369.362 145.618 369.255 145.732 369.189C145.845 369.123 145.98 369.105 146.107 369.138C149.084 369.89 152.084 370.551 155.102 371.12C155.373 371.171 155.549 371.427 155.498 371.691C155.472 371.819 155.396 371.932 155.286 372.005C155.177 372.077 155.044 372.104 154.915 372.078ZM173.932 374.37C170.81 374.251 167.692 374.039 164.582 373.734C164.306 373.707 164.089 373.469 164.099 373.203C164.109 372.936 164.339 372.744 164.618 372.768C167.743 373.074 170.867 373.286 173.904 373.4C174.181 373.411 174.411 373.636 174.419 373.904C174.422 374.016 174.384 374.125 174.311 374.21C174.239 374.295 174.137 374.351 174.026 374.365C173.995 374.37 173.963 374.372 173.932 374.37ZM196.006 375.185C192.881 375.321 189.753 375.365 186.625 375.316C186.347 375.311 186.102 375.092 186.08 374.826C186.056 374.56 186.261 374.351 186.542 374.352C189.688 374.4 192.824 374.357 195.86 374.222C196.137 374.21 196.394 374.415 196.434 374.682C196.452 374.791 196.427 374.903 196.365 374.994C196.303 375.085 196.207 375.149 196.099 375.172C196.069 375.179 196.037 375.183 196.006 375.185ZM215.955 373.566C212.861 373.97 209.755 374.282 206.643 374.5C206.365 374.52 206.094 374.322 206.037 374.06C205.979 373.797 206.156 373.571 206.436 373.549C209.527 373.332 212.611 373.023 215.684 372.622C215.958 372.586 216.24 372.768 216.315 373.03C216.331 373.081 216.338 373.135 216.333 373.189C216.328 373.243 216.313 373.296 216.288 373.344C216.263 373.392 216.229 373.435 216.187 373.469C216.146 373.504 216.098 373.53 216.046 373.546C216.016 373.556 215.986 373.563 215.955 373.566ZM234.844 369.934C231.878 370.772 228.886 371.519 225.874 372.175C225.605 372.234 225.296 372.078 225.184 371.827C225.071 371.577 225.196 371.329 225.467 371.267C228.459 370.616 231.43 369.874 234.376 369.042C234.638 368.967 234.955 369.107 235.084 369.354C235.198 369.571 235.128 369.799 234.929 369.901C234.902 369.915 234.874 369.926 234.844 369.934ZM136.944 367.556C133.999 366.629 131.08 365.621 128.191 364.532C128.131 364.509 128.075 364.475 128.028 364.431C127.981 364.388 127.943 364.335 127.916 364.276C127.89 364.217 127.875 364.154 127.873 364.09C127.872 364.025 127.883 363.961 127.906 363.901C127.955 363.779 128.05 363.682 128.17 363.629C128.29 363.577 128.426 363.574 128.549 363.621C131.42 364.704 134.321 365.706 137.248 366.627C137.31 366.646 137.367 366.676 137.417 366.717C137.467 366.758 137.508 366.809 137.538 366.866C137.568 366.923 137.586 366.986 137.592 367.05C137.597 367.114 137.59 367.179 137.57 367.24C137.529 367.365 137.44 367.468 137.322 367.527C137.205 367.586 137.069 367.596 136.944 367.556ZM119.626 361.022C116.807 359.773 114.026 358.443 111.285 357.032C111.228 357.003 111.176 356.963 111.135 356.914C111.093 356.865 111.061 356.808 111.042 356.746C111.022 356.685 111.015 356.62 111.021 356.556C111.027 356.492 111.046 356.43 111.076 356.373C111.139 356.258 111.245 356.172 111.37 356.133C111.496 356.095 111.632 356.108 111.749 356.168C114.472 357.571 117.235 358.893 120.036 360.133C120.095 360.159 120.149 360.196 120.193 360.243C120.238 360.289 120.273 360.344 120.296 360.404C120.319 360.464 120.33 360.528 120.328 360.592C120.326 360.657 120.311 360.72 120.285 360.779C120.229 360.898 120.129 360.99 120.005 361.036C119.882 361.081 119.745 361.076 119.626 361.022ZM103.21 352.544C100.568 350.965 97.9828 349.293 95.4589 347.533C95.406 347.496 95.3609 347.449 95.3263 347.395C95.2916 347.341 95.2682 347.28 95.2574 347.217C95.2466 347.154 95.2486 347.089 95.2632 347.026C95.2779 346.963 95.3049 346.904 95.3428 346.852C95.4206 346.746 95.5369 346.675 95.6667 346.654C95.7965 346.632 95.9294 346.663 96.0371 346.738C98.542 348.486 101.108 350.144 103.729 351.711C103.964 351.852 104.037 352.152 103.895 352.382C103.825 352.494 103.714 352.573 103.585 352.604C103.457 352.634 103.322 352.612 103.21 352.544ZM88.116 341.953C85.6823 339.937 83.3927 337.849 81.3103 335.747C81.2648 335.702 81.2289 335.648 81.2047 335.588C81.1805 335.528 81.1685 335.465 81.1695 335.4C81.1704 335.336 81.1843 335.272 81.2102 335.214C81.2361 335.155 81.2736 335.102 81.3204 335.057C81.4159 334.967 81.5429 334.918 81.6743 334.92C81.8057 334.922 81.9312 334.975 82.0242 335.067C84.0836 337.146 86.3492 339.212 88.7583 341.208C88.8081 341.248 88.8491 341.299 88.8791 341.356C88.9091 341.413 88.9274 341.475 88.9328 341.539C88.9383 341.603 88.9309 341.668 88.911 341.729C88.8911 341.79 88.8591 341.847 88.817 341.895C88.7307 341.994 88.6092 342.056 88.4783 342.067C88.3473 342.077 88.2174 342.037 88.116 341.953ZM75.2325 328.843C73.2847 326.324 71.5822 323.746 70.1735 321.18C70.1426 321.123 70.1233 321.061 70.1167 320.997C70.1102 320.933 70.1166 320.868 70.1355 320.806C70.1544 320.745 70.1854 320.688 70.2268 320.638C70.2681 320.589 70.3189 320.548 70.3763 320.519C70.4922 320.457 70.6278 320.443 70.7539 320.48C70.88 320.517 70.9864 320.602 71.0504 320.717C72.4351 323.239 74.1092 325.774 76.0262 328.253C76.0657 328.304 76.0945 328.362 76.1111 328.424C76.1277 328.487 76.1316 328.551 76.1226 328.615C76.1137 328.679 76.092 328.74 76.059 328.795C76.0259 328.851 75.9821 328.899 75.9301 328.937C75.8245 329.015 75.6925 329.049 75.5623 329.031C75.432 329.014 75.3137 328.946 75.2325 328.843ZM66.5567 312.758C65.6267 309.766 65.0681 306.739 64.8961 303.759C64.8929 303.695 64.9026 303.63 64.9244 303.569C64.9463 303.508 64.98 303.452 65.0235 303.405C65.067 303.357 65.1196 303.318 65.1781 303.291C65.2367 303.263 65.3001 303.247 65.3647 303.245C65.4297 303.239 65.495 303.247 65.5568 303.267C65.6187 303.288 65.6758 303.32 65.7248 303.363C65.7737 303.406 65.8136 303.459 65.8419 303.517C65.8703 303.576 65.8866 303.639 65.8898 303.704C66.0568 306.606 66.602 309.556 67.5085 312.473C67.5273 312.535 67.5336 312.599 67.5271 312.664C67.5205 312.728 67.5013 312.79 67.4706 312.847C67.4398 312.903 67.3981 312.953 67.3479 312.994C67.2976 313.034 67.2398 313.064 67.1779 313.082C67.0525 313.121 66.9168 313.108 66.8004 313.048C66.684 312.987 66.5964 312.883 66.5567 312.758ZM65.9585 295.196C65.895 295.184 65.8345 295.16 65.7805 295.124C65.7265 295.089 65.6801 295.043 65.644 294.989C65.6078 294.936 65.5826 294.876 65.5699 294.812C65.5571 294.749 65.5571 294.684 65.5697 294.621C66.173 291.705 67.1633 288.781 68.5128 285.931C68.5702 285.813 68.6714 285.722 68.7949 285.678C68.9183 285.633 69.0542 285.639 69.1736 285.693C69.2326 285.719 69.2858 285.757 69.33 285.803C69.3742 285.85 69.4086 285.906 69.4311 285.966C69.4537 286.026 69.4639 286.091 69.4612 286.155C69.4585 286.219 69.443 286.283 69.4155 286.341C68.0989 289.123 67.1337 291.973 66.5456 294.815C66.5182 294.943 66.441 295.055 66.331 295.127C66.2209 295.198 66.0869 295.223 65.9585 295.196ZM73.3635 278.737C73.3106 278.7 73.2656 278.653 73.2312 278.599C73.1967 278.544 73.1735 278.484 73.1629 278.42C73.1523 278.357 73.1545 278.292 73.1694 278.229C73.1842 278.167 73.2115 278.108 73.2495 278.056C73.8256 277.27 74.4218 276.5 75.0375 275.745C76.3061 274.187 77.75 272.653 79.3285 271.185C79.425 271.096 79.5526 271.048 79.684 271.051C79.8155 271.055 79.9405 271.109 80.0323 271.203C80.0773 271.249 80.1125 271.304 80.136 271.364C80.1595 271.424 80.1707 271.488 80.169 271.552C80.1673 271.616 80.1526 271.68 80.126 271.738C80.0993 271.797 80.0612 271.85 80.0139 271.893C78.4688 273.33 77.0562 274.83 75.8156 276.354C75.2107 277.096 74.6247 277.854 74.0583 278.626C74.0117 278.689 73.9508 278.74 73.8805 278.776C73.8102 278.811 73.7326 278.829 73.6539 278.829C73.55 278.828 73.4487 278.796 73.3635 278.737ZM86.4235 266.174C86.3865 266.121 86.3604 266.062 86.3467 265.999C86.3331 265.936 86.3321 265.871 86.344 265.808C86.3559 265.745 86.3803 265.684 86.4158 265.631C86.4513 265.577 86.4972 265.531 86.5508 265.496C88.9538 263.871 91.6249 262.286 94.4887 260.784C94.6049 260.723 94.7404 260.709 94.8663 260.747C94.9922 260.784 95.0984 260.869 95.1623 260.984C95.1931 261.04 95.2123 261.102 95.2187 261.166C95.2251 261.23 95.2186 261.295 95.1996 261.356C95.1806 261.418 95.1494 261.475 95.108 261.524C95.0666 261.573 95.0158 261.614 94.9585 261.643C92.1271 263.129 89.4884 264.695 87.1155 266.298C87.007 266.373 86.8735 266.401 86.744 266.378C86.6144 266.355 86.4993 266.281 86.4235 266.174ZM102.598 257.486C102.572 257.427 102.558 257.363 102.558 257.299C102.557 257.234 102.569 257.17 102.593 257.11C102.617 257.051 102.653 256.996 102.698 256.95C102.744 256.905 102.798 256.868 102.857 256.844C105.701 255.643 108.581 254.529 111.493 253.505C111.617 253.461 111.753 253.467 111.872 253.522C111.991 253.577 112.084 253.677 112.13 253.8C112.152 253.86 112.162 253.925 112.158 253.989C112.155 254.053 112.139 254.117 112.111 254.175C112.083 254.233 112.044 254.285 111.996 254.328C111.948 254.371 111.891 254.403 111.83 254.424C108.937 255.441 106.077 256.547 103.252 257.74C103.19 257.766 103.123 257.78 103.055 257.78C102.958 257.78 102.864 257.753 102.783 257.7C102.702 257.648 102.638 257.574 102.598 257.486ZM119.972 251.253C119.954 251.192 119.947 251.127 119.954 251.063C119.96 250.999 119.979 250.937 120.01 250.88C120.041 250.823 120.083 250.773 120.133 250.733C120.183 250.693 120.241 250.663 120.303 250.645C123.263 249.761 126.239 248.935 129.231 248.166C129.358 248.132 129.492 248.15 129.606 248.215C129.72 248.28 129.803 248.388 129.839 248.514C129.855 248.576 129.858 248.641 129.849 248.705C129.84 248.769 129.819 248.83 129.786 248.886C129.753 248.941 129.709 248.99 129.657 249.028C129.605 249.067 129.546 249.094 129.484 249.11C126.505 249.876 123.541 250.698 120.594 251.578C120.468 251.616 120.333 251.604 120.216 251.543C120.1 251.482 120.012 251.378 119.972 251.253ZM137.866 246.584C137.852 246.521 137.851 246.456 137.862 246.393C137.873 246.329 137.897 246.269 137.932 246.214C137.966 246.16 138.012 246.113 138.065 246.076C138.118 246.039 138.177 246.014 138.241 246C141.255 245.326 144.278 244.69 147.309 244.095C147.437 244.069 147.571 244.095 147.68 244.166C147.79 244.238 147.867 244.35 147.895 244.477C147.907 244.541 147.907 244.606 147.894 244.669C147.881 244.732 147.856 244.792 147.82 244.846C147.784 244.899 147.737 244.945 147.683 244.98C147.629 245.016 147.569 245.04 147.505 245.052C144.483 245.645 141.468 246.279 138.463 246.952C138.335 246.982 138.2 246.96 138.089 246.891C137.977 246.822 137.897 246.712 137.866 246.584ZM156.017 242.973C156.006 242.909 156.007 242.844 156.022 242.781C156.036 242.718 156.063 242.659 156.1 242.606C156.138 242.554 156.185 242.509 156.24 242.475C156.295 242.441 156.356 242.418 156.419 242.407C159.462 241.879 162.51 241.378 165.563 240.906C165.834 240.868 166.089 241.045 166.132 241.312C166.142 241.375 166.139 241.441 166.123 241.503C166.107 241.566 166.08 241.625 166.041 241.677C166.003 241.729 165.954 241.772 165.899 241.805C165.843 241.839 165.782 241.86 165.718 241.87C162.672 242.341 159.63 242.84 156.594 243.368C156.465 243.392 156.332 243.363 156.223 243.289C156.115 243.215 156.041 243.101 156.017 242.973ZM174.307 240.115C174.298 240.051 174.303 239.986 174.319 239.923C174.336 239.861 174.365 239.802 174.404 239.751C174.443 239.7 174.492 239.657 174.548 239.625C174.604 239.592 174.666 239.572 174.73 239.563C177.79 239.141 180.852 238.74 183.917 238.359C184.047 238.343 184.178 238.378 184.282 238.457C184.386 238.536 184.455 238.653 184.474 238.782C184.481 238.846 184.476 238.911 184.459 238.973C184.441 239.036 184.412 239.094 184.372 239.144C184.331 239.195 184.282 239.238 184.225 239.269C184.169 239.3 184.107 239.32 184.042 239.328C180.982 239.707 177.925 240.108 174.87 240.53C174.806 240.539 174.74 240.536 174.677 240.521C174.614 240.505 174.555 240.477 174.503 240.439C174.45 240.4 174.406 240.352 174.373 240.296C174.339 240.241 174.317 240.179 174.307 240.115ZM192.679 237.817C192.672 237.753 192.678 237.688 192.696 237.626C192.715 237.564 192.745 237.506 192.786 237.456C192.827 237.406 192.877 237.364 192.934 237.333C192.991 237.303 193.053 237.284 193.118 237.277C196.132 236.941 199.232 236.611 202.33 236.299C202.46 236.285 202.59 236.322 202.692 236.404C202.795 236.485 202.861 236.604 202.876 236.734C202.882 236.798 202.875 236.863 202.856 236.925C202.837 236.986 202.806 237.044 202.765 237.094C202.724 237.143 202.673 237.185 202.616 237.215C202.559 237.245 202.496 237.263 202.432 237.269C199.338 237.581 196.242 237.91 193.23 238.246C193.1 238.262 192.969 238.226 192.866 238.145C192.763 238.065 192.695 237.947 192.679 237.817ZM211.101 235.943C211.096 235.879 211.103 235.814 211.123 235.752C211.142 235.691 211.174 235.634 211.216 235.584C211.257 235.535 211.308 235.494 211.366 235.465C211.423 235.435 211.486 235.417 211.55 235.412C214.601 235.133 217.677 234.865 220.779 234.608C221.057 234.584 221.294 234.783 221.317 235.052C221.34 235.321 221.137 235.557 220.863 235.58C217.765 235.837 214.691 236.105 211.643 236.384C211.513 236.397 211.383 236.358 211.281 236.276C211.179 236.193 211.115 236.074 211.101 235.943ZM229.554 234.398C229.55 234.333 229.558 234.269 229.579 234.207C229.599 234.146 229.632 234.089 229.674 234.041C229.717 233.992 229.769 233.952 229.827 233.923C229.885 233.895 229.948 233.878 230.012 233.874C233.071 233.642 236.151 233.419 239.25 233.204C239.519 233.195 239.762 233.387 239.782 233.657C239.786 233.721 239.777 233.786 239.756 233.847C239.735 233.908 239.702 233.964 239.659 234.013C239.616 234.061 239.564 234.1 239.506 234.129C239.448 234.157 239.385 234.173 239.32 234.177C236.224 234.392 233.146 234.615 230.089 234.847L230.05 234.848C229.926 234.849 229.806 234.803 229.714 234.72C229.622 234.636 229.565 234.521 229.554 234.398ZM248.027 233.108C248.023 233.043 248.032 232.979 248.053 232.918C248.075 232.857 248.108 232.8 248.151 232.752C248.194 232.704 248.246 232.665 248.305 232.637C248.363 232.609 248.426 232.593 248.491 232.589C251.557 232.395 254.639 232.206 257.735 232.023C257.866 232.015 257.994 232.059 258.093 232.144C258.191 232.23 258.252 232.351 258.262 232.481C258.266 232.546 258.256 232.61 258.234 232.671C258.213 232.732 258.179 232.788 258.136 232.836C258.093 232.884 258.04 232.923 257.982 232.951C257.923 232.978 257.86 232.994 257.795 232.997C254.701 233.18 251.62 233.367 248.556 233.562L248.523 233.563C248.398 233.565 248.277 233.518 248.185 233.434C248.093 233.349 248.036 233.233 248.027 233.108ZM266.512 232.016C266.509 231.951 266.519 231.886 266.541 231.825C266.563 231.765 266.597 231.709 266.64 231.661C266.684 231.613 266.737 231.574 266.795 231.547C266.854 231.519 266.917 231.504 266.982 231.501C270.065 231.334 273.147 231.172 276.23 231.015C276.295 231.01 276.36 231.018 276.422 231.039C276.484 231.06 276.54 231.092 276.589 231.135C276.638 231.178 276.677 231.231 276.706 231.289C276.734 231.348 276.75 231.411 276.753 231.476C276.756 231.541 276.746 231.606 276.724 231.666C276.702 231.727 276.668 231.783 276.624 231.83C276.58 231.878 276.527 231.917 276.469 231.944C276.41 231.971 276.346 231.986 276.282 231.989C273.19 232.146 270.108 232.307 267.037 232.475C267.027 232.476 267.018 232.476 267.009 232.476C266.883 232.477 266.762 232.43 266.669 232.344C266.577 232.259 266.521 232.141 266.512 232.016ZM285.006 231.072C285.003 231.007 285.014 230.943 285.036 230.882C285.058 230.821 285.093 230.766 285.136 230.718C285.18 230.671 285.233 230.632 285.292 230.605C285.351 230.578 285.415 230.563 285.479 230.561C288.555 230.415 291.639 230.273 294.729 230.133C295.001 230.103 295.236 230.329 295.249 230.598C295.252 230.663 295.241 230.727 295.219 230.788C295.196 230.849 295.162 230.904 295.118 230.951C295.074 230.999 295.021 231.037 294.962 231.064C294.903 231.091 294.84 231.106 294.775 231.108C291.686 231.247 288.603 231.389 285.528 231.536L285.503 231.536C285.377 231.537 285.254 231.49 285.162 231.403C285.069 231.317 285.014 231.198 285.006 231.072ZM303.484 230.238C303.482 230.173 303.492 230.109 303.515 230.048C303.538 229.987 303.572 229.932 303.616 229.884C303.66 229.837 303.714 229.799 303.773 229.772C303.832 229.746 303.895 229.731 303.96 229.729C307.04 229.597 310.124 229.468 313.211 229.341C313.341 229.334 313.469 229.38 313.566 229.467C313.664 229.555 313.722 229.677 313.729 229.808C313.731 229.872 313.721 229.937 313.698 229.997C313.675 230.057 313.64 230.113 313.596 230.16C313.552 230.207 313.499 230.245 313.44 230.272C313.381 230.298 313.317 230.313 313.253 230.315C310.162 230.442 307.072 230.572 303.982 230.704C303.855 230.705 303.732 230.658 303.64 230.571C303.547 230.484 303.491 230.365 303.484 230.238ZM322.003 229.472C322.001 229.407 322.011 229.343 322.034 229.283C322.057 229.222 322.092 229.167 322.136 229.12C322.18 229.073 322.233 229.035 322.292 229.008C322.351 228.982 322.415 228.967 322.48 228.965C325.564 228.842 328.648 228.72 331.732 228.6C331.797 228.595 331.863 228.603 331.924 228.624C331.986 228.645 332.043 228.678 332.091 228.722C332.14 228.766 332.179 228.819 332.206 228.878C332.233 228.938 332.248 229.002 332.25 229.067C332.252 229.131 332.241 229.196 332.218 229.256C332.195 229.317 332.16 229.372 332.116 229.419C332.072 229.466 332.019 229.504 331.959 229.531C331.9 229.557 331.837 229.572 331.772 229.574C328.689 229.694 325.604 229.816 322.521 229.94L322.5 229.94C322.373 229.941 322.25 229.893 322.157 229.806C322.065 229.719 322.009 229.599 322.003 229.472ZM340.506 228.746C340.504 228.682 340.515 228.618 340.538 228.557C340.56 228.497 340.595 228.441 340.639 228.394C340.684 228.347 340.737 228.309 340.796 228.283C340.855 228.257 340.919 228.242 340.983 228.24L350.236 227.88C350.502 227.851 350.742 228.078 350.753 228.348C350.755 228.413 350.744 228.477 350.721 228.538C350.698 228.598 350.664 228.653 350.619 228.7C350.575 228.748 350.522 228.785 350.463 228.812C350.404 228.838 350.34 228.853 350.275 228.855L341.023 229.215L341.003 229.215C340.876 229.216 340.753 229.168 340.66 229.081C340.567 228.993 340.512 228.874 340.506 228.746ZM359.01 228.023C359.008 227.958 359.018 227.893 359.041 227.833C359.064 227.772 359.099 227.717 359.143 227.67C359.187 227.623 359.241 227.585 359.3 227.559C359.359 227.532 359.423 227.518 359.487 227.516C362.578 227.393 365.662 227.269 368.738 227.144C369.024 227.107 369.244 227.342 369.256 227.611C369.258 227.675 369.248 227.74 369.225 227.8C369.202 227.861 369.168 227.916 369.123 227.963C369.079 228.01 369.026 228.048 368.967 228.075C368.908 228.101 368.844 228.116 368.78 228.118C365.703 228.243 362.619 228.367 359.527 228.49L359.507 228.49C359.38 228.491 359.257 228.443 359.164 228.356C359.072 228.269 359.016 228.15 359.01 228.023ZM377.512 227.268C377.51 227.204 377.521 227.139 377.543 227.079C377.566 227.018 377.601 226.963 377.645 226.916C377.689 226.869 377.742 226.831 377.801 226.804C377.86 226.777 377.924 226.763 377.988 226.761C381.082 226.63 384.166 226.496 387.238 226.36C387.302 226.357 387.367 226.366 387.428 226.387C387.489 226.409 387.546 226.442 387.594 226.485C387.642 226.528 387.681 226.581 387.709 226.639C387.737 226.697 387.754 226.761 387.757 226.825C387.76 226.89 387.749 226.954 387.727 227.015C387.704 227.076 387.67 227.131 387.626 227.179C387.582 227.226 387.529 227.264 387.47 227.291C387.411 227.318 387.347 227.333 387.282 227.335C384.192 227.471 381.101 227.605 378.009 227.736C377.882 227.737 377.76 227.689 377.667 227.602C377.574 227.515 377.519 227.395 377.512 227.268ZM396.013 226.449C396.01 226.384 396.02 226.319 396.043 226.259C396.065 226.198 396.099 226.142 396.143 226.095C396.187 226.048 396.24 226.009 396.299 225.982C396.358 225.955 396.421 225.94 396.486 225.938C399.583 225.792 402.666 225.643 405.733 225.489C405.798 225.483 405.863 225.491 405.925 225.512C405.987 225.533 406.044 225.565 406.093 225.609C406.141 225.652 406.181 225.704 406.209 225.763C406.237 225.822 406.253 225.886 406.255 225.951C406.258 226.016 406.248 226.08 406.226 226.141C406.204 226.202 406.17 226.257 406.126 226.305C406.082 226.352 406.029 226.391 405.971 226.418C405.912 226.445 405.849 226.46 405.784 226.463C402.716 226.618 399.632 226.767 396.534 226.912L396.51 226.913C396.383 226.914 396.261 226.866 396.169 226.78C396.076 226.694 396.02 226.575 396.013 226.449ZM414.508 225.521C414.502 225.391 414.548 225.264 414.636 225.167C414.724 225.071 414.847 225.013 414.978 225.007C418.079 224.84 421.16 224.666 424.22 224.487C424.351 224.478 424.48 224.521 424.578 224.607C424.677 224.693 424.738 224.814 424.747 224.945C424.75 225.009 424.741 225.074 424.719 225.135C424.698 225.196 424.664 225.252 424.621 225.3C424.577 225.348 424.525 225.387 424.466 225.415C424.408 225.442 424.345 225.458 424.28 225.461C421.218 225.64 418.135 225.814 415.033 225.981L415.005 225.982C414.879 225.983 414.757 225.936 414.665 225.851C414.572 225.765 414.516 225.647 414.508 225.521ZM432.995 224.439C432.991 224.374 433 224.309 433.022 224.248C433.043 224.187 433.076 224.131 433.119 224.083C433.163 224.035 433.215 223.996 433.273 223.968C433.332 223.94 433.395 223.924 433.46 223.92C436.564 223.721 439.643 223.515 442.695 223.301C442.966 223.286 443.207 223.484 443.227 223.752C443.231 223.817 443.223 223.881 443.202 223.942C443.181 224.004 443.148 224.06 443.105 224.108C443.062 224.157 443.01 224.196 442.952 224.225C442.894 224.253 442.831 224.27 442.767 224.273C439.712 224.487 436.631 224.694 433.525 224.892L433.492 224.894C433.367 224.895 433.246 224.849 433.153 224.764C433.061 224.68 433.004 224.563 432.995 224.439ZM451.469 223.145C451.464 223.081 451.473 223.016 451.493 222.955C451.514 222.893 451.546 222.837 451.588 222.788C451.631 222.739 451.682 222.699 451.74 222.67C451.798 222.642 451.861 222.625 451.926 222.62C455.033 222.38 458.109 222.129 461.15 221.868C461.215 221.862 461.28 221.869 461.342 221.887C461.404 221.906 461.462 221.937 461.512 221.978C461.562 222.019 461.603 222.07 461.634 222.127C461.664 222.184 461.683 222.247 461.689 222.312C461.694 222.376 461.687 222.441 461.667 222.502C461.647 222.564 461.615 222.621 461.573 222.67C461.531 222.719 461.479 222.759 461.422 222.788C461.364 222.818 461.301 222.835 461.237 222.84C458.193 223.101 455.114 223.352 452.004 223.594L451.964 223.595C451.84 223.596 451.72 223.55 451.629 223.467C451.537 223.383 451.48 223.269 451.469 223.145ZM469.92 221.564C469.914 221.5 469.921 221.435 469.94 221.373C469.96 221.311 469.991 221.254 470.032 221.205C470.074 221.155 470.125 221.114 470.183 221.084C470.24 221.055 470.303 221.037 470.367 221.031C473.51 220.73 476.608 220.416 479.574 220.098C479.638 220.09 479.704 220.095 479.766 220.113C479.829 220.13 479.887 220.16 479.938 220.2C479.989 220.24 480.032 220.29 480.064 220.347C480.095 220.404 480.115 220.466 480.123 220.53C480.152 220.798 479.955 221.038 479.682 221.068C476.712 221.387 473.611 221.7 470.464 222.002C470.334 222.016 470.203 221.977 470.101 221.895C469.999 221.813 469.934 221.694 469.92 221.564ZM488.333 219.597C488.325 219.533 488.33 219.468 488.348 219.406C488.366 219.343 488.396 219.286 488.436 219.235C488.476 219.184 488.526 219.142 488.583 219.111C488.639 219.08 488.701 219.06 488.766 219.053C491.827 218.684 494.885 218.291 497.941 217.875C498.07 217.857 498.202 217.89 498.307 217.968C498.412 218.046 498.482 218.162 498.503 218.291C498.511 218.355 498.507 218.42 498.49 218.482C498.473 218.545 498.444 218.603 498.405 218.654C498.366 218.706 498.316 218.748 498.26 218.781C498.204 218.813 498.142 218.833 498.078 218.842C495.018 219.259 491.954 219.652 488.887 220.021C488.757 220.038 488.626 220.003 488.522 219.923C488.418 219.844 488.35 219.726 488.333 219.597ZM506.678 217.098C506.669 217.034 506.672 216.969 506.687 216.906C506.703 216.843 506.731 216.784 506.769 216.732C506.808 216.681 506.856 216.637 506.911 216.604C506.967 216.57 507.028 216.548 507.092 216.539C510.137 216.067 513.177 215.559 516.21 215.018C516.482 214.972 516.741 215.145 516.79 215.41C516.801 215.474 516.8 215.539 516.786 215.602C516.772 215.665 516.745 215.724 516.708 215.777C516.671 215.83 516.624 215.875 516.569 215.909C516.514 215.944 516.453 215.967 516.39 215.978C513.348 216.52 510.301 217.028 507.249 217.503C507.223 217.507 507.196 217.509 507.17 217.509C507.053 217.51 506.939 217.469 506.849 217.394C506.758 217.318 506.698 217.214 506.678 217.098ZM524.899 213.848C524.886 213.785 524.885 213.72 524.898 213.657C524.91 213.593 524.935 213.533 524.97 213.479C525.006 213.425 525.052 213.379 525.106 213.343C525.16 213.307 525.22 213.283 525.283 213.27C528.297 212.646 531.299 211.971 534.29 211.245C534.417 211.212 534.552 211.231 534.665 211.298C534.778 211.365 534.86 211.473 534.893 211.6C534.908 211.663 534.911 211.728 534.901 211.791C534.891 211.855 534.869 211.916 534.835 211.971C534.801 212.026 534.757 212.074 534.704 212.111C534.652 212.149 534.593 212.176 534.53 212.191C531.528 212.92 528.514 213.598 525.489 214.224C525.426 214.238 525.36 214.239 525.296 214.228C525.232 214.217 525.171 214.193 525.116 214.158C525.062 214.123 525.014 214.078 524.977 214.025C524.94 213.972 524.913 213.912 524.899 213.848ZM542.863 209.476C542.844 209.414 542.839 209.349 542.846 209.285C542.853 209.221 542.872 209.159 542.903 209.102C542.934 209.046 542.977 208.996 543.027 208.956C543.078 208.916 543.136 208.887 543.198 208.869C546.144 208.014 549.064 207.073 551.955 206.048C552.078 206.004 552.214 206.01 552.333 206.064C552.452 206.118 552.545 206.217 552.592 206.339C552.615 206.4 552.625 206.464 552.622 206.528C552.618 206.593 552.603 206.656 552.575 206.714C552.547 206.772 552.508 206.825 552.46 206.868C552.412 206.911 552.356 206.944 552.295 206.965C549.385 207.996 546.446 208.943 543.482 209.804C543.435 209.817 543.387 209.824 543.339 209.824C543.233 209.825 543.129 209.791 543.043 209.728C542.958 209.666 542.894 209.577 542.863 209.476ZM560.218 203.286C560.19 203.228 560.175 203.165 560.172 203.1C560.17 203.036 560.18 202.972 560.203 202.912C560.226 202.851 560.26 202.796 560.305 202.749C560.349 202.702 560.402 202.665 560.461 202.639C563.404 201.308 566.12 199.894 568.532 198.436C568.645 198.368 568.779 198.347 568.907 198.377C569.035 198.407 569.146 198.485 569.217 198.596C569.252 198.65 569.275 198.711 569.285 198.775C569.295 198.838 569.293 198.903 569.278 198.966C569.263 199.028 569.235 199.087 569.197 199.139C569.158 199.191 569.11 199.234 569.055 199.267C566.609 200.745 563.858 202.178 560.878 203.524C560.758 203.579 560.623 203.584 560.499 203.54C560.376 203.495 560.275 203.404 560.218 203.286ZM575.76 193.854C575.717 193.807 575.683 193.751 575.66 193.691C575.638 193.63 575.629 193.566 575.632 193.502C575.635 193.437 575.651 193.374 575.679 193.317C575.707 193.259 575.747 193.207 575.795 193.164C578.148 191.075 580.084 188.842 581.551 186.526C581.622 186.415 581.733 186.337 581.861 186.308C581.989 186.278 582.124 186.3 582.236 186.368C582.291 186.401 582.339 186.445 582.377 186.497C582.415 186.549 582.443 186.608 582.458 186.671C582.473 186.733 582.475 186.798 582.464 186.862C582.454 186.925 582.431 186.986 582.396 187.04C580.881 189.434 578.884 191.737 576.463 193.887C576.365 193.975 576.236 194.02 576.105 194.014C575.974 194.007 575.85 193.95 575.76 193.854ZM585.307 178.918C585.245 178.903 585.186 178.875 585.134 178.836C585.082 178.798 585.039 178.749 585.006 178.694C584.973 178.638 584.952 178.577 584.943 178.513C584.934 178.449 584.938 178.384 584.954 178.321C585.741 175.429 586.27 172.473 586.536 169.488C586.542 169.424 586.561 169.361 586.591 169.304C586.621 169.247 586.663 169.196 586.713 169.155C586.763 169.113 586.821 169.082 586.883 169.064C586.945 169.045 587.01 169.038 587.074 169.044C587.348 169.067 587.551 169.303 587.527 169.572C587.257 172.614 586.718 175.626 585.916 178.573C585.881 178.699 585.797 178.806 585.683 178.871C585.569 178.935 585.434 178.952 585.307 178.918ZM586.519 160.54C586.243 157.56 585.717 154.609 584.946 151.717C584.929 151.655 584.926 151.59 584.935 151.526C584.944 151.462 584.966 151.401 584.999 151.345C585.032 151.29 585.076 151.242 585.128 151.203C585.18 151.165 585.239 151.138 585.301 151.122C585.428 151.088 585.563 151.106 585.677 151.172C585.791 151.237 585.874 151.345 585.909 151.472C586.694 154.416 587.23 157.42 587.511 160.454C587.516 160.522 587.507 160.591 587.485 160.655C587.462 160.72 587.427 160.779 587.38 160.829C587.333 160.879 587.276 160.919 587.213 160.946C587.15 160.972 587.082 160.986 587.014 160.985C586.891 160.986 586.772 160.94 586.68 160.858C586.589 160.776 586.531 160.662 586.519 160.54ZM581.975 143.232C580.808 140.554 579.412 137.858 577.825 135.221C577.792 135.165 577.77 135.104 577.761 135.04C577.752 134.977 577.756 134.912 577.772 134.85C577.788 134.788 577.817 134.729 577.856 134.678C577.896 134.627 577.945 134.585 578.001 134.553C578.114 134.487 578.249 134.468 578.377 134.5C578.504 134.532 578.614 134.613 578.682 134.725C580.291 137.398 581.706 140.132 582.89 142.85C582.916 142.909 582.929 142.973 582.929 143.037C582.93 143.101 582.918 143.165 582.893 143.225C582.869 143.284 582.833 143.338 582.787 143.384C582.741 143.429 582.687 143.465 582.627 143.49C582.507 143.541 582.37 143.543 582.248 143.495C582.126 143.447 582.028 143.352 581.975 143.232ZM572.716 127.742C570.869 125.341 568.908 123.029 566.839 120.815C566.795 120.768 566.761 120.712 566.739 120.652C566.717 120.592 566.707 120.528 566.71 120.463C566.713 120.399 566.729 120.336 566.756 120.278C566.784 120.22 566.823 120.168 566.871 120.125C566.969 120.038 567.098 119.993 567.229 119.998C567.36 120.004 567.484 120.061 567.575 120.156C569.665 122.393 571.646 124.729 573.512 127.156C573.551 127.207 573.58 127.266 573.596 127.328C573.612 127.39 573.616 127.455 573.607 127.519C573.598 127.582 573.576 127.643 573.543 127.698C573.509 127.753 573.465 127.801 573.413 127.839C573.327 127.903 573.222 127.937 573.114 127.937C573.038 127.937 572.962 127.92 572.893 127.886C572.823 127.852 572.763 127.803 572.716 127.742ZM560.348 114.423C558.092 112.379 555.762 110.417 553.364 108.541C553.313 108.502 553.27 108.453 553.239 108.397C553.207 108.341 553.187 108.279 553.18 108.215C553.173 108.151 553.178 108.087 553.196 108.025C553.215 107.963 553.245 107.906 553.286 107.856C553.369 107.755 553.489 107.69 553.62 107.676C553.751 107.661 553.882 107.698 553.986 107.779C556.443 109.703 558.812 111.698 561.025 113.707C561.073 113.75 561.112 113.802 561.139 113.861C561.166 113.919 561.182 113.982 561.184 114.046C561.187 114.11 561.176 114.175 561.154 114.235C561.131 114.295 561.096 114.35 561.052 114.396C561.005 114.446 560.948 114.485 560.886 114.512C560.823 114.539 560.755 114.553 560.687 114.553C560.562 114.554 560.441 114.507 560.348 114.423ZM545.98 103.14C543.457 101.417 540.885 99.7661 538.268 98.1906C538.212 98.1579 538.164 98.1144 538.126 98.0628C538.087 98.0111 538.06 97.9522 538.044 97.8897C538.029 97.8271 538.026 97.7622 538.037 97.6986C538.047 97.6351 538.07 97.5742 538.104 97.5197C538.175 97.4089 538.286 97.3302 538.414 97.3002C538.542 97.2703 538.677 97.2916 538.789 97.3595C541.457 98.9659 544.068 100.641 546.549 102.34C546.603 102.376 546.648 102.422 546.684 102.476C546.719 102.53 546.743 102.59 546.754 102.654C546.766 102.717 546.765 102.782 546.75 102.845C546.736 102.908 546.71 102.967 546.673 103.02C546.596 103.126 546.48 103.198 546.351 103.221C546.221 103.243 546.088 103.215 545.98 103.14ZM530.286 93.6657C527.584 92.2252 524.848 90.8493 522.079 89.5393C522.021 89.5122 521.968 89.4737 521.925 89.4261C521.882 89.3784 521.848 89.3226 521.826 89.2619C521.805 89.2012 521.796 89.1368 521.799 89.0725C521.803 89.0082 521.819 88.9452 521.848 88.8873C521.906 88.77 522.009 88.6805 522.133 88.6381C522.258 88.5956 522.394 88.6035 522.512 88.6602C525.295 89.9771 528.045 91.3602 530.762 92.8083C530.819 92.8381 530.87 92.879 530.911 92.9287C530.952 92.9783 530.983 93.0356 531.001 93.0973C531.02 93.159 531.026 93.2238 531.019 93.2878C531.012 93.3519 530.992 93.4139 530.961 93.4703C530.918 93.5478 530.854 93.6122 530.777 93.657C530.7 93.7017 530.613 93.7251 530.524 93.7248C530.441 93.7244 530.36 93.7041 530.286 93.6657ZM513.684 85.7896C510.856 84.6004 508.004 83.4698 505.13 82.3983C505.069 82.3763 505.014 82.3425 504.966 82.2988C504.919 82.2551 504.881 82.2024 504.854 82.1438C504.827 82.0852 504.812 82.0219 504.81 81.9575C504.808 81.8931 504.819 81.8289 504.842 81.7687C504.891 81.6472 504.985 81.5496 505.105 81.4968C505.225 81.444 505.361 81.4402 505.484 81.4862C508.371 82.5635 511.236 83.6992 514.077 84.8927C514.136 84.9171 514.19 84.9532 514.236 84.9988C514.281 85.0444 514.317 85.0986 514.342 85.1583C514.366 85.218 514.378 85.2819 514.377 85.3463C514.377 85.4107 514.363 85.4743 514.338 85.5334C514.298 85.6218 514.234 85.6968 514.153 85.7492C514.072 85.8016 513.977 85.8293 513.88 85.8287C513.813 85.8288 513.746 85.8155 513.684 85.7896ZM496.441 79.3457C493.525 78.3837 490.591 77.4755 487.641 76.6214C487.578 76.604 487.52 76.5744 487.47 76.5344C487.419 76.4944 487.377 76.4447 487.346 76.3883C487.314 76.3318 487.294 76.2698 487.287 76.2056C487.28 76.1415 487.286 76.0766 487.304 76.0147C487.343 75.8894 487.43 75.7844 487.546 75.7227C487.661 75.661 487.797 75.6476 487.923 75.6854C490.884 76.5435 493.83 77.4553 496.759 78.4203C497.02 78.5063 497.159 78.7831 497.072 79.0388C497.038 79.1363 496.974 79.2207 496.889 79.2803C496.805 79.3398 496.704 79.3715 496.6 79.3709C496.546 79.3713 496.493 79.3628 496.441 79.3457ZM478.743 74.2096C475.763 73.4568 472.77 72.7531 469.766 72.0987C469.703 72.0855 469.643 72.06 469.59 72.0235C469.537 71.9871 469.491 71.9404 469.456 71.8863C469.421 71.8322 469.397 71.7717 469.385 71.7082C469.373 71.6447 469.374 71.5796 469.388 71.5166C469.419 71.3894 469.498 71.2794 469.609 71.2101C469.72 71.1408 469.854 71.1177 469.982 71.146C472.996 71.8029 476 72.5093 478.992 73.2647C479.054 73.2799 479.113 73.3074 479.165 73.3456C479.217 73.3838 479.261 73.432 479.295 73.4873C479.328 73.5426 479.35 73.6039 479.359 73.6677C479.369 73.7316 479.365 73.7966 479.349 73.8591C479.32 73.9646 479.258 74.0577 479.171 74.1238C479.084 74.19 478.977 74.2254 478.868 74.2247C478.826 74.2246 478.784 74.2195 478.743 74.2096ZM460.722 70.2769C457.698 69.7178 454.664 69.2048 451.624 68.7381C451.56 68.7289 451.498 68.7071 451.443 68.6741C451.387 68.641 451.339 68.5973 451.3 68.5455C451.262 68.4937 451.234 68.4347 451.218 68.3721C451.203 68.3095 451.2 68.2443 451.209 68.1805C451.232 68.0515 451.304 67.9365 451.41 67.8604C451.517 67.7843 451.649 67.7533 451.779 67.7742C454.829 68.243 457.901 68.7627 460.908 69.3186C461.178 69.3688 461.356 69.6239 461.304 69.8884C461.292 69.9521 461.267 70.0127 461.23 70.0667C461.194 70.1207 461.148 70.1671 461.094 70.2031C461.04 70.2392 460.979 70.2643 460.915 70.277C460.852 70.2896 460.786 70.2896 460.722 70.2769ZM442.481 67.4717C439.427 67.0944 436.367 66.7604 433.304 66.4698C433.239 66.4644 433.177 66.4463 433.119 66.4166C433.062 66.3868 433.011 66.346 432.969 66.2966C432.928 66.2471 432.896 66.1898 432.877 66.1282C432.857 66.0665 432.85 66.0016 432.856 65.9373C432.871 65.8074 432.936 65.6884 433.038 65.6063C433.14 65.5242 433.27 65.4857 433.4 65.4991C436.473 65.7899 439.542 66.1247 442.606 66.5033C442.878 66.5367 443.072 66.7807 443.037 67.048C443.029 67.1123 443.008 67.1743 442.975 67.2305C442.942 67.2866 442.899 67.3357 442.847 67.3751C442.795 67.4144 442.737 67.4432 442.674 67.4598C442.611 67.4763 442.545 67.4804 442.481 67.4717ZM424.1 65.7274C421.029 65.5227 417.955 65.3591 414.879 65.2368C414.815 65.2349 414.751 65.2203 414.692 65.1938C414.633 65.1673 414.58 65.1295 414.535 65.0824C414.491 65.0353 414.456 64.98 414.433 64.9195C414.41 64.859 414.4 64.7946 414.402 64.73C414.413 64.4604 414.649 64.231 414.919 64.2623C418.01 64.3851 421.122 64.5503 424.168 64.754C424.233 64.7577 424.296 64.7741 424.354 64.8022C424.412 64.8304 424.464 64.8697 424.507 64.918C424.55 64.9662 424.583 65.0225 424.605 65.0835C424.626 65.1446 424.635 65.2092 424.631 65.2737C424.626 65.3383 424.608 65.4013 424.579 65.459C424.549 65.5168 424.509 65.5682 424.46 65.6104C424.41 65.6525 424.353 65.6845 424.291 65.7046C424.23 65.7247 424.165 65.7325 424.1 65.7274ZM405.549 64.9918C405.678 64.993 405.803 64.9431 405.897 64.853C405.99 64.7628 406.044 64.6396 406.047 64.5101C406.047 64.3795 405.995 64.254 405.903 64.1613C405.811 64.0686 405.686 64.0162 405.556 64.0156C404.005 63.9953 402.454 63.985 400.903 63.9849C400.772 63.9837 400.647 64.0344 400.553 64.1259C400.46 64.2173 400.407 64.3421 400.405 64.4727C400.405 64.7423 400.628 64.9605 400.903 64.9605C402.452 64.9606 404 64.971 405.549 64.9918Z" fill="#323A99"/>
<path d="M407.613 65.2772L392.317 66.2328L396.892 58.6157L407.613 65.2772Z" fill="#242C85"/>
<path d="M393.52 68.6291L373.574 62.9433L398.273 61.7672L393.52 68.6291ZM373.555 62.9198L404.205 48.8628L399.853 55.838L373.555 62.9198Z" fill="#3A44B3"/>
<path d="M373.573 62.9433L398.326 61.8326L407.613 65.2775L399.852 55.7275L373.573 62.9433Z" fill="#293299"/>
<path d="M324.235 499.227C471.657 499.227 591.166 489.177 591.166 476.778C591.166 464.38 471.657 454.33 324.235 454.33C176.813 454.33 57.3037 464.38 57.3037 476.778C57.3037 489.177 176.813 499.227 324.235 499.227Z" fill="#E0E2FF"/>
<path d="M519.597 213.777V467.115H116.626V213.777H116.794L116.895 213.677C221.688 111.108 298.74 36.4271 307.395 28.8854C312.359 24.5614 316.351 23.6231 319.371 23.7906C325.307 24.1595 328.863 28.1146 329.534 28.8854L517.249 211.666L517.753 212.135L519.43 213.778H519.597V213.777Z" fill="#4D5AEF"/>
<path d="M150.544 133.685L461.744 108.288L482.437 361.473L171.237 386.869L150.544 133.685Z" fill="#DDDFF0"/>
<path d="M170.097 123.541H482.327V377.564H170.097V123.541Z" fill="white"/>
<path d="M519.48 213.778V466.509H518.807L317.14 467.112H314.323L116.505 466.509V213.778H116.68L116.776 213.673C131.794 226.469 202.089 285.856 255.993 325.771C258.302 327.484 260.585 329.162 262.833 330.796C263.297 331.128 263.769 331.461 264.206 331.802C287.655 348.827 307.037 361.194 315.732 362.837C324.452 361.194 343.843 348.792 367.353 331.767C367.79 331.427 368.228 331.129 368.7 330.797C370.816 329.259 372.96 327.685 375.137 326.068C433.118 283.182 510.27 217.511 517.128 211.664L517.635 212.136L519.314 213.779H519.48V213.778Z" fill="#616EFF"/>
<path d="M519.48 454.509V466.509H518.807L317.14 467.112H314.323L116.505 466.509V449.388L255.993 325.771C258.302 327.484 260.585 329.162 262.833 330.797C263.297 331.129 263.769 331.461 264.206 331.802C287.655 348.828 307.037 361.195 315.732 362.838C324.452 361.195 343.843 348.793 367.353 331.768C367.79 331.427 368.228 331.13 368.7 330.798C370.816 329.259 372.96 327.686 375.137 326.069C423.234 368.894 471.349 411.684 519.48 454.509Z" fill="#4D5AEF"/>
<path d="M519.479 467.115H116.509V462.691L264.205 331.798L265.211 330.86L265.278 330.826L315.797 332.234L366.315 330.826L366.349 330.86L367.355 331.765L518.808 466.512C519.043 466.714 519.244 466.914 519.479 467.115Z" fill="#616EFF"/>
<path d="M206.97 82.968C207.245 83.4112 207.333 83.9459 207.204 84.4723C207.124 84.8105 206.955 85.1211 206.714 85.3723C206.474 85.6235 206.17 85.8062 205.836 85.9017L199.203 87.8346C198.869 87.9339 198.516 87.9427 198.178 87.8601C197.84 87.7775 197.53 87.6065 197.28 87.3646C197.027 87.1256 196.843 86.8238 196.745 86.4901C196.648 86.1565 196.641 85.8029 196.726 85.4658L198.367 78.7596C198.447 78.4213 198.617 78.1106 198.857 77.8594C199.098 77.6082 199.401 77.4255 199.736 77.3302C200.069 77.2308 200.423 77.222 200.761 77.3046C201.099 77.3872 201.409 77.5582 201.658 77.8001L206.65 82.5734C206.775 82.694 206.883 82.8263 206.97 82.968ZM198.29 86.1529C198.314 86.1919 198.34 86.221 198.359 86.2383C198.411 86.2885 198.556 86.399 198.766 86.3376L205.398 84.4047C205.469 84.3848 205.533 84.3463 205.584 84.293C205.635 84.2398 205.671 84.1739 205.687 84.1022C205.706 84.031 205.704 83.9561 205.684 83.8855C205.663 83.8149 205.624 83.7511 205.57 83.7009L200.578 78.9276C200.526 78.876 200.46 78.8396 200.388 78.8221C200.317 78.8046 200.242 78.8067 200.171 78.8282C200.1 78.848 200.036 78.8865 199.985 78.9396C199.934 78.9927 199.898 79.0585 199.882 79.1302L198.24 85.8364C198.227 85.8897 198.224 85.9453 198.233 85.9997C198.241 86.054 198.26 86.1062 198.29 86.1529Z" fill="url(#paint0_linear_976_2544)"/>
<path d="M543.036 357.14C543.311 357.584 543.398 358.118 543.27 358.645C543.189 358.983 543.02 359.293 542.78 359.545C542.539 359.796 542.236 359.979 541.902 360.074L535.268 362.007C534.935 362.106 534.581 362.115 534.243 362.032C533.905 361.95 533.595 361.779 533.345 361.537C533.093 361.298 532.908 360.996 532.811 360.663C532.713 360.329 532.707 359.975 532.791 359.638L534.432 352.932C534.513 352.594 534.682 352.283 534.923 352.032C535.163 351.781 535.467 351.598 535.801 351.503C536.135 351.403 536.489 351.394 536.826 351.477C537.164 351.56 537.474 351.731 537.724 351.972L542.716 356.746C542.84 356.866 542.948 356.999 543.036 357.14ZM534.355 360.325C534.379 360.364 534.406 360.393 534.424 360.411C534.477 360.461 534.622 360.571 534.831 360.51L541.464 358.577C541.534 358.557 541.599 358.518 541.65 358.465C541.701 358.412 541.737 358.346 541.753 358.275C541.772 358.203 541.771 358.128 541.75 358.058C541.729 357.987 541.69 357.923 541.636 357.873L536.644 353.1C536.592 353.048 536.526 353.012 536.455 352.994C536.383 352.977 536.308 352.979 536.238 353.001C536.167 353.02 536.102 353.059 536.051 353.112C536 353.165 535.964 353.231 535.948 353.303L534.307 360.009C534.293 360.062 534.29 360.118 534.298 360.172C534.307 360.226 534.326 360.279 534.355 360.325Z" fill="url(#paint1_linear_976_2544)"/>
<path d="M87.5382 302.073L90.0858 299.527C90.3605 299.249 90.514 298.873 90.5127 298.483C90.5114 298.092 90.3555 297.717 90.079 297.441C89.8025 297.165 89.4278 297.009 89.0368 297.008C88.6457 297.007 88.2701 297.16 87.9917 297.434L85.4441 299.98L82.8964 297.434C82.6181 297.16 82.2425 297.007 81.8514 297.008C81.4604 297.009 81.0857 297.165 80.8092 297.441C80.5327 297.717 80.3768 298.092 80.3755 298.483C80.3742 298.873 80.5277 299.249 80.8024 299.527L83.35 302.073L80.8068 304.614C80.5994 304.821 80.4581 305.084 80.4007 305.371C80.3433 305.659 80.3726 305.956 80.4847 306.227C80.5968 306.497 80.7867 306.729 81.0304 306.891C81.2741 307.054 81.5606 307.14 81.8536 307.14C82.0481 307.14 82.2407 307.102 82.4203 307.028C82.6 306.953 82.7631 306.844 82.9004 306.706L85.4436 304.165L87.9867 306.706C88.124 306.844 88.2871 306.953 88.4668 307.028C88.6464 307.102 88.839 307.14 89.0335 307.14C89.3265 307.14 89.613 307.054 89.8567 306.891C90.1004 306.729 90.2903 306.497 90.4024 306.227C90.5145 305.956 90.5437 305.659 90.4864 305.371C90.429 305.084 90.2877 304.821 90.0803 304.614L87.5382 302.073Z" fill="url(#paint2_linear_976_2544)"/>
<path d="M426.725 85.8311L429.273 83.2854C429.548 83.0073 429.701 82.6319 429.7 82.2411C429.699 81.8504 429.543 81.476 429.266 81.1997C428.99 80.9234 428.615 80.7676 428.224 80.7663C427.833 80.765 427.457 80.9184 427.179 81.1929L424.631 83.7386L422.084 81.1929C421.946 81.0554 421.783 80.9464 421.603 80.872C421.424 80.7976 421.231 80.7593 421.037 80.7593C420.842 80.7593 420.65 80.7976 420.47 80.872C420.29 80.9464 420.127 81.0554 419.99 81.1929C419.852 81.3302 419.743 81.4933 419.668 81.6729C419.594 81.8524 419.556 82.0448 419.556 82.2391C419.556 82.4334 419.594 82.6259 419.668 82.8054C419.743 82.9849 419.852 83.148 419.99 83.2854L422.537 85.8311L419.994 88.3724C419.787 88.5792 419.645 88.8428 419.588 89.13C419.531 89.4171 419.56 89.7148 419.672 89.9853C419.784 90.2558 419.974 90.487 420.218 90.6496C420.461 90.8122 420.748 90.8988 421.041 90.8985C421.235 90.8988 421.428 90.8606 421.608 90.7862C421.787 90.7118 421.95 90.6026 422.088 90.4649L424.631 87.9236L427.174 90.4649C427.311 90.6026 427.474 90.7118 427.654 90.7862C427.834 90.8606 428.026 90.8988 428.221 90.8985C428.514 90.8988 428.8 90.8122 429.044 90.6496C429.288 90.487 429.478 90.2558 429.59 89.9853C429.702 89.7148 429.731 89.4171 429.674 89.13C429.616 88.8428 429.475 88.5792 429.267 88.3724L426.725 85.8311Z" fill="url(#paint3_linear_976_2544)"/>
<path d="M85.0526 147.45C82.0682 147.45 79.6406 145.024 79.6406 142.042C79.6406 139.06 82.0687 136.634 85.0526 136.634C88.0365 136.634 90.4646 139.061 90.4646 142.042C90.4646 145.024 88.0365 147.45 85.0526 147.45ZM85.0526 138.327C84.0668 138.328 83.1217 138.72 82.4246 139.416C81.7275 140.113 81.3354 141.057 81.3342 142.042C81.3354 143.027 81.7275 143.972 82.4246 144.668C83.1217 145.365 84.0668 145.757 85.0526 145.758C86.0385 145.757 86.9836 145.365 87.6806 144.668C88.3777 143.972 88.7699 143.027 88.7711 142.042C88.7699 141.057 88.3777 140.113 87.6806 139.416C86.9836 138.72 86.0385 138.328 85.0526 138.327Z" fill="url(#paint4_linear_976_2544)"/>
<path d="M557.181 174.45C554.196 174.45 551.769 172.024 551.769 169.042C551.769 166.06 554.197 163.634 557.181 163.634C560.164 163.634 562.593 166.061 562.593 169.042C562.593 172.024 560.164 174.45 557.181 174.45ZM557.181 165.326C556.195 165.327 555.25 165.719 554.553 166.416C553.855 167.112 553.463 168.057 553.462 169.042C553.463 170.027 553.855 170.971 554.553 171.668C555.25 172.364 556.195 172.756 557.181 172.757C558.166 172.756 559.112 172.364 559.809 171.668C560.506 170.971 560.898 170.027 560.899 169.042C560.898 168.057 560.506 167.112 559.809 166.416C559.112 165.719 558.166 165.327 557.181 165.326Z" fill="url(#paint5_linear_976_2544)"/>
<path d="M498.946 317.044C495.338 312.387 488.834 309.352 483.431 311.707C481.912 312.371 480.559 313.414 478.977 313.889C477.814 314.244 476.588 314.268 475.377 314.419C470.852 314.972 466.571 317.32 463.668 320.838C460.773 324.356 459.277 329.004 459.601 333.55C459.641 334.111 459.704 334.688 459.53 335.234C459.364 335.763 458.976 336.198 458.604 336.61C454.395 341.187 449.301 345.803 448.707 351.985C448.477 354.334 448.944 356.768 448.256 359.029C446.864 363.615 441.571 365.559 438.161 368.935C434.767 372.295 433.255 377.449 434.292 382.113C434.601 383.513 435.226 384.975 436.492 385.655C437.947 386.437 439.727 385.932 441.349 385.623C441.976 385.501 442.61 385.419 443.248 385.378C444.292 385.323 445.329 385.401 446.31 385.678C446.923 385.837 447.509 386.084 448.05 386.413C450.708 388.034 451.934 391.457 454.34 393.291C454.747 393.606 455.194 393.867 455.669 394.066C457.101 394.658 458.596 394.587 460.044 394.113L460.052 394.105C460.155 394.073 460.258 394.042 460.361 393.995C461.54 393.568 462.679 392.872 463.715 392.066C463.897 391.923 464.079 391.781 464.261 391.631C464.692 391.27 465.106 390.89 465.503 390.492C467.809 388.214 469.845 385.678 471.572 382.934C472.909 380.808 474.111 378.499 476.082 376.942C478.85 374.752 482.624 374.436 486.145 374.214C490.227 368.736 493.668 363.139 495.393 357.368C496.896 352.324 497.086 347.146 495.219 341.778V341.77C494.983 341.067 494.714 340.376 494.412 339.699C494.873 339.45 495.325 339.184 495.765 338.9C499.191 336.702 502.45 333.216 502.806 329.342C503.21 324.965 501.643 320.522 498.946 317.044ZM443.043 367.03C442.893 366.682 446.999 365.662 449.016 362.184C449.989 360.508 449.729 359.543 450.148 356.326C450.535 353.322 451.192 348.2 453.977 344.049C456.516 340.263 460.068 338.412 460.18 338.531C460.274 338.642 457.656 340.5 455.164 344.168C454.206 345.567 452.553 348.049 451.722 351.599C451.089 354.319 451.714 354.327 451.105 357.513C450.559 360.335 449.926 363.624 447.268 365.624C445.369 367.054 443.154 367.275 443.043 367.03ZM501.011 330.309C500.845 330.309 500.9 328.981 500.56 326.933C500.291 325.273 499.911 322.918 498.613 320.554C498.131 319.676 496.43 316.68 492.972 314.917C491.042 313.937 489.103 313.613 487.941 313.415C485.749 313.051 484.262 313.162 484.253 313.043C484.253 312.885 486.975 312.158 489.966 312.743C494.19 313.565 496.754 316.554 497.933 317.921C499.072 319.249 500.94 321.479 501.461 324.83C501.904 327.645 501.248 330.317 501.011 330.309Z" fill="#171C56"/>
<path d="M463.178 429.85C463.178 429.85 437.779 433.605 438.213 433.353C438.646 433.102 484.699 456.702 484.699 456.702L530.076 436.387L507.578 429.85H463.178Z" fill="#1A2068"/>
<path d="M473.037 471.889C472.915 471.915 472.794 471.941 472.677 471.968L472.455 472.015C466.35 473.362 462.322 474.044 462.322 474.044C462.322 474.044 462.042 474.17 461.53 474.392C456.524 476.569 429.434 487.824 429.619 476.7C429.777 466.934 446.946 464.563 453.913 464.003C453.939 463.997 453.96 463.998 453.981 463.998C455.72 463.86 456.804 463.834 456.804 463.834C456.804 463.834 459.869 461.685 464.754 458.515C464.955 458.383 465.161 458.246 465.367 458.114C481.457 447.672 515.593 427.12 526.741 432.867V432.872C526.863 432.93 526.985 432.998 527.101 433.067C527.106 433.062 527.117 433.067 527.122 433.078C527.244 433.152 527.36 433.231 527.477 433.31C527.577 433.374 527.678 433.448 527.773 433.532C527.809 433.553 527.846 433.584 527.883 433.616C528.016 433.727 528.148 433.843 528.269 433.965C528.269 433.97 528.275 433.97 528.275 433.97C528.407 434.102 528.533 434.24 528.655 434.382C528.771 434.519 528.877 434.662 528.977 434.81C529.205 435.127 529.4 435.475 529.57 435.85C529.738 436.23 529.892 436.606 530.019 436.98C530.252 437.651 530.426 438.311 530.531 438.971C533.348 456.286 492.933 467.463 473.037 471.889Z" fill="#CBCFF9"/>
<path d="M473.772 473.822L472.677 471.968L472.202 471.159C472.196 471.154 472.196 471.149 472.196 471.149L464.754 458.515L463.686 456.703C479.792 446.251 515.35 426.808 526.73 432.851L526.735 432.856C526.862 432.919 526.984 432.988 527.1 433.067C527.105 433.062 527.115 433.067 527.121 433.077C527.243 433.152 527.359 433.231 527.475 433.31C527.576 433.374 527.676 433.447 527.771 433.532C527.808 433.553 527.845 433.584 527.882 433.616C528.014 433.727 528.146 433.843 528.268 433.965C528.268 433.97 528.273 433.97 528.273 433.97C528.405 434.102 528.532 434.239 528.654 434.382C528.77 434.519 528.875 434.662 528.976 434.809C529.203 435.126 529.399 435.475 529.568 435.85C529.737 436.23 529.89 436.605 530.017 436.98C530.25 437.651 530.424 438.311 530.53 438.971C533.454 456.486 493.678 469.395 473.772 473.822Z" fill="#1F2780"/>
<path d="M456.803 463.882C456.803 463.882 423.587 464.309 425.012 478.079C426.544 492.874 462.322 474.095 462.322 474.095C462.322 474.095 444.468 481.191 443.447 472.823C442.459 464.727 456.803 463.882 456.803 463.882Z" fill="#171C56"/>
<path d="M508.272 395.17C501.659 404.45 507.574 429.85 507.574 429.85H463.178C464.405 428.112 467.861 406.219 460.075 394.15C447.511 374.681 461.048 359.543 461.048 359.543L479.511 356.189L480.69 350.315L481.499 346.269L481.689 345.33H489.993L490.295 347.093L490.945 350.938L491.907 356.611L508.879 360.292C508.879 360.293 523.416 373.91 508.272 395.17Z" fill="#CBCFF9"/>
<path d="M508.27 395.175C501.655 404.454 507.578 429.85 507.578 429.85H463.179C464.223 428.37 466.881 412.264 462.839 400.075C462.135 397.94 461.224 395.94 460.072 394.145C447.509 374.679 461.043 359.543 461.043 359.543L479.516 356.183C478.156 365.546 491.507 367.572 491.908 356.608L508.877 360.294C508.877 360.294 523.418 373.903 508.27 395.175Z" fill="#4551D9"/>
<path d="M463.179 429.85C464.222 428.371 466.881 412.264 462.839 400.075C471.593 397.533 470.115 421.815 484.699 429.85H463.179Z" fill="#626AC4"/>
<path d="M532.416 414.477C531.955 417.351 529.928 420.468 526.93 423.548C519.26 431.419 503.637 431.068 492.92 433.93L491.801 428.224C491.801 428.224 510.933 422.833 515.047 416.126C515.485 415.41 515.788 414.744 515.91 414.149C517.305 407.466 509.562 399.11 509.562 399.11L508.738 360.312C508.738 360.312 534.747 399.862 532.416 414.477Z" fill="#CBCFF9"/>
<path d="M532.672 414.474C532.175 417.179 530.552 420.575 527.851 423.538C527.712 423.687 527.524 423.783 527.321 423.808C527.118 423.834 526.913 423.787 526.741 423.676L523.453 421.542L514.832 415.959C515.271 415.246 515.492 414.527 515.614 413.931C517.009 407.25 504.604 396.913 504.604 396.913L507.585 360.071C511.581 359.892 518.146 369.003 523.596 380.174L523.612 380.216C529.511 392.301 534.088 406.779 532.672 414.474Z" fill="#4551D9"/>
<path d="M478.782 428.32L478.977 432.114C479.319 431.996 479.291 431.498 478.936 431.424C469.384 429.452 453.687 432.18 446.044 425.694C441.334 421.692 438.762 416.765 438.155 412.969C435.825 398.354 461.194 359.573 461.194 359.573L460.256 398.321C460.256 398.321 452.513 406.677 453.909 413.36C454.151 414.548 455.098 416.016 456.47 417.617C462.199 424.336 478.782 428.32 478.782 428.32Z" fill="#CBCFF9"/>
<path d="M453.907 413.36C454.15 414.549 455.773 415.59 457.142 417.19L449.134 423.845L445.914 426.518C441.205 422.514 438.44 417.391 437.404 413.688C435.803 407.989 438.08 398.249 441.923 388.578C441.931 388.551 441.94 388.525 441.95 388.499C447.748 373.905 457.078 359.496 461.952 359.38L464.764 398.698C464.764 398.698 452.511 406.679 453.907 413.36Z" fill="#4551D9"/>
<path d="M535.039 476.864C535.219 487.988 508.135 476.732 503.129 474.556C502.616 474.334 502.336 474.207 502.336 474.207C502.336 474.207 498.208 473.51 491.981 472.131L491.617 472.052C482.578 470.04 469.3 466.639 457.771 461.895C443.626 456.08 432.103 448.258 434.243 438.523C434.248 438.502 434.254 438.486 434.254 438.471C434.344 438.075 434.455 437.678 434.592 437.277C434.598 437.266 434.598 437.261 434.598 437.256C434.74 436.844 434.904 436.432 435.089 436.015C435.258 435.64 435.454 435.291 435.681 434.975C435.782 434.827 435.887 434.684 436.003 434.547C436.125 434.404 436.252 434.267 436.384 434.135C436.384 434.135 436.389 434.135 436.389 434.13C436.511 434.008 436.643 433.892 436.775 433.781C436.812 433.75 436.85 433.718 436.887 433.697C436.982 433.612 437.082 433.538 437.183 433.475C437.299 433.396 437.416 433.316 437.537 433.243C437.542 433.232 437.552 433.227 437.558 433.232C438.927 432.418 440.676 432.049 442.728 432.038C456.83 431.97 485.088 449.062 499.292 458.279C499.497 458.411 499.704 458.548 499.905 458.681C504.789 461.85 507.855 463.999 507.855 463.999C507.855 463.999 508.938 464.025 510.677 464.163C510.699 464.163 510.72 464.168 510.746 464.168C517.712 464.726 534.875 467.098 535.039 476.864Z" fill="#CBCFF9"/>
<path d="M500.972 456.867L499.904 458.679L491.981 472.131L490.887 473.985C482.683 472.163 471.107 468.899 460.541 464.467L460.535 464.462C445.148 458.013 431.886 449.087 434.244 438.523C434.249 438.502 434.254 438.485 434.254 438.47C434.344 438.074 434.46 437.673 434.593 437.276C434.598 437.266 434.598 437.26 434.598 437.255C434.74 436.843 434.905 436.431 435.089 436.014C435.259 435.639 435.454 435.291 435.681 434.974C435.782 434.826 435.888 434.683 436.004 434.546C436.126 434.404 436.252 434.266 436.385 434.134C436.385 434.134 436.39 434.134 436.39 434.129C436.511 434.007 436.643 433.891 436.776 433.781C436.813 433.749 436.85 433.717 436.887 433.696C436.982 433.612 437.082 433.537 437.183 433.474C437.299 433.396 437.416 433.316 437.537 433.242C437.542 433.231 437.553 433.226 437.558 433.232C438.98 432.355 440.83 431.932 443.003 431.885C457.57 431.514 486.796 447.671 500.972 456.867Z" fill="#1F2780"/>
<path d="M507.853 464.046C507.853 464.046 541.069 464.473 539.643 478.244C538.112 493.038 502.334 474.259 502.334 474.259C502.334 474.259 520.188 481.355 521.208 472.987C522.197 464.89 507.853 464.046 507.853 464.046Z" fill="#171C56"/>
<path d="M516.417 395.618V432.031C516.417 432.973 516.043 433.875 515.377 434.541C514.711 435.206 513.807 435.58 512.865 435.581H457.031C456.089 435.58 455.186 435.206 454.519 434.541C453.853 433.875 453.479 432.973 453.479 432.031V395.618C453.479 394.677 453.853 393.774 454.519 393.109C455.186 392.443 456.089 392.069 457.031 392.069H512.865C513.807 392.069 514.711 392.443 515.377 393.109C516.043 393.774 516.417 394.677 516.417 395.618Z" fill="white"/>
<path d="M484.948 419.381C488.018 419.381 490.508 416.894 490.508 413.825C490.508 410.757 488.018 408.27 484.948 408.27C481.877 408.27 479.388 410.757 479.388 413.825C479.388 416.894 481.877 419.381 484.948 419.381Z" fill="#4C4E63"/>
<path d="M490.945 350.939C489.83 351.557 488.552 352.646 486.697 352.694C484.028 352.757 480.69 350.315 480.69 350.315L481.499 346.27H484.396L489.401 346.566L490.295 347.094L490.945 350.939Z" fill="#B7BBED"/>
<path d="M516.417 395.618V432.031C516.417 432.973 516.043 433.875 515.377 434.541C514.711 435.206 513.807 435.58 512.865 435.581H457.031C456.089 435.58 455.186 435.206 454.519 434.541C453.853 433.875 453.479 432.973 453.479 432.031C509.948 434.622 516.417 426.346 512.865 392.069C513.807 392.069 514.711 392.443 515.377 393.109C516.043 393.774 516.417 394.677 516.417 395.618Z" fill="#CCCCCC"/>
<path d="M449.134 423.844L445.914 426.517C441.205 422.514 438.44 417.39 437.404 413.688C435.803 407.988 438.08 398.249 441.923 388.578C441.538 389.713 436.566 403.667 440.091 412.202C443.216 419.77 447.987 422.745 449.134 423.844Z" fill="#999999"/>
<path d="M532.672 414.474C532.175 417.179 530.552 420.575 527.851 423.538C527.712 423.687 527.524 423.783 527.321 423.808C527.118 423.834 526.913 423.787 526.741 423.676L523.453 421.542C525.182 418.547 527.731 416.171 528.928 411.535C532.133 399.125 524.05 381.289 523.612 380.216C529.511 392.301 534.088 406.779 532.672 414.474Z" fill="#CCCCCC"/>
<path d="M495.477 340.658C494.021 347.856 489.896 350.95 485.826 350.718C480.366 350.412 475.146 340.074 475.146 340.074C475.146 340.074 470.196 337.614 471.225 335.446C472.542 332.659 473.505 333.84 476.889 333.859C482.025 333.896 486.15 324.53 486.188 322.261C488.32 327.383 491.388 330.894 495.922 331.858C496.154 335.286 495.969 338.213 495.477 340.658Z" fill="#CBCFF9"/>
<path d="M163.347 414.875C157.158 417.016 151.684 418.731 146.02 417.649C141.619 416.809 138.023 411.074 138.023 411.074C144.094 409.646 145.731 406.431 145.731 406.431C143.252 407.822 138.587 407.517 138.587 407.517C134.774 405.993 134.582 396.845 134.582 396.845C138.206 396.464 139.958 393.75 139.958 393.75C135.432 393.931 133.584 390.609 133.584 390.609C132.179 378.217 136.975 374.304 136.975 374.304C142.568 373.679 151.458 374.795 153.214 378.287C153.214 378.287 154.812 384.153 152.074 387.127C152.074 387.127 156.071 385.424 156.785 382.807C156.785 382.807 162.499 385.186 162.38 389.111C162.38 389.111 162.998 395.365 158.117 397.837C158.117 397.837 163.689 396.01 165.594 391.728C165.594 391.728 169.586 397.605 168.611 404.415C167.856 409.698 163.347 414.875 163.347 414.875Z" fill="#4A52AF"/>
<path d="M142.118 385C143.303 389.938 145.328 394.666 148.114 398.915C150.93 403.21 154.597 406.615 158.197 410.227C160.071 412.108 161.836 414.09 163.221 416.366C164.597 418.627 165.616 421.085 166.337 423.628C167.585 428.035 167.831 432.634 168.038 437.186C168.259 442.078 168.449 447.11 167.79 451.978C167.694 452.69 168.784 452.998 168.882 452.279C169.462 447.995 169.393 443.618 169.253 439.307C169.108 434.83 168.956 430.246 168.045 425.849C166.989 420.753 164.841 415.99 161.434 412.031C157.958 407.992 153.721 404.706 150.53 400.405C147.054 395.721 144.571 390.368 143.21 384.699C143.04 383.992 141.947 384.291 142.118 385Z" fill="#2A2F63"/>
<path d="M183.559 412.822C189.749 414.963 195.222 416.678 200.887 415.596C205.288 414.756 208.884 409.02 208.884 409.02C202.813 407.593 201.176 404.378 201.176 404.378C203.655 405.769 208.32 405.464 208.32 405.464C212.133 403.94 212.325 394.792 212.325 394.792C208.701 394.411 206.949 391.697 206.949 391.697C211.475 391.878 213.323 388.556 213.323 388.556C214.727 376.164 209.932 372.25 209.932 372.25C204.339 371.626 195.449 372.742 193.693 376.234C193.693 376.234 192.095 382.1 194.833 385.073C194.833 385.073 190.836 383.371 190.122 380.754C190.122 380.754 184.408 383.133 184.527 387.058C184.527 387.058 183.909 393.312 188.79 395.784C188.79 395.784 183.218 393.957 181.314 389.675C181.314 389.675 177.322 395.552 178.296 402.362C179.051 407.645 183.559 412.822 183.559 412.822Z" fill="#4A52AF"/>
<path d="M204.02 381.176C202.86 386.029 200.87 390.645 198.138 394.821C195.375 399.036 191.764 402.359 188.233 405.903C184.674 409.475 181.896 413.45 180.28 418.257C178.805 422.641 178.362 427.225 178.252 431.823C178.117 437.416 178.307 443.011 178.328 448.604C178.331 449.332 179.464 449.334 179.461 448.604C179.442 443.663 179.301 438.722 179.352 433.782C179.401 429.063 179.643 424.349 180.983 419.793C182.456 414.784 185.155 410.628 188.805 406.934C192.239 403.458 195.807 400.226 198.591 396.174C201.647 391.727 203.854 386.72 205.113 381.477C205.282 380.77 204.19 380.467 204.02 381.176Z" fill="#2A2F63"/>
<path d="M187.841 431.864C192.905 436.016 197.443 439.52 203.132 440.467C207.551 441.203 212.914 437.068 212.914 437.068C207.715 433.627 207.294 430.044 207.294 430.044C209.138 432.207 213.619 433.537 213.619 433.537C217.725 433.427 221.077 424.913 221.077 424.913C217.81 423.301 217.107 420.148 217.107 420.148C221.291 421.886 224.176 419.409 224.176 419.409C229.79 408.272 226.65 402.941 226.65 402.941C221.621 400.418 212.894 398.386 210.035 401.053C210.035 401.053 206.502 406.002 208.039 409.739C208.039 409.739 204.88 406.758 205.118 404.056C205.118 404.056 198.933 404.309 197.684 408.032C197.684 408.032 194.936 413.684 198.656 417.693C198.656 417.693 194.063 414.05 193.761 409.373C193.761 409.373 187.978 413.504 186.53 420.228C185.408 425.446 187.841 431.864 187.841 431.864Z" fill="#505AC7"/>
<path d="M218.01 409.266C215.235 413.413 211.775 417.06 207.76 420.028C203.707 423.024 199.167 424.892 194.625 426.993C190.048 429.111 186.064 431.878 182.88 435.827C179.976 439.428 177.971 443.574 176.272 447.85C174.207 453.05 172.443 458.364 170.523 463.618C170.273 464.302 171.335 464.695 171.585 464.011C173.282 459.369 174.863 454.686 176.624 450.068C178.307 445.659 180.17 441.321 183.007 437.512C186.125 433.323 190.098 430.36 194.804 428.158C199.23 426.088 203.698 424.291 207.715 421.454C212.124 418.341 215.93 414.409 218.93 409.926C219.335 409.321 218.416 408.66 218.01 409.266Z" fill="#2A2F63"/>
<path d="M161.738 435.161C155.994 438.307 150.885 440.913 145.12 440.793C140.64 440.7 136.135 435.647 136.135 435.647C141.881 433.225 142.956 429.781 142.956 429.781C140.744 431.567 136.095 432.047 136.095 432.047C132.079 431.182 130.359 422.195 130.359 422.195C133.868 421.214 135.141 418.245 135.141 418.245C130.709 419.18 128.331 416.214 128.331 416.214C124.871 404.231 128.943 399.571 128.943 399.571C134.353 398.021 143.304 397.635 145.621 400.783C145.621 400.783 148.178 406.299 145.977 409.688C145.977 409.688 149.632 407.341 149.898 404.642C149.898 404.642 155.93 406.032 156.469 409.922C156.469 409.922 158.126 415.984 153.728 419.238C153.728 419.238 158.916 416.505 160.076 411.965C160.076 411.965 164.996 417.091 165.176 423.968C165.315 429.302 161.738 435.161 161.738 435.161Z" fill="#505AC7"/>
<path d="M135.804 409.257C137.8 413.927 140.588 418.25 144.046 421.973C147.541 425.737 151.727 428.48 155.881 431.439C158.043 432.98 160.116 434.64 161.862 436.651C163.598 438.651 165.014 440.903 166.151 443.291C168.12 447.427 169.133 451.92 170.098 456.374C171.135 461.16 172.165 466.089 172.331 470.998C172.355 471.717 173.482 471.838 173.458 471.112C173.312 466.792 172.511 462.488 171.651 458.262C170.758 453.873 169.84 449.378 168.206 445.195C166.311 440.347 163.396 436.01 159.375 432.677C155.271 429.276 150.543 426.745 146.678 423.038C142.467 419 139.121 414.138 136.83 408.778C136.544 408.109 135.517 408.586 135.804 409.257Z" fill="#2A2F63"/>
<path d="M175.053 428.208C181.597 427.913 187.316 427.487 192.18 424.391C195.959 421.986 197.181 415.329 197.181 415.329C191.012 416.243 188.303 413.859 188.303 413.859C191.121 414.237 195.343 412.232 195.343 412.232C198.324 409.408 195.121 400.837 195.121 400.837C191.612 401.82 188.981 399.944 188.981 399.944C193.255 398.442 193.744 394.673 193.744 394.673C190.468 382.64 184.566 380.772 184.566 380.772C179.138 382.256 171.289 386.574 170.947 390.466C170.947 390.466 171.631 396.507 175.274 398.26C175.274 398.26 170.93 398.153 169.3 395.984C169.3 395.984 164.869 400.304 166.43 403.907C166.43 403.907 168.168 409.947 173.617 410.443C173.617 410.443 167.764 410.801 164.411 407.525C164.411 407.525 162.873 414.459 166.295 420.428C168.95 425.06 175.053 428.208 175.053 428.208Z" fill="#646DD8"/>
<path d="M182.372 391.248C183.082 396.186 182.949 401.209 181.948 406.099C180.938 411.035 178.811 415.457 176.839 420.054C174.852 424.686 173.74 429.405 174.014 434.469C174.264 439.087 175.546 443.51 177.143 447.824C179.086 453.072 181.33 458.202 183.417 463.392C183.688 464.067 184.741 463.651 184.469 462.974C182.626 458.389 180.668 453.85 178.89 449.239C177.191 444.835 175.674 440.365 175.235 435.637C174.753 430.439 175.725 425.58 177.751 420.8C179.658 416.303 181.779 411.982 182.869 407.189C184.065 401.929 184.265 396.462 183.497 391.125C183.394 390.404 182.268 390.526 182.372 391.248Z" fill="#2A2F63"/>
<path d="M196.955 451.641L196.406 455.983L195.678 461.743L195.598 462.371L194.7 469.439L194.605 470.176L193.731 477.098L193.626 477.934L192.751 484.818H160.58L159.535 477.344L158.906 472.846L158.514 470.049L157.876 465.47L157.502 462.796L156.85 458.137L156.547 455.983L155.941 451.641H196.955Z" fill="#2B39D7"/>
<path d="M195.678 461.743L195.598 462.371C182.898 466.213 170.202 459.073 157.503 462.797L156.85 458.138C169.796 455.378 182.732 464.284 195.678 461.743ZM194.7 469.439L194.605 470.176C182.571 473.285 170.547 467.053 158.514 470.049L157.876 465.47C170.15 463.42 182.425 471.315 194.7 469.439ZM193.73 477.098L193.627 477.934C182.265 480.409 170.898 474.995 159.536 477.343L158.907 472.845C170.515 471.423 182.122 478.393 193.73 477.098Z" fill="#5B67F0"/>
<path d="M196.15 451.644H156.747C154.103 451.644 151.959 449.897 151.959 447.742C151.959 445.587 154.103 443.841 156.747 443.841H196.15C198.795 443.841 200.938 445.587 200.938 447.742C200.938 449.897 198.795 451.644 196.15 451.644Z" fill="#2B39D7"/>
<path d="M155.942 451.642L156.765 457.535C175.52 456.029 191.005 468.233 192.751 484.818L196.953 451.642H155.942Z" fill="#CCCCCC"/>
<defs>
<linearGradient id="paint0_linear_976_2544" x1="197.572" y1="81.8104" x2="210.06" y2="86.9018" gradientUnits="userSpaceOnUse">
<stop stop-color="#6672FF"/>
<stop offset="1" stop-color="#2D39C4"/>
</linearGradient>
<linearGradient id="paint1_linear_976_2544" x1="533.637" y1="355.983" x2="546.126" y2="361.074" gradientUnits="userSpaceOnUse">
<stop stop-color="#6672FF"/>
<stop offset="1" stop-color="#2D39C4"/>
</linearGradient>
<linearGradient id="paint2_linear_976_2544" x1="81.6849" y1="298.119" x2="89.7393" y2="306.592" gradientUnits="userSpaceOnUse">
<stop stop-color="#6E7AFF"/>
<stop offset="1" stop-color="#5C69FF"/>
</linearGradient>
<linearGradient id="paint3_linear_976_2544" x1="420.873" y1="81.8772" x2="428.926" y2="90.3504" gradientUnits="userSpaceOnUse">
<stop stop-color="#6E7AFF"/>
<stop offset="1" stop-color="#5C69FF"/>
</linearGradient>
<linearGradient id="paint4_linear_976_2544" x1="79.6406" y1="142.042" x2="90.4646" y2="142.042" gradientUnits="userSpaceOnUse">
<stop stop-color="#5B67F1"/>
<stop offset="1" stop-color="#192178"/>
</linearGradient>
<linearGradient id="paint5_linear_976_2544" x1="551.769" y1="169.042" x2="562.593" y2="169.042" gradientUnits="userSpaceOnUse">
<stop stop-color="#5B67F1"/>
<stop offset="1" stop-color="#192178"/>
</linearGradient>
</defs>
</svg>
