<svg width="580" height="580" viewBox="0 0 580 580" fill="none" xmlns="http://www.w3.org/2000/svg">
<circle cx="290" cy="290" r="289.5" stroke="#06B6D4"/>
<circle cx="290" cy="290" r="200" fill="#06B6D4"/>
<mask id="mask0_81_21737" style="mask-type:alpha" maskUnits="userSpaceOnUse" x="90" y="90" width="400" height="400">
<circle cx="290" cy="290" r="200" fill="#06B6D4"/>
</mask>
<g mask="url(#mask0_81_21737)">
<path d="M22.1809 259.519H56.6908C63.5105 259.519 69.0896 253.939 69.0896 247.12V215.946C69.0896 209.127 74.6692 203.547 81.4889 203.547H131.966C138.785 203.547 144.365 209.127 144.365 215.946V309.954C144.365 316.773 138.785 322.353 131.966 322.353H9.56641M17.8058 301.49H88.9519C94.919 301.49 99.8012 306.372 99.8012 312.339V325.574C99.8012 331.541 104.683 336.423 110.65 336.423H147.174C153.14 336.423 158.022 341.305 158.022 347.272V356.553C158.022 362.52 162.905 367.402 168.872 367.402H239.533C245.501 367.402 250.382 372.284 250.382 378.251V421.257M601 297.34H421.637C414.817 297.34 409.238 302.92 409.238 309.739V353.054C409.238 359.873 403.658 367.958 396.838 367.958H266.01C259.191 367.958 253.612 367.311 253.612 360.492V354.642C253.612 347.823 248.032 344.671 241.213 344.671H129.868C123.048 344.671 117.469 350.251 117.469 357.07V371.34C117.469 378.159 111.889 383.739 105.07 383.739H66.2344C59.4152 383.739 53.8356 389.319 53.8356 396.138V428.732M17.8141 126.955H146.132C152.952 126.955 158.531 132.535 158.531 139.354V201.274C158.531 208.093 164.111 213.673 170.93 213.673H266.718C273.538 213.673 279.117 208.093 279.117 201.274V171.731C279.117 164.912 284.697 159.333 291.516 159.333H435.284C442.104 159.333 447.683 153.753 447.683 146.933V127.095C447.683 120.275 453.263 114.696 460.082 114.696H490.988C497.807 114.696 503.387 109.116 503.387 102.297V72.0001" stroke="#A1D6E0" stroke-width="0.868277" stroke-miterlimit="10"/>
<path d="M467.325 87.8713V136.699C467.325 142.666 472.207 147.548 478.175 147.548H551.746" stroke="#47A8C4" stroke-width="0.46185" stroke-miterlimit="10"/>
<path d="M-21 170.006H203.845C210.664 170.006 216.244 164.427 216.244 157.608V151.354C216.244 144.534 221.824 138.955 228.643 138.955H317.871C324.69 138.955 330.27 144.534 330.27 151.354V185.505C330.27 192.325 335.85 197.904 342.669 197.904H373.181C380.001 197.904 385.58 203.484 385.58 210.303V213.86C385.58 220.679 391.16 226.259 397.979 226.259H578.682M108.35 72V180.411C108.35 187.23 113.929 192.81 120.749 192.81H208.22C215.04 192.81 220.619 198.389 220.619 205.209V244.454C220.619 251.274 226.199 256.854 233.018 256.854H452.751C459.57 256.854 465.15 251.274 465.15 244.454V202.057C465.15 195.238 470.729 189.658 477.549 189.658H571.889" stroke="#A1D6E0" stroke-width="0.868277" stroke-miterlimit="10"/>
<path d="M11.6035 267.141H118.997" stroke="#A1D6E0" stroke-width="0.868277" stroke-linecap="round" stroke-linejoin="round" stroke-dasharray="0 3.3"/>
<path d="M124.337 267.704C128.771 269.095 132.154 272.923 132.896 277.601" stroke="#A1D6E0" stroke-width="0.868277" stroke-linecap="round" stroke-linejoin="round" stroke-dasharray="0.3 3.6"/>
<path d="M133.048 283.338V293.416" stroke="#A1D6E0" stroke-width="0.868277" stroke-linecap="round" stroke-linejoin="round" stroke-dasharray="0.33 3.63"/>
<path d="M133.611 299.085C135.003 303.52 138.831 306.902 143.508 307.644" stroke="#A1D6E0" stroke-width="0.868277" stroke-linecap="round" stroke-linejoin="round" stroke-dasharray="0.3 3.6"/>
<path d="M148.764 307.798H233.487" stroke="#A1D6E0" stroke-width="0.868277" stroke-linecap="round" stroke-linejoin="round" stroke-dasharray="0.01 3.31"/>
<path d="M238.836 307.234C243.27 305.843 246.653 302.015 247.395 297.337" stroke="#A1D6E0" stroke-width="0.868277" stroke-linecap="round" stroke-linejoin="round" stroke-dasharray="0.3 3.6"/>
<path d="M247.548 292.058V253.464" stroke="#A1D6E0" stroke-width="0.868277" stroke-linecap="round" stroke-linejoin="round" stroke-dasharray="0.03 3.33"/>
<path d="M248.11 248.098C249.502 243.664 253.33 240.281 258.007 239.539" stroke="#A1D6E0" stroke-width="0.868277" stroke-linecap="round" stroke-linejoin="round" stroke-dasharray="0.3 3.6"/>
<path d="M263.262 239.387H587.115" stroke="#A1D6E0" stroke-width="0.868277" stroke-linecap="round" stroke-linejoin="round" stroke-dasharray="0.01 3.31"/>
<path d="M8.2998 267.14H8.30119M120.647 267.14H120.648C120.698 267.14 120.748 267.14 120.797 267.141M133.047 279.39C133.047 279.44 133.048 279.489 133.048 279.539V279.706M133.048 295.231V295.398C133.048 295.447 133.048 295.497 133.049 295.547M145.298 307.796C145.347 307.797 145.397 307.797 145.447 307.797H145.453M235.142 307.797H235.147C235.197 307.797 235.247 307.797 235.297 307.796M247.546 295.547C247.546 295.497 247.547 295.447 247.547 295.398V295.383M247.547 251.8V251.785C247.547 251.736 247.547 251.686 247.548 251.637M259.797 239.387C259.847 239.387 259.896 239.387 259.946 239.387H259.952M588.77 239.387H588.776" stroke="#A1D6E0" stroke-width="0.868277" stroke-linecap="round" stroke-linejoin="round"/>
<path d="M560.545 326.72H463.244" stroke="#A1D6E0" stroke-width="0.868277" stroke-linecap="round" stroke-linejoin="round" stroke-dasharray="0.05 3.36"/>
<path d="M457.849 327.283C453.415 328.675 450.033 332.503 449.291 337.18" stroke="#A1D6E0" stroke-width="0.868277" stroke-linecap="round" stroke-linejoin="round" stroke-dasharray="0.29 3.6"/>
<path d="M449.14 342.474V367.789" stroke="#A1D6E0" stroke-width="0.868277" stroke-linecap="round" stroke-linejoin="round" stroke-dasharray="0.03 3.34"/>
<path d="M448.576 373.165C447.185 377.598 443.356 380.98 438.68 381.722" stroke="#A1D6E0" stroke-width="0.868277" stroke-linecap="round" stroke-linejoin="round" stroke-dasharray="0.29 3.6"/>
<path d="M433.435 381.875H349.173" stroke="#A1D6E0" stroke-width="0.868277" stroke-linecap="round" stroke-linejoin="round"/>
<path d="M343.832 381.312C339.398 379.92 336.017 376.092 335.274 371.415" stroke="#A1D6E0" stroke-width="0.868277" stroke-linecap="round" stroke-linejoin="round" stroke-dasharray="0.29 3.6"/>
<path d="M335.122 366.137V337.649" stroke="#A1D6E0" stroke-width="0.868277" stroke-linecap="round" stroke-linejoin="round" stroke-dasharray="0.02 3.33"/>
<path d="M334.559 332.286C333.167 327.852 329.339 324.47 324.662 323.728" stroke="#A1D6E0" stroke-width="0.868277" stroke-linecap="round" stroke-linejoin="round" stroke-dasharray="0.29 3.6"/>
<path d="M319.399 323.575H204.496" stroke="#A1D6E0" stroke-width="0.868277" stroke-linecap="round" stroke-linejoin="round" stroke-dasharray="0.01 3.32"/>
<path d="M199.142 324.139C194.708 325.531 191.326 329.358 190.584 334.035" stroke="#A1D6E0" stroke-width="0.868277" stroke-linecap="round" stroke-linejoin="round" stroke-dasharray="0.29 3.6"/>
<path d="M190.432 340.51V343.394" stroke="#A1D6E0" stroke-width="0.868277" stroke-linecap="round" stroke-linejoin="round" stroke-dasharray="0.82 4.13"/>
<path d="M189.868 349.556C188.476 353.989 184.648 357.371 179.972 358.113" stroke="#A1D6E0" stroke-width="0.868277" stroke-linecap="round" stroke-linejoin="round" stroke-dasharray="0.29 3.6"/>
<path d="M174.688 358.266H8.43262" stroke="#A1D6E0" stroke-width="0.868277" stroke-linecap="round" stroke-linejoin="round" stroke-dasharray="0.03 3.33"/>
<path d="M563.932 326.719H563.905M461.566 326.719H461.539C461.49 326.719 461.44 326.719 461.392 326.72M449.141 338.971C449.14 339.02 449.14 339.069 449.14 339.118V339.135M449.14 369.458V369.475C449.14 369.525 449.139 369.574 449.139 369.623M436.888 381.874C436.839 381.874 436.79 381.875 436.741 381.875M347.522 381.875C347.472 381.875 347.424 381.874 347.375 381.874M335.124 369.623C335.123 369.574 335.123 369.525 335.123 369.475V369.464M335.123 335.986V335.974C335.123 335.925 335.122 335.876 335.122 335.827M322.871 323.576C322.822 323.575 322.773 323.575 322.724 323.575H322.717M202.838 323.575H202.832C202.782 323.575 202.733 323.575 202.684 323.576M190.433 335.827C190.433 335.876 190.432 335.925 190.432 335.974V336.385M190.432 345.456V345.866C190.432 345.915 190.432 345.965 190.432 346.014M178.181 358.265C178.132 358.265 178.083 358.265 178.034 358.265H178.02M6.76732 358.265H6.75391" stroke="#A1D6E0" stroke-width="0.868277" stroke-linecap="round" stroke-linejoin="round"/>
<path d="M5.19922 333.27H74.7954C81.615 333.27 87.1946 327.69 87.1946 320.871V242.527C87.1946 235.707 92.7742 230.127 99.5934 230.127H185.902C192.721 230.127 198.3 235.707 198.3 242.527V272.11C198.3 278.93 203.88 284.509 210.7 284.509H294.096C300.916 284.509 306.496 290.088 306.496 296.908V309.954C306.496 316.774 312.075 322.353 318.894 322.353H434.186C441.005 322.353 446.585 316.774 446.585 309.954V285.001C446.585 278.181 452.164 272.601 458.984 272.601H596.148" stroke="#A1D6E0" stroke-width="0.868277" stroke-miterlimit="10"/>
<path d="M93.46 114.696H227.909" stroke="#A1D6E0" stroke-width="0.868277" stroke-linecap="round" stroke-linejoin="round" stroke-dasharray="0.01 3.31"/>
<path d="M233.255 115.259C237.69 116.65 241.072 120.479 241.815 125.156" stroke="#A1D6E0" stroke-width="0.868277" stroke-linecap="round" stroke-linejoin="round" stroke-dasharray="0.3 3.59"/>
<path d="M241.968 130.406V168.549" stroke="#A1D6E0" stroke-width="0.868277" stroke-linecap="round" stroke-linejoin="round" stroke-dasharray="0.01 3.31"/>
<path d="M242.53 173.894C243.921 178.329 247.75 181.711 252.428 182.454" stroke="#A1D6E0" stroke-width="0.868277" stroke-linecap="round" stroke-linejoin="round" stroke-dasharray="0.3 3.59"/>
<path d="M257.716 182.607H370.547" stroke="#A1D6E0" stroke-width="0.868277" stroke-linecap="round" stroke-linejoin="round" stroke-dasharray="0.04 3.33"/>
<path d="M375.918 182.044C380.353 180.653 383.736 176.824 384.478 172.146" stroke="#A1D6E0" stroke-width="0.868277" stroke-linecap="round" stroke-linejoin="round" stroke-dasharray="0.3 3.59"/>
<path d="M384.63 166.906V152.036" stroke="#A1D6E0" stroke-width="0.868277" stroke-linecap="round" stroke-linejoin="round" stroke-dasharray="0 3.3"/>
<path d="M385.193 146.697C386.584 142.262 390.413 138.88 395.091 138.137" stroke="#A1D6E0" stroke-width="0.868277" stroke-linecap="round" stroke-linejoin="round" stroke-dasharray="0.3 3.59"/>
<path d="M400.354 137.984H575.466" stroke="#A1D6E0" stroke-width="0.868277" stroke-linecap="round" stroke-linejoin="round" stroke-dasharray="0.02 3.32"/>
<path d="M1.50488 147.688H1.52105M65.3316 147.688H65.3482C65.3981 147.688 65.448 147.688 65.4974 147.687M77.7461 135.439C77.747 135.389 77.747 135.339 77.747 135.29V135.089M77.747 127.296V127.095C77.747 127.045 77.7475 126.996 77.748 126.946M89.9967 114.697C90.0466 114.697 90.0964 114.696 90.1463 114.696H90.1523M229.563 114.696H229.569C229.618 114.696 229.668 114.697 229.718 114.697M241.967 126.946C241.967 126.996 241.967 127.045 241.967 127.095V127.1M241.967 170.203V170.208C241.967 170.258 241.968 170.308 241.968 170.358M254.217 182.606C254.267 182.607 254.317 182.607 254.367 182.607H254.385M372.213 182.607H372.231C372.281 182.607 372.331 182.607 372.381 182.606M384.63 170.358C384.63 170.308 384.631 170.258 384.631 170.208V170.206M384.631 150.386V150.384C384.631 150.334 384.631 150.284 384.631 150.234M396.88 137.986C396.93 137.985 396.979 137.985 397.029 137.985H397.039M577.123 137.985H577.134" stroke="#A1D6E0" stroke-width="0.868277" stroke-linecap="round" stroke-linejoin="round"/>
<path d="M292.425 83.6442V108.361C292.425 115.181 298.005 120.76 304.825 120.76H411.025C417.844 120.76 423.424 126.34 423.424 133.16V163.437C423.424 170.257 429.004 175.836 435.823 175.836H567.037M192.478 425.164V403.6C192.478 396.781 198.058 391.201 204.878 391.201H283.528C290.348 391.201 295.927 385.621 295.927 378.802V357.07C295.927 350.25 301.506 344.671 308.326 344.671H460.756C467.575 344.671 473.155 350.25 473.155 357.07V373.997C473.155 380.817 478.734 386.396 485.554 386.396H571.889M5.19922 215.218H99.3002C106.119 215.218 111.699 220.797 111.699 227.617V279.947C111.699 286.767 117.279 292.347 124.098 292.347H150.409C157.228 292.347 162.808 286.767 162.808 279.947V276.411C162.808 269.592 168.387 264.013 175.207 264.013H208.22C215.039 264.013 220.619 269.592 220.619 276.411V310.999C220.619 317.819 226.198 323.398 233.018 323.398H266.441C273.261 323.398 278.841 317.819 278.841 310.999V234.88C278.841 228.06 284.42 222.481 291.239 222.481H343.734C350.553 222.481 356.133 228.06 356.133 234.88V276.688C356.133 283.508 361.713 289.087 368.532 289.087H596.148" stroke="#A1D6E0" stroke-width="0.868277" stroke-miterlimit="10"/>
<path d="M113.676 267.14C113.676 268.232 112.791 269.117 111.7 269.117C110.609 269.117 109.724 268.232 109.724 267.14C109.724 266.049 110.609 265.164 111.7 265.164C112.791 265.164 113.676 266.049 113.676 267.14Z" fill="#FF4247"/>
<path d="M200.967 263.188C200.967 264.66 199.774 265.853 198.302 265.853C196.83 265.853 195.637 264.66 195.637 263.188C195.637 261.716 196.83 260.522 198.302 260.522C199.774 260.522 200.967 261.716 200.967 263.188Z" fill="#FF4247"/>
<path d="M223.45 213.672C223.45 215.144 222.256 216.338 220.784 216.338C219.312 216.338 218.119 215.144 218.119 213.672C218.119 212.2 219.312 211.007 220.784 211.007C222.256 211.007 223.45 212.2 223.45 213.672Z" fill="#FF4247"/>
<path d="M111.301 169.748C111.301 171.22 110.108 172.414 108.636 172.414C107.164 172.414 105.971 171.22 105.971 169.748C105.971 168.276 107.164 167.083 108.636 167.083C110.108 167.083 111.301 168.276 111.301 169.748Z" fill="#FF4247"/>
<path d="M135.847 291.459C135.847 292.931 134.654 294.124 133.182 294.124C131.71 294.124 130.517 292.931 130.517 291.459C130.517 289.987 131.71 288.793 133.182 288.793C134.654 288.793 135.847 289.987 135.847 291.459Z" fill="#FF4247"/>
<path d="M426.068 137.826C426.068 139.298 424.875 140.491 423.403 140.491C421.931 140.491 420.737 139.298 420.737 137.826C420.737 136.354 421.931 135.161 423.403 135.161C424.875 135.161 426.068 136.354 426.068 137.826Z" fill="#FF4247"/>
<path d="M470.007 114.953C470.007 116.425 468.814 117.619 467.342 117.619C465.87 117.619 464.677 116.425 464.677 114.953C464.677 113.481 465.87 112.288 467.342 112.288C468.814 112.288 470.007 113.481 470.007 114.953Z" fill="#FF4247"/>
<path d="M160.468 344.796C160.468 346.268 159.275 347.461 157.803 347.461C156.331 347.461 155.138 346.268 155.138 344.796C155.138 343.324 156.331 342.13 157.803 342.13C159.275 342.13 160.468 343.324 160.468 344.796Z" fill="#FF4247"/>
<path d="M102.546 322.579C102.546 324.051 101.353 325.244 99.8812 325.244C98.4088 325.244 97.2158 324.051 97.2158 322.579C97.2158 321.107 98.4088 319.914 99.8812 319.914C101.353 319.914 102.546 321.107 102.546 322.579Z" fill="#FF4247"/>
<path d="M333.21 182.607C333.21 184.079 332.016 185.272 330.544 185.272C329.072 185.272 327.879 184.079 327.879 182.607C327.879 181.135 329.072 179.941 330.544 179.941C332.016 179.941 333.21 181.135 333.21 182.607Z" fill="#FF4247"/>
<path d="M332.429 159.146C332.429 160.187 331.585 161.031 330.544 161.031C329.503 161.031 328.659 160.187 328.659 159.146C328.659 158.105 329.503 157.261 330.544 157.261C331.585 157.261 332.429 158.105 332.429 159.146Z" fill="#FF4247"/>
<path d="M244.569 138.955C244.569 140.427 243.376 141.62 241.904 141.62C240.432 141.62 239.238 140.427 239.238 138.955C239.238 137.483 240.432 136.289 241.904 136.289C243.376 136.289 244.569 137.483 244.569 138.955Z" fill="#FF4247"/>
<path d="M363.991 256.853C363.991 258.325 362.797 259.519 361.325 259.519C359.853 259.519 358.66 258.325 358.66 256.853C358.66 255.381 359.853 254.188 361.325 254.188C362.797 254.188 363.991 255.381 363.991 256.853Z" fill="#FF4247"/>
<path d="M467.87 226.258C467.87 227.73 466.676 228.924 465.204 228.924C463.732 228.924 462.539 227.73 462.539 226.258C462.539 224.786 463.732 223.593 465.204 223.593C466.676 223.593 467.87 224.786 467.87 226.258Z" fill="#FF4247"/>
<path d="M281.452 284.364C281.452 285.836 280.258 287.029 278.786 287.029C277.315 287.029 276.121 285.836 276.121 284.364C276.121 282.892 277.315 281.699 278.786 281.699C280.258 281.699 281.452 282.892 281.452 284.364Z" fill="#FF4247"/>
<path d="M451.6 344.671C451.6 346.143 450.407 347.336 448.935 347.336C447.463 347.336 446.27 346.143 446.27 344.671C446.27 343.199 447.463 342.006 448.935 342.006C450.407 342.006 451.6 343.199 451.6 344.671Z" fill="#FF4247"/>
<path d="M120.311 365.009C120.311 366.481 119.118 367.674 117.646 367.674C116.174 367.674 114.98 366.481 114.98 365.009C114.98 363.537 116.174 362.344 117.646 362.344C119.118 362.344 120.311 363.537 120.311 365.009Z" fill="#FF4247"/>
<path d="M347.55 120.893C347.55 122.365 346.357 123.559 344.885 123.559C343.413 123.559 342.22 122.365 342.22 120.893C342.22 119.421 343.413 118.228 344.885 118.228C346.357 118.228 347.55 119.421 347.55 120.893Z" fill="#FF4247"/>
<path d="M387.423 159.098C387.423 160.57 386.23 161.763 384.758 161.763C383.286 161.763 382.093 160.57 382.093 159.098C382.093 157.626 383.286 156.433 384.758 156.433C386.23 156.433 387.423 157.626 387.423 159.098Z" fill="#FF4247"/>
<path d="M160.985 170.791C160.422 172.151 158.862 172.797 157.503 172.233C156.143 171.67 155.497 170.111 156.06 168.751C156.623 167.391 158.183 166.745 159.543 167.309C160.902 167.872 161.548 169.431 160.985 170.791Z" fill="#FF4247"/>
<path d="M449.132 288.844C449.132 290.316 447.939 291.509 446.467 291.509C444.995 291.509 443.802 290.316 443.802 288.844C443.802 287.372 444.995 286.179 446.467 286.179C447.939 286.179 449.132 287.372 449.132 288.844Z" fill="#FF4247"/>
<path d="M281.544 256.853C281.544 258.325 280.35 259.519 278.878 259.519C277.406 259.519 276.213 258.325 276.213 256.853C276.213 255.381 277.406 254.188 278.878 254.188C280.35 254.188 281.544 255.381 281.544 256.853Z" fill="#FF4247"/>
<path d="M188.958 86.5079V112.346C188.958 119.165 194.538 124.745 201.357 124.745H260.275C267.095 124.745 272.674 130.325 272.674 137.144V187.051C272.674 193.871 278.254 199.45 285.073 199.45H310.802C317.622 199.45 323.201 205.03 323.201 211.849V263.832C323.201 270.652 328.781 276.231 335.6 276.231H389.069C395.889 276.231 401.468 270.652 401.468 263.832V222.925C401.468 216.106 407.048 210.526 413.867 210.526H556.516M149.298 416.235V392.973C149.298 386.154 154.877 380.575 161.697 380.575H211.05C217.87 380.575 223.449 375.171 223.449 368.566C223.449 361.962 229.029 356.558 235.848 356.558H369.682C376.502 356.558 382.081 350.979 382.081 344.159V322.907C382.081 316.087 387.661 310.507 394.48 310.507H482.589C489.409 310.507 494.988 316.087 494.988 322.907V338.337C494.988 345.156 500.568 350.736 507.387 350.736H560.487" stroke="#A1D6E0" stroke-width="0.868277" stroke-miterlimit="10"/>
<path d="M308.132 356.558C308.132 357.461 307.4 358.193 306.497 358.193C305.594 358.193 304.861 357.461 304.861 356.558C304.861 355.655 305.594 354.923 306.497 354.923C307.4 354.923 308.132 355.655 308.132 356.558Z" fill="#FF4247"/>
<path d="M336.616 367.797C336.616 368.7 335.884 369.432 334.981 369.432C334.078 369.432 333.346 368.7 333.346 367.797C333.346 366.894 334.078 366.162 334.981 366.162C335.884 366.162 336.616 366.894 336.616 367.797Z" fill="#FF4247"/>
<path d="M362.574 276.231C362.574 277.134 361.842 277.866 360.939 277.866C360.036 277.866 359.304 277.134 359.304 276.231C359.304 275.328 360.036 274.596 360.939 274.596C361.842 274.596 362.574 275.328 362.574 276.231Z" fill="#FF4247"/>
<path d="M325 256.853C325 257.756 324.268 258.488 323.365 258.488C322.462 258.488 321.729 257.756 321.729 256.853C321.729 255.95 322.462 255.218 323.365 255.218C324.268 255.218 325 255.95 325 256.853Z" fill="#FF4247"/>
<path d="M222.419 284.364C222.419 285.267 221.687 285.999 220.784 285.999C219.881 285.999 219.149 285.267 219.149 284.364C219.149 283.461 219.881 282.729 220.784 282.729C221.687 282.729 222.419 283.461 222.419 284.364Z" fill="#FF4247"/>
<path d="M113.335 230.128C113.335 231.03 112.603 231.762 111.7 231.762C110.797 231.762 110.064 231.03 110.064 230.128C110.064 229.225 110.797 228.493 111.7 228.493C112.603 228.493 113.335 229.225 113.335 230.128Z" fill="#FF4247"/>
<path d="M243.54 124.744C243.54 125.647 242.808 126.379 241.905 126.379C241.002 126.379 240.27 125.647 240.27 124.744C240.27 123.841 241.002 123.109 241.905 123.109C242.808 123.109 243.54 123.841 243.54 124.744Z" fill="#FF4247"/>
<path d="M466.84 205.181C466.84 206.084 466.108 206.816 465.205 206.816C464.301 206.816 463.569 206.084 463.569 205.181C463.569 204.279 464.301 203.547 465.205 203.547C466.108 203.547 466.84 204.279 466.84 205.181Z" fill="#FF4247"/>
<path d="M402.988 226.258C402.988 227.161 402.256 227.893 401.353 227.893C400.45 227.893 399.718 227.161 399.718 226.258C399.718 225.355 400.45 224.623 401.353 224.623C402.256 224.623 402.988 225.355 402.988 226.258Z" fill="#FF4247"/>
<path d="M411.895 344.671C411.895 346.143 410.702 347.336 409.23 347.336C407.758 347.336 406.564 346.143 406.564 344.671C406.564 343.199 407.758 342.006 409.23 342.006C410.702 342.006 411.895 343.199 411.895 344.671Z" fill="#FF4247"/>
<path d="M383.372 344.295C383.58 345.174 383.036 346.055 382.157 346.262C381.278 346.469 380.397 345.925 380.19 345.046C379.982 344.168 380.526 343.287 381.405 343.079C382.284 342.872 383.165 343.416 383.372 344.295Z" fill="#FF4247"/>
<path d="M410.866 310.507C410.866 311.41 410.134 312.142 409.231 312.142C408.328 312.142 407.596 311.41 407.596 310.507C407.596 309.604 408.328 308.872 409.231 308.872C410.134 308.872 410.866 309.604 410.866 310.507Z" fill="#FF4247"/>
<path d="M404.017 256.853C404.017 258.325 402.824 259.519 401.352 259.519C399.88 259.519 398.687 258.325 398.687 256.853C398.687 255.381 399.88 254.188 401.352 254.188C402.824 254.188 404.017 255.381 404.017 256.853Z" fill="#FF4247"/>
<path d="M275.386 138.955C275.386 140.427 274.193 141.62 272.721 141.62C271.249 141.62 270.056 140.427 270.056 138.955C270.056 137.483 271.249 136.289 272.721 136.289C274.193 136.289 275.386 137.483 275.386 138.955Z" fill="#FF4247"/>
<path d="M256.293 356.558C256.293 358.03 255.099 359.223 253.627 359.223C252.155 359.223 250.962 358.03 250.962 356.558C250.962 355.086 252.155 353.893 253.627 353.893C255.099 353.893 256.293 355.086 256.293 356.558Z" fill="#FF4247"/>
<path d="M181.161 380.623C181.161 382.095 179.967 383.288 178.495 383.288C177.023 383.288 175.83 382.095 175.83 380.623C175.83 379.151 177.023 377.958 178.495 377.958C179.967 377.958 181.161 379.151 181.161 380.623Z" fill="#FF4247"/>
<path d="M275.386 182.607C275.386 184.079 274.193 185.272 272.721 185.272C271.249 185.272 270.056 184.079 270.056 182.607C270.056 181.135 271.249 179.941 272.721 179.941C274.193 179.941 275.386 181.135 275.386 182.607Z" fill="#FF4247"/>
<path d="M326.031 221.443C326.031 222.915 324.837 224.108 323.366 224.108C321.893 224.108 320.7 222.915 320.7 221.443C320.7 219.971 321.893 218.778 323.366 218.778C324.837 218.778 326.031 219.971 326.031 221.443Z" fill="#FF4247"/>
</g>
</svg>
